<svg xmlns="http://www.w3.org/2000/svg" xmlns:xlink="http://www.w3.org/1999/xlink" width="1080" zoomAndPan="magnify" viewBox="0 0 810 809.999993" height="1080" preserveAspectRatio="xMidYMid meet" version="1.0"><rect x="-81" width="972" fill="#ffffff" y="-80.999999" height="971.999992" fill-opacity="1"/><rect x="-81" width="972" fill="#11091a" y="-80.999999" height="971.999992" fill-opacity="1"/><path fill="#e8d18e" d="M 620.457031 597.976562 C 623.902344 594.398438 627.261719 590.734375 630.53125 586.988281 C 633.800781 583.242188 636.972656 579.417969 640.054688 575.515625 C 643.132812 571.613281 646.117188 567.636719 649 563.585938 C 651.882812 559.535156 654.664062 555.417969 657.34375 551.230469 C 660.027344 547.042969 662.601562 542.792969 665.070312 538.476562 C 667.542969 534.164062 669.90625 529.792969 672.160156 525.359375 C 674.414062 520.929688 676.558594 516.445312 678.59375 511.910156 C 680.628906 507.375 682.546875 502.789062 684.355469 498.15625 C 686.164062 493.527344 687.855469 488.855469 689.433594 484.140625 C 691.007812 479.425781 692.46875 474.671875 693.8125 469.886719 C 695.152344 465.101562 696.378906 460.28125 697.484375 455.4375 C 698.585938 450.589844 699.574219 445.71875 700.4375 440.820312 C 701.300781 435.925781 702.046875 431.011719 702.667969 426.078125 C 703.289062 421.148438 703.789062 416.203125 704.167969 411.246094 C 704.546875 406.289062 704.800781 401.324219 704.933594 396.355469 C 705.066406 391.386719 705.078125 386.414062 704.96875 381.445312 C 704.855469 376.472656 704.621094 371.511719 704.261719 366.550781 C 703.90625 361.59375 703.425781 356.644531 702.828125 351.710938 C 702.226562 346.777344 701.503906 341.859375 700.660156 336.957031 C 699.816406 332.058594 698.851562 327.183594 697.769531 322.332031 C 696.683594 317.480469 695.480469 312.65625 694.160156 307.867188 C 692.835938 303.074219 691.398438 298.316406 689.839844 293.59375 C 688.285156 288.871094 686.613281 284.191406 684.824219 279.554688 C 683.035156 274.914062 681.136719 270.324219 679.121094 265.777344 C 677.105469 261.230469 674.980469 256.738281 672.746094 252.300781 C 670.511719 247.859375 668.167969 243.476562 665.714844 239.152344 C 663.261719 234.828125 660.703125 230.566406 658.042969 226.367188 C 655.378906 222.167969 652.613281 218.039062 649.75 213.976562 C 646.882812 209.914062 643.917969 205.925781 640.855469 202.007812 C 637.792969 198.09375 634.632812 194.253906 631.382812 190.492188 C 628.128906 186.734375 624.785156 183.054688 621.351562 179.460938 C 617.917969 175.867188 614.398438 172.359375 610.792969 168.9375 C 607.183594 165.515625 603.496094 162.183594 599.722656 158.945312 C 595.953125 155.703125 592.105469 152.558594 588.175781 149.511719 C 584.25 146.460938 580.25 143.511719 576.179688 140.65625 C 572.109375 137.804688 567.96875 135.054688 563.761719 132.40625 C 559.550781 129.757812 555.28125 127.214844 550.949219 124.777344 C 546.617188 122.339844 542.226562 120.011719 537.777344 117.792969 C 533.328125 115.570312 528.828125 113.460938 524.277344 111.460938 C 519.722656 109.464844 515.125 107.578125 510.480469 105.804688 C 505.835938 104.035156 501.148438 102.378906 496.421875 100.835938 C 491.695312 99.296875 486.933594 97.875 482.136719 96.566406 C 477.339844 95.261719 472.511719 94.074219 467.65625 93.007812 C 462.800781 91.941406 457.921875 90.992188 453.019531 90.164062 C 448.117188 89.339844 443.199219 88.632812 438.261719 88.050781 C 433.324219 87.464844 428.375 87.003906 423.414062 86.664062 C 418.453125 86.324219 413.488281 86.105469 408.519531 86.011719 C 403.546875 85.914062 398.578125 85.941406 393.609375 86.09375 C 388.636719 86.242188 383.675781 86.515625 378.71875 86.910156 C 373.765625 87.304688 368.820312 87.820312 363.890625 88.460938 C 358.960938 89.101562 354.046875 89.859375 349.15625 90.742188 C 344.261719 91.621094 339.394531 92.625 334.550781 93.746094 C 329.707031 94.867188 324.894531 96.105469 320.109375 97.464844 C 315.328125 98.824219 310.582031 100.300781 305.875 101.890625 C 301.164062 103.484375 296.496094 105.191406 291.871094 107.015625 C 287.246094 108.839844 282.667969 110.777344 278.136719 112.824219 C 273.609375 114.875 269.132812 117.03125 264.707031 119.304688 C 260.285156 121.574219 255.921875 123.949219 251.613281 126.4375 C 247.308594 128.921875 243.066406 131.511719 238.890625 134.207031 C 234.710938 136.898438 230.601562 139.695312 226.5625 142.59375 C 222.519531 145.488281 218.554688 148.484375 214.664062 151.578125 C 210.769531 154.671875 206.957031 157.859375 203.222656 161.140625 C 199.484375 164.421875 195.832031 167.792969 192.265625 171.253906 C 188.695312 174.714844 185.214844 178.261719 181.820312 181.894531 C 178.425781 185.527344 175.125 189.242188 171.914062 193.035156 C 168.703125 196.832031 165.589844 200.707031 162.570312 204.65625 C 159.550781 208.605469 156.628906 212.625 153.808594 216.71875 C 150.988281 220.8125 148.269531 224.972656 145.652344 229.203125 C 143.039062 233.429688 140.527344 237.71875 138.125 242.070312 C 135.71875 246.421875 133.421875 250.832031 131.238281 255.296875 C 129.050781 259.761719 126.976562 264.277344 125.011719 268.84375 C 123.046875 273.410156 121.199219 278.023438 119.460938 282.683594 C 117.726562 287.339844 116.105469 292.039062 114.601562 296.777344 C 113.097656 301.515625 111.710938 306.289062 110.441406 311.097656 C 109.171875 315.902344 108.023438 320.738281 106.992188 325.601562 C 105.960938 330.464844 105.050781 335.351562 104.261719 340.257812 C 103.472656 345.167969 102.804688 350.09375 102.257812 355.035156 C 101.710938 359.976562 101.289062 364.925781 100.984375 369.890625 C 100.683594 374.851562 100.503906 379.820312 100.449219 384.789062 C 100.390625 389.761719 100.457031 394.730469 100.644531 399.699219 C 100.832031 404.667969 101.144531 409.628906 101.578125 414.578125 C 102.007812 419.53125 102.566406 424.472656 103.242188 429.398438 C 103.917969 434.320312 104.714844 439.226562 105.632812 444.113281 C 106.554688 449 107.589844 453.859375 108.75 458.695312 C 109.910156 463.527344 111.1875 468.332031 112.582031 473.105469 C 113.976562 477.875 115.488281 482.609375 117.117188 487.304688 C 118.746094 492.003906 120.492188 496.65625 122.351562 501.269531 C 124.207031 505.878906 126.179688 510.441406 128.265625 514.957031 C 130.347656 519.46875 132.542969 523.929688 134.84375 528.335938 C 137.148438 532.738281 139.558594 537.085938 142.078125 541.371094 C 144.597656 545.660156 147.21875 549.882812 149.945312 554.039062 C 152.671875 558.195312 155.5 562.28125 158.429688 566.300781 C 161.355469 570.316406 164.382812 574.261719 167.503906 578.128906 C 170.628906 582 173.84375 585.789062 177.152344 589.496094 C 180.464844 593.207031 183.863281 596.832031 187.351562 600.375 C 190.839844 603.917969 194.414062 607.371094 198.074219 610.734375 L 180.949219 685.679688 C 180.710938 686.730469 180.527344 687.792969 180.402344 688.863281 C 180.273438 689.929688 180.203125 691.003906 180.1875 692.082031 C 180.171875 693.160156 180.210938 694.234375 180.308594 695.304688 C 180.40625 696.378906 180.558594 697.445312 180.765625 698.5 C 180.972656 699.558594 181.234375 700.601562 181.550781 701.628906 C 181.867188 702.660156 182.238281 703.671875 182.660156 704.660156 C 183.082031 705.652344 183.554688 706.617188 184.078125 707.558594 C 184.601562 708.5 185.175781 709.414062 185.792969 710.292969 C 186.410156 711.175781 187.074219 712.023438 187.78125 712.835938 C 188.488281 713.648438 189.234375 714.421875 190.023438 715.15625 C 190.8125 715.890625 191.636719 716.582031 192.496094 717.230469 C 193.355469 717.878906 194.246094 718.484375 195.167969 719.039062 C 196.09375 719.59375 197.042969 720.097656 198.019531 720.554688 C 198.992188 721.011719 199.992188 721.417969 201.007812 721.769531 C 202.027344 722.121094 203.058594 722.417969 204.109375 722.664062 C 205.15625 722.90625 206.21875 723.097656 207.285156 723.230469 C 208.5 723.230469 209.710938 723.441406 210.890625 723.441406 C 212.671875 723.402344 214.433594 723.214844 216.179688 722.882812 C 217.925781 722.546875 219.632812 722.074219 221.300781 721.457031 C 222.96875 720.835938 224.574219 720.085938 226.117188 719.203125 C 227.660156 718.316406 229.117188 717.308594 230.492188 716.183594 C 231.867188 715.054688 233.136719 713.820312 234.308594 712.480469 C 235.476562 711.140625 236.527344 709.714844 237.460938 708.199219 C 238.390625 706.683594 239.191406 705.101562 239.859375 703.453125 C 240.527344 701.808594 241.054688 700.117188 241.441406 698.378906 L 252.382812 650.585938 C 255.417969 652.339844 258.484375 654.035156 261.582031 655.679688 C 264.675781 657.324219 267.800781 658.914062 270.949219 660.449219 C 274.101562 661.984375 277.28125 663.460938 280.480469 664.886719 C 283.683594 666.308594 286.914062 667.675781 290.164062 668.988281 C 293.414062 670.300781 296.6875 671.554688 299.980469 672.75 C 303.277344 673.945312 306.589844 675.085938 309.925781 676.167969 C 313.257812 677.246094 316.609375 678.269531 319.980469 679.234375 C 323.351562 680.199219 326.738281 681.101562 330.136719 681.949219 C 333.539062 682.792969 336.957031 683.578125 340.386719 684.304688 C 343.8125 685.03125 347.253906 685.695312 350.707031 686.304688 C 354.160156 686.910156 357.621094 687.453125 361.09375 687.9375 C 364.566406 688.425781 368.042969 688.847656 371.53125 689.210938 C 375.015625 689.574219 378.507812 689.878906 382.003906 690.117188 C 385.5 690.359375 389 690.539062 392.503906 690.660156 C 396.007812 690.777344 399.511719 690.835938 403.015625 690.832031 C 406.523438 690.828125 410.027344 690.765625 413.53125 690.640625 C 417.03125 690.511719 420.53125 690.328125 424.027344 690.078125 C 427.523438 689.832031 431.015625 689.519531 434.5 689.152344 C 437.988281 688.78125 441.464844 688.351562 444.9375 687.859375 C 448.40625 687.367188 451.867188 686.816406 455.320312 686.203125 C 458.769531 685.589844 462.210938 684.917969 465.636719 684.183594 C 469.066406 683.453125 472.480469 682.660156 475.878906 681.808594 C 479.277344 680.957031 482.664062 680.046875 486.03125 679.074219 C 489.398438 678.105469 492.75 677.074219 496.082031 675.988281 C 499.414062 674.902344 502.726562 673.757812 506.019531 672.554688 C 509.3125 671.351562 512.582031 670.089844 515.828125 668.773438 C 519.078125 667.457031 522.300781 666.082031 525.503906 664.652344 C 528.703125 663.222656 531.875 661.738281 535.023438 660.195312 C 538.171875 658.65625 541.292969 657.058594 544.386719 655.410156 C 547.480469 653.761719 550.542969 652.054688 553.574219 650.300781 C 556.609375 648.542969 559.609375 646.734375 562.578125 644.871094 C 565.550781 643.011719 568.484375 641.097656 571.390625 639.132812 L 589.574219 677.984375 C 590.195312 679.3125 590.90625 680.589844 591.707031 681.8125 C 592.507812 683.039062 593.394531 684.203125 594.359375 685.304688 C 595.328125 686.40625 596.367188 687.433594 597.480469 688.386719 C 598.59375 689.339844 599.769531 690.207031 601.003906 690.996094 C 602.242188 691.78125 603.527344 692.476562 604.863281 693.082031 C 606.199219 693.683594 607.570312 694.191406 608.976562 694.601562 C 610.382812 695.011719 611.8125 695.316406 613.261719 695.523438 C 614.714844 695.730469 616.171875 695.835938 617.636719 695.832031 C 618.28125 695.832031 618.925781 695.808594 619.566406 695.765625 C 620.210938 695.722656 620.851562 695.660156 621.492188 695.574219 C 622.128906 695.492188 622.765625 695.390625 623.398438 695.265625 C 624.03125 695.144531 624.660156 695 625.28125 694.839844 C 625.90625 694.675781 626.523438 694.496094 627.136719 694.292969 C 627.75 694.09375 628.355469 693.875 628.953125 693.636719 C 629.550781 693.398438 630.140625 693.140625 630.722656 692.863281 C 631.308594 692.589844 631.878906 692.296875 632.445312 691.984375 C 633.007812 691.671875 633.5625 691.34375 634.105469 690.996094 C 634.648438 690.652344 635.183594 690.289062 635.703125 689.910156 C 636.222656 689.53125 636.730469 689.132812 637.226562 688.722656 C 637.722656 688.3125 638.207031 687.886719 638.675781 687.445312 C 639.148438 687.003906 639.601562 686.546875 640.042969 686.078125 C 640.484375 685.609375 640.910156 685.125 641.320312 684.628906 C 641.730469 684.132812 642.125 683.621094 642.503906 683.101562 C 642.882812 682.582031 643.246094 682.046875 643.59375 681.503906 C 643.9375 680.960938 644.265625 680.40625 644.578125 679.84375 C 644.886719 679.277344 645.179688 678.703125 645.457031 678.121094 C 645.730469 677.539062 645.988281 676.949219 646.226562 676.347656 C 646.464844 675.75 646.683594 675.144531 646.882812 674.53125 C 647.085938 673.917969 647.265625 673.300781 647.425781 672.679688 C 647.589844 672.054688 647.730469 671.425781 647.851562 670.792969 C 647.976562 670.160156 648.078125 669.523438 648.160156 668.886719 C 648.242188 668.246094 648.304688 667.605469 648.347656 666.960938 C 648.390625 666.320312 648.414062 665.675781 648.414062 665.03125 C 648.417969 664.386719 648.398438 663.742188 648.363281 663.101562 C 648.324219 662.457031 648.265625 661.816406 648.1875 661.175781 C 648.109375 660.535156 648.011719 659.898438 647.894531 659.265625 C 647.777344 658.632812 647.636719 658.003906 647.480469 657.378906 C 647.324219 656.753906 647.148438 656.132812 646.953125 655.519531 C 646.753906 654.90625 646.539062 654.300781 646.304688 653.699219 C 646.074219 653.097656 645.820312 652.507812 645.550781 651.921875 Z M 562.328125 619.585938 C 559.566406 621.5 556.769531 623.367188 553.941406 625.183594 C 551.109375 627 548.25 628.765625 545.355469 630.476562 C 542.464844 632.1875 539.539062 633.847656 536.585938 635.457031 C 533.636719 637.0625 530.652344 638.617188 527.644531 640.117188 C 524.636719 641.617188 521.601562 643.0625 518.539062 644.453125 C 515.480469 645.84375 512.394531 647.175781 509.285156 648.457031 C 506.175781 649.734375 503.046875 650.957031 499.890625 652.125 C 496.738281 653.289062 493.566406 654.398438 490.371094 655.453125 C 487.179688 656.503906 483.96875 657.496094 480.738281 658.433594 C 477.511719 659.367188 474.265625 660.246094 471.003906 661.066406 C 467.746094 661.882812 464.46875 662.644531 461.183594 663.34375 C 457.894531 664.046875 454.59375 664.6875 451.285156 665.269531 C 447.972656 665.851562 444.652344 666.375 441.320312 666.835938 C 437.992188 667.300781 434.652344 667.703125 431.308594 668.042969 C 427.964844 668.386719 424.617188 668.667969 421.261719 668.886719 C 417.90625 669.109375 414.550781 669.269531 411.1875 669.371094 C 407.828125 669.46875 404.46875 669.511719 401.105469 669.488281 C 397.742188 669.46875 394.382812 669.386719 391.023438 669.246094 C 387.664062 669.101562 384.308594 668.898438 380.957031 668.636719 C 377.605469 668.375 374.261719 668.050781 370.921875 667.667969 C 367.582031 667.28125 364.25 666.839844 360.925781 666.335938 C 357.601562 665.832031 354.285156 665.265625 350.984375 664.644531 C 347.679688 664.019531 344.386719 663.335938 341.109375 662.59375 C 337.832031 661.851562 334.566406 661.050781 331.316406 660.191406 C 328.066406 659.332031 324.832031 658.414062 321.613281 657.4375 C 318.398438 656.460938 315.199219 655.429688 312.019531 654.335938 C 308.839844 653.246094 305.679688 652.097656 302.542969 650.890625 C 299.402344 649.6875 296.289062 648.425781 293.195312 647.105469 C 290.101562 645.789062 287.035156 644.414062 283.992188 642.988281 C 280.949219 641.558594 277.929688 640.074219 274.941406 638.539062 C 271.953125 637 268.992188 635.410156 266.058594 633.765625 C 263.125 632.121094 260.222656 630.425781 257.351562 628.675781 L 268.566406 579.613281 C 271.054688 581.367188 273.578125 583.074219 276.132812 584.730469 C 278.6875 586.386719 281.273438 587.992188 283.894531 589.546875 C 286.511719 591.101562 289.160156 592.601562 291.839844 594.050781 C 294.515625 595.503906 297.21875 596.902344 299.953125 598.246094 C 302.6875 599.589844 305.445312 600.878906 308.226562 602.113281 C 311.011719 603.351562 313.816406 604.53125 316.644531 605.65625 C 319.476562 606.78125 322.328125 607.851562 325.199219 608.867188 C 328.070312 609.878906 330.960938 610.835938 333.871094 611.738281 C 336.777344 612.636719 339.703125 613.480469 342.644531 614.265625 C 345.589844 615.050781 348.546875 615.777344 351.515625 616.449219 C 354.488281 617.117188 357.46875 617.726562 360.464844 618.277344 C 363.460938 618.832031 366.464844 619.324219 369.476562 619.757812 C 372.492188 620.191406 375.515625 620.566406 378.542969 620.882812 C 381.570312 621.199219 384.605469 621.453125 387.644531 621.648438 C 390.683594 621.84375 393.726562 621.980469 396.769531 622.058594 C 399.8125 622.136719 402.859375 622.152344 405.902344 622.109375 C 408.949219 622.066406 411.992188 621.964844 415.03125 621.800781 C 418.074219 621.640625 421.109375 621.417969 424.144531 621.136719 C 427.175781 620.855469 430.199219 620.511719 433.21875 620.113281 C 436.238281 619.710938 439.25 619.253906 442.25 618.734375 C 445.25 618.214844 448.238281 617.636719 451.21875 617 C 454.195312 616.367188 457.160156 615.671875 460.109375 614.917969 C 463.0625 614.167969 465.996094 613.355469 468.914062 612.488281 C 471.835938 611.621094 474.734375 610.695312 477.617188 609.714844 C 480.5 608.730469 483.363281 607.695312 486.207031 606.601562 C 489.046875 605.503906 491.867188 604.355469 494.664062 603.152344 C 497.460938 601.945312 500.230469 600.6875 502.980469 599.375 C 505.726562 598.058594 508.449219 596.691406 511.140625 595.273438 C 513.835938 593.851562 516.5 592.378906 519.136719 590.851562 C 521.769531 589.328125 524.375 587.75 526.949219 586.125 C 529.523438 584.496094 532.0625 582.820312 534.570312 581.089844 C 537.082031 579.363281 539.554688 577.589844 541.992188 575.765625 Z M 209.953125 702.136719 C 209.277344 702.0625 208.621094 701.914062 207.976562 701.699219 C 207.335938 701.484375 206.722656 701.203125 206.136719 700.855469 C 205.554688 700.511719 205.011719 700.109375 204.511719 699.648438 C 204.015625 699.191406 203.570312 698.683594 203.175781 698.128906 C 202.785156 697.578125 202.457031 696.988281 202.1875 696.367188 C 201.921875 695.742188 201.71875 695.097656 201.589844 694.433594 C 201.457031 693.769531 201.394531 693.097656 201.40625 692.417969 C 201.417969 691.738281 201.496094 691.070312 201.648438 690.410156 L 293.296875 289.40625 C 294.960938 290.113281 296.59375 290.886719 298.191406 291.734375 C 299.789062 292.582031 301.347656 293.496094 302.867188 294.480469 C 304.382812 295.464844 305.855469 296.511719 307.28125 297.625 C 308.710938 298.734375 310.085938 299.90625 311.410156 301.136719 C 312.734375 302.371094 314 303.65625 315.214844 305 C 316.425781 306.34375 317.578125 307.734375 318.667969 309.179688 C 319.757812 310.621094 320.78125 312.109375 321.742188 313.640625 C 322.703125 315.171875 323.597656 316.746094 324.417969 318.355469 C 325.242188 319.964844 325.996094 321.609375 326.675781 323.285156 C 327.355469 324.960938 327.960938 326.664062 328.492188 328.390625 C 329.023438 330.121094 329.476562 331.871094 329.855469 333.636719 C 330.234375 335.40625 330.535156 337.1875 330.757812 338.984375 C 330.980469 340.777344 331.125 342.578125 331.191406 344.386719 C 331.257812 346.195312 331.246094 348 331.152344 349.804688 C 331.0625 351.613281 330.890625 353.410156 330.644531 355.203125 C 330.394531 356.996094 330.066406 358.773438 329.664062 360.535156 L 296.144531 507.96875 C 294.980469 507.980469 293.816406 508.039062 292.65625 508.144531 C 291.496094 508.25 290.34375 508.40625 289.195312 508.609375 C 288.046875 508.8125 286.910156 509.0625 285.785156 509.363281 C 284.65625 509.660156 283.546875 510.003906 282.449219 510.394531 C 281.351562 510.789062 280.273438 511.222656 279.210938 511.707031 C 278.148438 512.1875 277.109375 512.710938 276.09375 513.28125 C 275.078125 513.847656 274.085938 514.457031 273.117188 515.109375 C 272.152344 515.761719 271.214844 516.453125 270.308594 517.183594 C 269.398438 517.910156 268.523438 518.679688 267.679688 519.480469 C 266.835938 520.285156 266.023438 521.121094 265.25 521.992188 C 264.476562 522.863281 263.738281 523.765625 263.042969 524.695312 C 262.34375 525.628906 261.683594 526.589844 261.066406 527.574219 C 260.445312 528.5625 259.871094 529.574219 259.335938 530.609375 C 258.800781 531.644531 258.3125 532.703125 257.867188 533.777344 C 257.421875 534.855469 257.023438 535.949219 256.667969 537.058594 C 256.3125 538.167969 256.007812 539.292969 255.746094 540.425781 L 220.742188 693.5625 C 220.632812 694.136719 220.476562 694.699219 220.273438 695.25 C 220.070312 695.800781 219.824219 696.328125 219.535156 696.839844 C 219.246094 697.347656 218.917969 697.832031 218.546875 698.289062 C 218.179688 698.742188 217.777344 699.164062 217.335938 699.554688 C 216.898438 699.945312 216.433594 700.296875 215.9375 700.609375 C 215.441406 700.921875 214.921875 701.191406 214.382812 701.417969 C 213.839844 701.644531 213.285156 701.828125 212.714844 701.960938 C 212.144531 702.097656 211.566406 702.1875 210.984375 702.226562 C 210.636719 702.230469 210.292969 702.199219 209.953125 702.136719 Z M 402.703125 107.421875 C 406.078125 107.421875 409.457031 107.484375 412.832031 107.605469 C 416.207031 107.726562 419.578125 107.910156 422.945312 108.152344 C 426.316406 108.394531 429.679688 108.699219 433.035156 109.066406 C 436.394531 109.429688 439.742188 109.855469 443.085938 110.339844 C 446.425781 110.824219 449.757812 111.371094 453.082031 111.976562 C 456.40625 112.582031 459.714844 113.246094 463.015625 113.96875 C 466.3125 114.695312 469.597656 115.480469 472.867188 116.324219 C 476.136719 117.164062 479.390625 118.066406 482.628906 119.027344 C 485.867188 119.988281 489.085938 121.007812 492.289062 122.082031 C 495.488281 123.160156 498.667969 124.292969 501.828125 125.484375 C 504.988281 126.675781 508.128906 127.925781 511.242188 129.230469 C 514.359375 130.535156 517.449219 131.894531 520.515625 133.308594 C 523.582031 134.726562 526.621094 136.195312 529.632812 137.722656 C 532.644531 139.246094 535.628906 140.828125 538.585938 142.460938 C 541.542969 144.09375 544.46875 145.777344 547.363281 147.519531 C 550.257812 149.257812 553.121094 151.046875 555.953125 152.886719 C 558.785156 154.730469 561.582031 156.621094 564.34375 158.566406 C 567.105469 160.507812 569.832031 162.5 572.523438 164.542969 C 575.214844 166.582031 577.867188 168.671875 580.480469 170.808594 C 583.097656 172.945312 585.671875 175.128906 588.210938 177.355469 C 590.746094 179.585938 593.242188 181.859375 595.695312 184.179688 C 598.152344 186.5 600.5625 188.863281 602.933594 191.269531 C 605.300781 193.675781 607.628906 196.125 609.910156 198.617188 C 612.191406 201.105469 614.425781 203.636719 616.613281 206.207031 C 618.804688 208.777344 620.949219 211.386719 623.042969 214.035156 C 625.140625 216.683594 627.1875 219.371094 629.183594 222.089844 C 631.183594 224.8125 633.132812 227.570312 635.03125 230.363281 C 636.933594 233.15625 638.78125 235.980469 640.578125 238.839844 C 642.375 241.699219 644.121094 244.589844 645.816406 247.511719 C 647.507812 250.433594 649.148438 253.386719 650.734375 256.367188 C 652.320312 259.347656 653.855469 262.355469 655.332031 265.394531 C 656.8125 268.429688 658.234375 271.492188 659.601562 274.578125 C 660.972656 277.667969 662.28125 280.777344 663.539062 283.914062 C 664.792969 287.046875 665.992188 290.203125 667.136719 293.382812 C 668.277344 296.5625 669.363281 299.757812 670.386719 302.976562 C 671.414062 306.191406 672.382812 309.429688 673.292969 312.679688 C 674.203125 315.933594 675.054688 319.199219 675.847656 322.484375 C 676.636719 325.765625 677.371094 329.0625 678.042969 332.371094 C 678.71875 335.679688 679.332031 339 679.882812 342.332031 C 680.4375 345.664062 680.933594 349.003906 681.363281 352.355469 C 681.796875 355.703125 682.171875 359.058594 682.484375 362.421875 C 682.792969 365.785156 683.046875 369.152344 683.238281 372.523438 C 683.425781 375.894531 683.558594 379.269531 683.625 382.644531 C 683.695312 386.023438 683.703125 389.398438 683.652344 392.777344 C 683.597656 396.152344 683.484375 399.527344 683.308594 402.898438 C 683.136719 406.273438 682.898438 409.640625 682.605469 413.003906 C 682.308594 416.367188 681.953125 419.726562 681.535156 423.078125 C 681.117188 426.429688 680.640625 429.773438 680.101562 433.105469 C 679.566406 436.441406 678.96875 439.761719 678.308594 443.074219 C 677.652344 446.386719 676.9375 449.6875 676.160156 452.976562 C 675.382812 456.261719 674.546875 459.53125 673.652344 462.789062 C 672.757812 466.046875 671.804688 469.285156 670.796875 472.507812 C 669.785156 475.730469 668.714844 478.933594 667.589844 482.117188 C 666.460938 485.300781 665.277344 488.460938 664.039062 491.605469 C 662.796875 494.746094 661.5 497.863281 660.148438 500.957031 C 658.792969 504.050781 657.386719 507.121094 655.921875 510.164062 C 654.457031 513.207031 652.9375 516.222656 651.367188 519.210938 C 649.792969 522.199219 648.167969 525.160156 646.488281 528.089844 C 644.808594 531.019531 643.078125 533.917969 641.292969 536.785156 C 639.511719 539.652344 637.675781 542.488281 635.789062 545.289062 C 633.902344 548.089844 631.96875 550.855469 629.980469 553.589844 C 627.996094 556.320312 625.960938 559.015625 623.878906 561.675781 C 621.796875 564.332031 619.664062 566.953125 617.488281 569.535156 C 615.308594 572.113281 613.085938 574.65625 610.816406 577.15625 L 588.664062 529.519531 C 591.453125 525.839844 594.132812 522.085938 596.703125 518.25 C 599.269531 514.417969 601.722656 510.507812 604.058594 506.527344 C 606.398438 502.550781 608.613281 498.503906 610.710938 494.390625 C 612.808594 490.28125 614.78125 486.109375 616.628906 481.882812 C 618.480469 477.652344 620.203125 473.375 621.800781 469.042969 C 623.394531 464.710938 624.863281 460.339844 626.199219 455.921875 C 627.535156 451.503906 628.742188 447.050781 629.8125 442.5625 C 630.886719 438.074219 631.824219 433.554688 632.632812 429.011719 C 633.4375 424.46875 634.105469 419.902344 634.640625 415.316406 C 635.175781 410.734375 635.574219 406.136719 635.835938 401.53125 C 636.097656 396.921875 636.222656 392.308594 636.214844 387.695312 C 636.203125 383.078125 636.054688 378.46875 635.769531 373.863281 C 635.488281 369.253906 635.066406 364.660156 634.507812 360.078125 C 633.953125 355.5 633.261719 350.9375 632.433594 346.398438 C 631.609375 341.855469 630.648438 337.34375 629.550781 332.859375 C 628.457031 328.375 627.230469 323.929688 625.875 319.519531 C 624.515625 315.105469 623.027344 310.738281 621.414062 306.417969 C 619.796875 302.09375 618.050781 297.824219 616.183594 293.601562 C 614.3125 289.382812 612.320312 285.222656 610.203125 281.121094 C 608.085938 277.019531 605.851562 272.984375 603.496094 269.015625 C 601.140625 265.046875 598.667969 261.152344 596.082031 257.328125 C 593.496094 253.503906 590.796875 249.761719 587.988281 246.101562 C 585.179688 242.4375 582.265625 238.863281 579.246094 235.371094 C 576.226562 231.882812 573.105469 228.484375 569.882812 225.179688 C 566.664062 221.875 563.34375 218.667969 559.933594 215.558594 C 556.523438 212.449219 553.019531 209.445312 549.429688 206.542969 C 545.839844 203.644531 542.167969 200.851562 538.414062 198.167969 C 534.660156 195.484375 530.828125 192.914062 526.917969 190.460938 C 523.011719 188.003906 519.035156 185.664062 514.988281 183.445312 C 510.941406 181.222656 506.835938 179.125 502.664062 177.148438 C 498.492188 175.171875 494.269531 173.316406 489.988281 171.589844 C 485.707031 169.863281 481.378906 168.265625 477.003906 166.796875 C 472.628906 165.324219 468.214844 163.988281 463.761719 162.777344 C 459.304688 161.570312 454.820312 160.492188 450.300781 159.550781 C 445.78125 158.609375 441.242188 157.800781 436.675781 157.128906 C 432.109375 156.453125 427.527344 155.914062 422.929688 155.515625 C 418.332031 155.113281 413.726562 154.847656 409.109375 154.71875 C 404.496094 154.589844 399.882812 154.597656 395.269531 154.742188 C 390.65625 154.886719 386.050781 155.164062 381.457031 155.582031 C 376.859375 156 372.277344 156.554688 367.714844 157.242188 C 363.152344 157.929688 358.613281 158.753906 354.097656 159.710938 C 349.582031 160.667969 345.097656 161.761719 340.648438 162.984375 C 336.199219 164.207031 331.789062 165.5625 327.417969 167.046875 C 323.046875 168.53125 318.726562 170.144531 314.453125 171.886719 C 310.175781 173.625 305.957031 175.492188 301.792969 177.484375 C 297.628906 179.472656 293.527344 181.585938 289.488281 183.820312 C 285.449219 186.054688 281.480469 188.40625 277.582031 190.875 C 273.683594 193.34375 269.859375 195.925781 266.113281 198.625 C 262.367188 201.320312 258.703125 204.125 255.125 207.035156 C 251.542969 209.949219 248.054688 212.964844 244.652344 216.085938 C 241.25 219.207031 237.945312 222.421875 234.734375 225.738281 C 231.523438 229.054688 228.414062 232.464844 225.40625 235.964844 C 222.398438 239.464844 219.496094 243.050781 216.699219 246.722656 C 213.902344 250.394531 211.21875 254.144531 208.644531 257.976562 C 206.070312 261.808594 203.613281 265.710938 201.269531 269.6875 C 198.925781 273.664062 196.703125 277.707031 194.601562 281.816406 C 192.5 285.925781 190.519531 290.089844 188.664062 294.316406 C 186.808594 298.542969 185.078125 302.820312 183.476562 307.148438 C 181.875 311.476562 180.402344 315.847656 179.058594 320.265625 C 177.714844 324.679688 176.503906 329.132812 175.425781 333.617188 C 174.347656 338.105469 173.402344 342.621094 172.589844 347.164062 C 171.777344 351.707031 171.101562 356.273438 170.558594 360.855469 C 170.019531 365.4375 169.613281 370.035156 169.34375 374.640625 C 169.074219 379.25 168.945312 383.859375 168.949219 388.476562 C 168.9375 394.792969 169.183594 401.101562 169.691406 407.398438 C 170.195312 413.695312 170.957031 419.960938 171.980469 426.195312 C 173 432.429688 174.273438 438.613281 175.800781 444.742188 C 177.328125 450.875 179.105469 456.929688 181.128906 462.914062 C 183.15625 468.898438 185.421875 474.789062 187.929688 480.589844 C 190.4375 486.386719 193.179688 492.074219 196.15625 497.644531 C 199.128906 503.21875 202.328125 508.660156 205.75 513.972656 C 209.171875 519.28125 212.804688 524.445312 216.652344 529.457031 L 203.46875 586.613281 C 201.035156 584.171875 198.648438 581.6875 196.304688 579.15625 C 193.964844 576.628906 191.671875 574.058594 189.421875 571.445312 C 187.175781 568.832031 184.976562 566.175781 182.828125 563.480469 C 180.679688 560.789062 178.582031 558.054688 176.53125 555.285156 C 174.484375 552.511719 172.488281 549.703125 170.542969 546.859375 C 168.597656 544.011719 166.703125 541.132812 164.867188 538.21875 C 163.027344 535.304688 161.242188 532.355469 159.511719 529.375 C 157.78125 526.394531 156.105469 523.382812 154.484375 520.34375 C 152.867188 517.300781 151.300781 514.230469 149.796875 511.128906 C 148.289062 508.03125 146.839844 504.902344 145.449219 501.75 C 144.054688 498.597656 142.722656 495.421875 141.449219 492.21875 C 140.171875 489.015625 138.957031 485.792969 137.800781 482.542969 C 136.644531 479.296875 135.550781 476.03125 134.515625 472.742188 C 133.476562 469.457031 132.503906 466.152344 131.589844 462.828125 C 130.675781 459.503906 129.824219 456.167969 129.03125 452.8125 C 128.238281 449.457031 127.511719 446.089844 126.84375 442.710938 C 126.175781 439.328125 125.570312 435.9375 125.027344 432.53125 C 124.488281 429.128906 124.007812 425.714844 123.589844 422.296875 C 123.171875 418.875 122.820312 415.445312 122.527344 412.011719 C 122.238281 408.578125 122.011719 405.140625 121.847656 401.695312 C 121.683594 398.253906 121.582031 394.808594 121.542969 391.363281 C 121.507812 387.917969 121.535156 384.472656 121.621094 381.027344 C 121.710938 377.582031 121.867188 374.140625 122.082031 370.699219 C 122.296875 367.257812 122.578125 363.824219 122.921875 360.394531 C 123.261719 356.964844 123.667969 353.542969 124.136719 350.128906 C 124.605469 346.714844 125.136719 343.3125 125.730469 339.917969 C 126.324219 336.519531 126.980469 333.136719 127.699219 329.769531 C 128.417969 326.398438 129.199219 323.039062 130.039062 319.699219 C 130.882812 316.355469 131.785156 313.03125 132.75 309.722656 C 133.714844 306.414062 134.738281 303.125 135.824219 299.851562 C 136.910156 296.582031 138.054688 293.332031 139.261719 290.101562 C 140.464844 286.875 141.730469 283.667969 143.054688 280.484375 C 144.375 277.304688 145.757812 274.148438 147.195312 271.015625 C 148.636719 267.882812 150.132812 264.78125 151.6875 261.703125 C 153.238281 258.625 154.851562 255.578125 156.515625 252.5625 C 158.179688 249.546875 159.902344 246.558594 161.675781 243.605469 C 163.453125 240.652344 165.28125 237.730469 167.164062 234.84375 C 169.050781 231.960938 170.984375 229.109375 172.972656 226.292969 C 174.960938 223.476562 177 220.699219 179.089844 217.960938 C 181.179688 215.21875 183.320312 212.519531 185.511719 209.855469 C 187.699219 207.195312 189.9375 204.574219 192.222656 201.996094 C 194.511719 199.417969 196.84375 196.882812 199.222656 194.386719 C 201.601562 191.894531 204.027344 189.445312 206.496094 187.042969 C 208.964844 184.636719 211.480469 182.28125 214.035156 179.96875 C 216.59375 177.65625 219.191406 175.394531 221.832031 173.179688 C 224.46875 170.960938 227.148438 168.796875 229.871094 166.679688 C 232.589844 164.5625 235.347656 162.496094 238.140625 160.480469 C 240.9375 158.464844 243.769531 156.5 246.636719 154.585938 C 249.503906 152.675781 252.40625 150.816406 255.34375 149.011719 C 258.28125 147.207031 261.25 145.457031 264.25 143.761719 C 267.25 142.066406 270.28125 140.429688 273.339844 138.84375 C 276.402344 137.261719 279.492188 135.734375 282.609375 134.261719 C 285.726562 132.792969 288.871094 131.378906 292.039062 130.027344 C 295.207031 128.671875 298.402344 127.375 301.617188 126.140625 C 304.835938 124.902344 308.074219 123.726562 311.332031 122.605469 C 314.59375 121.488281 317.875 120.433594 321.171875 119.433594 C 324.472656 118.4375 327.789062 117.5 331.121094 116.625 C 334.457031 115.75 337.804688 114.9375 341.167969 114.1875 C 344.53125 113.433594 347.90625 112.746094 351.296875 112.117188 C 354.6875 111.492188 358.085938 110.925781 361.496094 110.421875 C 364.90625 109.921875 368.324219 109.480469 371.75 109.105469 C 375.175781 108.726562 378.605469 108.414062 382.042969 108.164062 C 385.480469 107.914062 388.921875 107.726562 392.367188 107.605469 C 395.808594 107.480469 399.257812 107.421875 402.703125 107.421875 Z M 578.480469 507.726562 L 539.082031 423.296875 C 537.574219 420.261719 536.378906 417.109375 535.496094 413.839844 C 534.609375 410.570312 534.054688 407.246094 533.824219 403.863281 C 533.59375 400.484375 533.699219 397.113281 534.136719 393.753906 C 534.570312 390.394531 535.332031 387.109375 536.414062 383.898438 C 537.933594 379.898438 539.035156 375.785156 539.726562 371.5625 C 540.417969 367.335938 540.683594 363.085938 540.519531 358.808594 C 540.355469 354.535156 539.765625 350.316406 538.753906 346.15625 C 537.742188 342 536.324219 337.980469 534.503906 334.109375 L 499.320312 258.042969 C 498.710938 256.761719 497.882812 255.640625 496.832031 254.6875 C 495.78125 253.734375 494.589844 253.011719 493.257812 252.527344 C 491.960938 252.070312 490.625 251.875 489.253906 251.9375 C 487.878906 252 486.570312 252.316406 485.316406 252.890625 L 482.894531 254.011719 C 482.378906 254.25 481.886719 254.53125 481.417969 254.847656 C 480.945312 255.164062 480.503906 255.519531 480.089844 255.90625 C 479.675781 256.296875 479.296875 256.714844 478.949219 257.164062 C 478.605469 257.613281 478.292969 258.089844 478.023438 258.585938 C 477.753906 259.085938 477.523438 259.601562 477.335938 260.140625 C 477.144531 260.675781 477 261.222656 476.898438 261.78125 C 476.796875 262.339844 476.742188 262.902344 476.730469 263.46875 C 476.71875 264.035156 476.753906 264.601562 476.832031 265.164062 L 485.925781 327.957031 L 447.738281 275.253906 C 447.382812 274.753906 446.984375 274.289062 446.546875 273.859375 C 446.109375 273.429688 445.636719 273.039062 445.132812 272.6875 C 444.628906 272.339844 444.09375 272.035156 443.539062 271.78125 C 442.980469 271.523438 442.402344 271.316406 441.808594 271.160156 C 441.214844 271.003906 440.613281 270.898438 440 270.847656 C 439.390625 270.792969 438.777344 270.796875 438.164062 270.851562 C 437.554688 270.90625 436.953125 271.011719 436.359375 271.171875 C 435.765625 271.328125 435.191406 271.539062 434.632812 271.796875 C 434.074219 272.054688 433.546875 272.359375 433.042969 272.710938 C 432.539062 273.0625 432.066406 273.453125 431.632812 273.886719 C 431.195312 274.320312 430.800781 274.785156 430.445312 275.289062 C 430.089844 275.789062 429.78125 276.316406 429.519531 276.871094 C 429.253906 277.425781 429.042969 278 428.878906 278.59375 C 428.714844 279.183594 428.605469 279.785156 428.546875 280.398438 C 428.484375 281.007812 428.480469 281.621094 428.527344 282.234375 C 428.574219 282.84375 428.675781 283.449219 428.828125 284.042969 L 444.617188 347.078125 L 402.398438 299.742188 C 402.023438 299.320312 401.613281 298.929688 401.171875 298.574219 C 400.734375 298.21875 400.269531 297.898438 399.777344 297.617188 C 399.289062 297.335938 398.777344 297.09375 398.25 296.890625 C 397.722656 296.691406 397.179688 296.53125 396.625 296.417969 C 396.070312 296.300781 395.511719 296.230469 394.945312 296.203125 C 394.378906 296.179688 393.816406 296.199219 393.253906 296.261719 C 392.691406 296.324219 392.136719 296.433594 391.59375 296.585938 C 391.046875 296.734375 390.519531 296.929688 390.003906 297.164062 L 387.609375 298.289062 C 386.976562 298.582031 386.378906 298.933594 385.8125 299.34375 C 385.25 299.757812 384.730469 300.21875 384.257812 300.734375 C 383.78125 301.246094 383.363281 301.800781 383 302.398438 C 382.636719 302.992188 382.335938 303.621094 382.09375 304.273438 C 381.851562 304.929688 381.679688 305.605469 381.570312 306.292969 C 381.460938 306.984375 381.421875 307.675781 381.453125 308.375 C 381.480469 309.074219 381.578125 309.761719 381.742188 310.441406 C 381.90625 311.121094 382.132812 311.777344 382.425781 312.410156 L 417.765625 388.355469 C 419.554688 392.242188 421.714844 395.910156 424.246094 399.363281 C 426.773438 402.8125 429.621094 405.980469 432.785156 408.859375 C 435.953125 411.738281 439.371094 414.273438 443.046875 416.460938 C 446.722656 418.652344 450.578125 420.457031 454.617188 421.871094 C 457.785156 423.117188 460.796875 424.65625 463.660156 426.496094 C 466.523438 428.332031 469.179688 430.433594 471.628906 432.792969 C 474.078125 435.152344 476.273438 437.730469 478.214844 440.523438 C 480.15625 443.316406 481.808594 446.273438 483.167969 449.390625 L 532.839844 556.15625 C 530.550781 557.945312 528.222656 559.6875 525.863281 561.382812 C 523.503906 563.078125 521.109375 564.722656 518.679688 566.316406 C 516.25 567.914062 513.789062 569.457031 511.296875 570.949219 C 508.804688 572.445312 506.28125 573.886719 503.730469 575.277344 C 501.175781 576.667969 498.597656 578.003906 495.988281 579.285156 C 493.382812 580.570312 490.75 581.796875 488.09375 582.972656 C 485.433594 584.148438 482.753906 585.269531 480.046875 586.332031 C 477.34375 587.394531 474.621094 588.402344 471.875 589.355469 C 469.128906 590.308594 466.363281 591.203125 463.582031 592.039062 C 460.796875 592.878906 458 593.65625 455.183594 594.378906 C 452.371094 595.101562 449.542969 595.765625 446.699219 596.371094 C 443.855469 596.976562 441.003906 597.523438 438.136719 598.011719 C 435.273438 598.5 432.398438 598.925781 429.515625 599.296875 C 426.636719 599.664062 423.746094 599.976562 420.851562 600.226562 C 417.957031 600.476562 415.054688 600.664062 412.152344 600.796875 C 409.25 600.925781 406.34375 600.996094 403.4375 601.007812 C 400.535156 601.015625 397.628906 600.96875 394.722656 600.859375 C 391.820312 600.75 388.917969 600.582031 386.023438 600.351562 C 383.125 600.121094 380.234375 599.832031 377.347656 599.484375 C 374.464844 599.136719 371.585938 598.730469 368.71875 598.261719 C 365.851562 597.796875 362.992188 597.269531 360.148438 596.683594 C 357.300781 596.101562 354.46875 595.457031 351.648438 594.753906 C 348.828125 594.054688 346.023438 593.292969 343.234375 592.476562 C 340.445312 591.660156 337.675781 590.785156 334.921875 589.851562 C 332.167969 588.921875 329.4375 587.933594 326.726562 586.886719 C 324.015625 585.84375 321.324219 584.742188 318.65625 583.585938 C 315.992188 582.433594 313.351562 581.222656 310.734375 579.957031 C 308.117188 578.695312 305.527344 577.375 302.964844 576.003906 C 300.402344 574.632812 297.871094 573.210938 295.367188 571.734375 C 292.863281 570.257812 290.390625 568.730469 287.953125 567.152344 C 285.511719 565.574219 283.105469 563.949219 280.730469 562.269531 C 278.359375 560.59375 276.019531 558.867188 273.71875 557.09375 L 276.445312 545.15625 C 276.703125 544.035156 277.050781 542.941406 277.492188 541.878906 C 277.933594 540.816406 278.457031 539.796875 279.070312 538.820312 C 279.683594 537.847656 280.371094 536.929688 281.136719 536.070312 C 281.902344 535.210938 282.734375 534.425781 283.636719 533.707031 C 284.535156 532.988281 285.488281 532.347656 286.492188 531.789062 C 287.5 531.230469 288.546875 530.761719 289.628906 530.378906 C 290.714844 529.996094 291.824219 529.707031 292.960938 529.511719 C 294.09375 529.316406 295.238281 529.21875 296.386719 529.214844 C 298.171875 529.210938 299.929688 529.433594 301.660156 529.882812 C 303.050781 530.257812 304.460938 530.34375 305.890625 530.136719 C 307.316406 529.933594 308.644531 529.453125 309.875 528.699219 C 311.097656 527.953125 312.128906 526.996094 312.96875 525.835938 C 313.808594 524.675781 314.394531 523.398438 314.722656 522 L 350.546875 365.261719 C 350.847656 363.933594 351.121094 362.597656 351.359375 361.253906 C 351.597656 359.910156 351.800781 358.5625 351.976562 357.210938 C 352.148438 355.859375 352.285156 354.5 352.390625 353.140625 C 352.496094 351.78125 352.570312 350.421875 352.609375 349.058594 C 352.648438 347.695312 352.652344 346.332031 352.625 344.96875 C 352.597656 343.601562 352.535156 342.242188 352.441406 340.882812 C 352.34375 339.519531 352.214844 338.164062 352.054688 336.808594 C 351.894531 335.453125 351.699219 334.105469 351.46875 332.761719 C 351.242188 331.417969 350.980469 330.078125 350.6875 328.746094 C 350.394531 327.414062 350.066406 326.089844 349.710938 324.773438 C 349.351562 323.460938 348.960938 322.152344 348.535156 320.855469 C 348.113281 319.558594 347.660156 318.273438 347.171875 317 C 346.6875 315.726562 346.171875 314.464844 345.621094 313.214844 C 345.074219 311.964844 344.496094 310.730469 343.886719 309.511719 C 343.277344 308.289062 342.640625 307.085938 341.972656 305.898438 C 341.304688 304.707031 340.609375 303.535156 339.882812 302.378906 C 339.15625 301.226562 338.40625 300.089844 337.625 298.972656 C 336.84375 297.851562 336.035156 296.753906 335.199219 295.675781 C 334.363281 294.597656 333.503906 293.542969 332.617188 292.503906 C 331.730469 291.46875 330.816406 290.457031 329.878906 289.464844 C 328.945312 288.472656 327.984375 287.507812 327 286.5625 C 326.015625 285.617188 325.007812 284.699219 323.980469 283.804688 C 322.949219 282.910156 321.898438 282.039062 320.828125 281.199219 C 319.753906 280.355469 318.660156 279.539062 317.550781 278.75 C 316.4375 277.960938 315.308594 277.199219 314.15625 276.464844 C 313.007812 275.730469 311.839844 275.027344 310.65625 274.347656 C 309.472656 273.671875 308.273438 273.027344 307.054688 272.40625 C 305.839844 271.789062 304.609375 271.203125 303.363281 270.644531 C 302.121094 270.089844 300.863281 269.5625 299.589844 269.066406 C 298.320312 268.570312 297.039062 268.109375 295.746094 267.675781 C 294.453125 267.242188 293.148438 266.84375 291.835938 266.472656 C 290.523438 266.105469 289.199219 265.769531 287.871094 265.464844 C 287.082031 265.285156 286.285156 265.195312 285.476562 265.195312 C 284.878906 265.195312 284.285156 265.246094 283.699219 265.347656 C 283.109375 265.445312 282.535156 265.597656 281.972656 265.792969 C 281.40625 265.992188 280.863281 266.234375 280.34375 266.527344 C 279.820312 266.816406 279.328125 267.148438 278.859375 267.519531 C 278.394531 267.894531 277.960938 268.304688 277.566406 268.75 C 277.167969 269.195312 276.8125 269.671875 276.496094 270.175781 C 276.179688 270.683594 275.90625 271.214844 275.679688 271.765625 C 275.453125 272.316406 275.273438 272.882812 275.140625 273.46875 L 223.046875 501.394531 C 217.6875 492.996094 212.957031 484.261719 208.847656 475.1875 C 204.738281 466.113281 201.292969 456.796875 198.511719 447.230469 C 195.734375 437.664062 193.644531 427.953125 192.253906 418.089844 C 190.859375 408.226562 190.171875 398.316406 190.191406 388.355469 C 190.234375 384.902344 190.359375 381.453125 190.570312 378.007812 C 190.777344 374.5625 191.070312 371.125 191.449219 367.695312 C 191.824219 364.261719 192.285156 360.84375 192.828125 357.433594 C 193.371094 354.027344 193.996094 350.632812 194.707031 347.253906 C 195.414062 343.875 196.207031 340.515625 197.078125 337.175781 C 197.949219 333.835938 198.902344 330.519531 199.9375 327.226562 C 200.972656 323.933594 202.085938 320.667969 203.277344 317.429688 C 204.472656 314.191406 205.742188 310.980469 207.09375 307.804688 C 208.441406 304.628906 209.867188 301.484375 211.371094 298.378906 C 212.875 295.269531 214.449219 292.199219 216.101562 289.171875 C 217.753906 286.140625 219.480469 283.152344 221.277344 280.203125 C 223.074219 277.257812 224.945312 274.355469 226.882812 271.5 C 228.824219 268.644531 230.832031 265.839844 232.90625 263.082031 C 234.980469 260.324219 237.125 257.617188 239.332031 254.964844 C 241.539062 252.308594 243.808594 249.710938 246.144531 247.167969 C 248.480469 244.625 250.875 242.140625 253.328125 239.714844 C 255.785156 237.289062 258.296875 234.925781 260.867188 232.621094 C 263.4375 230.316406 266.0625 228.078125 268.742188 225.902344 C 271.421875 223.726562 274.15625 221.617188 276.9375 219.574219 C 279.71875 217.53125 282.550781 215.554688 285.429688 213.652344 C 288.308594 211.746094 291.230469 209.914062 294.199219 208.152344 C 297.167969 206.386719 300.175781 204.699219 303.226562 203.082031 C 306.277344 201.46875 309.367188 199.925781 312.492188 198.460938 C 315.617188 196.996094 318.777344 195.609375 321.96875 194.296875 C 325.160156 192.984375 328.386719 191.753906 331.636719 190.597656 C 334.890625 189.445312 338.171875 188.367188 341.476562 187.375 C 344.78125 186.378906 348.109375 185.464844 351.460938 184.632812 C 354.808594 183.800781 358.179688 183.050781 361.5625 182.382812 C 364.949219 181.714844 368.351562 181.128906 371.765625 180.625 C 375.183594 180.125 378.609375 179.703125 382.042969 179.367188 C 385.480469 179.03125 388.921875 178.78125 392.367188 178.613281 C 395.816406 178.445312 399.265625 178.359375 402.71875 178.359375 C 406.167969 178.359375 409.621094 178.445312 413.066406 178.613281 C 416.515625 178.78125 419.957031 179.03125 423.390625 179.367188 C 426.828125 179.703125 430.253906 180.125 433.667969 180.625 C 437.082031 181.128906 440.484375 181.714844 443.871094 182.382812 C 447.257812 183.050781 450.625 183.800781 453.976562 184.632812 C 457.324219 185.464844 460.652344 186.378906 463.960938 187.375 C 467.265625 188.367188 470.542969 189.445312 473.796875 190.597656 C 477.050781 191.753906 480.273438 192.984375 483.464844 194.296875 C 486.660156 195.609375 489.820312 196.996094 492.945312 198.460938 C 496.070312 199.925781 499.15625 201.46875 502.207031 203.082031 C 505.257812 204.699219 508.269531 206.386719 511.234375 208.152344 C 514.203125 209.914062 517.128906 211.746094 520.007812 213.652344 C 522.882812 215.554688 525.714844 217.53125 528.496094 219.574219 C 531.28125 221.617188 534.011719 223.726562 536.691406 225.902344 C 539.371094 228.078125 541.996094 230.316406 544.566406 232.621094 C 547.136719 234.925781 549.652344 237.289062 552.105469 239.714844 C 554.5625 242.140625 556.957031 244.625 559.289062 247.167969 C 561.625 249.710938 563.894531 252.308594 566.105469 254.964844 C 568.3125 257.617188 570.453125 260.324219 572.53125 263.082031 C 574.605469 265.839844 576.613281 268.644531 578.550781 271.5 C 580.492188 274.355469 582.359375 277.257812 584.15625 280.203125 C 585.957031 283.152344 587.679688 286.140625 589.332031 289.171875 C 590.984375 292.199219 592.5625 295.269531 594.066406 298.378906 C 595.566406 301.484375 596.992188 304.628906 598.34375 307.804688 C 599.691406 310.980469 600.964844 314.191406 602.15625 317.429688 C 603.351562 320.667969 604.464844 323.933594 605.496094 327.226562 C 606.53125 330.519531 607.484375 333.835938 608.355469 337.175781 C 609.230469 340.515625 610.019531 343.875 610.730469 347.253906 C 611.4375 350.632812 612.0625 354.027344 612.605469 357.433594 C 613.152344 360.84375 613.609375 364.261719 613.988281 367.695312 C 614.363281 371.125 614.65625 374.5625 614.867188 378.007812 C 615.074219 381.453125 615.199219 384.902344 615.242188 388.355469 C 615.28125 398.945312 614.523438 409.480469 612.964844 419.957031 C 611.410156 430.433594 609.074219 440.734375 605.957031 450.855469 C 602.839844 460.980469 598.976562 470.808594 594.371094 480.347656 C 589.765625 489.886719 584.46875 499.023438 578.480469 507.757812 Z M 461.738281 401.839844 C 459.027344 400.894531 456.441406 399.6875 453.972656 398.21875 C 451.503906 396.746094 449.210938 395.046875 447.085938 393.117188 C 444.960938 391.183594 443.050781 389.058594 441.355469 386.742188 C 439.65625 384.425781 438.210938 381.964844 437.007812 379.355469 L 428.28125 360.625 L 447.40625 382.050781 C 447.78125 382.472656 448.191406 382.863281 448.628906 383.21875 C 449.070312 383.574219 449.535156 383.894531 450.027344 384.175781 C 450.515625 384.457031 451.027344 384.699219 451.554688 384.902344 C 452.082031 385.101562 452.625 385.261719 453.179688 385.375 C 453.734375 385.492188 454.292969 385.5625 454.859375 385.589844 C 455.421875 385.613281 455.988281 385.597656 456.550781 385.53125 C 457.113281 385.46875 457.664062 385.359375 458.210938 385.210938 C 458.757812 385.058594 459.285156 384.863281 459.800781 384.628906 L 466.285156 381.597656 C 466.835938 381.339844 467.363281 381.035156 467.859375 380.6875 C 468.359375 380.339844 468.828125 379.953125 469.257812 379.527344 C 469.691406 379.097656 470.085938 378.636719 470.4375 378.140625 C 470.789062 377.644531 471.097656 377.125 471.363281 376.574219 C 471.625 376.027344 471.839844 375.460938 472.003906 374.875 C 472.171875 374.289062 472.285156 373.695312 472.347656 373.089844 C 472.410156 372.484375 472.421875 371.878906 472.382812 371.273438 C 472.339844 370.664062 472.25 370.066406 472.105469 369.472656 L 463.011719 332.5625 L 485.289062 363.414062 C 485.648438 363.90625 486.046875 364.367188 486.488281 364.792969 C 486.929688 365.21875 487.402344 365.605469 487.90625 365.949219 C 488.410156 366.292969 488.941406 366.59375 489.5 366.847656 C 490.058594 367.101562 490.632812 367.304688 491.222656 367.457031 C 491.816406 367.613281 492.417969 367.71875 493.027344 367.769531 C 493.636719 367.820312 494.246094 367.820312 494.855469 367.765625 C 495.464844 367.714844 496.066406 367.609375 496.65625 367.453125 C 497.25 367.296875 497.824219 367.09375 498.378906 366.839844 L 504.867188 363.808594 C 505.378906 363.566406 505.871094 363.289062 506.34375 362.972656 C 506.8125 362.652344 507.253906 362.300781 507.667969 361.910156 C 508.082031 361.523438 508.460938 361.101562 508.808594 360.652344 C 509.15625 360.203125 509.464844 359.730469 509.734375 359.230469 C 510.007812 358.730469 510.238281 358.214844 510.425781 357.679688 C 510.613281 357.144531 510.757812 356.597656 510.859375 356.039062 C 510.960938 355.480469 511.015625 354.917969 511.027344 354.347656 C 511.039062 353.78125 511.007812 353.21875 510.925781 352.65625 L 506.53125 324.199219 L 515.261719 342.925781 C 516.476562 345.523438 517.421875 348.210938 518.09375 350.996094 C 518.769531 353.78125 519.164062 356.601562 519.273438 359.464844 C 519.382812 362.328125 519.207031 365.175781 518.746094 368 C 518.285156 370.828125 517.546875 373.582031 516.535156 376.261719 C 514.949219 380.804688 513.824219 385.453125 513.160156 390.21875 C 512.496094 394.980469 512.304688 399.761719 512.585938 404.5625 C 512.867188 409.363281 513.613281 414.089844 514.832031 418.742188 C 516.046875 423.394531 517.703125 427.882812 519.808594 432.207031 L 626.121094 660.710938 C 626.390625 661.285156 626.597656 661.882812 626.75 662.5 C 626.898438 663.117188 626.988281 663.742188 627.015625 664.378906 C 627.042969 665.011719 627.007812 665.644531 626.910156 666.269531 C 626.8125 666.898438 626.652344 667.511719 626.433594 668.109375 C 626.21875 668.703125 625.941406 669.273438 625.613281 669.816406 C 625.28125 670.359375 624.902344 670.863281 624.472656 671.332031 C 624.042969 671.800781 623.570312 672.21875 623.058594 672.59375 C 622.546875 672.96875 622 673.292969 621.425781 673.558594 C 620.847656 673.828125 620.253906 674.035156 619.636719 674.1875 C 619.019531 674.335938 618.390625 674.425781 617.757812 674.453125 C 617.121094 674.476562 616.492188 674.441406 615.863281 674.34375 C 615.234375 674.246094 614.625 674.089844 614.027344 673.871094 C 613.429688 673.652344 612.859375 673.378906 612.316406 673.050781 C 611.777344 672.71875 611.269531 672.339844 610.804688 671.910156 C 610.335938 671.480469 609.914062 671.007812 609.539062 670.496094 C 609.164062 669.984375 608.84375 669.4375 608.574219 668.863281 L 502.289062 440.359375 C 500.339844 435.976562 497.980469 431.828125 495.214844 427.910156 C 492.445312 423.992188 489.320312 420.382812 485.84375 417.082031 C 482.363281 413.78125 478.597656 410.847656 474.539062 408.289062 C 470.484375 405.730469 466.21875 403.589844 461.738281 401.871094 Z M 461.738281 401.839844 " fill-opacity="1" fill-rule="nonzero"/></svg>