<svg xmlns="http://www.w3.org/2000/svg" xmlns:xlink="http://www.w3.org/1999/xlink" width="1080" zoomAndPan="magnify" viewBox="0 0 810 809.999993" height="1080" preserveAspectRatio="xMidYMid meet" version="1.0"><defs><clipPath id="9f3688ebdb"><path d="M 297 465 L 717 465 L 717 685.335938 L 297 685.335938 Z M 297 465 " clip-rule="nonzero"/></clipPath><clipPath id="dc9ebd69ee"><path d="M 298 124.335938 L 354 124.335938 L 354 287 L 298 287 Z M 298 124.335938 " clip-rule="nonzero"/></clipPath></defs><rect x="-81" width="972" fill="#ffffff" y="-80.999999" height="971.999992" fill-opacity="1"/><rect x="-81" width="972" fill="#11091a" y="-80.999999" height="971.999992" fill-opacity="1"/><g clip-path="url(#9f3688ebdb)"><path fill="#e8d18e" d="M 674.929688 576.773438 C 677.046875 570.367188 677.367188 560.214844 668.160156 546.925781 C 658.59375 533.125 640.402344 518.9375 622.617188 514.1875 C 622.925781 506.207031 620.695312 498.773438 615.972656 492.285156 C 601.6875 472.652344 566.726562 465.65625 538.773438 465.65625 C 509.253906 465.65625 476.113281 469.386719 451.949219 496.097656 C 412.148438 495.398438 384.417969 515.3125 374.082031 524.199219 C 368.199219 529.257812 363.597656 537.339844 360.410156 547.457031 C 327.769531 564.445312 299.105469 606.03125 297.960938 639.175781 C 297.382812 655.917969 300.777344 667.863281 308.34375 675.6875 C 316.601562 684.234375 327.382812 685.222656 334.773438 685.222656 C 352.5 685.222656 373.707031 679.347656 383.917969 676.152344 C 391.019531 681.785156 400.15625 685.222656 412.125 685.222656 C 426.191406 685.222656 444.339844 678.683594 455.773438 673.542969 C 465.917969 681.296875 477.65625 685.222656 490.773438 685.222656 L 494.105469 685.234375 C 495.253906 685.246094 496.480469 685.25 497.773438 685.25 C 510.042969 685.25 528.292969 684.535156 540.363281 675.921875 C 552.8125 684.777344 564.984375 685.222656 586.773438 685.222656 C 599.851562 685.222656 608.179688 680.621094 614.195312 673.898438 C 617.074219 674.523438 620.765625 675.417969 623.992188 676.203125 C 640.128906 680.117188 660.558594 685.078125 678.125 685.078125 C 694.28125 685.078125 708.015625 680.882812 713.746094 667.820312 C 726.476562 638.804688 698.378906 595.296875 674.929688 576.773438 Z M 334.773438 664.851562 C 328.769531 664.851562 325.25 663.859375 323 661.53125 C 319.578125 657.992188 317.96875 650.503906 318.332031 639.878906 C 319.054688 618.90625 335.421875 591.839844 355.515625 575.167969 C 354.371094 592.273438 355.953125 611.609375 360.5625 630.769531 C 362.910156 640.519531 365.875 650.34375 370.308594 658.914062 C 360.347656 661.667969 346.335938 664.851562 334.773438 664.851562 Z M 412.125 664.851562 C 397.941406 664.851562 388.203125 658.496094 380.382812 626.011719 C 370.0625 583.132812 377.964844 547.726562 387.371094 539.644531 C 394.59375 533.433594 412.089844 520.691406 437.226562 517.292969 C 421.609375 546.601562 421.269531 577.878906 421.117188 592.640625 L 421.082031 595.203125 C 420.898438 607.390625 425.722656 636.03125 440.867188 657.71875 C 431.273438 661.492188 419.917969 664.851562 412.125 664.851562 Z M 532.199219 652.792969 C 530.777344 663.042969 516.582031 665.050781 494.234375 664.867188 L 490.773438 664.851562 C 480.121094 664.851562 471.199219 661.046875 463.488281 653.222656 C 446.484375 635.96875 441.328125 604.4375 441.464844 595.511719 L 441.496094 592.855469 C 441.675781 575.925781 442.050781 540.691406 464.441406 512.84375 C 482.332031 490.585938 507.09375 486.027344 538.773438 486.027344 C 561.621094 486.027344 590.371094 491.734375 599.492188 504.261719 C 601.433594 506.9375 603.71875 511.429688 601.078125 519.570312 C 597.886719 529.425781 588.421875 541.335938 579.265625 552.855469 C 572.515625 561.34375 565.539062 570.121094 560.0625 579.136719 C 543.1875 606.894531 535.894531 626.171875 532.199219 652.792969 Z M 618.882812 622.441406 C 614.300781 629.996094 611.074219 637.195312 608.226562 643.550781 C 600.972656 659.730469 598.136719 664.851562 586.773438 664.851562 C 565.914062 664.851562 558.890625 664.390625 551.730469 659.058594 C 552 657.949219 552.222656 656.796875 552.390625 655.59375 C 555.699219 631.753906 562.03125 615.132812 577.480469 589.710938 C 582.296875 581.792969 588.867188 573.523438 595.226562 565.523438 C 603.820312 554.710938 612.03125 544.375 617.195312 533.839844 C 628.835938 536.945312 643.636719 547.316406 651.402344 558.527344 C 655.53125 564.488281 656.210938 568.707031 655.53125 570.507812 C 652.195312 579.375 646.558594 586.117188 639.414062 594.652344 C 633.148438 602.132812 626.050781 610.613281 618.882812 622.441406 Z M 695.082031 659.640625 C 691.695312 667.347656 669.398438 666.265625 628.804688 656.410156 C 627.515625 656.097656 626.3125 655.804688 625.179688 655.53125 C 625.734375 654.316406 626.28125 653.097656 626.828125 651.878906 C 629.5625 645.78125 632.386719 639.472656 636.3125 633 C 642.679688 622.496094 648.96875 614.980469 655.046875 607.722656 C 658.574219 603.507812 662.007812 599.398438 665.136719 595.027344 C 682.949219 610.53125 702.304688 643.171875 695.082031 659.640625 Z M 695.082031 659.640625 " fill-opacity="1" fill-rule="nonzero"/></g><path fill="#e8d18e" d="M 251.832031 582.09375 C 251.832031 581.546875 251.789062 581.003906 251.699219 580.464844 C 249.90625 569.410156 243.746094 560.476562 235.945312 549.171875 C 217.527344 522.472656 187.023438 478.253906 185.449219 353.214844 L 483.886719 353.214844 C 483.503906 383.160156 481.425781 410.4375 477.695312 434.425781 L 497.835938 437.554688 C 502.148438 409.84375 504.332031 378.039062 504.332031 343.027344 C 504.332031 337.402344 499.769531 332.84375 494.140625 332.84375 L 175.195312 332.84375 C 169.566406 332.84375 165.003906 337.402344 165.003906 343.027344 C 165.003906 364.226562 165.792969 383.332031 167.195312 400.601562 C 153.59375 392.144531 138.867188 390.8125 130.988281 390.8125 C 117.871094 390.8125 106.480469 395.730469 98.039062 405.042969 C 88.84375 415.1875 83.96875 429.976562 85.320312 443.640625 C 88.902344 479.898438 117.101562 491.695312 146.953125 504.179688 C 164.710938 511.609375 184.765625 520.003906 202.535156 534.578125 C 208.429688 545.171875 214.207031 553.546875 219.164062 560.734375 C 225.515625 569.941406 230.167969 576.6875 231.449219 583.007812 L 231.449219 585.191406 L 135.328125 585.191406 L 135.328125 605.5625 L 274.867188 605.5625 L 274.867188 585.191406 L 251.832031 585.191406 Z M 154.824219 485.390625 C 124.046875 472.515625 107.882812 464.726562 105.601562 441.640625 C 104.953125 435.085938 107.035156 425.457031 113.144531 418.71875 C 117.679688 413.71875 123.683594 411.183594 130.988281 411.183594 C 142.007812 411.183594 161.695312 414.34375 171.148438 435.246094 C 175.117188 461.726562 180.691406 482.84375 186.898438 500.042969 C 175.902344 494.210938 165.011719 489.652344 154.824219 485.390625 Z M 154.824219 485.390625 " fill-opacity="1" fill-rule="nonzero"/><g clip-path="url(#dc9ebd69ee)"><path fill="#e8d18e" d="M 317.484375 272.542969 L 332.546875 286.269531 C 369.699219 245.539062 349.070312 219.332031 334.007812 200.199219 C 318.738281 180.796875 308.644531 167.980469 337.820312 138.820312 L 323.410156 124.417969 C 281.4375 166.367188 302.5625 193.203125 317.988281 212.796875 C 333.050781 231.925781 343.003906 244.566406 317.484375 272.542969 Z M 317.484375 272.542969 " fill-opacity="1" fill-rule="nonzero"/></g><path fill="#e8d18e" d="M 406.824219 273.09375 L 422.824219 285.71875 C 443.128906 260.03125 431.457031 242.921875 423.734375 231.601562 C 416.375 220.816406 412.679688 215.398438 425.328125 200.816406 L 409.921875 187.472656 C 386.996094 213.910156 398.96875 231.464844 406.894531 243.082031 C 414.191406 253.773438 417.851562 259.140625 406.824219 273.09375 Z M 406.824219 273.09375 " fill-opacity="1" fill-rule="nonzero"/><path fill="#e8d18e" d="M 240.003906 273.09375 L 256 285.71875 C 276.304688 260.03125 264.632812 242.921875 256.910156 231.601562 C 249.550781 220.816406 245.855469 215.398438 258.5 200.816406 L 243.101562 187.472656 C 220.171875 213.910156 232.144531 231.464844 240.070312 243.082031 C 247.367188 253.773438 251.03125 259.140625 240.003906 273.09375 Z M 240.003906 273.09375 " fill-opacity="1" fill-rule="nonzero"/></svg>