<svg xmlns="http://www.w3.org/2000/svg" xmlns:xlink="http://www.w3.org/1999/xlink" width="1080" zoomAndPan="magnify" viewBox="0 0 810 809.999993" height="1080" preserveAspectRatio="xMidYMid meet" version="1.0"><defs><clipPath id="964fee9aa2"><path d="M 81.125 627 L 728.875 627 L 728.875 699.140625 L 81.125 699.140625 Z M 81.125 627 " clip-rule="nonzero"/></clipPath><clipPath id="1c0e52afaf"><path d="M 391 110.566406 L 414 110.566406 L 414 233 L 391 233 Z M 391 110.566406 " clip-rule="nonzero"/></clipPath></defs><rect x="-81" width="972" fill="#ffffff" y="-80.999999" height="971.999992" fill-opacity="1"/><rect x="-81" width="972" fill="#11091a" y="-80.999999" height="971.999992" fill-opacity="1"/><path fill="#e8d18e" d="M 148.867188 590.363281 C 155.019531 453.8125 267.675781 345.03125 405.804688 345.03125 C 543.878906 345.03125 656.589844 453.8125 662.746094 590.363281 Z M 388.035156 312.660156 C 388.035156 303.402344 395.742188 295.699219 405 295.699219 C 414.257812 295.699219 422.023438 303.402344 422.023438 312.660156 C 422.023438 316.511719 420.410156 319.617188 418.917969 322.722656 L 391.140625 322.722656 C 388.839844 319.617188 388.035156 315.765625 388.035156 312.660156 Z M 443.585938 324.21875 C 445.140625 320.363281 445.945312 316.511719 445.945312 311.914062 C 445.945312 289.488281 427.425781 271.78125 405.804688 271.78125 C 383.433594 271.78125 365.664062 290.292969 365.664062 311.914062 C 365.664062 316.511719 366.414062 320.363281 367.964844 324.21875 C 231.386719 342.730469 126.496094 460.019531 126.496094 601.171875 L 126.496094 612.726562 L 686.667969 612.726562 L 686.667969 601.171875 C 685.113281 460.769531 580.164062 343.535156 443.585938 324.21875 " fill-opacity="1" fill-rule="nonzero"/><path fill="#e8d18e" d="M 185.84375 565.695312 L 183.542969 565.695312 C 177.390625 564.144531 174.285156 558.738281 175.835938 552.585938 C 193.605469 477.730469 250.710938 413.679688 330.183594 380.5625 C 335.53125 378.203125 341.742188 380.5625 344.042969 386.714844 C 346.34375 392.117188 344.042969 398.269531 337.890625 400.570312 C 265.375 430.699219 212.121094 489.285156 195.90625 557.1875 C 195.101562 561.84375 190.5 565.695312 185.84375 565.695312 " fill-opacity="1" fill-rule="nonzero"/><g clip-path="url(#964fee9aa2)"><path fill="#e8d18e" d="M 132.648438 676.777344 L 677.410156 676.777344 L 698.972656 648.257812 L 111.027344 648.257812 Z M 678.15625 699.140625 L 131.84375 699.140625 C 125.691406 699.140625 119.480469 696.09375 115.628906 691.4375 L 84 650.558594 C 80.949219 645.902344 80.144531 640.496094 82.445312 635.09375 C 84.804688 630.492188 90.210938 627.386719 95.613281 627.386719 L 714.441406 627.386719 C 719.847656 627.386719 725.253906 630.492188 727.496094 635.152344 C 729.855469 639.75 729.105469 645.902344 726 650.558594 L 694.371094 691.4375 C 690.519531 696.09375 684.308594 699.140625 678.15625 699.140625 " fill-opacity="1" fill-rule="nonzero"/></g><g clip-path="url(#1c0e52afaf)"><path fill="#e8d18e" d="M 402.699219 232.453125 C 396.488281 232.453125 391.886719 227.796875 391.886719 221.644531 L 391.886719 121.316406 C 391.886719 115.164062 396.488281 110.566406 402.699219 110.566406 C 408.851562 110.566406 413.511719 115.164062 413.511719 120.570312 L 413.511719 220.839844 C 413.511719 227.050781 408.105469 232.453125 402.699219 232.453125 " fill-opacity="1" fill-rule="nonzero"/></g><path fill="#e8d18e" d="M 273.078125 264.078125 C 269.226562 264.078125 265.375 261.71875 263.820312 258.671875 L 213.675781 171.511719 C 210.570312 166.105469 212.121094 159.894531 217.527344 156.847656 C 222.933594 153.742188 229.085938 155.296875 232.191406 160.699219 L 282.339844 247.863281 C 285.445312 253.269531 283.890625 259.417969 278.484375 262.523438 C 276.933594 263.273438 275.378906 264.078125 273.078125 264.078125 " fill-opacity="1" fill-rule="nonzero"/><path fill="#e8d18e" d="M 531.515625 264.078125 C 530.019531 264.078125 527.71875 263.273438 526.167969 262.523438 C 520.761719 259.417969 519.207031 253.269531 522.3125 247.863281 L 572.460938 160.699219 C 575.5625 155.296875 581.71875 153.742188 587.125 156.847656 C 592.472656 159.894531 594.082031 166.105469 590.976562 171.511719 L 540.773438 258.671875 C 539.277344 261.71875 535.425781 264.078125 531.515625 264.078125 " fill-opacity="1" fill-rule="nonzero"/></svg>