<?xml version="1.0" encoding="utf-8"?>
<!-- Generator: Adobe Illustrator 27.3.1, SVG Export Plug-In . SVG Version: 6.00 Build 0)  -->
<svg version="1.1" id="Camada_1" xmlns="http://www.w3.org/2000/svg" xmlns:xlink="http://www.w3.org/1999/xlink" x="0px" y="0px"
	 viewBox="0 0 500 500" style="enable-background:new 0 0 500 500;" xml:space="preserve">
<style type="text/css">
	.st0{fill:#2F2F4D;}
	.st1{clip-path:url(#SVGID_00000038371329352460624850000002440528804254871991_);}
	.st2{fill:#E8D18E;}
	.st3{clip-path:url(#SVGID_00000054965493393001995080000007635115003247096704_);}
</style>
<g>
	<rect class="st0" width="500" height="500"/>
	<g>
		<defs>
			<rect id="SVGID_1_" x="251.7" y="104" width="148.2" height="292.5"/>
		</defs>
		<clipPath id="SVGID_00000044152849615184581210000008556745165962798519_">
			<use xlink:href="#SVGID_1_"  style="overflow:visible;"/>
		</clipPath>
		<g style="clip-path:url(#SVGID_00000044152849615184581210000008556745165962798519_);">
			<path class="st2" d="M329.9,276c6.8-1.8,13.2-4.5,19.1-8c12.3-7.2,21.7-17.4,28.4-30.6c6.7-13.2,10-28.5,10-45.9
				c0-17.4-3.4-32.7-10-45.9c-6.7-13.2-16.1-23.4-28.3-30.6c-12.2-7.2-26.3-10.9-42.4-10.9h-54.9c1.6,0.8,3.2,1.7,4.7,2.6
				c13.7,8.2,24.5,19.8,32,34.6c2.5,5,4.7,10.3,6.3,15.9h7.4c5.8,0,10.8,1.4,15.1,4.2c4.3,2.8,7.6,6.8,9.9,12.1
				c2.3,5.2,3.5,11.3,3.5,18.1c-0.1,6.8-1.4,12.9-3.7,18.1c-2.3,5.2-5.7,9.2-9.9,12.1c-4.3,2.8-9.2,4.2-14.9,4.2h-7.4
				c-1.7,5.6-3.8,10.9-6.3,15.9c-4.7,9.4-10.8,17.4-18.1,24.2l65,130.5l64.4,0.1L329.9,276"/>
		</g>
	</g>
	<g>
		<defs>
			<rect id="SVGID_00000105411178705302735830000014207616623627034790_" x="100.7" y="104" width="202.1" height="292.5"/>
		</defs>
		<clipPath id="SVGID_00000183962437484041116330000018107414443703316117_">
			<use xlink:href="#SVGID_00000105411178705302735830000014207616623627034790_"  style="overflow:visible;"/>
		</clipPath>
		<g style="clip-path:url(#SVGID_00000183962437484041116330000018107414443703316117_);">
			<path class="st2" d="M124.6,157.1h80.2c5.8,0,10.8,1.4,15.1,4.2c4.3,2.8,7.6,6.8,9.9,12.1s3.5,11.3,3.5,18.1
				c-0.1,6.8-1.4,12.9-3.7,18.1c-2.3,5.2-5.7,9.2-9.9,12.1c-4.3,2.8-9.2,4.2-14.9,4.2h-51.8l85,170.6l64.4,0.1L232.4,276
				c6.8-1.8,13.2-4.5,19.1-8c12.3-7.2,21.7-17.4,28.4-30.6c6.7-13.2,10.1-28.5,10.1-45.9c0-17.4-3.4-32.7-10.1-45.9
				c-6.7-13.2-16.1-23.4-28.3-30.6c-12.2-7.2-26.3-10.9-42.4-10.9H100.6L124.6,157.1"/>
		</g>
	</g>
</g>
</svg>
