<svg xmlns="http://www.w3.org/2000/svg" xmlns:xlink="http://www.w3.org/1999/xlink" width="1080" zoomAndPan="magnify" viewBox="0 0 810 809.999993" height="1080" preserveAspectRatio="xMidYMid meet" version="1.0"><defs><clipPath id="20757e8f26"><path d="M 378 663.449219 L 443 663.449219 L 443 728.660156 L 378 728.660156 Z M 378 663.449219 " clip-rule="nonzero"/></clipPath><clipPath id="a27e3750e0"><path d="M 715 428 L 738 428 L 738 452 L 715 452 Z M 715 428 " clip-rule="nonzero"/></clipPath></defs><rect x="-81" width="972" fill="#ffffff" y="-80.999999" height="971.999992" fill-opacity="1"/><rect x="-81" width="972" fill="#ffffff" y="-80.999999" height="971.999992" fill-opacity="1"/><rect x="-81" width="972" fill="#11091a" y="-80.999999" height="971.999992" fill-opacity="1"/><path fill="#bab195" d="M 165.765625 234.714844 L 178.078125 225.765625 L 190.398438 234.714844 L 185.695312 220.234375 L 198.015625 211.265625 L 182.78125 211.265625 L 178.078125 196.789062 L 173.382812 211.265625 L 158.148438 211.265625 L 170.46875 220.234375 Z M 169.523438 205.972656 L 178.078125 179.648438 L 186.640625 205.972656 L 214.316406 205.972656 L 191.925781 222.253906 L 200.472656 248.582031 L 178.078125 232.304688 L 155.691406 248.582031 L 164.238281 222.253906 L 141.84375 205.972656 L 169.523438 205.972656 " fill-opacity="1" fill-rule="nonzero"/><path fill="#bab195" d="M 520.425781 147.207031 L 528.449219 143.519531 L 530.035156 152.199219 L 533.816406 144.230469 L 540.621094 149.84375 L 538.382812 141.3125 L 547.207031 141.257812 L 540.015625 136.148438 L 546.726562 130.429688 L 537.941406 131.136719 L 539.402344 122.441406 L 533.128906 128.640625 L 528.664062 121.03125 L 527.84375 129.808594 L 519.527344 126.859375 L 524.550781 134.109375 L 516.28125 137.195312 L 524.78125 139.527344 Z M 516.320312 131.53125 L 505.835938 116.355469 L 523.210938 122.546875 L 524.921875 104.191406 L 534.25 120.09375 L 547.363281 107.136719 L 544.292969 125.308594 L 562.660156 123.820312 L 548.625 135.769531 L 563.664062 146.425781 L 545.238281 146.566406 L 549.894531 164.398438 L 535.691406 152.640625 L 527.804688 169.300781 L 524.464844 151.175781 L 507.71875 158.863281 L 516.816406 142.828125 L 499.039062 137.960938 L 516.320312 131.53125 " fill-opacity="1" fill-rule="nonzero"/><path fill="#bab195" d="M 296.425781 139.527344 L 304.933594 137.195312 L 296.65625 134.109375 L 301.679688 126.859375 L 293.363281 129.808594 L 292.550781 121.03125 L 288.078125 128.640625 L 281.808594 122.441406 L 283.265625 131.136719 L 274.480469 130.429688 L 281.191406 136.148438 L 274 141.257812 L 282.824219 141.3125 L 280.585938 149.84375 L 287.390625 144.230469 L 291.171875 152.199219 L 292.757812 143.519531 L 300.78125 147.207031 Z M 322.167969 137.960938 L 304.390625 142.828125 L 313.488281 158.863281 L 296.742188 151.175781 L 293.402344 169.300781 L 285.515625 152.640625 L 271.3125 164.398438 L 275.96875 146.566406 L 257.542969 146.425781 L 272.582031 135.769531 L 258.546875 123.820312 L 276.914062 125.308594 L 273.84375 107.136719 L 286.957031 120.09375 L 296.285156 104.191406 L 298.003906 122.546875 L 315.371094 116.355469 L 304.886719 131.53125 L 322.167969 137.960938 " fill-opacity="1" fill-rule="nonzero"/><path fill="#bab195" d="M 473.988281 215.4375 C 484.828125 205.414062 488.371094 200.570312 489.53125 198.488281 C 481.722656 200.128906 456.707031 214.714844 425.265625 238.179688 C 409.605469 249.859375 395.128906 261.714844 384.472656 271.574219 C 373.632812 281.59375 370.09375 286.4375 368.929688 288.523438 C 376.742188 286.878906 401.746094 272.292969 433.207031 248.828125 C 448.84375 237.140625 463.34375 225.285156 473.988281 215.4375 Z M 495.648438 332.53125 C 513.722656 319.046875 530.414062 302.679688 547.964844 281.246094 C 519.769531 267.078125 496.21875 246.789062 490.394531 206.050781 C 487.984375 208.925781 484.511719 212.566406 479.566406 217.242188 C 468.601562 227.609375 453.230469 240.28125 436.273438 252.945312 C 415.160156 268.691406 390.007812 285.390625 375.917969 291.4375 C 413.324219 308.625 426.070312 336.988281 431.609375 368.0625 C 457.171875 357.332031 477.59375 346.007812 495.648438 332.53125 Z M 558.226562 286.066406 C 556.367188 285.246094 554.53125 284.398438 552.699219 283.539062 C 534.816406 305.507812 517.140625 322.898438 498.714844 336.640625 C 480.046875 350.582031 458.949219 362.246094 432.476562 373.265625 C 432.78125 375.257812 433.058594 377.269531 433.332031 379.277344 C 451.773438 371.800781 477.839844 360.003906 502.441406 341.636719 C 527.066406 323.273438 545.804688 301.625 558.226562 286.066406 Z M 607.214844 305.890625 C 599.542969 302.566406 591.648438 299.503906 583.898438 296.496094 C 576.945312 293.800781 569.964844 291.085938 563.101562 288.179688 C 550.507812 304.027344 531.191406 326.605469 505.511719 345.753906 C 479.855469 364.902344 452.734375 376.992188 433.964844 384.554688 C 434.796875 391.957031 435.398438 399.417969 435.996094 406.851562 C 436.671875 415.144531 437.359375 423.574219 438.367188 431.898438 C 458.585938 428.667969 494.847656 414.726562 534.753906 384.941406 C 574.675781 355.160156 598.371094 324.355469 607.214844 305.890625 Z M 611.988281 302.386719 C 608.871094 273.078125 603.023438 241.558594 580.109375 225.617188 C 572.074219 220.023438 562.574219 218.613281 554.019531 221.742188 C 545.757812 224.78125 539.621094 231.726562 537.210938 240.800781 C 534.484375 250.992188 538.273438 263.445312 542.070312 272.332031 C 555.382812 279.929688 570.421875 285.753906 585.757812 291.707031 C 594.484375 295.085938 603.355469 298.550781 611.988281 302.386719 Z M 631.5 318.21875 C 630.636719 317.683594 629.746094 317.15625 628.855469 316.621094 C 623.480469 313.484375 617.769531 310.640625 611.917969 307.980469 C 600.386719 332.300781 571.664062 363.808594 537.824219 389.066406 C 504 414.289062 465.628906 432.867188 439.035156 436.996094 C 439.917969 443.367188 441.023438 449.628906 442.503906 455.671875 C 442.722656 456.566406 442.929688 457.441406 443.171875 458.300781 C 452.152344 460.679688 467.433594 457.632812 486.519531 449.605469 C 507.144531 440.910156 530.996094 426.8125 553.660156 409.914062 C 576.320312 392.996094 596.621094 374.148438 610.832031 356.84375 C 623.742188 341.101562 631.011719 327.503906 631.5 318.21875 Z M 647.011719 322.691406 C 640.355469 309.640625 635.921875 295.394531 631.597656 281.46875 C 625.609375 262.15625 619.417969 242.195312 607.359375 225.851562 C 587.8125 199.355469 558.863281 194.859375 540.378906 204.113281 C 533.460938 207.578125 511.902344 221.683594 522.558594 258.507812 C 526.386719 261.957031 530.515625 265.0625 534.878906 267.9375 C 531.855469 259.175781 529.796875 248.679688 532.253906 239.476562 C 535.105469 228.757812 542.386719 220.542969 552.25 216.929688 C 562.394531 213.21875 573.613281 214.847656 583.039062 221.394531 C 608.507812 239.125 614.234375 273.605469 617.410156 304.882812 C 622.222656 307.160156 626.933594 309.5625 631.4375 312.199219 C 637.210938 315.570312 642.371094 319.0625 647.011719 322.691406 Z M 702.386719 493.671875 C 702.292969 493.546875 702.175781 493.4375 702.074219 493.3125 C 686.484375 473.984375 685.261719 449.953125 683.972656 424.519531 C 682.46875 395.078125 680.929688 364.878906 657.171875 338.917969 L 657.164062 338.933594 C 657.132812 338.886719 657.101562 338.847656 657.070312 338.808594 C 651.476562 332.710938 644.648438 326.851562 636.304688 321.289062 C 632.707031 343.824219 601.230469 380.8125 556.730469 414.019531 C 515.1875 445.019531 473.71875 464.214844 449.96875 464.214844 C 448.117188 464.214844 446.371094 464.097656 444.753906 463.863281 C 460.257812 514.53125 495.792969 527.085938 530.207031 539.246094 C 554.328125 547.769531 577.3125 555.898438 591.296875 576.644531 C 601.230469 577.984375 625.8125 568.238281 655.15625 546.34375 C 684.460938 524.476562 700.914062 503.433594 702.386719 493.671875 Z M 702.230469 523.273438 C 710.863281 512.277344 712.644531 505.589844 711.398438 502.730469 C 709.667969 501.28125 708.019531 499.785156 706.46875 498.210938 C 701.765625 511.492188 683.230469 531.796875 658.222656 550.460938 C 633.398438 568.988281 608.523438 581.070312 594.453125 581.835938 C 595.496094 583.734375 596.472656 585.71875 597.371094 587.8125 C 599.75 589.828125 606.671875 590.019531 619.667969 584.882812 C 632.894531 579.660156 648.785156 570.359375 664.40625 558.710938 C 680.03125 547.050781 693.464844 534.464844 702.230469 523.273438 Z M 715.171875 499.0625 C 723.933594 510.8125 697.140625 540.6875 667.476562 562.820312 C 651.5 574.730469 635.195312 584.269531 621.558594 589.65625 C 613.824219 592.710938 607.40625 594.238281 602.488281 594.238281 C 597.96875 594.238281 594.691406 592.957031 592.777344 590.386719 L 592.871094 590.316406 C 581.207031 562.710938 555.597656 553.660156 528.5 544.082031 C 492.757812 531.457031 452.253906 517.136719 437.515625 456.890625 C 433.625 441.003906 432.230469 423.855469 430.882812 407.261719 C 427.078125 360.332031 423.464844 315.996094 368.347656 293.753906 C 368.109375 293.777344 367.875 293.808594 367.660156 293.808594 C 365.613281 293.808594 364.527344 292.925781 363.988281 292.195312 C 362.21875 289.824219 361.769531 285.941406 378.894531 269.769531 C 389.859375 259.398438 405.234375 246.722656 422.1875 234.066406 C 448.574219 214.390625 481.289062 193.203125 490.804688 193.203125 C 492.847656 193.203125 493.933594 194.085938 494.476562 194.8125 C 495.226562 195.8125 495.730469 197.101562 494.769531 199.464844 C 496.964844 222.488281 504.589844 238.996094 515.667969 251.5625 C 513.785156 240.863281 514.414062 230.894531 517.582031 222.347656 C 521.339844 212.25 528.433594 204.363281 538.085938 199.527344 C 558.496094 189.3125 590.257812 194.03125 611.484375 222.804688 C 624.058594 239.847656 630.390625 260.226562 636.496094 279.953125 C 642.851562 300.410156 648.847656 319.730469 661.222656 335.789062 L 661.207031 335.808594 C 685.988281 363.257812 687.625 395.242188 689.09375 424.25 C 689.714844 436.539062 690.320312 448.496094 692.597656 459.625 C 694.867188 470.761719 698.796875 481.070312 706.082031 490.089844 C 708.683594 493.320312 715.171875 499.0625 715.171875 499.0625 " fill-opacity="1" fill-rule="nonzero"/><path fill="#bab195" d="M 195.707031 555.023438 L 191.503906 552.070312 C 214.753906 518.964844 229.382812 468.144531 244.871094 414.335938 C 267.691406 335.058594 291.296875 253.074219 345.480469 225.519531 C 370.921875 212.574219 400.539062 212.574219 436.027344 225.519531 L 434.269531 230.339844 C 400.1875 217.914062 371.90625 217.832031 347.808594 230.089844 C 295.609375 256.640625 272.316406 337.53125 249.800781 415.761719 C 234.1875 469.988281 219.449219 521.203125 195.707031 555.023438 " fill-opacity="1" fill-rule="nonzero"/><path fill="#bab195" d="M 235.125 564.898438 L 231 561.84375 C 252.457031 532.867188 262.066406 481.230469 272.234375 426.558594 C 286.28125 351.03125 300.808594 272.9375 348.480469 241.605469 C 370.007812 227.457031 396.035156 224.128906 428.03125 231.421875 L 426.890625 236.429688 C 396.324219 229.453125 371.597656 232.554688 351.300781 245.898438 C 305.460938 276.023438 291.132812 353.03125 277.285156 427.496094 C 267.003906 482.765625 257.285156 534.976562 235.125 564.898438 " fill-opacity="1" fill-rule="nonzero"/><path fill="#bab195" d="M 282.058594 559.464844 L 277.386719 557.339844 C 292.660156 523.792969 298.402344 474.265625 303.949219 426.363281 C 312.09375 356.089844 320.515625 283.429688 358.824219 253.191406 C 374.050781 241.164062 393.441406 236.460938 416.453125 239.210938 L 415.839844 244.3125 C 393.9375 241.691406 376.324219 245.914062 362.003906 257.222656 C 325.367188 286.144531 317.066406 357.726562 309.046875 426.953125 C 303.453125 475.25 297.664062 525.1875 282.058594 559.464844 " fill-opacity="1" fill-rule="nonzero"/><path fill="#bab195" d="M 463.992188 567.300781 C 455.640625 567.300781 451.410156 562.472656 447.679688 558.207031 C 444.234375 554.273438 441.257812 550.878906 435.238281 550.878906 C 429.207031 550.878906 426.234375 554.273438 422.785156 558.207031 C 419.058594 562.472656 414.835938 567.300781 406.480469 567.300781 C 398.128906 567.300781 393.90625 562.472656 390.167969 558.207031 C 386.730469 554.273438 383.753906 550.878906 377.726562 550.878906 C 371.703125 550.878906 368.730469 554.273438 365.28125 558.207031 C 361.554688 562.472656 357.332031 567.300781 348.976562 567.300781 C 340.625 567.300781 336.402344 562.472656 332.671875 558.207031 C 329.226562 554.273438 326.25 550.878906 320.230469 550.878906 C 314.207031 550.878906 311.234375 554.273438 307.785156 558.207031 C 304.058594 562.472656 299.828125 567.300781 291.480469 567.300781 C 283.128906 567.300781 278.90625 562.472656 275.175781 558.207031 C 271.730469 554.273438 268.753906 550.878906 262.734375 550.878906 C 256.710938 550.878906 253.738281 554.273438 250.289062 558.207031 C 246.5625 562.472656 242.339844 567.300781 233.984375 567.300781 C 225.640625 567.300781 221.410156 562.472656 217.6875 558.207031 C 214.242188 554.273438 211.265625 550.878906 205.246094 550.878906 C 199.222656 550.878906 196.25 554.273438 192.800781 558.207031 C 189.074219 562.472656 184.847656 567.300781 176.496094 567.300781 C 168.144531 567.300781 163.921875 562.472656 160.191406 558.207031 C 156.746094 554.273438 153.769531 550.878906 147.75 550.878906 L 147.75 545.738281 C 156.101562 545.738281 160.324219 550.566406 164.050781 554.828125 C 167.5 558.765625 170.476562 562.167969 176.496094 562.167969 C 182.515625 562.167969 185.492188 558.765625 188.941406 554.828125 C 192.667969 550.566406 196.890625 545.738281 205.246094 545.738281 C 213.597656 545.738281 217.820312 550.566406 221.546875 554.828125 C 224.988281 558.765625 227.964844 562.167969 233.984375 562.167969 C 240.003906 562.167969 242.980469 558.765625 246.429688 554.828125 C 250.15625 550.566406 254.378906 545.738281 262.734375 545.738281 C 271.085938 545.738281 275.308594 550.566406 279.035156 554.828125 C 282.476562 558.765625 285.453125 562.167969 291.480469 562.167969 C 297.5 562.167969 300.476562 558.765625 303.925781 554.828125 C 307.652344 550.566406 311.875 545.738281 320.230469 545.738281 C 328.582031 545.738281 332.804688 550.566406 336.53125 554.828125 C 339.980469 558.765625 342.957031 562.167969 348.976562 562.167969 C 355.003906 562.167969 357.980469 558.765625 361.421875 554.828125 C 365.148438 550.566406 369.371094 545.738281 377.726562 545.738281 C 386.078125 545.738281 390.308594 550.566406 394.035156 554.828125 C 397.476562 558.765625 400.453125 562.167969 406.480469 562.167969 C 412.5 562.167969 415.476562 558.765625 418.925781 554.828125 C 422.652344 550.566406 426.882812 545.738281 435.238281 545.738281 C 443.589844 545.738281 447.8125 550.566406 451.539062 554.828125 C 454.988281 558.765625 457.964844 562.167969 463.992188 562.167969 L 463.992188 567.300781 " fill-opacity="1" fill-rule="nonzero"/><path fill="#bab195" d="M 463.992188 596.6875 C 455.640625 596.6875 451.410156 591.859375 447.679688 587.59375 C 444.234375 583.660156 441.257812 580.265625 435.238281 580.265625 C 429.207031 580.265625 426.234375 583.660156 422.785156 587.59375 C 419.058594 591.859375 414.835938 596.6875 406.480469 596.6875 C 398.128906 596.6875 393.90625 591.859375 390.167969 587.59375 C 386.730469 583.660156 383.753906 580.265625 377.726562 580.265625 C 371.703125 580.265625 368.730469 583.660156 365.28125 587.59375 C 361.554688 591.859375 357.332031 596.6875 348.976562 596.6875 C 340.625 596.6875 336.402344 591.859375 332.671875 587.59375 C 329.226562 583.660156 326.25 580.265625 320.230469 580.265625 C 314.207031 580.265625 311.234375 583.660156 307.785156 587.59375 C 304.058594 591.859375 299.828125 596.6875 291.480469 596.6875 C 283.128906 596.6875 278.90625 591.859375 275.175781 587.59375 C 271.730469 583.660156 268.753906 580.265625 262.734375 580.265625 C 256.710938 580.265625 253.738281 583.660156 250.289062 587.59375 C 246.5625 591.859375 242.339844 596.6875 233.984375 596.6875 C 225.640625 596.6875 221.410156 591.859375 217.6875 587.59375 C 214.242188 583.660156 211.265625 580.265625 205.246094 580.265625 C 199.222656 580.265625 196.25 583.660156 192.800781 587.59375 C 189.074219 591.859375 184.847656 596.6875 176.496094 596.6875 C 168.144531 596.6875 163.921875 591.859375 160.191406 587.59375 C 156.746094 583.660156 153.769531 580.265625 147.75 580.265625 L 147.75 575.125 C 156.101562 575.125 160.324219 579.960938 164.050781 584.214844 C 167.5 588.152344 170.476562 591.554688 176.496094 591.554688 C 182.515625 591.554688 185.492188 588.152344 188.941406 584.214844 C 192.667969 579.953125 196.890625 575.125 205.246094 575.125 C 213.597656 575.125 217.820312 579.960938 221.546875 584.214844 C 224.988281 588.152344 227.964844 591.554688 233.984375 591.554688 C 240.003906 591.554688 242.980469 588.152344 246.429688 584.214844 C 250.15625 579.953125 254.378906 575.125 262.734375 575.125 C 271.085938 575.125 275.308594 579.953125 279.035156 584.214844 C 282.476562 588.152344 285.453125 591.554688 291.480469 591.554688 C 297.5 591.554688 300.476562 588.152344 303.925781 584.214844 C 307.652344 579.960938 311.875 575.125 320.230469 575.125 C 328.582031 575.125 332.804688 579.960938 336.53125 584.214844 C 339.980469 588.152344 342.957031 591.554688 348.976562 591.554688 C 355.003906 591.554688 357.980469 588.152344 361.421875 584.214844 C 365.148438 579.953125 369.371094 575.125 377.726562 575.125 C 386.078125 575.125 390.308594 579.953125 394.035156 584.214844 C 397.476562 588.152344 400.453125 591.554688 406.480469 591.554688 C 412.5 591.554688 415.476562 588.152344 418.925781 584.214844 C 422.652344 579.953125 426.882812 575.125 435.238281 575.125 C 443.589844 575.125 447.8125 579.953125 451.539062 584.214844 C 454.988281 588.152344 457.964844 591.554688 463.992188 591.554688 L 463.992188 596.6875 " fill-opacity="1" fill-rule="nonzero"/><path fill="#bab195" d="M 464.511719 627.808594 C 456.160156 627.808594 451.929688 622.988281 448.199219 618.726562 C 444.753906 614.789062 441.777344 611.386719 435.757812 611.386719 C 429.734375 611.386719 426.757812 614.789062 423.3125 618.726562 C 419.585938 622.988281 415.351562 627.808594 407 627.808594 C 398.648438 627.808594 394.425781 622.988281 390.695312 618.726562 C 387.25 614.789062 384.273438 611.386719 378.253906 611.386719 C 372.222656 611.386719 369.253906 614.789062 365.808594 618.726562 C 362.082031 622.980469 357.847656 627.808594 349.503906 627.808594 C 341.152344 627.808594 336.921875 622.980469 333.191406 618.726562 C 329.753906 614.789062 326.777344 611.386719 320.75 611.386719 C 314.726562 611.386719 311.75 614.789062 308.304688 618.726562 C 304.578125 622.988281 300.351562 627.808594 292 627.808594 C 283.648438 627.808594 279.421875 622.988281 275.695312 618.726562 C 272.25 614.789062 269.28125 611.386719 263.253906 611.386719 C 257.230469 611.386719 254.253906 614.789062 250.816406 618.726562 C 247.089844 622.980469 242.855469 627.808594 234.511719 627.808594 C 226.160156 627.808594 221.933594 622.980469 218.207031 618.726562 C 214.761719 614.789062 211.785156 611.386719 205.761719 611.386719 C 199.742188 611.386719 196.765625 614.789062 193.320312 618.726562 C 189.59375 622.988281 185.367188 627.808594 177.015625 627.808594 C 168.671875 627.808594 164.4375 622.988281 160.710938 618.726562 C 157.273438 614.789062 154.296875 611.386719 148.265625 611.386719 L 148.265625 606.257812 C 156.621094 606.257812 160.84375 611.085938 164.578125 615.347656 C 168.019531 619.285156 170.996094 622.679688 177.015625 622.679688 C 183.042969 622.679688 186.019531 619.285156 189.460938 615.347656 C 193.1875 611.085938 197.410156 606.257812 205.761719 606.257812 C 214.117188 606.257812 218.339844 611.085938 222.066406 615.347656 C 225.515625 619.285156 228.492188 622.679688 234.511719 622.679688 C 240.53125 622.679688 243.507812 619.285156 246.949219 615.347656 C 250.675781 611.085938 254.90625 606.257812 263.253906 606.257812 C 271.605469 606.257812 275.828125 611.085938 279.554688 615.347656 C 283.003906 619.285156 285.980469 622.679688 292 622.679688 C 298.019531 622.679688 300.996094 619.285156 304.445312 615.347656 C 308.171875 611.085938 312.402344 606.257812 320.75 606.257812 C 329.101562 606.257812 333.324219 611.085938 337.050781 615.347656 C 340.5 619.285156 343.476562 622.679688 349.503906 622.679688 C 355.523438 622.679688 358.5 619.285156 361.949219 615.347656 C 365.675781 611.085938 369.898438 606.257812 378.253906 606.257812 C 386.605469 606.257812 390.828125 611.085938 394.554688 615.347656 C 398.003906 619.285156 400.980469 622.679688 407 622.679688 C 413.027344 622.679688 416.003906 619.285156 419.445312 615.347656 C 423.179688 611.085938 427.402344 606.257812 435.757812 606.257812 C 444.109375 606.257812 448.332031 611.085938 452.066406 615.347656 C 455.507812 619.285156 458.484375 622.679688 464.511719 622.679688 L 464.511719 627.808594 " fill-opacity="1" fill-rule="nonzero"/><path fill="#bab195" d="M 322.808594 549.808594 L 318.003906 548.003906 C 326.96875 524.140625 329.03125 483.332031 331.210938 440.128906 C 335.617188 352.628906 340.617188 253.457031 404.15625 248.269531 L 404.574219 253.386719 C 345.511719 258.207031 340.640625 354.992188 336.332031 440.382812 C 334.136719 484 332.0625 525.195312 322.808594 549.808594 " fill-opacity="1" fill-rule="nonzero"/><path fill="#bab195" d="M 475.019531 433.8125 C 471.882812 435.113281 470.402344 438.71875 471.703125 441.863281 C 472.6875 444.234375 474.980469 445.644531 477.390625 445.644531 C 478.179688 445.644531 478.988281 445.5 479.761719 445.171875 C 482.898438 443.863281 484.378906 440.257812 483.078125 437.121094 C 481.761719 433.976562 478.148438 432.503906 475.019531 433.8125 " fill-opacity="1" fill-rule="nonzero"/><path fill="#bab195" d="M 487.734375 428 C 484.691406 429.503906 483.433594 433.199219 484.9375 436.246094 C 486.015625 438.421875 488.199219 439.6875 490.460938 439.6875 C 491.382812 439.6875 492.308594 439.476562 493.191406 439.050781 C 496.234375 437.539062 497.492188 433.851562 495.988281 430.804688 C 494.476562 427.742188 490.796875 426.496094 487.734375 428 " fill-opacity="1" fill-rule="nonzero"/><path fill="#bab195" d="M 512.382812 414.335938 L 512.390625 414.335938 C 509.484375 416.121094 508.570312 419.902344 510.347656 422.808594 C 511.507812 424.707031 513.53125 425.753906 515.609375 425.753906 C 516.699219 425.753906 517.808594 425.464844 518.808594 424.851562 C 518.816406 424.851562 518.816406 424.851562 518.816406 424.851562 C 521.707031 423.078125 522.628906 419.289062 520.859375 416.382812 C 519.070312 413.476562 515.289062 412.5625 512.382812 414.335938 " fill-opacity="1" fill-rule="nonzero"/><path fill="#bab195" d="M 500.195312 421.46875 C 497.21875 423.117188 496.148438 426.859375 497.808594 429.828125 C 498.925781 431.867188 501.023438 433.007812 503.195312 433.007812 C 504.203125 433.007812 505.222656 432.757812 506.183594 432.230469 C 509.144531 430.582031 510.222656 426.820312 508.570312 423.855469 C 506.921875 420.878906 503.171875 419.808594 500.195312 421.46875 " fill-opacity="1" fill-rule="nonzero"/><path fill="#bab195" d="M 462.054688 438.609375 C 458.816406 439.632812 457.019531 443.097656 458.042969 446.335938 C 458.878906 448.960938 461.296875 450.636719 463.914062 450.636719 C 464.535156 450.636719 465.15625 450.542969 465.773438 450.351562 C 469.015625 449.328125 470.8125 445.855469 469.789062 442.609375 C 468.757812 439.375 465.292969 437.578125 462.054688 438.609375 " fill-opacity="1" fill-rule="nonzero"/><path fill="#bab195" d="M 524.316406 406.742188 C 521.488281 408.625 520.707031 412.4375 522.582031 415.273438 C 523.773438 417.066406 525.734375 418.035156 527.726562 418.035156 C 528.898438 418.035156 530.074219 417.699219 531.121094 417.011719 C 533.957031 415.121094 534.722656 411.300781 532.847656 408.472656 C 530.972656 405.632812 527.152344 404.851562 524.316406 406.742188 " fill-opacity="1" fill-rule="nonzero"/><path fill="#bab195" d="M 449.015625 441.808594 C 445.644531 442.335938 443.359375 445.484375 443.875 448.839844 C 444.363281 451.875 446.976562 454.046875 449.953125 454.046875 C 450.277344 454.046875 450.601562 454.023438 450.929688 453.976562 C 454.292969 453.441406 456.578125 450.289062 456.050781 446.933594 C 455.523438 443.5625 452.371094 441.273438 449.015625 441.808594 " fill-opacity="1" fill-rule="nonzero"/><path fill="#bab195" d="M 569.277344 372.335938 C 566.71875 374.589844 566.472656 378.472656 568.71875 381.03125 C 569.941406 382.417969 571.632812 383.113281 573.34375 383.113281 C 574.792969 383.113281 576.242188 382.609375 577.410156 381.585938 C 579.96875 379.339844 580.21875 375.449219 577.960938 372.890625 C 575.707031 370.335938 571.816406 370.085938 569.277344 372.335938 " fill-opacity="1" fill-rule="nonzero"/><path fill="#bab195" d="M 607.734375 341.730469 C 605.136719 339.53125 601.246094 339.847656 599.046875 342.4375 C 596.839844 345.03125 597.15625 348.914062 599.757812 351.117188 C 600.90625 352.109375 602.324219 352.589844 603.742188 352.589844 C 605.484375 352.589844 607.207031 351.851562 608.429688 350.410156 C 610.632812 347.824219 610.320312 343.933594 607.734375 341.730469 " fill-opacity="1" fill-rule="nonzero"/><path fill="#bab195" d="M 616.242188 330.144531 C 613.484375 328.152344 609.632812 328.773438 607.640625 331.53125 C 605.648438 334.285156 606.277344 338.136719 609.027344 340.125 C 610.113281 340.917969 611.375 341.296875 612.621094 341.296875 C 614.535156 341.296875 616.425781 340.414062 617.628906 338.738281 C 619.621094 335.988281 618.992188 332.136719 616.242188 330.144531 " fill-opacity="1" fill-rule="nonzero"/><path fill="#bab195" d="M 623.316406 317.621094 C 620.324219 315.996094 616.589844 317.085938 614.953125 320.078125 C 613.335938 323.070312 614.4375 326.804688 617.417969 328.433594 C 618.355469 328.953125 619.355469 329.191406 620.355469 329.191406 C 622.542969 329.191406 624.65625 328.039062 625.773438 325.984375 C 627.398438 322.992188 626.300781 319.257812 623.316406 317.621094 " fill-opacity="1" fill-rule="nonzero"/><path fill="#bab195" d="M 535.980469 398.707031 C 533.21875 400.691406 532.570312 404.527344 534.539062 407.300781 C 535.738281 408.980469 537.636719 409.890625 539.558594 409.890625 C 540.800781 409.890625 542.054688 409.515625 543.132812 408.734375 C 545.90625 406.765625 546.546875 402.914062 544.566406 400.148438 C 542.597656 397.375 538.746094 396.738281 535.980469 398.707031 " fill-opacity="1" fill-rule="nonzero"/><path fill="#bab195" d="M 547.378906 390.289062 C 544.671875 392.351562 544.152344 396.226562 546.222656 398.921875 C 547.433594 400.503906 549.269531 401.347656 551.113281 401.347656 C 552.429688 401.347656 553.746094 400.921875 554.855469 400.070312 C 557.558594 398.007812 558.070312 394.148438 556.011719 391.4375 C 553.941406 388.742188 550.082031 388.214844 547.378906 390.289062 " fill-opacity="1" fill-rule="nonzero"/><path fill="#bab195" d="M 558.480469 381.503906 C 555.847656 383.65625 555.46875 387.539062 557.621094 390.167969 C 558.839844 391.652344 560.613281 392.429688 562.386719 392.429688 C 563.757812 392.429688 565.144531 391.972656 566.285156 391.027344 C 568.910156 388.871094 569.308594 384.996094 567.144531 382.363281 C 564.992188 379.726562 561.117188 379.347656 558.480469 381.503906 " fill-opacity="1" fill-rule="nonzero"/><path fill="#bab195" d="M 589.648438 352.84375 L 589.65625 352.84375 C 587.308594 355.300781 587.398438 359.199219 589.847656 361.546875 C 591.042969 362.6875 592.585938 363.25 594.109375 363.25 C 595.730469 363.25 597.359375 362.617188 598.566406 361.34375 C 600.90625 358.882812 600.820312 354.992188 598.355469 352.640625 C 595.902344 350.285156 591.996094 350.378906 589.648438 352.84375 " fill-opacity="1" fill-rule="nonzero"/><path fill="#bab195" d="M 579.691406 362.800781 L 579.683594 362.800781 C 577.226562 365.144531 577.132812 369.039062 579.480469 371.503906 C 580.699219 372.769531 582.316406 373.410156 583.9375 373.410156 C 585.472656 373.410156 586.996094 372.839844 588.191406 371.707031 C 590.65625 369.359375 590.730469 365.460938 588.390625 362.996094 C 586.042969 360.539062 582.148438 360.453125 579.691406 362.800781 " fill-opacity="1" fill-rule="nonzero"/><path fill="#bab195" d="M 623.230469 528.320312 C 623.214844 528.320312 623.207031 528.320312 623.191406 528.320312 C 619.488281 528.3125 616.296875 526.769531 614.21875 523.988281 C 612.140625 521.195312 611.578125 517.703125 612.621094 514.144531 C 613.644531 510.671875 616.132812 507.378906 619.8125 504.628906 L 621.207031 503.589844 C 632.761719 495.476562 639.914062 485.90625 641.402344 476.613281 C 642.285156 471.054688 641.089844 465.894531 637.945312 461.671875 C 634.816406 457.480469 630.171875 454.859375 624.507812 454.109375 C 615.421875 452.890625 604.90625 456.535156 594.902344 464.359375 L 594.46875 464.664062 L 592.445312 466.003906 L 567.65625 432.78125 L 571.769531 429.710938 L 593.566406 458.9375 C 604.136719 451.210938 615.289062 447.691406 625.191406 449.015625 C 632.25 449.960938 638.085938 453.277344 642.058594 458.601562 C 646.058594 463.957031 647.578125 470.46875 646.460938 477.425781 C 644.757812 488.097656 636.851562 498.871094 624.214844 507.75 L 622.882812 508.742188 C 620.101562 510.820312 618.25 513.191406 617.542969 515.59375 C 616.953125 517.59375 617.226562 519.4375 618.332031 520.917969 C 619.441406 522.398438 621.125 523.179688 623.207031 523.1875 C 623.214844 523.1875 623.222656 523.1875 623.230469 523.1875 C 625.734375 523.1875 628.515625 522.09375 631.296875 520.019531 L 634.367188 524.132812 C 630.691406 526.878906 626.839844 528.320312 623.230469 528.320312 " fill-opacity="1" fill-rule="nonzero"/><path fill="#bab195" d="M 570.003906 452.8125 L 566.9375 448.699219 L 587.429688 433.410156 L 590.5 437.523438 L 570.003906 452.8125 " fill-opacity="1" fill-rule="nonzero"/><path fill="#bab195" d="M 671.519531 236.699219 L 679.789062 230.679688 L 669.5625 230.679688 L 666.40625 220.96875 L 663.253906 230.679688 L 653.03125 230.679688 L 661.300781 236.699219 L 658.148438 246.410156 L 666.40625 240.40625 L 674.683594 246.410156 Z M 696.085938 225.386719 L 677.75 238.722656 L 684.757812 260.273438 L 666.40625 246.953125 L 648.074219 260.273438 L 655.070312 238.722656 L 636.730469 225.386719 L 659.402344 225.386719 L 666.40625 203.828125 L 673.417969 225.386719 L 696.085938 225.386719 " fill-opacity="1" fill-rule="nonzero"/><path fill="#bab195" d="M 156.417969 504.308594 L 164.917969 501.984375 L 156.652344 498.902344 L 161.671875 491.648438 L 153.359375 494.601562 L 152.542969 485.820312 L 148.074219 493.421875 L 141.796875 487.230469 L 143.261719 495.925781 L 134.472656 495.210938 L 141.183594 500.9375 L 133.992188 506.039062 L 142.820312 506.09375 L 140.582031 514.632812 L 147.382812 509.015625 L 151.164062 516.980469 L 152.753906 508.308594 L 160.773438 511.988281 Z M 182.152344 502.746094 L 164.386719 507.621094 L 173.480469 523.644531 L 156.738281 515.964844 L 153.398438 534.09375 L 145.507812 517.429688 L 131.304688 529.1875 L 135.960938 511.347656 L 117.535156 511.207031 L 132.574219 500.550781 L 118.542969 488.601562 L 136.90625 490.097656 L 133.839844 471.925781 L 146.949219 484.875 L 156.28125 468.972656 L 157.992188 487.332031 L 175.363281 481.148438 L 164.882812 496.320312 L 182.152344 502.746094 " fill-opacity="1" fill-rule="nonzero"/><g clip-path="url(#20757e8f26)"><path fill="#bab195" d="M 417.175781 698.878906 L 425.683594 696.554688 L 417.40625 693.46875 L 422.429688 686.210938 L 414.113281 689.167969 L 413.300781 680.390625 L 408.828125 687.992188 L 402.558594 681.800781 L 404.023438 690.496094 L 395.230469 689.78125 L 401.941406 695.5 L 394.75 700.609375 L 403.574219 700.664062 L 401.34375 709.203125 L 408.140625 703.582031 L 411.921875 711.550781 L 413.507812 702.878906 L 421.527344 706.558594 Z M 442.914062 697.3125 L 425.140625 702.1875 L 434.238281 718.214844 L 417.492188 710.535156 L 414.160156 728.660156 L 406.265625 712 L 392.058594 723.757812 L 396.726562 705.917969 L 378.289062 705.777344 L 393.332031 695.121094 L 379.296875 683.171875 L 397.664062 684.667969 L 394.59375 666.488281 L 407.707031 679.445312 L 417.035156 663.542969 L 418.753906 681.898438 L 436.128906 675.714844 L 425.636719 690.882812 L 442.914062 697.3125 " fill-opacity="1" fill-rule="nonzero"/></g><path fill="#bab195" d="M 121.503906 317.09375 L 127.105469 315.5625 L 121.664062 313.53125 L 124.964844 308.75 L 119.496094 310.703125 L 118.953125 304.90625 L 116.007812 309.925781 L 111.863281 305.835938 L 112.839844 311.570312 L 107.035156 311.105469 L 111.460938 314.863281 L 106.726562 318.226562 L 112.546875 318.273438 L 111.074219 323.898438 L 115.550781 320.1875 L 118.039062 325.449219 L 119.09375 319.722656 L 124.378906 322.148438 Z M 144.339844 316.320312 L 129.46875 320.402344 L 137.085938 333.8125 L 123.074219 327.386719 L 120.285156 342.550781 L 113.675781 328.609375 L 101.789062 338.445312 L 105.6875 323.519531 L 90.265625 323.410156 L 102.851562 314.484375 L 91.105469 304.480469 L 106.476562 305.742188 L 103.914062 290.53125 L 114.886719 301.363281 L 122.6875 288.058594 L 124.128906 303.425781 L 138.667969 298.253906 L 129.894531 310.941406 L 144.339844 316.320312 " fill-opacity="1" fill-rule="nonzero"/><path fill="#bab195" d="M 707.5 334.46875 L 685.640625 330.601562 L 707.5 326.726562 L 711.367188 304.867188 L 715.230469 326.726562 L 737.089844 330.601562 L 715.230469 334.46875 L 711.367188 356.332031 L 707.5 334.46875 " fill-opacity="1" fill-rule="nonzero"/><path fill="#bab195" d="M 270.132812 238.46875 L 248.273438 234.601562 L 270.132812 230.734375 L 274 208.871094 L 277.867188 230.734375 L 299.734375 234.601562 L 277.867188 238.46875 L 274 260.335938 L 270.132812 238.46875 " fill-opacity="1" fill-rule="nonzero"/><path fill="#bab195" d="M 102.859375 416.203125 L 81 412.335938 L 102.859375 408.472656 L 106.726562 386.601562 L 110.601562 408.472656 L 132.460938 412.335938 L 110.601562 416.203125 L 106.726562 438.066406 L 102.859375 416.203125 " fill-opacity="1" fill-rule="nonzero"/><path fill="#bab195" d="M 515.617188 600.550781 L 493.757812 596.6875 L 515.617188 592.820312 L 519.488281 570.957031 L 523.355469 592.820312 L 545.214844 596.6875 L 523.355469 600.550781 L 519.488281 622.414062 L 515.617188 600.550781 " fill-opacity="1" fill-rule="nonzero"/><path fill="#bab195" d="M 376.53125 379.339844 L 354.671875 375.472656 L 376.53125 371.597656 L 380.398438 349.738281 L 384.273438 371.597656 L 406.132812 375.472656 L 384.273438 379.339844 L 380.398438 401.203125 L 376.53125 379.339844 " fill-opacity="1" fill-rule="nonzero"/><path fill="#bab195" d="M 239.027344 674.980469 L 247.304688 668.972656 L 255.566406 674.980469 L 252.410156 665.269531 L 260.679688 659.257812 L 250.457031 659.257812 L 247.304688 649.539062 L 244.152344 659.257812 L 233.929688 659.257812 L 242.191406 665.269531 Z M 240.292969 653.957031 L 247.304688 632.394531 L 254.300781 653.957031 L 276.984375 653.957031 L 258.640625 667.292969 L 265.636719 688.851562 L 247.304688 675.523438 L 228.957031 688.851562 L 235.960938 667.292969 L 217.628906 653.957031 L 240.292969 653.957031 " fill-opacity="1" fill-rule="nonzero"/><path fill="#bab195" d="M 322.5625 685.683594 C 322.5625 689.519531 325.683594 692.640625 329.511719 692.640625 C 333.355469 692.640625 336.46875 689.519531 336.46875 685.683594 C 336.46875 681.847656 333.355469 678.730469 329.511719 678.730469 C 325.683594 678.730469 322.5625 681.847656 322.5625 685.683594 Z M 318.324219 685.683594 C 318.324219 679.511719 323.34375 674.492188 329.511719 674.492188 C 335.6875 674.492188 340.710938 679.511719 340.710938 685.683594 C 340.710938 691.851562 335.6875 696.871094 329.511719 696.871094 C 323.34375 696.871094 318.324219 691.851562 318.324219 685.683594 " fill-opacity="1" fill-rule="nonzero"/><path fill="#bab195" d="M 579.566406 665.269531 L 587.828125 659.257812 L 577.605469 659.257812 L 574.453125 649.539062 L 571.296875 659.257812 L 561.078125 659.257812 L 569.34375 665.269531 L 566.191406 674.980469 L 574.453125 668.972656 L 582.726562 674.980469 Z M 604.128906 653.957031 L 585.796875 667.292969 L 592.800781 688.851562 L 574.453125 675.523438 L 556.117188 688.851562 L 563.117188 667.292969 L 544.773438 653.957031 L 567.453125 653.957031 L 574.453125 632.394531 L 581.464844 653.957031 L 604.128906 653.957031 " fill-opacity="1" fill-rule="nonzero"/><path fill="#bab195" d="M 203.789062 405.992188 L 212.046875 399.96875 L 201.828125 399.96875 L 198.664062 390.257812 L 195.511719 399.96875 L 185.292969 399.96875 L 193.566406 405.992188 L 190.40625 415.699219 L 198.664062 409.695312 L 206.941406 415.699219 Z M 228.351562 394.675781 L 210.011719 408.011719 L 217.015625 429.574219 L 198.664062 416.242188 L 180.332031 429.574219 L 187.335938 408.011719 L 168.988281 394.675781 L 191.667969 394.675781 L 198.664062 373.117188 L 205.679688 394.675781 L 228.351562 394.675781 " fill-opacity="1" fill-rule="nonzero"/><path fill="#bab195" d="M 492.246094 678.730469 C 488.410156 678.730469 485.285156 681.847656 485.285156 685.683594 C 485.285156 689.519531 488.410156 692.640625 492.246094 692.640625 C 496.074219 692.640625 499.195312 689.519531 499.195312 685.683594 C 499.195312 681.847656 496.074219 678.730469 492.246094 678.730469 Z M 492.246094 696.871094 C 486.070312 696.871094 481.046875 691.851562 481.046875 685.683594 C 481.046875 679.511719 486.070312 674.492188 492.246094 674.492188 C 498.414062 674.492188 503.433594 679.511719 503.433594 685.683594 C 503.433594 691.851562 498.414062 696.871094 492.246094 696.871094 " fill-opacity="1" fill-rule="nonzero"/><g clip-path="url(#a27e3750e0)"><path fill="#bab195" d="M 726.832031 433.128906 C 722.996094 433.128906 719.875 436.246094 719.875 440.082031 C 719.875 443.917969 722.996094 447.039062 726.832031 447.039062 C 730.667969 447.039062 733.78125 443.917969 733.78125 440.082031 C 733.78125 436.246094 730.667969 433.128906 726.832031 433.128906 Z M 726.832031 451.273438 C 720.664062 451.273438 715.644531 446.257812 715.644531 440.082031 C 715.644531 433.914062 720.664062 428.890625 726.832031 428.890625 C 733 428.890625 738.023438 433.914062 738.023438 440.082031 C 738.023438 446.257812 733 451.273438 726.832031 451.273438 " fill-opacity="1" fill-rule="nonzero"/></g><path fill="#bab195" d="M 620.363281 162.351562 C 616.527344 162.351562 613.414062 165.464844 613.414062 169.300781 C 613.414062 173.136719 616.527344 176.261719 620.363281 176.261719 C 624.199219 176.261719 627.320312 173.136719 627.320312 169.300781 C 627.320312 165.464844 624.199219 162.351562 620.363281 162.351562 Z M 620.363281 180.5 C 614.195312 180.5 609.175781 175.480469 609.175781 169.300781 C 609.175781 163.132812 614.195312 158.113281 620.363281 158.113281 C 626.539062 158.113281 631.554688 163.132812 631.554688 169.300781 C 631.554688 175.480469 626.539062 180.5 620.363281 180.5 " fill-opacity="1" fill-rule="nonzero"/><path fill="#bab195" d="M 391.183594 472.0625 C 387.347656 472.0625 384.226562 475.179688 384.226562 479.015625 C 384.226562 482.851562 387.347656 485.96875 391.183594 485.96875 C 395.019531 485.96875 398.136719 482.851562 398.136719 479.015625 C 398.136719 475.179688 395.019531 472.0625 391.183594 472.0625 Z M 391.183594 490.207031 C 385.007812 490.207031 379.988281 485.183594 379.988281 479.015625 C 379.988281 472.847656 385.007812 467.824219 391.183594 467.824219 C 397.351562 467.824219 402.375 472.847656 402.375 479.015625 C 402.375 485.183594 397.351562 490.207031 391.183594 490.207031 " fill-opacity="1" fill-rule="nonzero"/><path fill="#bab195" d="M 209.863281 314.328125 C 206.027344 314.328125 202.902344 317.453125 202.902344 321.289062 C 202.902344 325.125 206.027344 328.238281 209.863281 328.238281 C 213.699219 328.238281 216.8125 325.125 216.8125 321.289062 C 216.8125 317.453125 213.699219 314.328125 209.863281 314.328125 Z M 209.863281 332.476562 C 203.6875 332.476562 198.664062 327.457031 198.664062 321.289062 C 198.664062 315.109375 203.6875 310.089844 209.863281 310.089844 C 216.03125 310.089844 221.050781 315.109375 221.050781 321.289062 C 221.050781 327.457031 216.03125 332.476562 209.863281 332.476562 " fill-opacity="1" fill-rule="nonzero"/><path fill="#bab195" d="M 401.429688 145.171875 L 413.75 136.21875 L 426.0625 145.171875 L 421.359375 130.695312 L 433.679688 121.726562 L 418.453125 121.726562 L 413.75 107.25 L 409.046875 121.726562 L 393.8125 121.726562 L 406.132812 130.695312 Z M 405.1875 116.433594 L 413.75 90.109375 L 422.304688 116.433594 L 449.984375 116.433594 L 427.589844 132.714844 L 436.136719 159.042969 L 413.75 142.765625 L 391.355469 159.042969 L 399.902344 132.714844 L 377.507812 116.433594 L 405.1875 116.433594 " fill-opacity="1" fill-rule="nonzero"/></svg>