<svg xmlns="http://www.w3.org/2000/svg" xmlns:xlink="http://www.w3.org/1999/xlink" width="1080" zoomAndPan="magnify" viewBox="0 0 810 809.999993" height="1080" preserveAspectRatio="xMidYMid meet" version="1.0"><defs><clipPath id="804b6a3fd6"><path d="M 374 81 L 441 81 L 441 148 L 374 148 Z M 374 81 " clip-rule="nonzero"/></clipPath><clipPath id="0a9bfdd795"><path d="M 77.726562 351 L 134 351 L 134 407 L 77.726562 407 Z M 77.726562 351 " clip-rule="nonzero"/></clipPath><clipPath id="f51961798b"><path d="M 676 351 L 732.222656 351 L 732.222656 407 L 676 407 Z M 676 351 " clip-rule="nonzero"/></clipPath><clipPath id="ef72657eec"><path d="M 375 662 L 441.992188 662 L 441.992188 728.996094 L 375 728.996094 Z M 375 662 " clip-rule="nonzero"/></clipPath></defs><rect x="-81" width="972" fill="#ffffff" y="-80.999999" height="971.999992" fill-opacity="1"/><rect x="-81" width="972" fill="#ffffff" y="-80.999999" height="971.999992" fill-opacity="1"/><rect x="-81" width="972" fill="#11091a" y="-80.999999" height="971.999992" fill-opacity="1"/><path fill="#bab195" d="M 410.496094 448.1875 C 410.496094 452.804688 406.757812 456.546875 402.140625 456.546875 C 397.523438 456.546875 393.777344 452.804688 393.777344 448.1875 C 393.777344 443.578125 397.523438 439.835938 402.140625 439.835938 C 406.757812 439.835938 410.496094 443.578125 410.496094 448.1875 " fill-opacity="1" fill-rule="nonzero"/><path fill="#bab195" d="M 408.761719 475.847656 C 408.761719 479.371094 405.898438 482.230469 402.375 482.230469 C 398.84375 482.230469 395.988281 479.371094 395.988281 475.847656 C 395.988281 472.320312 398.84375 469.457031 402.375 469.457031 C 405.898438 469.457031 408.761719 472.320312 408.761719 475.847656 " fill-opacity="1" fill-rule="nonzero"/><path fill="#bab195" d="M 406.21875 498.058594 C 406.21875 500.179688 404.5 501.894531 402.378906 501.894531 C 400.257812 501.894531 398.542969 500.179688 398.542969 498.058594 C 398.542969 495.945312 400.257812 494.226562 402.378906 494.226562 C 404.5 494.226562 406.21875 495.945312 406.21875 498.058594 " fill-opacity="1" fill-rule="nonzero"/><path fill="#bab195" d="M 401.214844 322.253906 C 407.332031 332.066406 410.585938 344.351562 409.578125 355.066406 C 408.570312 365.773438 403.074219 377.238281 395.230469 385.730469 C 408.640625 382.109375 418.820312 370.488281 420.179688 356.058594 C 421.539062 341.636719 413.710938 328.324219 401.214844 322.253906 Z M 378.507812 392.46875 L 385.269531 387.441406 C 395.425781 379.886719 403.023438 366.671875 404.160156 354.550781 C 405.304688 342.433594 400.316406 328.035156 391.746094 318.71875 L 386.046875 312.511719 L 394.300781 314.214844 C 414.035156 318.285156 427.488281 336.496094 425.597656 356.574219 C 423.707031 376.648438 407.082031 392.027344 386.9375 392.335938 L 378.507812 392.46875 " fill-opacity="1" fill-rule="nonzero"/><path fill="#bab195" d="M 495.683594 311.246094 C 491.492188 317.832031 484.195312 320.6875 479.378906 317.632812 C 474.566406 314.566406 474.0625 306.75 478.253906 300.164062 C 482.445312 293.570312 489.742188 290.714844 494.558594 293.773438 C 499.371094 296.835938 499.875 304.65625 495.683594 311.246094 " fill-opacity="1" fill-rule="nonzero"/><path fill="#bab195" d="M 314.953125 311.246094 C 319.144531 317.832031 326.441406 320.6875 331.257812 317.632812 C 336.070312 314.566406 336.574219 306.75 332.382812 300.164062 C 328.191406 293.570312 320.894531 290.714844 316.078125 293.773438 C 311.265625 296.835938 310.761719 304.65625 314.953125 311.246094 " fill-opacity="1" fill-rule="nonzero"/><path fill="#bab195" d="M 665.308594 448.101562 C 666.328125 446.453125 666.917969 444.546875 666.882812 442.351562 C 666.863281 441.496094 666.742188 440.710938 666.542969 439.980469 C 672.882812 438.320312 679.832031 439.734375 685.5 443.929688 C 689.277344 446.722656 691.957031 450.363281 693.128906 454.082031 C 683.726562 448.113281 674.34375 447.246094 665.308594 448.101562 Z M 644.160156 453.648438 C 638.527344 454.515625 632.394531 454.9375 625.402344 454.9375 C 614.464844 454.9375 603.152344 453.894531 592.203125 452.882812 C 588.167969 452.511719 584.175781 452.144531 580.261719 451.832031 C 578.335938 451.679688 575.992188 451.453125 573.960938 451.183594 L 573.96875 451.125 C 573.640625 451.089844 572.664062 451.011719 572.660156 451.019531 C 558.125 449.832031 536.464844 453.011719 521.269531 455.339844 C 526.648438 449.523438 531.625 443.648438 535.925781 437.878906 C 536.070312 437.820312 536.214844 437.765625 536.359375 437.714844 C 546.734375 435.261719 566.957031 432.558594 578.988281 432.558594 C 583.539062 432.558594 587.554688 432.777344 590.917969 433.210938 C 595.847656 433.847656 600.640625 434.117188 606.933594 434.117188 C 609.613281 434.117188 612.351562 434.074219 615.265625 434.023438 L 617.066406 433.992188 C 626.382812 433.839844 634.269531 434.382812 643.957031 435.125 L 644.941406 435.199219 C 653.289062 435.816406 662.210938 436.933594 662.308594 442.433594 C 662.453125 450.585938 646.027344 453.359375 644.160156 453.648438 Z M 501.699219 468.394531 C 476.449219 492.164062 450.421875 510.546875 443.589844 512.753906 C 432.257812 516.421875 424.378906 518.0625 405.320312 518.660156 C 386.257812 518.0625 378.382812 516.421875 367.042969 512.753906 C 360.214844 510.546875 334.183594 492.164062 308.9375 468.394531 C 279.03125 440.230469 263.042969 416.855469 263.902344 402.570312 C 265.425781 377.472656 285.285156 348.605469 324.601562 314.316406 C 342.054688 299.09375 365.160156 293.273438 404.117188 294.300781 L 404.105469 294.324219 C 404.285156 294.324219 404.464844 294.320312 404.644531 294.3125 C 404.828125 294.320312 405.003906 294.324219 405.1875 294.324219 L 405.1875 294.300781 C 444.15625 293.273438 468.582031 299.09375 486.039062 314.316406 C 525.351562 348.605469 545.210938 377.472656 546.726562 402.570312 C 547.597656 416.855469 531.605469 440.230469 501.699219 468.394531 Z M 522.4375 466.25 C 525.1875 465.800781 528.160156 465.539062 531.273438 465.460938 C 538.351562 465.296875 545.414062 466.128906 551.15625 467.796875 C 558.011719 469.785156 567.65625 474.550781 573.589844 478.878906 C 580.132812 483.648438 586.664062 488.246094 594.59375 491.976562 C 596.808594 493.019531 599.0625 493.976562 601.234375 494.90625 C 606.683594 497.246094 611.835938 499.457031 616.597656 502.863281 C 621.789062 506.582031 624.875 510.734375 624.847656 513.96875 C 624.835938 516 623.613281 517.828125 621.125 519.554688 C 619.945312 520.371094 618.234375 520.8125 616.039062 520.859375 C 610.332031 520.992188 602.996094 518.503906 598.570312 517 C 584.992188 512.386719 572.394531 506.234375 558.941406 497.636719 C 556.167969 495.863281 553.695312 493.597656 551.070312 491.195312 C 548.507812 488.84375 545.851562 486.410156 542.828125 484.410156 C 541.460938 483.503906 539.554688 483.09375 536.992188 483.15625 C 520.644531 483.535156 479.046875 503.109375 473.523438 509.09375 C 473.464844 509.160156 473.394531 509.207031 473.332031 509.269531 C 468.984375 508.847656 464.632812 508.496094 460.21875 508.269531 C 472.394531 499.902344 489.210938 486.574219 505.085938 471.609375 C 511.703125 469.007812 517.960938 466.972656 522.4375 466.25 Z M 628.886719 517.035156 C 634.59375 521.269531 637.699219 525.800781 638.585938 531.128906 C 639.332031 535.632812 639.105469 540.890625 638.566406 545.746094 C 638.21875 544.765625 637.886719 543.785156 637.550781 542.820312 C 636.46875 539.664062 635.445312 536.675781 634.621094 534.792969 C 632.757812 530.535156 629.257812 525.699219 624.390625 522.8125 C 626.652344 521.09375 628.15625 519.164062 628.886719 517.035156 Z M 494.570312 516.375 C 498.011719 516.816406 501.472656 517.261719 504.976562 517.695312 C 506.601562 517.898438 508.394531 518.085938 510.296875 518.289062 C 524.710938 519.824219 546.496094 522.136719 552.207031 534.921875 C 555.375 542.007812 554.972656 545.527344 554.070312 547.230469 C 553.253906 548.777344 551.585938 549.765625 548.96875 550.25 C 542.019531 551.519531 533.144531 550.199219 525.914062 549.125 C 523.34375 548.742188 520.773438 548.371094 518.203125 547.992188 C 503.316406 545.828125 487.917969 543.589844 472.761719 539.53125 C 459.425781 535.964844 448.914062 529.925781 439.535156 523.945312 C 436.800781 522.195312 435.671875 520.78125 435.460938 519.867188 C 438.582031 519.101562 441.644531 518.1875 445 517.101562 C 446.816406 516.515625 449.640625 515.042969 453.191406 512.859375 C 453.40625 512.839844 453.601562 512.804688 453.8125 512.789062 L 453.796875 512.558594 C 467.613281 512.886719 480.746094 514.589844 494.570312 516.375 Z M 551.867188 565.027344 C 546.113281 574.355469 541.132812 580.871094 536.648438 584.933594 C 533.035156 588.210938 528.9375 591.246094 524.980469 594.167969 C 521.671875 596.621094 518.25 599.15625 515.097656 601.835938 C 514.546875 602.308594 513.90625 602.863281 513.191406 603.484375 C 506.867188 608.957031 490.070312 623.5 482.15625 621.222656 C 480.332031 620.703125 479.066406 619.179688 478.273438 616.582031 C 475.679688 608.078125 480.601562 600.851562 485.183594 596.28125 C 487.042969 594.425781 488.75 592.554688 490.398438 590.742188 C 493.910156 586.886719 497.21875 583.242188 501.742188 580.035156 C 503.082031 579.085938 504.410156 578.089844 505.75 577.097656 C 510.351562 573.667969 515.101562 570.128906 520.363281 568.273438 C 521.742188 567.78125 523.351562 567.386719 525.050781 566.964844 C 531.078125 565.472656 539.171875 563.460938 539.875 555.28125 C 540.738281 555.320312 541.601562 555.34375 542.457031 555.34375 C 544.984375 555.34375 547.464844 555.167969 549.792969 554.742188 C 551.761719 554.382812 553.429688 553.761719 554.800781 552.898438 C 555.210938 557.257812 554.746094 560.363281 551.867188 565.027344 Z M 475.011719 624.195312 C 469.992188 626.484375 464.792969 628.847656 459.125 629.003906 C 452.90625 629.175781 445.589844 629.375 438.925781 628.261719 C 440.367188 627.652344 441.785156 626.992188 443.1875 626.34375 C 446.722656 624.710938 450.070312 623.15625 453.523438 622.433594 C 455.089844 622.105469 456.691406 622.054688 458.375 621.992188 C 460.734375 621.910156 463.175781 621.828125 465.769531 621.003906 C 468.910156 620.011719 471.085938 617.4375 473.007812 615.167969 C 473.074219 615.085938 473.144531 615.003906 473.21875 614.921875 C 473.371094 615.914062 473.589844 616.914062 473.898438 617.910156 C 474.59375 620.191406 475.628906 621.984375 476.96875 623.3125 C 476.320312 623.601562 475.679688 623.890625 475.011719 624.195312 Z M 371.101562 523.945312 C 361.726562 529.925781 351.210938 535.964844 337.875 539.53125 C 322.710938 543.589844 307.320312 545.828125 292.433594 547.992188 C 289.867188 548.371094 287.296875 548.742188 284.726562 549.125 C 277.496094 550.199219 268.617188 551.519531 261.667969 550.25 C 259.050781 549.765625 257.378906 548.777344 256.566406 547.230469 C 255.667969 545.527344 255.261719 542.007812 258.429688 534.921875 C 264.140625 522.136719 285.925781 519.824219 300.335938 518.289062 C 302.242188 518.085938 304.035156 517.898438 305.660156 517.695312 C 309.164062 517.261719 312.625 516.816406 316.0625 516.375 C 329.890625 514.589844 343.023438 512.886719 356.84375 512.558594 L 356.824219 512.789062 C 357.035156 512.804688 357.230469 512.839844 357.445312 512.859375 C 360.996094 515.042969 363.8125 516.515625 365.640625 517.101562 C 368.992188 518.1875 372.058594 519.101562 375.171875 519.867188 C 374.964844 520.78125 373.835938 522.195312 371.101562 523.945312 Z M 285.585938 566.964844 C 287.292969 567.386719 288.898438 567.78125 290.273438 568.273438 C 295.535156 570.128906 300.285156 573.667969 304.886719 577.097656 C 306.226562 578.089844 307.558594 579.085938 308.894531 580.035156 C 313.417969 583.242188 316.726562 586.886719 320.238281 590.742188 C 321.886719 592.554688 323.59375 594.425781 325.457031 596.28125 C 330.035156 600.851562 334.949219 608.078125 332.363281 616.582031 C 331.570312 619.179688 330.300781 620.703125 328.480469 621.222656 C 320.566406 623.5 303.773438 608.957031 297.449219 603.484375 C 296.730469 602.863281 296.089844 602.308594 295.542969 601.835938 C 292.390625 599.15625 288.964844 596.621094 285.65625 594.167969 C 281.691406 591.246094 277.601562 588.210938 273.988281 584.933594 C 269.503906 580.871094 264.527344 574.355469 258.769531 565.027344 C 255.894531 560.363281 255.425781 557.257812 255.835938 552.898438 C 257.207031 553.761719 258.875 554.382812 260.84375 554.742188 C 263.171875 555.167969 265.652344 555.34375 268.183594 555.34375 C 269.039062 555.34375 269.898438 555.320312 270.761719 555.28125 C 271.464844 563.460938 279.558594 565.472656 285.585938 566.964844 Z M 336.738281 617.910156 C 337.039062 616.914062 337.265625 615.914062 337.417969 614.921875 C 337.492188 615.003906 337.5625 615.085938 337.632812 615.167969 C 339.550781 617.4375 341.726562 620.011719 344.867188 621.003906 C 347.460938 621.828125 349.902344 621.910156 352.261719 621.992188 C 353.949219 622.054688 355.546875 622.105469 357.105469 622.433594 C 360.566406 623.15625 363.910156 624.710938 367.449219 626.34375 C 368.855469 626.992188 370.269531 627.652344 371.710938 628.261719 C 365.046875 629.375 357.730469 629.175781 351.511719 629.003906 C 345.84375 628.847656 340.644531 626.484375 335.625 624.195312 C 334.957031 623.890625 334.308594 623.601562 333.667969 623.3125 C 335.007812 621.984375 336.046875 620.191406 336.738281 617.910156 Z M 273.644531 483.15625 C 271.082031 483.09375 269.175781 483.503906 267.8125 484.410156 C 264.785156 486.410156 262.128906 488.84375 259.566406 491.195312 C 256.949219 493.597656 254.472656 495.863281 251.695312 497.636719 C 238.238281 506.234375 225.644531 512.386719 212.066406 517 C 207.644531 518.503906 200.304688 520.992188 194.597656 520.859375 C 192.402344 520.8125 190.691406 520.371094 189.515625 519.554688 C 187.023438 517.828125 185.800781 516 185.789062 513.96875 C 185.765625 510.734375 188.847656 506.582031 194.039062 502.863281 C 198.800781 499.457031 203.957031 497.246094 209.40625 494.90625 C 211.582031 493.976562 213.820312 493.019531 216.042969 491.976562 C 223.972656 488.246094 230.503906 483.648438 237.039062 478.878906 C 242.980469 474.550781 252.628906 469.785156 259.480469 467.796875 C 265.222656 466.128906 272.285156 465.296875 279.363281 465.460938 C 282.476562 465.539062 285.449219 465.800781 288.199219 466.25 C 292.671875 466.972656 298.933594 469.007812 305.550781 471.609375 C 321.429688 486.574219 338.242188 499.902344 350.417969 508.269531 C 346.007812 508.496094 341.652344 508.847656 337.304688 509.269531 C 337.242188 509.207031 337.171875 509.160156 337.109375 509.09375 C 331.589844 503.109375 289.992188 483.535156 273.644531 483.15625 Z M 176.015625 534.792969 C 175.191406 536.675781 174.167969 539.664062 173.085938 542.820312 C 172.75 543.785156 172.410156 544.765625 172.070312 545.746094 C 171.53125 540.890625 171.304688 535.632812 172.054688 531.128906 C 172.941406 525.800781 176.042969 521.269531 181.75 517.035156 C 182.480469 519.164062 183.984375 521.09375 186.25 522.8125 C 181.378906 525.699219 177.878906 530.535156 176.015625 534.792969 Z M 237.972656 451.019531 C 237.972656 451.011719 236.996094 451.089844 236.667969 451.125 L 236.675781 451.183594 C 234.644531 451.453125 232.300781 451.679688 230.378906 451.832031 C 226.464844 452.144531 222.46875 452.511719 218.433594 452.882812 C 207.484375 453.894531 196.171875 454.9375 185.234375 454.9375 C 178.246094 454.9375 172.109375 454.515625 166.476562 453.648438 C 164.601562 453.359375 148.179688 450.585938 148.332031 442.433594 C 148.425781 436.933594 157.339844 435.816406 165.699219 435.199219 L 166.679688 435.125 C 176.363281 434.382812 184.253906 433.839844 193.574219 433.992188 L 195.371094 434.023438 C 198.285156 434.074219 201.023438 434.117188 203.703125 434.117188 C 209.996094 434.117188 214.789062 433.847656 219.71875 433.210938 C 223.085938 432.777344 227.097656 432.558594 231.648438 432.558594 C 243.679688 432.558594 263.902344 435.261719 274.277344 437.714844 C 274.425781 437.765625 274.5625 437.820312 274.707031 437.878906 C 279.003906 443.648438 283.988281 449.523438 289.375 455.339844 C 274.171875 453.011719 252.515625 449.832031 237.972656 451.019531 Z M 234.871094 411.523438 C 225.171875 406.226562 217.722656 400.820312 211.410156 394.53125 L 210.039062 393.167969 C 205.167969 388.328125 201.320312 384.511719 198.191406 378.472656 C 197.34375 376.824219 196.550781 375.1875 195.769531 373.578125 C 193.050781 367.960938 190.484375 362.652344 185.859375 357.5625 C 185.246094 356.890625 184.429688 356.070312 183.503906 355.152344 C 179.230469 350.90625 172.085938 343.792969 175.367188 339.578125 C 176.34375 338.328125 177.164062 338.175781 177.703125 338.167969 C 177.710938 338.167969 177.714844 338.167969 177.722656 338.167969 C 181.300781 338.167969 186.625 344.789062 189.1875 347.964844 C 189.910156 348.863281 190.535156 349.636719 191.03125 350.195312 C 193.257812 352.695312 195.574219 355.097656 197.820312 357.417969 C 200.785156 360.488281 203.855469 363.664062 206.679688 367.050781 C 209.097656 369.9375 210.214844 372.363281 211.140625 376.679688 C 212.199219 381.617188 212.507812 382.371094 215.527344 384.484375 C 216.144531 384.917969 216.929688 385.46875 217.929688 386.257812 C 230.753906 396.3125 240.238281 397.179688 259.75 398.199219 C 259.566406 399.570312 259.421875 400.933594 259.339844 402.292969 C 258.976562 408.328125 261.117188 415.296875 265.015625 422.75 C 256.691406 421.164062 242.960938 415.9375 234.871094 411.523438 Z M 174.722656 318.921875 C 175.425781 323.671875 177.394531 329.011719 179.257812 333.777344 C 178.746094 333.671875 178.238281 333.601562 177.722656 333.601562 C 177.703125 333.601562 177.683594 333.601562 177.664062 333.601562 C 176.371094 333.609375 174.59375 334.011719 172.878906 335.570312 C 171.777344 329.691406 171.933594 323.386719 174.722656 318.921875 Z M 242.113281 364.105469 C 236.707031 354.378906 234.515625 345.824219 234.296875 333.246094 C 236.132812 333.589844 237.890625 333.746094 239.578125 333.746094 C 255.476562 333.746094 264.414062 319.21875 269.523438 308.902344 C 271.171875 314.71875 273.976562 320.492188 278.15625 326.695312 C 280.632812 330.382812 284.308594 333.488281 287.554688 336.226562 C 289.089844 337.523438 290.550781 338.765625 291.746094 339.945312 C 276.496094 356.960938 266.691406 372.652344 262.167969 387.285156 C 255.699219 384.328125 249.109375 376.703125 242.113281 364.105469 Z M 216.597656 291.949219 C 218.492188 284.003906 224.449219 264.289062 238.785156 252.828125 C 244.132812 248.558594 250.015625 247.046875 257.59375 248.046875 C 258.289062 249.871094 259.277344 251.542969 260.617188 253.03125 C 261.324219 253.808594 262.003906 254.621094 262.726562 255.382812 C 266.160156 258.988281 274.234375 259.359375 275.488281 258.992188 C 275.828125 261.78125 277.445312 263.785156 278.898438 265.578125 C 279.742188 266.621094 280.539062 267.605469 281.019531 268.648438 C 282.351562 271.578125 282.640625 276.410156 281.683594 279.890625 C 280.539062 284.085938 277.5 288.054688 274.285156 292.261719 C 271.773438 295.546875 269.183594 298.9375 267.503906 302.535156 C 260.027344 318.507812 250.734375 332.695312 233.523438 328.394531 C 220.171875 325.0625 213.726562 303.949219 216.597656 291.949219 Z M 280.765625 201.925781 C 299.941406 181.726562 332.949219 165.613281 365.429688 183.082031 C 354.191406 184.808594 333.039062 189.875 324.078125 204.003906 C 319.183594 211.71875 318.640625 220.984375 322.460938 231.546875 C 314.300781 239.441406 306.960938 244.316406 294.96875 245.847656 C 292.960938 246.097656 290.464844 247.355469 287.3125 248.953125 C 278.675781 253.300781 271.132812 256.507812 266.09375 251.796875 C 265.527344 251.269531 265.011719 250.695312 264.550781 250.078125 C 257.121094 240.183594 264.09375 219.484375 280.765625 201.925781 Z M 359.96875 202.484375 C 355.417969 213.160156 342.628906 224.929688 326.890625 229.347656 C 325.746094 226.050781 325.101562 222.9375 324.941406 219.984375 C 338.367188 215.375 349.8125 210.335938 359.96875 202.484375 Z M 523.082031 336.226562 C 526.328125 333.488281 530.003906 330.382812 532.480469 326.695312 C 536.660156 320.492188 539.464844 314.71875 541.109375 308.902344 C 546.226562 319.21875 555.160156 333.746094 571.0625 333.746094 C 572.742188 333.746094 574.503906 333.589844 576.339844 333.246094 C 576.121094 345.824219 573.929688 354.378906 568.523438 364.105469 C 561.527344 376.703125 554.933594 384.328125 548.472656 387.285156 C 543.945312 372.652344 534.136719 356.960938 518.890625 339.945312 C 520.085938 338.765625 521.546875 337.523438 523.082031 336.226562 Z M 536.351562 292.261719 C 533.136719 288.054688 530.097656 284.085938 528.945312 279.890625 C 527.996094 276.410156 528.285156 271.578125 529.617188 268.648438 C 530.097656 267.605469 530.890625 266.621094 531.738281 265.578125 C 533.1875 263.785156 534.808594 261.78125 535.148438 258.992188 C 542.148438 259.496094 545.386719 257.742188 547.910156 255.382812 C 548.671875 254.664062 549.3125 253.808594 550.019531 253.03125 C 551.359375 251.542969 552.347656 249.871094 553.046875 248.046875 C 560.621094 247.046875 566.503906 248.558594 571.847656 252.828125 C 586.1875 264.289062 592.148438 284.003906 594.039062 291.949219 C 596.910156 303.949219 590.464844 325.0625 577.113281 328.394531 C 559.898438 332.695312 550.609375 318.507812 543.136719 302.535156 C 541.453125 298.9375 538.863281 295.546875 536.351562 292.261719 Z M 523.328125 248.953125 C 520.167969 247.355469 517.675781 246.097656 515.664062 245.847656 C 503.667969 244.316406 496.332031 239.441406 488.175781 231.546875 C 491.996094 220.984375 491.457031 211.71875 486.558594 204.003906 C 477.601562 189.875 456.4375 184.808594 445.207031 183.082031 C 477.6875 165.613281 510.691406 181.726562 529.871094 201.925781 C 546.539062 219.484375 553.515625 240.183594 546.085938 250.078125 C 545.625 250.695312 545.109375 251.269531 544.539062 251.796875 C 539.503906 256.507812 531.953125 253.300781 523.328125 248.953125 Z M 483.746094 229.347656 C 468.011719 224.929688 455.21875 213.160156 450.667969 202.484375 C 460.824219 210.335938 472.269531 215.375 485.699219 219.984375 C 485.535156 222.9375 484.890625 226.050781 483.746094 229.347656 Z M 551.296875 402.292969 C 551.214844 400.933594 551.070312 399.570312 550.886719 398.199219 C 570.398438 397.179688 579.882812 396.3125 592.699219 386.257812 C 593.707031 385.46875 594.492188 384.917969 595.109375 384.484375 C 598.128906 382.371094 598.4375 381.617188 599.496094 376.679688 C 600.414062 372.363281 601.542969 369.9375 603.957031 367.050781 C 606.78125 363.664062 609.847656 360.488281 612.816406 357.417969 C 615.0625 355.097656 617.378906 352.695312 619.605469 350.195312 C 620.105469 349.636719 620.726562 348.863281 621.449219 347.964844 C 624.011719 344.789062 629.335938 338.167969 632.910156 338.167969 C 632.921875 338.167969 632.929688 338.167969 632.933594 338.167969 C 633.46875 338.175781 634.292969 338.328125 635.269531 339.578125 C 638.554688 343.792969 631.40625 350.90625 627.125 355.152344 C 626.199219 356.070312 625.390625 356.890625 624.777344 357.5625 C 620.152344 362.652344 617.585938 367.960938 614.867188 373.578125 C 614.089844 375.1875 613.296875 376.824219 612.445312 378.472656 C 609.320312 384.511719 605.46875 388.328125 600.597656 393.167969 L 599.226562 394.53125 C 592.914062 400.820312 585.464844 406.226562 575.765625 411.523438 C 567.675781 415.9375 553.945312 421.164062 545.621094 422.75 C 549.523438 415.296875 551.660156 408.328125 551.296875 402.292969 Z M 635.917969 318.921875 C 638.703125 323.386719 638.863281 329.691406 637.753906 335.570312 C 636.042969 334.011719 634.261719 333.609375 632.972656 333.601562 C 632.953125 333.601562 632.933594 333.601562 632.914062 333.601562 C 632.398438 333.601562 631.890625 333.671875 631.378906 333.777344 C 633.242188 329.011719 635.207031 323.671875 635.917969 318.921875 Z M 117.511719 454.082031 C 118.679688 450.363281 121.359375 446.722656 125.136719 443.929688 C 130.804688 439.734375 137.753906 438.320312 144.09375 439.980469 C 143.894531 440.710938 143.769531 441.496094 143.753906 442.351562 C 143.71875 444.546875 144.308594 446.453125 145.328125 448.101562 C 136.292969 447.246094 126.910156 448.113281 117.511719 454.082031 Z M 688.21875 440.257812 C 681.039062 434.941406 672.089844 433.367188 664.074219 435.933594 C 659.582031 431.707031 650.730469 431.039062 645.28125 430.636719 L 644.3125 430.570312 C 634.507812 429.8125 626.503906 429.265625 616.988281 429.425781 L 615.183594 429.457031 C 612.300781 429.5 609.589844 429.550781 606.933594 429.550781 C 600.84375 429.550781 596.230469 429.285156 591.503906 428.675781 C 587.941406 428.214844 583.734375 427.984375 578.988281 427.984375 C 566.503906 427.984375 551.546875 429.613281 541.707031 431.960938 C 541.078125 432.058594 540.484375 432.191406 539.882812 432.304688 C 540.914062 430.769531 541.882812 429.25 542.796875 427.746094 C 551.183594 427.089844 568.316406 420.800781 577.957031 415.527344 C 588.050781 410.019531 595.835938 404.375 602.453125 397.765625 L 603.820312 396.414062 C 608.769531 391.492188 613.050781 387.246094 616.503906 380.566406 C 617.378906 378.886719 618.183594 377.21875 618.984375 375.574219 C 621.558594 370.257812 623.984375 365.238281 628.164062 360.632812 C 628.730469 360.011719 629.492188 359.25 630.355469 358.394531 C 634.417969 354.347656 640.554688 348.242188 640.738281 342.285156 C 646.058594 326.0625 641.304688 315.761719 635.003906 311.53125 L 630.566406 308.546875 L 631.480469 313.820312 C 632.34375 318.832031 628.933594 327.527344 626.433594 333.867188 C 625.976562 335.042969 625.546875 336.144531 625.148438 337.183594 C 622.367188 339.554688 619.859375 342.65625 617.890625 345.101562 C 617.222656 345.925781 616.648438 346.644531 616.195312 347.160156 C 614.03125 349.585938 611.742188 351.953125 609.53125 354.242188 C 606.507812 357.367188 603.378906 360.609375 600.445312 364.117188 C 597.15625 368.0625 595.933594 371.484375 595.027344 375.722656 C 594.210938 379.535156 594.210938 379.535156 592.488281 380.75 C 591.8125 381.214844 590.96875 381.8125 589.882812 382.660156 C 578.050781 391.941406 569.550781 392.65625 550.113281 393.664062 C 549.980469 393.023438 549.84375 392.375 549.683594 391.730469 C 557.335938 388.511719 564.835938 380.15625 572.519531 366.324219 C 579.335938 354.066406 580.859375 343.648438 580.925781 331.929688 C 595.316406 326.015625 601.566406 303.792969 598.484375 290.886719 C 596.480469 282.480469 590.144531 261.601562 574.703125 249.261719 C 568.800781 244.542969 562.1875 242.625 554.164062 243.335938 C 555.699219 229.671875 545.023438 210.75 533.433594 198.542969 C 511.75 175.707031 473.332031 157.835938 436.421875 182.644531 L 430.425781 186.671875 L 437.636719 187.132812 C 437.722656 187.132812 440.085938 187.292969 443.707031 187.84375 C 453.964844 189.382812 474.390625 193.96875 482.417969 206.636719 C 483.980469 209.109375 484.992188 211.800781 485.453125 214.691406 C 470.792969 209.539062 458.660156 203.726562 448.132812 193.875 L 443.644531 189.671875 L 444 195.8125 C 445.015625 213.25 465.820312 230.019531 484.230469 234.5625 C 493.121094 243.261719 501.503906 248.992188 515.039062 250.722656 C 516.210938 250.878906 518.703125 252.128906 521.113281 253.335938 C 524.113281 254.847656 530.636719 257.839844 530.636719 257.839844 C 530.675781 259.539062 529.730469 260.792969 528.183594 262.703125 C 527.195312 263.925781 526.175781 265.183594 525.460938 266.761719 C 523.679688 270.667969 523.300781 276.566406 524.539062 281.097656 C 525.925781 286.148438 529.378906 290.671875 532.722656 295.042969 C 534.710938 297.640625 536.597656 300.121094 538.027344 302.628906 C 538.027344 302.628906 534.414062 315.953125 528.6875 324.148438 C 526.511719 327.269531 523.296875 330.066406 520.128906 332.734375 C 518.582031 334.050781 517.101562 335.308594 515.8125 336.566406 C 508.148438 328.320312 499.234375 319.765625 489.039062 310.871094 C 476.109375 299.597656 456.042969 288.273438 405.320312 289.757812 C 354.59375 288.273438 334.523438 299.597656 321.597656 310.871094 C 311.398438 319.765625 302.488281 328.320312 294.824219 336.566406 C 293.535156 335.308594 292.054688 334.050781 290.507812 332.734375 C 287.34375 330.066406 284.070312 327.304688 281.949219 324.148438 C 276.828125 316.535156 273.921875 309.6875 272.808594 302.597656 L 272.613281 302.628906 C 274.039062 300.121094 275.929688 297.640625 277.917969 295.042969 C 281.257812 290.671875 284.710938 286.148438 286.097656 281.097656 C 287.335938 276.566406 286.957031 270.667969 285.175781 266.761719 C 284.460938 265.183594 283.441406 263.925781 282.453125 262.703125 C 280.90625 260.792969 279.960938 259.539062 280 257.839844 C 280 257.839844 286.519531 254.847656 289.527344 253.335938 C 291.9375 252.128906 294.421875 250.878906 295.597656 250.722656 C 309.132812 248.992188 317.515625 243.261719 326.40625 234.5625 C 344.816406 230.019531 365.621094 213.25 366.632812 195.8125 L 366.992188 189.671875 L 362.5 193.875 C 351.976562 203.726562 339.847656 209.539062 325.179688 214.691406 C 325.644531 211.800781 326.65625 209.109375 328.21875 206.636719 C 336.246094 193.96875 356.664062 189.382812 366.929688 187.84375 C 370.554688 187.292969 372.914062 187.132812 373 187.132812 L 380.210938 186.671875 L 374.214844 182.644531 C 337.304688 157.835938 298.890625 175.707031 277.207031 198.542969 C 265.613281 210.75 254.9375 229.671875 256.472656 243.335938 C 248.441406 242.625 241.828125 244.542969 235.933594 249.261719 C 220.484375 261.601562 214.15625 282.480469 212.148438 290.886719 C 209.070312 303.792969 215.320312 326.015625 229.710938 331.929688 C 229.78125 343.648438 231.300781 354.066406 238.109375 366.324219 C 245.804688 380.15625 253.300781 388.511719 260.953125 391.730469 C 260.792969 392.375 260.65625 393.023438 260.523438 393.664062 C 241.085938 392.65625 232.578125 391.941406 220.757812 382.660156 C 219.667969 381.8125 218.824219 381.214844 218.152344 380.75 C 216.425781 379.535156 216.425781 379.535156 215.609375 375.722656 C 214.703125 371.484375 213.480469 368.0625 210.191406 364.117188 C 207.257812 360.609375 204.132812 357.367188 201.105469 354.242188 C 198.894531 351.953125 196.605469 349.585938 194.441406 347.160156 C 193.988281 346.644531 193.414062 345.925781 192.75 345.101562 C 190.777344 342.65625 188.269531 339.554688 185.488281 337.183594 C 185.089844 336.144531 184.664062 335.042969 184.203125 333.867188 C 181.707031 327.527344 178.292969 318.832031 179.15625 313.820312 L 180.070312 308.546875 L 175.632812 311.53125 C 169.328125 315.761719 164.570312 326.0625 169.902344 342.285156 C 170.078125 348.242188 176.21875 354.347656 180.285156 358.394531 C 181.144531 359.25 181.90625 360.011719 182.472656 360.632812 C 186.652344 365.238281 189.078125 370.257812 191.652344 375.574219 C 192.453125 377.21875 193.257812 378.886719 194.132812 380.566406 C 197.585938 387.246094 201.867188 391.492188 206.816406 396.414062 L 208.183594 397.765625 C 214.804688 404.375 222.585938 410.019531 232.679688 415.527344 C 242.320312 420.800781 259.449219 427.089844 267.835938 427.746094 C 268.75 429.25 269.722656 430.769531 270.753906 432.304688 C 270.152344 432.191406 269.558594 432.058594 268.929688 431.960938 C 259.082031 429.613281 244.132812 427.984375 231.648438 427.984375 C 226.898438 427.984375 222.6875 428.214844 219.132812 428.675781 C 214.40625 429.285156 209.789062 429.550781 203.703125 429.550781 C 201.046875 429.550781 198.335938 429.5 195.453125 429.457031 L 193.648438 429.425781 C 184.132812 429.265625 176.128906 429.8125 166.328125 430.570312 L 165.359375 430.636719 C 159.910156 431.039062 151.046875 431.707031 146.554688 435.933594 C 138.539062 433.367188 129.597656 434.941406 122.417969 440.257812 C 115.792969 445.15625 111.921875 452.390625 112.320312 459.132812 L 112.578125 463.585938 L 116.039062 460.777344 C 127.21875 451.703125 138.261719 451.289062 151.363281 453.527344 C 156.53125 456.460938 162.921875 457.726562 165.777344 458.164062 C 171.644531 459.070312 178.003906 459.511719 185.234375 459.511719 C 196.378906 459.511719 207.804688 458.453125 218.847656 457.433594 C 222.871094 457.0625 226.839844 456.699219 230.734375 456.386719 C 232.914062 456.214844 235.039062 455.949219 237.140625 455.644531 L 237.140625 455.667969 C 251.625 454.171875 274.976562 457.757812 290.433594 460.128906 C 291.867188 460.347656 293.214844 460.550781 294.503906 460.742188 C 295.542969 461.8125 296.59375 462.875 297.648438 463.941406 C 294.394531 462.90625 291.417969 462.140625 288.933594 461.738281 C 285.976562 461.253906 282.792969 460.96875 279.464844 460.894531 C 271.933594 460.71875 264.382812 461.613281 258.207031 463.40625 C 250.910156 465.523438 240.652344 470.589844 234.347656 475.1875 C 227.992188 479.824219 221.65625 484.28125 214.097656 487.835938 C 211.945312 488.847656 209.746094 489.792969 207.605469 490.710938 C 202.167969 493.039062 196.542969 495.449219 191.375 499.148438 C 188.023438 501.550781 182.679688 506.140625 181.464844 511.660156 C 173.304688 517.023438 168.742188 523.144531 167.542969 530.378906 C 166.207031 538.398438 167.628906 548.230469 168.8125 554.921875 L 169.984375 561.523438 L 173.089844 555.589844 C 174.375 553.144531 175.917969 548.652344 177.40625 544.3125 C 178.457031 541.234375 179.457031 538.335938 180.207031 536.617188 C 182.191406 532.078125 186.363281 526.769531 192.15625 525.234375 C 192.898438 525.339844 193.671875 525.410156 194.492188 525.429688 C 201.011719 525.578125 208.824219 522.925781 213.496094 521.339844 C 227.476562 516.589844 240.382812 510.289062 254.15625 501.488281 C 257.269531 499.503906 260.007812 496.988281 262.65625 494.5625 C 265.09375 492.335938 267.601562 490.019531 270.332031 488.21875 C 270.585938 488.050781 271.398438 487.671875 273.535156 487.722656 C 286.523438 488.027344 320.070312 502.878906 330.839844 509.941406 C 325.765625 510.519531 320.667969 511.175781 315.476562 511.839844 C 312.046875 512.289062 308.589844 512.734375 305.105469 513.160156 C 303.5 513.355469 301.734375 513.546875 299.859375 513.746094 C 284.398438 515.386719 261.039062 517.875 254.257812 533.058594 C 251.46875 539.296875 250.683594 544.15625 251.882812 547.839844 C 250.785156 555.257812 250.28125 559.96875 254.878906 567.421875 C 260.863281 577.128906 266.113281 583.964844 270.917969 588.320312 C 274.699219 591.746094 278.886719 594.847656 282.929688 597.847656 C 286.179688 600.253906 289.539062 602.738281 292.578125 605.324219 C 293.117188 605.78125 293.746094 606.328125 294.453125 606.9375 C 306.023438 616.960938 317.816406 626.035156 326.65625 626.035156 C 327.148438 626.035156 327.625 626 328.09375 625.941406 C 329.886719 626.609375 331.761719 627.457031 333.730469 628.351562 C 338.914062 630.710938 344.792969 633.390625 351.355469 633.574219 C 353.777344 633.636719 356.359375 633.710938 359.007812 633.710938 C 366.269531 633.710938 374.0625 633.175781 380.683594 630.566406 L 388.246094 627.578125 L 380.230469 626.1875 C 376.632812 625.558594 373.109375 623.929688 369.375 622.199219 C 365.757812 620.527344 362.015625 618.789062 358.042969 617.960938 C 356.097656 617.550781 354.222656 617.488281 352.417969 617.425781 C 350.273438 617.347656 348.246094 617.28125 346.25 616.652344 C 344.363281 616.054688 342.714844 614.105469 341.125 612.214844 C 339.972656 610.859375 338.777344 609.472656 337.390625 608.421875 C 336.515625 603.144531 333.589844 597.945312 328.683594 593.042969 C 326.894531 591.269531 325.230469 589.433594 323.617188 587.664062 C 320.101562 583.804688 316.464844 579.808594 311.542969 576.3125 C 310.226562 575.378906 308.925781 574.40625 307.617188 573.429688 C 302.746094 569.800781 297.710938 566.050781 291.796875 563.964844 C 290.210938 563.402344 288.5 562.976562 286.6875 562.527344 C 280.042969 560.886719 275.816406 559.484375 275.335938 554.960938 C 278.804688 554.621094 282.207031 554.117188 285.296875 553.660156 C 287.964844 553.261719 290.527344 552.890625 293.09375 552.515625 C 308.105469 550.332031 323.636719 548.074219 339.058594 543.945312 C 352.996094 540.21875 363.875 533.976562 373.5625 527.792969 C 377.097656 525.535156 379.117188 523.207031 379.640625 520.847656 C 386.226562 522.136719 393.726562 522.867188 405.054688 523.226562 L 405.054688 523.246094 C 405.148438 523.238281 405.230469 523.234375 405.320312 523.234375 C 405.40625 523.234375 405.488281 523.238281 405.582031 523.246094 L 405.582031 523.226562 C 416.910156 522.867188 424.410156 522.136719 430.996094 520.847656 C 431.519531 523.207031 433.539062 525.535156 437.078125 527.792969 C 446.761719 533.976562 457.644531 540.21875 471.578125 543.945312 C 487 548.074219 502.53125 550.332031 517.542969 552.515625 C 520.109375 552.890625 522.671875 553.261719 525.332031 553.660156 C 528.421875 554.117188 531.828125 554.621094 535.300781 554.960938 C 534.824219 559.484375 530.59375 560.886719 523.957031 562.527344 C 522.136719 562.976562 520.425781 563.402344 518.839844 563.964844 C 512.925781 566.050781 507.890625 569.800781 503.019531 573.429688 C 501.707031 574.40625 500.402344 575.378906 499.09375 576.3125 C 494.167969 579.808594 490.535156 583.804688 487.019531 587.664062 C 485.410156 589.433594 483.742188 591.269531 481.953125 593.042969 C 477.046875 597.945312 474.113281 603.144531 473.246094 608.421875 C 471.859375 609.472656 470.664062 610.859375 469.515625 612.214844 C 467.921875 614.105469 466.265625 616.054688 464.386719 616.652344 C 462.390625 617.28125 460.363281 617.347656 458.21875 617.425781 C 456.414062 617.488281 454.539062 617.550781 452.585938 617.960938 C 448.625 618.789062 444.878906 620.527344 441.261719 622.199219 C 437.53125 623.929688 434.003906 625.558594 430.398438 626.1875 L 422.390625 627.578125 L 429.953125 630.566406 C 436.574219 633.175781 444.371094 633.710938 451.628906 633.710938 C 454.28125 633.710938 456.859375 633.636719 459.28125 633.574219 C 465.84375 633.390625 471.722656 630.710938 476.90625 628.351562 C 478.878906 627.457031 480.746094 626.609375 482.546875 625.941406 C 483.011719 626 483.488281 626.035156 483.980469 626.035156 C 492.820312 626.035156 504.613281 616.960938 516.183594 606.9375 C 516.890625 606.328125 517.519531 605.78125 518.058594 605.324219 C 521.09375 602.738281 524.453125 600.253906 527.707031 597.847656 C 531.753906 594.847656 535.9375 591.746094 539.71875 588.320312 C 544.527344 583.964844 549.773438 577.128906 555.757812 567.421875 C 560.355469 559.96875 559.855469 555.257812 558.753906 547.839844 C 559.953125 544.15625 559.167969 539.296875 556.378906 533.058594 C 549.597656 517.875 526.238281 515.386719 510.78125 513.746094 C 508.898438 513.546875 507.136719 513.355469 505.53125 513.160156 C 502.039062 512.734375 498.589844 512.289062 495.160156 511.839844 C 489.96875 511.175781 484.875 510.519531 479.796875 509.941406 C 490.566406 502.878906 524.113281 488.027344 537.101562 487.722656 C 539.238281 487.671875 540.050781 488.050781 540.304688 488.21875 C 543.027344 490.019531 545.546875 492.335938 547.980469 494.5625 C 550.628906 496.988281 553.367188 499.503906 556.480469 501.488281 C 570.253906 510.289062 583.160156 516.589844 597.144531 521.339844 C 601.8125 522.925781 609.628906 525.578125 616.144531 525.429688 C 616.964844 525.410156 617.738281 525.339844 618.480469 525.234375 C 624.277344 526.769531 628.441406 532.078125 630.429688 536.617188 C 631.179688 538.335938 632.171875 541.234375 633.230469 544.3125 C 634.722656 548.652344 636.261719 553.144531 637.546875 555.589844 L 640.65625 561.523438 L 641.824219 554.921875 C 643.007812 548.230469 644.429688 538.398438 643.097656 530.378906 C 641.894531 523.144531 637.332031 517.023438 629.164062 511.660156 C 627.949219 506.140625 622.613281 501.550781 619.261719 499.148438 C 614.09375 495.449219 608.46875 493.039062 603.03125 490.710938 C 600.894531 489.792969 598.683594 488.847656 596.539062 487.835938 C 588.976562 484.28125 582.644531 479.824219 576.289062 475.1875 C 569.984375 470.589844 559.726562 465.523438 552.429688 463.40625 C 546.257812 461.613281 538.707031 460.71875 531.167969 460.894531 C 527.84375 460.96875 524.660156 461.253906 521.703125 461.738281 C 519.210938 462.140625 516.242188 462.90625 512.988281 463.941406 C 514.046875 462.875 515.097656 461.8125 516.132812 460.742188 C 517.425781 460.550781 518.769531 460.347656 520.207031 460.128906 C 535.660156 457.757812 559.011719 454.171875 573.496094 455.667969 L 573.496094 455.644531 C 575.597656 455.949219 577.722656 456.214844 579.902344 456.386719 C 583.796875 456.699219 587.765625 457.0625 591.78125 457.433594 C 602.832031 458.453125 614.25 459.511719 625.402344 459.511719 C 632.632812 459.511719 638.992188 459.070312 644.859375 458.164062 C 647.714844 457.726562 654.109375 456.460938 659.273438 453.527344 C 672.375 451.289062 683.417969 451.703125 694.601562 460.777344 L 698.058594 463.585938 L 698.320312 459.132812 C 698.714844 452.390625 694.84375 445.15625 688.21875 440.257812 " fill-opacity="1" fill-rule="nonzero"/><path fill="#bab195" d="M 457.792969 326.488281 C 456.765625 326.488281 455.933594 325.65625 455.933594 324.640625 C 455.933594 323.609375 456.765625 322.777344 457.792969 322.777344 C 458.816406 322.777344 459.648438 323.609375 459.648438 324.640625 C 459.648438 325.65625 458.816406 326.488281 457.792969 326.488281 " fill-opacity="1" fill-rule="nonzero"/><path fill="#bab195" d="M 457.644531 344.648438 C 455.867188 344.648438 454.417969 343.203125 454.417969 341.421875 C 454.417969 339.640625 455.867188 338.195312 457.644531 338.195312 C 459.433594 338.195312 460.878906 339.640625 460.878906 341.421875 C 460.878906 343.203125 459.433594 344.648438 457.644531 344.648438 " fill-opacity="1" fill-rule="nonzero"/><path fill="#bab195" d="M 467.929688 359.753906 C 465.570312 359.753906 463.648438 357.839844 463.648438 355.472656 C 463.648438 353.117188 465.570312 351.195312 467.929688 351.195312 C 470.289062 351.195312 472.207031 353.117188 472.207031 355.472656 C 472.207031 357.839844 470.289062 359.753906 467.929688 359.753906 " fill-opacity="1" fill-rule="nonzero"/><path fill="#bab195" d="M 480.507812 372.640625 C 477.710938 372.640625 475.441406 370.375 475.441406 367.582031 C 475.441406 364.785156 477.710938 362.519531 480.507812 362.519531 C 483.300781 362.519531 485.566406 364.785156 485.566406 367.582031 C 485.566406 370.375 483.300781 372.640625 480.507812 372.640625 " fill-opacity="1" fill-rule="nonzero"/><path fill="#bab195" d="M 493.222656 385.160156 C 490.132812 385.160156 487.628906 382.65625 487.628906 379.574219 C 487.628906 376.484375 490.132812 373.980469 493.222656 373.980469 C 496.3125 373.980469 498.8125 376.484375 498.8125 379.574219 C 498.8125 382.65625 496.3125 385.160156 493.222656 385.160156 " fill-opacity="1" fill-rule="nonzero"/><path fill="#bab195" d="M 504.417969 398.867188 C 501.152344 398.867188 498.503906 396.21875 498.503906 392.953125 C 498.503906 389.6875 501.152344 387.039062 504.417969 387.039062 C 507.683594 387.039062 510.332031 389.6875 510.332031 392.953125 C 510.332031 396.21875 507.683594 398.867188 504.417969 398.867188 " fill-opacity="1" fill-rule="nonzero"/><path fill="#bab195" d="M 509.453125 415.410156 C 506.109375 415.410156 503.410156 412.703125 503.410156 409.371094 C 503.410156 406.035156 506.109375 403.332031 509.453125 403.332031 C 512.785156 403.332031 515.484375 406.035156 515.484375 409.371094 C 515.484375 412.703125 512.785156 415.410156 509.453125 415.410156 " fill-opacity="1" fill-rule="nonzero"/><path fill="#bab195" d="M 504.375 431.964844 C 501.070312 431.964844 498.390625 429.285156 498.390625 425.976562 C 498.390625 422.675781 501.070312 419.996094 504.375 419.996094 C 507.683594 419.996094 510.363281 422.675781 510.363281 425.976562 C 510.363281 429.285156 507.683594 431.964844 504.375 431.964844 " fill-opacity="1" fill-rule="nonzero"/><path fill="#bab195" d="M 494.363281 446.003906 C 491.179688 446.003906 488.605469 443.425781 488.605469 440.25 C 488.605469 437.074219 491.179688 434.5 494.363281 434.5 C 497.539062 434.5 500.113281 437.074219 500.113281 440.25 C 500.113281 443.425781 497.539062 446.003906 494.363281 446.003906 " fill-opacity="1" fill-rule="nonzero"/><path fill="#bab195" d="M 481.921875 457.824219 C 478.972656 457.824219 476.582031 455.433594 476.582031 452.484375 C 476.582031 449.539062 478.972656 447.152344 481.921875 447.152344 C 484.867188 447.152344 487.257812 449.539062 487.257812 452.484375 C 487.257812 455.433594 484.867188 457.824219 481.921875 457.824219 " fill-opacity="1" fill-rule="nonzero"/><path fill="#bab195" d="M 468.335938 468.210938 C 465.71875 468.210938 463.597656 466.089844 463.597656 463.472656 C 463.597656 460.855469 465.71875 458.738281 468.335938 458.738281 C 470.953125 458.738281 473.082031 460.855469 473.082031 463.472656 C 473.082031 466.089844 470.953125 468.210938 468.335938 468.210938 " fill-opacity="1" fill-rule="nonzero"/><path fill="#bab195" d="M 454.292969 477.792969 C 452.128906 477.792969 450.371094 476.042969 450.371094 473.878906 C 450.371094 471.714844 452.128906 469.960938 454.292969 469.960938 C 456.457031 469.960938 458.207031 471.714844 458.207031 473.878906 C 458.207031 476.042969 456.457031 477.792969 454.292969 477.792969 " fill-opacity="1" fill-rule="nonzero"/><path fill="#bab195" d="M 440.292969 487.1875 C 438.726562 487.1875 437.449219 485.917969 437.449219 484.34375 C 437.449219 482.773438 438.726562 481.503906 440.292969 481.503906 C 441.863281 481.503906 443.140625 482.773438 443.140625 484.34375 C 443.140625 485.917969 441.863281 487.1875 440.292969 487.1875 " fill-opacity="1" fill-rule="nonzero"/><path fill="#bab195" d="M 427.148438 497.316406 C 426.335938 497.316406 425.675781 496.65625 425.675781 495.84375 C 425.675781 495.03125 426.335938 494.371094 427.148438 494.371094 C 427.957031 494.371094 428.621094 495.03125 428.621094 495.84375 C 428.621094 496.65625 427.957031 497.316406 427.148438 497.316406 " fill-opacity="1" fill-rule="nonzero"/><path fill="#bab195" d="M 346.957031 326.488281 C 345.929688 326.488281 345.101562 325.65625 345.101562 324.640625 C 345.101562 323.609375 345.929688 322.777344 346.957031 322.777344 C 347.980469 322.777344 348.8125 323.609375 348.8125 324.640625 C 348.8125 325.65625 347.980469 326.488281 346.957031 326.488281 " fill-opacity="1" fill-rule="nonzero"/><path fill="#bab195" d="M 347.09375 344.648438 C 345.3125 344.648438 343.867188 343.203125 343.867188 341.421875 C 343.867188 339.640625 345.3125 338.195312 347.09375 338.195312 C 348.875 338.195312 350.324219 339.640625 350.324219 341.421875 C 350.324219 343.203125 348.875 344.648438 347.09375 344.648438 " fill-opacity="1" fill-rule="nonzero"/><path fill="#bab195" d="M 336.820312 359.753906 C 334.453125 359.753906 332.539062 357.839844 332.539062 355.472656 C 332.539062 353.117188 334.453125 351.195312 336.820312 351.195312 C 339.179688 351.195312 341.09375 353.117188 341.09375 355.472656 C 341.09375 357.839844 339.179688 359.753906 336.820312 359.753906 " fill-opacity="1" fill-rule="nonzero"/><path fill="#bab195" d="M 324.242188 372.640625 C 321.441406 372.640625 319.175781 370.375 319.175781 367.582031 C 319.175781 364.785156 321.441406 362.519531 324.242188 362.519531 C 327.035156 362.519531 329.300781 364.785156 329.300781 367.582031 C 329.300781 370.375 327.035156 372.640625 324.242188 372.640625 " fill-opacity="1" fill-rule="nonzero"/><path fill="#bab195" d="M 311.523438 385.160156 C 308.433594 385.160156 305.929688 382.65625 305.929688 379.574219 C 305.929688 376.484375 308.433594 373.980469 311.523438 373.980469 C 314.613281 373.980469 317.113281 376.484375 317.113281 379.574219 C 317.113281 382.65625 314.613281 385.160156 311.523438 385.160156 " fill-opacity="1" fill-rule="nonzero"/><path fill="#bab195" d="M 300.324219 398.867188 C 297.058594 398.867188 294.414062 396.21875 294.414062 392.953125 C 294.414062 389.6875 297.058594 387.039062 300.324219 387.039062 C 303.59375 387.039062 306.238281 389.6875 306.238281 392.953125 C 306.238281 396.21875 303.59375 398.867188 300.324219 398.867188 " fill-opacity="1" fill-rule="nonzero"/><path fill="#bab195" d="M 295.296875 415.410156 C 291.960938 415.410156 289.253906 412.703125 289.253906 409.371094 C 289.253906 406.035156 291.960938 403.332031 295.296875 403.332031 C 298.632812 403.332031 301.335938 406.035156 301.335938 409.371094 C 301.335938 412.703125 298.632812 415.410156 295.296875 415.410156 " fill-opacity="1" fill-rule="nonzero"/><path fill="#bab195" d="M 300.367188 431.964844 C 297.0625 431.964844 294.382812 429.285156 294.382812 425.976562 C 294.382812 422.675781 297.0625 419.996094 300.367188 419.996094 C 303.675781 419.996094 306.359375 422.675781 306.359375 425.976562 C 306.359375 429.285156 303.675781 431.964844 300.367188 431.964844 " fill-opacity="1" fill-rule="nonzero"/><path fill="#bab195" d="M 310.386719 446.003906 C 307.207031 446.003906 304.628906 443.425781 304.628906 440.25 C 304.628906 437.074219 307.207031 434.5 310.386719 434.5 C 313.5625 434.5 316.136719 437.074219 316.136719 440.25 C 316.136719 443.425781 313.5625 446.003906 310.386719 446.003906 " fill-opacity="1" fill-rule="nonzero"/><path fill="#bab195" d="M 322.824219 457.824219 C 319.875 457.824219 317.484375 455.433594 317.484375 452.484375 C 317.484375 449.539062 319.875 447.152344 322.824219 447.152344 C 325.769531 447.152344 328.160156 449.539062 328.160156 452.484375 C 328.160156 455.433594 325.769531 457.824219 322.824219 457.824219 " fill-opacity="1" fill-rule="nonzero"/><path fill="#bab195" d="M 336.402344 468.210938 C 333.785156 468.210938 331.667969 466.089844 331.667969 463.472656 C 331.667969 460.855469 333.785156 458.738281 336.402344 458.738281 C 339.023438 458.738281 341.148438 460.855469 341.148438 463.472656 C 341.148438 466.089844 339.023438 468.210938 336.402344 468.210938 " fill-opacity="1" fill-rule="nonzero"/><path fill="#bab195" d="M 350.457031 477.792969 C 348.289062 477.792969 346.535156 476.042969 346.535156 473.878906 C 346.535156 471.714844 348.289062 469.960938 350.457031 469.960938 C 352.621094 469.960938 354.375 471.714844 354.375 473.878906 C 354.375 476.042969 352.621094 477.792969 350.457031 477.792969 " fill-opacity="1" fill-rule="nonzero"/><path fill="#bab195" d="M 364.449219 487.1875 C 362.875 487.1875 361.605469 485.917969 361.605469 484.34375 C 361.605469 482.773438 362.875 481.503906 364.449219 481.503906 C 366.023438 481.503906 367.292969 482.773438 367.292969 484.34375 C 367.292969 485.917969 366.023438 487.1875 364.449219 487.1875 " fill-opacity="1" fill-rule="nonzero"/><path fill="#bab195" d="M 377.59375 497.316406 C 376.78125 497.316406 376.128906 496.65625 376.128906 495.84375 C 376.128906 495.03125 376.78125 494.371094 377.59375 494.371094 C 378.40625 494.371094 379.066406 495.03125 379.066406 495.84375 C 379.066406 496.65625 378.40625 497.316406 377.59375 497.316406 " fill-opacity="1" fill-rule="nonzero"/><path fill="#bab195" d="M 404.363281 574.542969 L 384.410156 571.007812 L 404.363281 567.480469 L 407.898438 547.53125 L 411.429688 567.480469 L 431.382812 571.007812 L 411.429688 574.542969 L 407.898438 594.488281 L 404.363281 574.542969 " fill-opacity="1" fill-rule="nonzero"/><path fill="#bab195" d="M 410.75 243.550781 L 419.238281 237.371094 L 408.742188 237.371094 L 405.5 227.394531 L 402.253906 237.371094 L 391.757812 237.371094 L 400.253906 243.550781 L 397.011719 253.519531 L 405.5 247.355469 L 413.988281 253.519531 Z M 435.976562 231.9375 L 417.148438 245.625 L 424.335938 267.753906 L 405.5 254.074219 L 386.667969 267.753906 L 393.859375 245.625 L 375.019531 231.9375 L 398.308594 231.9375 L 405.5 209.808594 L 412.699219 231.9375 L 435.976562 231.9375 " fill-opacity="1" fill-rule="nonzero"/><path fill="#bab195" d="M 248.089844 157.710938 L 256.574219 151.535156 L 246.078125 151.535156 L 242.828125 141.5625 L 239.589844 151.535156 L 229.09375 151.535156 L 237.589844 157.710938 L 234.347656 167.679688 L 242.828125 161.515625 L 251.332031 167.679688 Z M 273.308594 146.097656 L 254.484375 159.785156 L 261.675781 181.917969 L 242.828125 168.234375 L 224.003906 181.917969 L 231.195312 159.785156 L 212.355469 146.097656 L 235.644531 146.097656 L 242.828125 123.96875 L 250.035156 146.097656 L 273.308594 146.097656 " fill-opacity="1" fill-rule="nonzero"/><g clip-path="url(#804b6a3fd6)"><path fill="#bab195" d="M 396.03125 125.152344 L 404.261719 121.367188 L 405.890625 130.273438 L 409.78125 122.09375 L 416.757812 127.855469 L 414.460938 119.09375 L 423.523438 119.039062 L 416.140625 113.796875 L 423.039062 107.929688 L 414.007812 108.660156 L 415.507812 99.726562 L 409.070312 106.09375 L 404.480469 98.28125 L 403.644531 107.292969 L 395.105469 104.261719 L 400.257812 111.710938 L 391.765625 114.875 L 400.5 117.269531 Z M 391.808594 109.0625 L 381.035156 93.488281 L 398.875 99.839844 L 400.636719 80.992188 L 410.21875 97.316406 L 423.6875 84.011719 L 420.535156 102.675781 L 439.398438 101.140625 L 424.984375 113.40625 L 440.429688 124.347656 L 421.503906 124.492188 L 426.292969 142.804688 L 411.699219 130.730469 L 403.59375 147.835938 L 400.171875 129.226562 L 382.972656 137.117188 L 392.320312 120.660156 L 374.0625 115.660156 L 391.808594 109.0625 " fill-opacity="1" fill-rule="nonzero"/></g><path fill="#bab195" d="M 249.335938 655.023438 C 245.402344 655.023438 242.195312 658.222656 242.195312 662.15625 C 242.195312 666.09375 245.402344 669.296875 249.335938 669.296875 C 253.273438 669.296875 256.476562 666.09375 256.476562 662.15625 C 256.476562 658.222656 253.273438 655.023438 249.335938 655.023438 Z M 249.335938 673.648438 C 243 673.648438 237.847656 668.492188 237.847656 662.15625 C 237.847656 655.820312 243 650.667969 249.335938 650.667969 C 255.679688 650.667969 260.832031 655.820312 260.832031 662.15625 C 260.832031 668.492188 255.679688 673.648438 249.335938 673.648438 " fill-opacity="1" fill-rule="nonzero"/><path fill="#bab195" d="M 187.59375 617.15625 L 193.019531 614.664062 L 194.09375 620.539062 L 196.65625 615.140625 L 201.253906 618.945312 L 199.746094 613.179688 L 205.71875 613.136719 L 200.851562 609.675781 L 205.402344 605.8125 L 199.4375 606.289062 L 200.4375 600.410156 L 196.183594 604.605469 L 193.164062 599.453125 L 192.609375 605.402344 L 186.984375 603.398438 L 190.375 608.304688 L 184.789062 610.390625 L 190.539062 611.972656 Z M 181.925781 605.648438 L 172.921875 592.621094 L 187.839844 597.929688 L 189.324219 582.167969 L 197.34375 595.824219 L 208.605469 584.695312 L 205.976562 600.316406 L 221.757812 599.019531 L 209.695312 609.285156 L 222.617188 618.449219 L 206.78125 618.558594 L 210.78125 633.878906 L 198.582031 623.789062 L 191.792969 638.09375 L 188.929688 622.527344 L 174.539062 629.132812 L 182.359375 615.363281 L 167.089844 611.171875 L 181.925781 605.648438 " fill-opacity="1" fill-rule="nonzero"/><g clip-path="url(#0a9bfdd795)"><path fill="#bab195" d="M 98.4375 386 L 103.867188 383.511719 L 104.945312 389.378906 L 107.5 383.988281 L 112.105469 387.792969 L 110.589844 382.019531 L 116.558594 381.976562 L 111.703125 378.515625 L 116.246094 374.660156 L 110.285156 375.136719 L 111.285156 369.257812 L 107.035156 373.453125 L 104.007812 368.292969 L 103.453125 374.246094 L 97.832031 372.246094 L 101.226562 377.144531 L 95.632812 379.234375 L 101.390625 380.8125 Z M 92.773438 374.496094 L 83.765625 361.46875 L 98.691406 366.773438 L 100.167969 351.007812 L 108.183594 364.664062 L 119.453125 353.539062 L 116.824219 369.15625 L 132.605469 367.859375 L 120.542969 378.125 L 133.46875 387.292969 L 117.628906 387.40625 L 121.632812 402.722656 L 109.425781 392.632812 L 102.640625 406.941406 L 99.777344 391.367188 L 85.386719 397.972656 L 93.207031 384.203125 L 77.9375 380.019531 L 92.773438 374.496094 " fill-opacity="1" fill-rule="nonzero"/></g><path fill="#bab195" d="M 176.753906 211.992188 L 196.707031 208.460938 L 176.753906 204.933594 L 173.222656 184.980469 L 169.691406 204.933594 L 149.734375 208.460938 L 169.691406 211.992188 L 173.222656 231.9375 L 176.753906 211.992188 " fill-opacity="1" fill-rule="nonzero"/><path fill="#bab195" d="M 310.339844 120.558594 C 310.339844 124.496094 313.542969 127.699219 317.484375 127.699219 C 321.421875 127.699219 324.625 124.496094 324.625 120.558594 C 324.625 116.621094 321.421875 113.421875 317.484375 113.421875 C 313.542969 113.421875 310.339844 116.621094 310.339844 120.558594 Z M 305.992188 120.558594 C 305.992188 114.226562 311.148438 109.074219 317.484375 109.074219 C 323.820312 109.074219 328.972656 114.226562 328.972656 120.558594 C 328.972656 126.894531 323.820312 132.046875 317.484375 132.046875 C 311.148438 132.046875 305.992188 126.894531 305.992188 120.558594 " fill-opacity="1" fill-rule="nonzero"/><path fill="#bab195" d="M 307.363281 691.941406 L 315.851562 685.777344 L 324.339844 691.941406 L 321.101562 681.96875 L 329.597656 675.792969 L 319.101562 675.792969 L 315.851562 665.816406 L 312.613281 675.792969 L 302.117188 675.792969 L 310.605469 681.96875 Z M 308.65625 670.351562 L 315.851562 648.222656 L 323.046875 670.351562 L 346.332031 670.351562 L 327.496094 684.046875 L 334.6875 706.175781 L 315.851562 692.496094 L 297.019531 706.175781 L 304.207031 684.046875 L 285.378906 670.351562 L 308.65625 670.351562 " fill-opacity="1" fill-rule="nonzero"/><path fill="#bab195" d="M 123.898438 294.609375 L 132.390625 288.445312 L 140.878906 294.609375 L 137.640625 284.636719 L 146.132812 278.460938 L 135.636719 278.460938 L 132.390625 268.492188 L 129.152344 278.460938 L 118.65625 278.460938 L 127.136719 284.636719 Z M 125.191406 273.019531 L 132.390625 250.898438 L 139.582031 273.019531 L 162.871094 273.019531 L 144.03125 286.714844 L 151.226562 308.84375 L 132.390625 295.164062 L 113.550781 308.84375 L 120.746094 286.714844 L 101.917969 273.019531 L 125.191406 273.019531 " fill-opacity="1" fill-rule="nonzero"/><path fill="#bab195" d="M 117.15625 501.292969 L 135.035156 498.128906 L 117.15625 494.96875 L 114 477.097656 L 110.832031 494.96875 L 92.957031 498.128906 L 110.832031 501.292969 L 114 519.164062 L 117.15625 501.292969 " fill-opacity="1" fill-rule="nonzero"/><path fill="#bab195" d="M 127.894531 563.957031 C 127.894531 567.886719 131.09375 571.097656 135.035156 571.097656 C 138.972656 571.097656 142.175781 567.886719 142.175781 563.957031 C 142.175781 560.019531 138.972656 556.816406 135.035156 556.816406 C 131.09375 556.816406 127.894531 560.019531 127.894531 563.957031 Z M 123.539062 563.957031 C 123.539062 557.621094 128.699219 552.464844 135.035156 552.464844 C 141.371094 552.464844 146.523438 557.621094 146.523438 563.957031 C 146.523438 570.292969 141.371094 575.441406 135.035156 575.441406 C 128.699219 575.441406 123.539062 570.292969 123.539062 563.957031 " fill-opacity="1" fill-rule="nonzero"/><path fill="#bab195" d="M 558.835938 167.679688 L 567.328125 161.515625 L 575.816406 167.679688 L 572.570312 157.710938 L 581.070312 151.535156 L 570.570312 151.535156 L 567.328125 141.5625 L 564.089844 151.535156 L 553.59375 151.535156 L 562.074219 157.710938 Z M 560.128906 146.097656 L 567.328125 123.96875 L 574.523438 146.097656 L 597.808594 146.097656 L 578.96875 159.785156 L 586.15625 181.917969 L 567.328125 168.234375 L 548.488281 181.917969 L 555.683594 159.785156 L 536.855469 146.097656 L 560.128906 146.097656 " fill-opacity="1" fill-rule="nonzero"/><path fill="#bab195" d="M 553.6875 662.15625 C 553.6875 666.09375 556.882812 669.296875 560.824219 669.296875 C 564.761719 669.296875 567.964844 666.09375 567.964844 662.15625 C 567.964844 658.222656 564.761719 655.023438 560.824219 655.023438 C 556.882812 655.023438 553.6875 658.222656 553.6875 662.15625 Z M 549.332031 662.15625 C 549.332031 655.820312 554.488281 650.667969 560.824219 650.667969 C 567.160156 650.667969 572.320312 655.820312 572.320312 662.15625 C 572.320312 668.492188 567.160156 673.648438 560.824219 673.648438 C 554.488281 673.648438 549.332031 668.492188 549.332031 662.15625 " fill-opacity="1" fill-rule="nonzero"/><path fill="#bab195" d="M 619.625 611.972656 L 625.375 610.390625 L 619.78125 608.304688 L 623.179688 603.398438 L 617.554688 605.402344 L 617 599.453125 L 613.976562 604.605469 L 609.726562 600.410156 L 610.722656 606.289062 L 604.761719 605.8125 L 609.3125 609.675781 L 604.449219 613.136719 L 610.417969 613.179688 L 608.910156 618.945312 L 613.507812 615.140625 L 616.0625 620.539062 L 617.140625 614.664062 L 622.570312 617.15625 Z M 643.070312 611.171875 L 627.804688 615.363281 L 635.621094 629.132812 L 621.230469 622.527344 L 618.375 638.09375 L 611.582031 623.789062 L 599.375 633.878906 L 603.386719 618.558594 L 587.546875 618.449219 L 600.464844 609.285156 L 588.402344 599.019531 L 604.191406 600.316406 L 601.554688 584.695312 L 612.824219 595.824219 L 620.839844 582.167969 L 622.320312 597.929688 L 637.246094 592.621094 L 628.238281 605.648438 L 643.070312 611.171875 " fill-opacity="1" fill-rule="nonzero"/><g clip-path="url(#f51961798b)"><path fill="#bab195" d="M 708.777344 380.8125 L 714.527344 379.234375 L 708.941406 377.144531 L 712.332031 372.246094 L 706.710938 374.246094 L 706.152344 368.292969 L 703.132812 373.453125 L 698.878906 369.257812 L 699.878906 375.136719 L 693.921875 374.660156 L 698.464844 378.515625 L 693.597656 381.976562 L 699.570312 382.019531 L 698.058594 387.792969 L 702.660156 383.988281 L 705.222656 389.378906 L 706.296875 383.511719 L 711.722656 386 Z M 732.226562 380.019531 L 716.957031 384.203125 L 724.777344 397.972656 L 710.386719 391.367188 L 707.523438 406.941406 L 700.742188 392.632812 L 688.535156 402.722656 L 692.535156 387.40625 L 676.699219 387.292969 L 689.621094 378.125 L 677.558594 367.859375 L 693.339844 369.15625 L 690.710938 353.539062 L 701.972656 364.664062 L 709.992188 351.007812 L 711.46875 366.773438 L 726.394531 361.46875 L 717.390625 374.496094 L 732.226562 380.019531 " fill-opacity="1" fill-rule="nonzero"/></g><path fill="#bab195" d="M 633.414062 211.992188 L 613.460938 208.460938 L 633.414062 204.933594 L 636.941406 184.980469 L 640.472656 204.933594 L 660.433594 208.460938 L 640.472656 211.992188 L 636.941406 231.9375 L 633.414062 211.992188 " fill-opacity="1" fill-rule="nonzero"/><path fill="#bab195" d="M 492.683594 113.421875 C 488.742188 113.421875 485.539062 116.621094 485.539062 120.558594 C 485.539062 124.496094 488.742188 127.699219 492.683594 127.699219 C 496.617188 127.699219 499.824219 124.496094 499.824219 120.558594 C 499.824219 116.621094 496.617188 113.421875 492.683594 113.421875 Z M 492.683594 132.046875 C 486.347656 132.046875 481.191406 126.894531 481.191406 120.558594 C 481.191406 114.226562 486.347656 109.074219 492.683594 109.074219 C 499.019531 109.074219 504.171875 114.226562 504.171875 120.558594 C 504.171875 126.894531 499.019531 132.046875 492.683594 132.046875 " fill-opacity="1" fill-rule="nonzero"/><path fill="#bab195" d="M 499.558594 681.96875 L 508.046875 675.792969 L 497.546875 675.792969 L 494.304688 665.816406 L 491.066406 675.792969 L 480.570312 675.792969 L 489.0625 681.96875 L 485.824219 691.941406 L 494.304688 685.777344 L 502.800781 691.941406 Z M 524.785156 670.351562 L 505.960938 684.046875 L 513.144531 706.175781 L 494.304688 692.496094 L 475.480469 706.175781 L 482.671875 684.046875 L 463.832031 670.351562 L 487.121094 670.351562 L 494.304688 648.222656 L 501.511719 670.351562 L 524.785156 670.351562 " fill-opacity="1" fill-rule="nonzero"/><path fill="#bab195" d="M 683.023438 284.636719 L 691.511719 278.460938 L 681.015625 278.460938 L 677.765625 268.492188 L 674.527344 278.460938 L 664.03125 278.460938 L 672.527344 284.636719 L 669.285156 294.609375 L 677.765625 288.445312 L 686.261719 294.609375 Z M 708.246094 273.019531 L 689.421875 286.714844 L 696.605469 308.84375 L 677.765625 295.164062 L 658.941406 308.84375 L 666.132812 286.714844 L 647.292969 273.019531 L 670.582031 273.019531 L 677.765625 250.898438 L 684.972656 273.019531 L 708.246094 273.019531 " fill-opacity="1" fill-rule="nonzero"/><path fill="#bab195" d="M 693.007812 501.292969 L 675.132812 498.128906 L 693.007812 494.96875 L 696.167969 477.097656 L 699.332031 494.96875 L 717.207031 498.128906 L 699.332031 501.292969 L 696.167969 519.164062 L 693.007812 501.292969 " fill-opacity="1" fill-rule="nonzero"/><path fill="#bab195" d="M 675.132812 556.816406 C 671.191406 556.816406 667.988281 560.019531 667.988281 563.957031 C 667.988281 567.886719 671.191406 571.097656 675.132812 571.097656 C 679.070312 571.097656 682.273438 567.886719 682.273438 563.957031 C 682.273438 560.019531 679.070312 556.816406 675.132812 556.816406 Z M 675.132812 575.441406 C 668.792969 575.441406 663.640625 570.292969 663.640625 563.957031 C 663.640625 557.621094 668.792969 552.464844 675.132812 552.464844 C 681.46875 552.464844 686.621094 557.621094 686.621094 563.957031 C 686.621094 570.292969 681.46875 575.441406 675.132812 575.441406 " fill-opacity="1" fill-rule="nonzero"/><g clip-path="url(#ef72657eec)"><path fill="#bab195" d="M 397.542969 706.3125 L 405.773438 702.535156 L 407.40625 711.433594 L 411.289062 703.257812 L 418.273438 709.027344 L 415.976562 700.261719 L 425.039062 700.207031 L 417.652344 694.964844 L 424.546875 689.089844 L 415.519531 689.820312 L 417.023438 680.894531 L 410.585938 687.253906 L 405.992188 679.449219 L 405.15625 688.460938 L 396.617188 685.429688 L 401.769531 692.878906 L 393.273438 696.042969 L 402.007812 698.433594 Z M 393.320312 690.222656 L 382.554688 674.65625 L 400.390625 681 L 402.152344 662.15625 L 411.738281 678.480469 L 425.203125 665.179688 L 422.042969 683.839844 L 440.910156 682.304688 L 426.492188 694.570312 L 441.941406 705.507812 L 423.011719 705.652344 L 427.800781 723.964844 L 413.214844 711.894531 L 405.109375 728.996094 L 401.683594 710.398438 L 384.484375 718.277344 L 393.828125 701.824219 L 375.582031 696.820312 L 393.320312 690.222656 " fill-opacity="1" fill-rule="nonzero"/></g></svg>