<svg xmlns="http://www.w3.org/2000/svg" xmlns:xlink="http://www.w3.org/1999/xlink" width="1080" zoomAndPan="magnify" viewBox="0 0 810 809.999993" height="1080" preserveAspectRatio="xMidYMid meet" version="1.0"><defs><clipPath id="e50126b72f"><path d="M 367 661 L 438 661 L 438 728.21875 L 367 728.21875 Z M 367 661 " clip-rule="nonzero"/></clipPath><clipPath id="4c60a51bde"><path d="M 683 362.457031 L 723.6875 362.457031 L 723.6875 403 L 683 403 Z M 683 362.457031 " clip-rule="nonzero"/></clipPath></defs><rect x="-81" width="972" fill="#ffffff" y="-80.999999" height="971.999992" fill-opacity="1"/><rect x="-81" width="972" fill="#ffffff" y="-80.999999" height="971.999992" fill-opacity="1"/><rect x="-81" width="972" fill="#11091a" y="-80.999999" height="971.999992" fill-opacity="1"/><path fill="#bab195" d="M 491.113281 439.609375 C 495.515625 432.953125 495.949219 424.101562 492.410156 414.5 C 476.398438 420.625 467.820312 433 466.847656 451.480469 C 477.714844 450.890625 486.480469 446.636719 491.113281 439.609375 Z M 504.210938 406.109375 L 505.023438 411.207031 C 502.304688 411.640625 499.75 412.207031 497.316406 412.890625 C 501.367188 424 500.726562 434.425781 495.425781 442.460938 C 489.808594 450.949219 479.460938 456.046875 466.765625 456.660156 C 466.796875 458.371094 466.894531 460.132812 467.046875 461.949219 L 461.910156 462.382812 C 459.226562 430.464844 473.859375 411 504.210938 406.109375 " fill-opacity="1" fill-rule="nonzero"/><path fill="#bab195" d="M 445.078125 467.449219 L 448.742188 471.082031 C 430.394531 489.578125 419.558594 531.519531 434.371094 575.894531 L 429.476562 577.523438 C 417.765625 542.4375 419.363281 493.367188 445.078125 467.449219 " fill-opacity="1" fill-rule="nonzero"/><path fill="#bab195" d="M 246.019531 222.410156 C 241.425781 202.972656 224.265625 190.886719 197.246094 188.21875 C 194.929688 189.09375 192.628906 190 190.355469 190.914062 C 182.050781 194.191406 173.527344 197.574219 164.402344 199.058594 C 178.777344 207.820312 195.09375 210.90625 212.234375 214.144531 C 223.492188 216.277344 235 218.457031 246.019531 222.410156 Z M 292.628906 389.667969 C 293.390625 386.785156 294.105469 383.785156 294.796875 380.660156 C 293.015625 381.050781 291.15625 381.214844 289.269531 381.214844 C 283.46875 381.214844 277.355469 379.6875 272.085938 378.367188 C 270.949219 378.085938 269.875 377.816406 268.851562 377.574219 C 262.238281 376.023438 255.441406 373.371094 248.855469 370.804688 C 239.34375 367.09375 229.503906 363.253906 220.09375 362.671875 C 214.988281 362.367188 210.414062 363.253906 205.578125 364.199219 C 201.796875 364.933594 197.914062 365.699219 193.652344 365.886719 C 192.789062 365.925781 191.8125 365.988281 190.757812 366.046875 C 186.003906 366.359375 179.78125 366.742188 174.566406 365.636719 C 186.726562 379.574219 198.921875 389.285156 216.917969 394.183594 C 224.4375 396.226562 234.882812 396.359375 245.921875 396.507812 C 262.003906 396.710938 278.554688 396.941406 289.539062 402.984375 C 290.386719 398.691406 291.402344 394.277344 292.628906 389.667969 Z M 300.148438 271.96875 C 305.601562 259.449219 306.246094 246.191406 302.003906 232.488281 C 295.160156 210.375 276.875 192.546875 262.777344 185.335938 L 262.859375 185.175781 C 249.304688 181.460938 235.894531 180.519531 220.957031 182.035156 C 216.484375 182.480469 212.191406 183.40625 208.019531 184.597656 C 241.085938 191.25 249.648438 211.929688 251.722656 224.65625 C 254.976562 226.039062 258.164062 227.597656 261.269531 229.402344 C 277.082031 238.5625 290.0625 252.8125 300.148438 271.96875 Z M 296.859375 370.957031 C 299.824219 356.789062 303.0625 341.339844 309.132812 328.054688 C 303.210938 323.8125 296.96875 325.445312 286.375 328.277344 C 275.695312 331.113281 261.0625 335.015625 239.699219 334.058594 C 225.058594 333.410156 211.46875 340.90625 197.082031 348.835938 C 189.582031 352.976562 181.894531 357.21875 174 360.207031 C 178.546875 361.652344 185.683594 361.199219 190.425781 360.902344 C 191.523438 360.828125 192.53125 360.761719 193.421875 360.726562 C 197.300781 360.558594 200.839844 359.867188 204.589844 359.132812 C 209.527344 358.167969 214.636719 357.171875 220.414062 357.523438 C 230.636719 358.15625 240.851562 362.148438 250.734375 365.996094 C 257.441406 368.621094 263.78125 371.089844 270.027344 372.5625 C 271.074219 372.796875 272.179688 373.070312 273.335938 373.367188 C 280.660156 375.199219 289.761719 377.460938 296.035156 374.898438 C 296.316406 373.601562 296.585938 372.292969 296.859375 370.957031 Z M 352.996094 267.835938 C 354.371094 257.808594 352.703125 246.894531 348.519531 238.609375 C 333.171875 221.804688 313.003906 207.375 287.296875 194.667969 C 285.097656 193.570312 282.933594 192.582031 280.773438 191.632812 C 291.703125 201.28125 301.976562 214.960938 306.933594 230.976562 C 311.90625 247.058594 310.558594 263.214844 303.074219 277.820312 C 308.347656 288.972656 312.710938 301.648438 316.179688 315.78125 C 317.214844 314.339844 318.292969 312.925781 319.449219 311.585938 C 323.84375 306.527344 329.226562 301.210938 336.355469 296.433594 L 336.335938 296.402344 C 348.015625 288.027344 351.839844 276.242188 352.996094 267.835938 Z M 375.703125 282.105469 C 371.046875 270.339844 365.035156 259.507812 357.527344 249.480469 C 358.734375 255.695312 358.964844 262.285156 358.109375 268.539062 C 357.304688 274.429688 355.308594 281.820312 350.695312 288.832031 C 357.691406 285.933594 365.925781 283.589844 375.703125 282.105469 Z M 441.664062 603.246094 C 442.171875 601.152344 441.714844 599.171875 440.277344 597.191406 C 438.554688 594.839844 436.566406 593.691406 434.175781 593.691406 C 430.816406 593.691406 427.328125 595.867188 425.011719 597.695312 C 419.105469 602.324219 413.019531 607.117188 404.6875 607.117188 C 403.921875 607.117188 403.140625 607.070312 402.355469 606.988281 L 402.335938 606.988281 C 401.550781 607.070312 400.765625 607.117188 400.003906 607.117188 C 391.6875 607.117188 385.585938 602.324219 379.683594 597.695312 C 377.363281 595.867188 373.875 593.691406 370.507812 593.691406 C 368.125 593.691406 366.136719 594.839844 364.414062 597.191406 C 362.976562 599.171875 362.523438 601.152344 363.027344 603.246094 C 363.78125 606.382812 366.71875 609.570312 370.699219 611.574219 C 371.511719 611.976562 372.304688 612.367188 373.070312 612.75 C 378.671875 615.535156 383.101562 617.71875 388.414062 622.664062 C 392.761719 626.699219 395.390625 626.917969 402.34375 626.917969 C 409.300781 626.917969 411.933594 626.699219 416.277344 622.664062 C 421.59375 617.71875 426.019531 615.523438 431.636719 612.75 C 432.394531 612.367188 433.179688 611.976562 434 611.574219 C 437.964844 609.570312 440.910156 606.382812 441.664062 603.246094 Z M 453.996094 288.820312 C 449.382812 281.808594 447.390625 274.429688 446.585938 268.539062 C 445.726562 262.285156 445.953125 255.695312 447.164062 249.492188 C 439.660156 259.519531 433.640625 270.339844 428.988281 282.105469 C 438.765625 283.589844 446.988281 285.933594 453.996094 288.820312 Z M 506.179688 466.085938 C 514.859375 443.761719 515.128906 421.296875 507.078125 390.984375 C 505.507812 385.105469 504.183594 378.75 502.773438 372.011719 C 498.59375 352.019531 493.859375 329.347656 481.351562 314.964844 C 478.234375 311.386719 473.421875 305.867188 465.367188 300.574219 L 465.347656 300.59375 C 465.238281 300.523438 465.136719 300.441406 465.035156 300.355469 C 453.191406 292.660156 434.425781 285.492188 403.914062 285.492188 C 403.59375 285.492188 403.277344 285.492188 402.945312 285.5 L 401.753906 285.5 C 401.4375 285.492188 401.109375 285.492188 400.785156 285.492188 C 370.273438 285.492188 351.515625 292.652344 339.664062 300.351562 C 339.5625 300.425781 339.460938 300.511719 339.34375 300.59375 L 339.324219 300.574219 C 331.269531 305.867188 326.457031 311.386719 323.339844 314.964844 C 310.832031 329.347656 306.097656 352.019531 301.917969 372.011719 C 300.507812 378.75 299.183594 385.105469 297.613281 390.984375 C 289.5625 421.308594 289.832031 443.761719 298.515625 466.085938 C 303.804688 479.671875 311.820312 491.011719 320.324219 503.011719 C 325.589844 510.453125 331.027344 518.152344 335.722656 526.378906 C 343.203125 539.523438 346.207031 558.035156 349.101562 575.945312 C 353.09375 600.574219 356.9375 624.316406 371.027344 636.890625 C 376.246094 639.9375 382.179688 640.5625 387.917969 638.625 C 391.839844 637.304688 395.417969 634.804688 397.710938 631.957031 C 392.964844 631.671875 389.335938 630.566406 384.894531 626.4375 C 380.136719 622.011719 376.207031 620.0625 370.777344 617.367188 C 370.003906 616.992188 369.199219 616.59375 368.375 616.175781 C 363.007812 613.484375 359.136719 609.097656 358.011719 604.464844 C 357.148438 600.902344 357.921875 597.34375 360.242188 594.15625 C 362.925781 590.46875 366.476562 588.535156 370.507812 588.535156 C 375.351562 588.535156 379.914062 591.308594 382.871094 593.640625 C 389.273438 598.664062 393.921875 601.957031 400.003906 601.957031 C 400.664062 601.957031 401.351562 601.917969 402.050781 601.835938 L 402.132812 601.789062 L 402.644531 601.835938 C 403.339844 601.917969 404.03125 601.957031 404.6875 601.957031 C 410.777344 601.957031 415.421875 598.664062 421.816406 593.640625 C 424.78125 591.308594 429.339844 588.535156 434.175781 588.535156 C 438.214844 588.535156 441.765625 590.46875 444.449219 594.15625 C 446.769531 597.34375 447.542969 600.902344 446.679688 604.464844 C 445.550781 609.097656 441.683594 613.484375 436.316406 616.175781 C 435.488281 616.59375 434.695312 616.992188 433.921875 617.367188 C 428.484375 620.0625 424.550781 622.011719 419.796875 626.4375 C 415.355469 630.566406 411.726562 631.671875 406.980469 631.957031 C 409.269531 634.804688 412.851562 637.304688 416.773438 638.625 C 422.511719 640.5625 428.441406 639.9375 433.667969 636.890625 C 447.746094 624.316406 451.597656 600.582031 455.578125 575.945312 C 458.480469 558.035156 461.484375 539.523438 468.96875 526.378906 C 473.652344 518.152344 479.101562 510.453125 484.367188 503.011719 C 492.863281 491.011719 500.882812 479.671875 506.179688 466.085938 Z M 523.917969 191.632812 C 521.761719 192.582031 519.59375 193.570312 517.394531 194.667969 C 491.683594 207.375 471.511719 221.804688 456.175781 238.609375 C 451.996094 246.894531 450.320312 257.816406 451.695312 267.835938 C 452.84375 276.242188 456.679688 288.027344 468.355469 296.402344 L 468.335938 296.433594 C 475.46875 301.210938 480.835938 306.527344 485.242188 311.585938 C 486.398438 312.925781 487.476562 314.339844 488.511719 315.78125 C 491.976562 301.648438 496.347656 288.972656 501.617188 277.820312 C 494.136719 263.214844 492.78125 247.046875 497.757812 230.976562 C 502.707031 214.960938 512.988281 201.28125 523.917969 191.632812 Z M 596.667969 184.597656 C 592.5 183.40625 588.207031 182.480469 583.734375 182.035156 C 568.800781 180.519531 555.390625 181.460938 541.832031 185.175781 L 541.917969 185.335938 C 527.816406 192.546875 509.53125 210.375 502.691406 232.488281 C 498.449219 246.191406 499.09375 259.449219 504.535156 271.96875 C 514.628906 252.8125 527.613281 238.5625 543.410156 229.402344 C 546.527344 227.597656 549.714844 226.039062 552.96875 224.65625 C 555.039062 211.929688 563.605469 191.25 596.667969 184.597656 Z M 630.125 365.636719 C 624.910156 366.742188 618.6875 366.359375 613.933594 366.046875 C 612.882812 365.988281 611.898438 365.925781 611.042969 365.886719 C 606.78125 365.699219 602.890625 364.933594 599.113281 364.199219 C 594.277344 363.253906 589.714844 362.367188 584.59375 362.671875 C 575.183594 363.253906 565.351562 367.09375 555.835938 370.804688 C 549.25 373.371094 542.453125 376.023438 535.835938 377.574219 C 534.8125 377.816406 533.738281 378.085938 532.609375 378.367188 C 527.332031 379.6875 521.222656 381.214844 515.421875 381.214844 C 513.539062 381.214844 511.679688 381.050781 509.894531 380.660156 C 510.585938 383.785156 511.296875 386.785156 512.0625 389.667969 C 513.289062 394.277344 514.296875 398.691406 515.160156 402.984375 C 526.136719 396.941406 542.6875 396.710938 558.761719 396.507812 C 569.808594 396.359375 580.246094 396.226562 587.773438 394.183594 C 605.769531 389.285156 617.964844 379.574219 630.125 365.636719 Z M 614.261719 360.902344 C 619.007812 361.199219 626.136719 361.652344 630.691406 360.207031 C 622.796875 357.21875 615.109375 352.976562 607.605469 348.835938 C 593.222656 340.90625 579.640625 333.410156 564.980469 334.058594 C 543.617188 335.003906 529 331.113281 518.316406 328.277344 C 507.722656 325.445312 501.480469 323.8125 495.558594 328.054688 C 501.628906 341.339844 504.867188 356.789062 507.832031 370.957031 C 508.105469 372.292969 508.375 373.601562 508.65625 374.898438 C 514.929688 377.460938 524.035156 375.199219 531.355469 373.367188 C 532.511719 373.070312 533.617188 372.796875 534.660156 372.5625 C 540.914062 371.089844 547.25 368.621094 553.957031 365.996094 C 563.84375 362.148438 574.058594 358.15625 584.273438 357.523438 C 590.054688 357.171875 595.164062 358.167969 600.105469 359.132812 C 603.847656 359.867188 607.394531 360.558594 611.269531 360.726562 C 612.160156 360.761719 613.167969 360.828125 614.261719 360.902344 Z M 640.289062 199.058594 C 631.164062 197.574219 622.644531 194.191406 614.335938 190.914062 C 612.0625 190 609.761719 189.09375 607.445312 188.21875 C 580.425781 190.886719 563.265625 202.972656 558.671875 222.410156 C 569.695312 218.457031 581.199219 216.277344 592.457031 214.144531 C 609.597656 210.90625 625.914062 207.820312 640.289062 199.058594 Z M 654.917969 194.929688 L 649.144531 199.285156 C 632.46875 211.824219 612.613281 215.589844 593.414062 219.222656 C 577.257812 222.277344 560.550781 225.429688 546 233.867188 C 520.164062 248.855469 502.132812 278.453125 492.378906 321.851562 C 492.671875 322.355469 492.945312 322.867188 493.214844 323.378906 C 500.882812 318.300781 508.945312 320.433594 519.644531 323.292969 C 530.007812 326.046875 544.195312 329.816406 564.75 328.894531 C 580.859375 328.175781 595.722656 336.386719 610.101562 344.328125 C 619.488281 349.496094 629.183594 354.855469 638.894531 357.460938 L 642.710938 358.496094 L 640.238281 361.574219 C 625.660156 379.746094 611.386719 393.101562 589.128906 399.160156 C 580.96875 401.375 570.222656 401.523438 558.839844 401.664062 C 542.566406 401.878906 525.785156 402.097656 516.136719 408.394531 C 519.875 430.890625 518.1875 449.421875 510.988281 467.953125 C 505.46875 482.136719 496.882812 494.261719 488.570312 505.996094 C 483.382812 513.328125 478.015625 520.921875 473.457031 528.941406 C 466.425781 541.269531 463.628906 558.507812 460.679688 576.761719 C 457.65625 595.425781 454.53125 614.730469 446.410156 628.949219 C 443.921875 633.28125 441.066406 636.953125 437.8125 640.019531 L 437.984375 640.269531 C 437.507812 640.59375 437.007812 640.90625 436.507812 641.207031 C 428.703125 647.972656 418.742188 651.324219 406.445312 651.324219 C 405.101562 651.324219 403.742188 651.285156 402.34375 651.203125 C 388.117188 652.007812 376.8125 648.707031 368.144531 641.179688 C 367.664062 640.894531 367.179688 640.59375 366.699219 640.269531 L 366.878906 640.019531 C 363.628906 636.953125 360.773438 633.28125 358.28125 628.949219 C 350.160156 614.730469 347.035156 595.425781 344.007812 576.761719 C 341.050781 558.507812 338.265625 541.269531 331.238281 528.941406 C 326.675781 520.921875 321.308594 513.328125 316.109375 505.996094 C 307.808594 494.261719 299.222656 482.136719 293.703125 467.953125 C 286.503906 449.433594 284.816406 430.890625 288.554688 408.394531 C 278.90625 402.097656 262.117188 401.878906 245.851562 401.664062 C 234.46875 401.523438 223.714844 401.375 215.5625 399.160156 C 193.300781 393.101562 179.027344 379.746094 164.453125 361.574219 L 161.976562 358.496094 L 165.796875 357.460938 C 175.507812 354.855469 185.207031 349.496094 194.589844 344.328125 C 208.972656 336.386719 223.84375 328.175781 239.9375 328.894531 C 260.507812 329.816406 274.683594 326.046875 285.046875 323.292969 C 295.75 320.445312 303.804688 318.300781 311.476562 323.378906 C 311.746094 322.867188 312.019531 322.355469 312.308594 321.851562 C 302.558594 278.453125 284.53125 248.855469 258.6875 233.867188 C 244.140625 225.429688 227.433594 222.277344 211.269531 219.222656 C 192.078125 215.589844 172.222656 211.832031 155.550781 199.28125 L 149.765625 194.929688 L 156.992188 194.644531 C 168.027344 194.203125 177.953125 190.269531 188.445312 186.109375 C 198.40625 182.167969 208.695312 178.085938 220.4375 176.898438 C 245.203125 174.386719 265.882812 178.324219 289.582031 190.042969 C 336.828125 213.402344 365.925781 242.484375 380.964844 281.40625 C 386.992188 280.714844 393.550781 280.332031 400.734375 280.332031 C 401.085938 280.332031 401.429688 280.332031 401.769531 280.339844 L 402.9375 280.339844 C 410.519531 280.300781 417.421875 280.683594 423.738281 281.390625 C 438.769531 242.480469 467.863281 213.402344 515.101562 190.042969 C 538.8125 178.324219 559.496094 174.386719 584.253906 176.898438 C 595.996094 178.085938 606.289062 182.167969 616.234375 186.109375 C 626.738281 190.269531 636.667969 194.203125 647.699219 194.644531 Z M 403.359375 646.09375 C 409.421875 646.375 414.699219 645.820312 419.316406 644.566406 C 417.917969 644.332031 416.511719 643.992188 415.132812 643.519531 C 409.902344 641.75 405.242188 638.339844 402.34375 634.371094 C 399.449219 638.339844 394.792969 641.75 389.558594 643.519531 C 388.167969 643.992188 386.753906 644.34375 385.34375 644.566406 C 389.175781 645.609375 393.449219 646.164062 398.261719 646.164062 C 399.265625 646.164062 400.28125 646.144531 401.332031 646.09375 L 401.347656 645.972656 C 401.671875 645.992188 402.015625 646.023438 402.34375 646.042969 C 402.675781 646.023438 403.015625 645.992188 403.347656 645.972656 L 403.359375 646.09375 " fill-opacity="1" fill-rule="nonzero"/><path fill="#bab195" d="M 359.617188 467.449219 C 385.328125 493.367188 386.925781 542.4375 375.21875 577.523438 L 370.324219 575.894531 C 385.132812 531.519531 374.296875 489.578125 355.949219 471.082031 L 359.617188 467.449219 " fill-opacity="1" fill-rule="nonzero"/><path fill="#bab195" d="M 337.835938 451.480469 C 336.871094 433 328.292969 420.625 312.277344 414.5 C 308.738281 424.101562 309.171875 432.953125 313.578125 439.609375 C 318.210938 446.636719 326.976562 450.890625 337.835938 451.480469 Z M 300.480469 406.109375 C 330.835938 411 345.464844 430.464844 342.78125 462.382812 L 337.644531 461.949219 C 337.796875 460.132812 337.886719 458.371094 337.917969 456.660156 C 325.230469 456.046875 314.882812 450.949219 309.265625 442.460938 C 303.957031 434.425781 303.320312 424 307.375 412.890625 C 304.941406 412.207031 302.378906 411.640625 299.671875 411.207031 L 300.480469 406.109375 " fill-opacity="1" fill-rule="nonzero"/><path fill="#bab195" d="M 360.847656 458.835938 C 359.859375 458.835938 359.054688 458.03125 359.054688 457.042969 C 359.054688 456.050781 359.859375 455.253906 360.847656 455.253906 C 361.839844 455.253906 362.636719 456.050781 362.636719 457.042969 C 362.636719 458.03125 361.839844 458.835938 360.847656 458.835938 " fill-opacity="1" fill-rule="nonzero"/><path fill="#bab195" d="M 361.839844 445.871094 C 360.101562 445.871094 358.6875 444.464844 358.6875 442.726562 C 358.6875 440.992188 360.101562 439.578125 361.839844 439.578125 C 363.578125 439.578125 364.980469 440.992188 364.980469 442.726562 C 364.980469 444.464844 363.578125 445.871094 361.839844 445.871094 " fill-opacity="1" fill-rule="nonzero"/><path fill="#bab195" d="M 358.554688 432.878906 C 356.234375 432.878906 354.363281 431 354.363281 428.6875 C 354.363281 426.371094 356.234375 424.492188 358.554688 424.492188 C 360.875 424.492188 362.753906 426.371094 362.753906 428.6875 C 362.753906 431 360.875 432.878906 358.554688 432.878906 " fill-opacity="1" fill-rule="nonzero"/><path fill="#bab195" d="M 353.238281 420.289062 C 350.46875 420.289062 348.210938 418.035156 348.210938 415.261719 C 348.210938 412.484375 350.46875 410.234375 353.238281 410.234375 C 356.019531 410.234375 358.269531 412.484375 358.269531 415.261719 C 358.269531 418.035156 356.019531 420.289062 353.238281 420.289062 " fill-opacity="1" fill-rule="nonzero"/><path fill="#bab195" d="M 346.105469 408.421875 C 342.949219 408.421875 340.390625 405.867188 340.390625 402.710938 C 340.390625 399.554688 342.949219 397 346.105469 397 C 349.257812 397 351.816406 399.554688 351.816406 402.710938 C 351.816406 405.867188 349.257812 408.421875 346.105469 408.421875 " fill-opacity="1" fill-rule="nonzero"/><path fill="#bab195" d="M 339.183594 396.125 C 335.824219 396.125 333.097656 393.398438 333.097656 390.039062 C 333.097656 386.671875 335.824219 383.949219 339.183594 383.949219 C 342.550781 383.949219 345.28125 386.671875 345.28125 390.039062 C 345.28125 393.398438 342.550781 396.125 339.183594 396.125 " fill-opacity="1" fill-rule="nonzero"/><path fill="#bab195" d="M 335.109375 382.398438 C 331.699219 382.398438 328.929688 379.632812 328.929688 376.214844 C 328.929688 372.796875 331.699219 370.03125 335.109375 370.03125 C 338.527344 370.03125 341.292969 372.796875 341.292969 376.214844 C 341.292969 379.632812 338.527344 382.398438 335.109375 382.398438 " fill-opacity="1" fill-rule="nonzero"/><path fill="#bab195" d="M 333.90625 367.886719 C 330.566406 367.886719 327.863281 365.175781 327.863281 361.835938 C 327.863281 358.503906 330.566406 355.792969 333.90625 355.792969 C 337.25 355.792969 339.953125 358.503906 339.953125 361.835938 C 339.953125 365.175781 337.25 367.886719 333.90625 367.886719 " fill-opacity="1" fill-rule="nonzero"/><path fill="#bab195" d="M 335.25 353.167969 C 332.101562 353.167969 329.550781 350.621094 329.550781 347.476562 C 329.550781 344.328125 332.101562 341.78125 335.25 341.78125 C 338.394531 341.78125 340.941406 344.328125 340.941406 347.476562 C 340.941406 350.621094 338.394531 353.167969 335.25 353.167969 " fill-opacity="1" fill-rule="nonzero"/><path fill="#bab195" d="M 338.980469 338.636719 C 336.164062 338.636719 333.882812 336.351562 333.882812 333.539062 C 333.882812 330.722656 336.164062 328.4375 338.980469 328.4375 C 341.796875 328.4375 344.078125 330.722656 344.078125 333.539062 C 344.078125 336.351562 341.796875 338.636719 338.980469 338.636719 " fill-opacity="1" fill-rule="nonzero"/><path fill="#bab195" d="M 345.042969 324.6875 C 342.699219 324.6875 340.792969 322.789062 340.792969 320.445312 C 340.792969 318.101562 342.699219 316.203125 345.042969 316.203125 C 347.386719 316.203125 349.285156 318.101562 349.285156 320.445312 C 349.285156 322.789062 347.386719 324.6875 345.042969 324.6875 " fill-opacity="1" fill-rule="nonzero"/><path fill="#bab195" d="M 353.40625 311.765625 C 351.707031 311.765625 350.332031 310.386719 350.332031 308.691406 C 350.332031 307 351.707031 305.621094 353.40625 305.621094 C 355.097656 305.621094 356.472656 307 356.472656 308.691406 C 356.472656 310.386719 355.097656 311.765625 353.40625 311.765625 " fill-opacity="1" fill-rule="nonzero"/><path fill="#bab195" d="M 363.972656 300.402344 C 363.136719 300.402344 362.457031 299.722656 362.457031 298.886719 C 362.457031 298.050781 363.136719 297.375 363.972656 297.375 C 364.808594 297.375 365.488281 298.050781 365.488281 298.886719 C 365.488281 299.722656 364.808594 300.402344 363.972656 300.402344 " fill-opacity="1" fill-rule="nonzero"/><path fill="#bab195" d="M 367.398438 599.699219 C 367.398438 599.699219 367.542969 599.628906 367.8125 599.507812 C 368.082031 599.382812 368.464844 599.234375 368.9375 599.074219 C 369.390625 598.894531 370.054688 598.832031 370.777344 598.792969 C 371.550781 598.761719 372.285156 598.804688 373.101562 598.929688 C 373.945312 599.023438 374.738281 599.265625 375.605469 599.558594 C 376.457031 599.855469 377.285156 600.269531 378.058594 600.820312 C 378.808594 601.386719 379.496094 602.097656 380.125 602.867188 C 380.753906 603.636719 381.382812 604.410156 382.035156 605.144531 C 383.335938 606.605469 384.601562 608.074219 385.648438 609.570312 C 386.734375 611.027344 387.628906 612.476562 388.382812 613.707031 C 389.125 614.960938 389.695312 616.035156 390.050781 616.800781 C 390.394531 617.578125 390.59375 618.019531 390.59375 618.019531 L 389.929688 618.511719 C 389.929688 618.511719 389.558594 618.222656 388.914062 617.71875 C 388.574219 617.476562 388.171875 617.175781 387.730469 616.839844 C 387.265625 616.507812 386.75 616.128906 386.179688 615.726562 C 385.605469 615.324219 385.011719 614.882812 384.339844 614.449219 C 383.675781 614.007812 383.003906 613.523438 382.277344 613.0625 C 381.566406 612.585938 380.800781 612.136719 380.070312 611.625 C 379.316406 611.152344 378.566406 610.65625 377.792969 610.203125 C 377.019531 609.75 376.21875 609.339844 375.394531 609.007812 C 374.589844 608.644531 373.796875 608.332031 373.140625 607.875 C 372.476562 607.441406 371.90625 606.929688 371.402344 606.382812 C 370.886719 605.882812 370.425781 605.285156 370.011719 604.785156 C 369.582031 604.273438 369.207031 603.699219 368.917969 603.265625 C 368.589844 602.8125 368.375 602.289062 368.042969 601.898438 C 367.742188 601.488281 367.519531 601.144531 367.371094 600.890625 C 367.222656 600.625 367.148438 600.484375 367.148438 600.484375 L 367.398438 599.699219 " fill-opacity="1" fill-rule="nonzero"/><path fill="#bab195" d="M 326.003906 420.589844 C 324.394531 420.179688 323.742188 418.914062 323.792969 417.644531 C 322.757812 417.894531 321.75 418.296875 320.816406 418.875 C 315.304688 422.300781 314.070312 430.277344 318.058594 436.703125 C 322.050781 443.128906 329.75 445.5625 335.261719 442.140625 C 336.828125 441.167969 338.035156 439.820312 338.882812 438.257812 C 335.410156 431.453125 333.371094 422.453125 326.003906 420.589844 " fill-opacity="1" fill-rule="nonzero"/><path fill="#bab195" d="M 443.84375 458.835938 C 442.855469 458.835938 442.046875 458.03125 442.046875 457.042969 C 442.046875 456.050781 442.855469 455.253906 443.84375 455.253906 C 444.835938 455.253906 445.632812 456.050781 445.632812 457.042969 C 445.632812 458.03125 444.835938 458.835938 443.84375 458.835938 " fill-opacity="1" fill-rule="nonzero"/><path fill="#bab195" d="M 442.855469 445.871094 C 441.117188 445.871094 439.710938 444.464844 439.710938 442.726562 C 439.710938 440.992188 441.117188 439.578125 442.855469 439.578125 C 444.589844 439.578125 445.996094 440.992188 445.996094 442.726562 C 445.996094 444.464844 444.589844 445.871094 442.855469 445.871094 " fill-opacity="1" fill-rule="nonzero"/><path fill="#bab195" d="M 446.136719 432.878906 C 443.816406 432.878906 441.941406 431 441.941406 428.6875 C 441.941406 426.371094 443.816406 424.492188 446.136719 424.492188 C 448.449219 424.492188 450.328125 426.371094 450.328125 428.6875 C 450.328125 431 448.449219 432.878906 446.136719 432.878906 " fill-opacity="1" fill-rule="nonzero"/><path fill="#bab195" d="M 451.453125 420.289062 C 448.671875 420.289062 446.425781 418.035156 446.425781 415.261719 C 446.425781 412.484375 448.671875 410.234375 451.453125 410.234375 C 454.226562 410.234375 456.480469 412.484375 456.480469 415.261719 C 456.480469 418.035156 454.226562 420.289062 451.453125 420.289062 " fill-opacity="1" fill-rule="nonzero"/><path fill="#bab195" d="M 458.589844 408.421875 C 455.433594 408.421875 452.878906 405.867188 452.878906 402.710938 C 452.878906 399.554688 455.433594 397 458.589844 397 C 461.746094 397 464.300781 399.554688 464.300781 402.710938 C 464.300781 405.867188 461.746094 408.421875 458.589844 408.421875 " fill-opacity="1" fill-rule="nonzero"/><path fill="#bab195" d="M 465.5 396.125 C 462.140625 396.125 459.414062 393.398438 459.414062 390.039062 C 459.414062 386.671875 462.140625 383.949219 465.5 383.949219 C 468.867188 383.949219 471.589844 386.671875 471.589844 390.039062 C 471.589844 393.398438 468.867188 396.125 465.5 396.125 " fill-opacity="1" fill-rule="nonzero"/><path fill="#bab195" d="M 469.582031 382.398438 C 466.164062 382.398438 463.398438 379.632812 463.398438 376.214844 C 463.398438 372.796875 466.164062 370.03125 469.582031 370.03125 C 472.996094 370.03125 475.761719 372.796875 475.761719 376.214844 C 475.761719 379.632812 472.996094 382.398438 469.582031 382.398438 " fill-opacity="1" fill-rule="nonzero"/><path fill="#bab195" d="M 470.785156 367.886719 C 467.445312 367.886719 464.742188 365.175781 464.742188 361.835938 C 464.742188 358.503906 467.445312 355.792969 470.785156 355.792969 C 474.121094 355.792969 476.828125 358.503906 476.828125 361.835938 C 476.828125 365.175781 474.121094 367.886719 470.785156 367.886719 " fill-opacity="1" fill-rule="nonzero"/><path fill="#bab195" d="M 469.441406 353.167969 C 466.300781 353.167969 463.746094 350.621094 463.746094 347.476562 C 463.746094 344.328125 466.300781 341.78125 469.441406 341.78125 C 472.585938 341.78125 475.136719 344.328125 475.136719 347.476562 C 475.136719 350.621094 472.585938 353.167969 469.441406 353.167969 " fill-opacity="1" fill-rule="nonzero"/><path fill="#bab195" d="M 465.710938 338.636719 C 462.894531 338.636719 460.609375 336.351562 460.609375 333.539062 C 460.609375 330.722656 462.894531 328.4375 465.710938 328.4375 C 468.53125 328.4375 470.808594 330.722656 470.808594 333.539062 C 470.808594 336.351562 468.53125 338.636719 465.710938 338.636719 " fill-opacity="1" fill-rule="nonzero"/><path fill="#bab195" d="M 459.648438 324.6875 C 457.304688 324.6875 455.40625 322.789062 455.40625 320.445312 C 455.40625 318.101562 457.304688 316.203125 459.648438 316.203125 C 461.992188 316.203125 463.890625 318.101562 463.890625 320.445312 C 463.890625 322.789062 461.992188 324.6875 459.648438 324.6875 " fill-opacity="1" fill-rule="nonzero"/><path fill="#bab195" d="M 451.285156 311.765625 C 449.59375 311.765625 448.214844 310.386719 448.214844 308.691406 C 448.214844 307 449.59375 305.621094 451.285156 305.621094 C 452.984375 305.621094 454.359375 307 454.359375 308.691406 C 454.359375 310.386719 452.984375 311.765625 451.285156 311.765625 " fill-opacity="1" fill-rule="nonzero"/><path fill="#bab195" d="M 440.714844 300.402344 C 439.882812 300.402344 439.207031 299.722656 439.207031 298.886719 C 439.207031 298.050781 439.882812 297.375 440.714844 297.375 C 441.550781 297.375 442.226562 298.050781 442.226562 298.886719 C 442.226562 299.722656 441.550781 300.402344 440.714844 300.402344 " fill-opacity="1" fill-rule="nonzero"/><path fill="#bab195" d="M 437.542969 600.484375 C 437.542969 600.484375 437.460938 600.625 437.320312 600.890625 C 437.175781 601.144531 436.949219 601.488281 436.648438 601.898438 C 436.3125 602.289062 436.09375 602.8125 435.773438 603.265625 C 435.488281 603.699219 435.105469 604.273438 434.683594 604.785156 C 434.265625 605.285156 433.808594 605.882812 433.289062 606.382812 C 432.785156 606.929688 432.210938 607.441406 431.550781 607.875 C 430.894531 608.332031 430.101562 608.644531 429.296875 609.007812 C 428.472656 609.339844 427.667969 609.75 426.894531 610.203125 C 426.128906 610.65625 425.375 611.152344 424.621094 611.625 C 423.890625 612.136719 423.117188 612.585938 422.417969 613.0625 C 421.6875 613.523438 421.011719 614.007812 420.351562 614.449219 C 419.683594 614.882812 419.082031 615.324219 418.507812 615.726562 C 417.945312 616.128906 417.421875 616.507812 416.960938 616.839844 C 416.511719 617.175781 416.109375 617.476562 415.777344 617.71875 C 415.132812 618.222656 414.757812 618.511719 414.757812 618.511719 L 414.097656 618.019531 C 414.097656 618.019531 414.296875 617.578125 414.640625 616.800781 C 415 616.035156 415.566406 614.960938 416.300781 613.707031 C 417.0625 612.476562 417.957031 611.027344 419.042969 609.570312 C 420.089844 608.074219 421.355469 606.605469 422.652344 605.144531 C 423.3125 604.410156 423.9375 603.636719 424.570312 602.867188 C 425.1875 602.097656 425.878906 601.386719 426.632812 600.820312 C 427.398438 600.269531 428.234375 599.855469 429.078125 599.558594 C 429.949219 599.265625 430.746094 599.023438 431.589844 598.929688 C 432.40625 598.804688 433.144531 598.761719 433.914062 598.792969 C 434.636719 598.832031 435.300781 598.894531 435.75 599.074219 C 436.226562 599.234375 436.613281 599.382812 436.878906 599.507812 C 437.148438 599.628906 437.289062 599.699219 437.289062 599.699219 L 437.542969 600.484375 " fill-opacity="1" fill-rule="nonzero"/><path fill="#bab195" d="M 478.6875 420.589844 C 480.292969 420.179688 480.941406 418.914062 480.898438 417.644531 C 481.933594 417.894531 482.9375 418.296875 483.875 418.875 C 489.386719 422.300781 490.621094 430.277344 486.628906 436.703125 C 482.640625 443.128906 474.9375 445.5625 469.429688 442.140625 C 467.863281 441.167969 466.65625 439.820312 465.800781 438.257812 C 469.277344 431.453125 471.320312 422.453125 478.6875 420.589844 " fill-opacity="1" fill-rule="nonzero"/><path fill="#bab195" d="M 409.84375 471.082031 C 409.84375 475.34375 406.394531 478.792969 402.132812 478.792969 C 397.871094 478.792969 394.421875 475.34375 394.421875 471.082031 C 394.421875 466.820312 397.871094 463.371094 402.132812 463.371094 C 406.394531 463.371094 409.84375 466.820312 409.84375 471.082031 " fill-opacity="1" fill-rule="nonzero"/><path fill="#bab195" d="M 408.238281 496.601562 C 408.238281 499.851562 405.601562 502.488281 402.34375 502.488281 C 399.089844 502.488281 396.453125 499.851562 396.453125 496.601562 C 396.453125 493.34375 399.089844 490.703125 402.34375 490.703125 C 405.601562 490.703125 408.238281 493.34375 408.238281 496.601562 " fill-opacity="1" fill-rule="nonzero"/><path fill="#bab195" d="M 405.894531 517.097656 C 405.894531 519.050781 404.304688 520.636719 402.347656 520.636719 C 400.394531 520.636719 398.808594 519.050781 398.808594 517.097656 C 398.808594 515.144531 400.394531 513.558594 402.347656 513.558594 C 404.304688 513.558594 405.894531 515.144531 405.894531 517.097656 " fill-opacity="1" fill-rule="nonzero"/><path fill="#bab195" d="M 441.632812 371.910156 C 441.632812 365.40625 439 359.402344 434.019531 354.535156 C 427.054688 347.734375 416.300781 343.96875 403.5625 343.828125 L 403.5625 325.480469 L 413.5625 325.480469 L 413.5625 320.316406 L 403.5625 320.316406 L 403.5625 308.386719 L 398.402344 308.386719 L 398.402344 320.316406 L 388.640625 320.316406 L 388.640625 325.480469 L 398.402344 325.480469 L 398.402344 348.851562 L 401.261719 349.003906 L 401.367188 349.003906 C 413.734375 348.734375 424.03125 351.992188 430.410156 358.226562 C 434.375 362.097656 436.472656 366.832031 436.472656 371.910156 C 436.472656 377.011719 434.402344 381.726562 430.484375 385.535156 C 423.925781 391.910156 412.78125 395.21875 399.046875 394.808594 L 397.351562 394.808594 C 388.089844 394.808594 381.625 399.71875 381.625 406.746094 C 381.625 413.773438 388.089844 418.679688 397.351562 418.679688 L 397.351562 413.523438 C 391.132812 413.523438 386.785156 410.734375 386.785156 406.746094 C 386.785156 402.753906 391.132812 399.96875 397.351562 399.96875 L 398.96875 399.96875 C 414.015625 400.398438 426.511719 396.585938 434.082031 389.230469 C 439.019531 384.433594 441.632812 378.445312 441.632812 371.910156 " fill-opacity="1" fill-rule="nonzero"/><path fill="#bab195" d="M 409.765625 115.808594 L 421.765625 107.097656 L 406.929688 107.097656 L 402.34375 92.992188 L 397.761719 107.097656 L 382.921875 107.097656 L 394.925781 115.808594 L 390.34375 129.925781 L 402.34375 121.207031 L 414.347656 129.925781 Z M 437.648438 101.933594 L 415.835938 117.78125 L 424.160156 143.433594 L 402.34375 127.582031 L 380.53125 143.433594 L 388.855469 117.78125 L 367.046875 101.933594 L 394.003906 101.933594 L 402.34375 76.296875 L 410.679688 101.933594 L 437.648438 101.933594 " fill-opacity="1" fill-rule="nonzero"/><path fill="#bab195" d="M 565.949219 141.347656 L 571.414062 139.851562 L 566.101562 137.871094 L 569.324219 133.214844 L 563.988281 135.113281 L 563.464844 129.472656 L 560.597656 134.363281 L 556.558594 130.378906 L 557.511719 135.960938 L 551.855469 135.507812 L 556.167969 139.167969 L 551.554688 142.449219 L 557.222656 142.488281 L 555.785156 147.96875 L 560.15625 144.355469 L 562.578125 149.476562 L 563.597656 143.90625 L 568.75 146.265625 Z M 588.203125 140.59375 L 573.710938 144.566406 L 581.128906 157.628906 L 567.476562 151.363281 L 564.761719 166.136719 L 558.328125 152.5625 L 546.746094 162.136719 L 550.546875 147.597656 L 535.519531 147.496094 L 547.78125 138.796875 L 536.332031 129.054688 L 551.308594 130.28125 L 548.808594 115.46875 L 559.503906 126.023438 L 567.105469 113.0625 L 568.511719 128.027344 L 582.667969 122.988281 L 574.128906 135.347656 L 588.203125 140.59375 " fill-opacity="1" fill-rule="nonzero"/><path fill="#bab195" d="M 614.140625 623.308594 L 619.597656 621.8125 L 614.292969 619.828125 L 617.511719 615.175781 L 612.179688 617.074219 L 611.65625 611.433594 L 608.785156 616.320312 L 604.75 612.339844 L 605.699219 617.925781 L 600.046875 617.464844 L 604.359375 621.128906 L 599.746094 624.414062 L 605.414062 624.453125 L 603.976562 629.933594 L 608.339844 626.316406 L 610.765625 631.433594 L 611.789062 625.863281 L 616.9375 628.226562 Z M 636.390625 622.554688 L 621.902344 626.527344 L 629.320312 639.589844 L 615.667969 633.324219 L 612.953125 648.097656 L 606.511719 634.523438 L 594.933594 644.09375 L 598.730469 629.5625 L 583.710938 629.453125 L 595.964844 620.761719 L 584.523438 611.019531 L 599.496094 612.246094 L 597 597.433594 L 607.6875 607.984375 L 615.296875 595.023438 L 616.703125 609.984375 L 630.859375 604.953125 L 622.3125 617.3125 L 636.390625 622.554688 " fill-opacity="1" fill-rule="nonzero"/><path fill="#bab195" d="M 491.425781 116.027344 L 472.496094 112.679688 L 491.425781 109.324219 L 494.773438 90.398438 L 498.128906 109.324219 L 517.058594 112.679688 L 498.128906 116.027344 L 494.773438 134.953125 L 491.425781 116.027344 " fill-opacity="1" fill-rule="nonzero"/><path fill="#bab195" d="M 571.957031 282.753906 L 553.027344 279.40625 L 571.957031 276.050781 L 575.308594 257.125 L 578.65625 276.050781 L 597.585938 279.40625 L 578.65625 282.753906 L 575.308594 301.679688 L 571.957031 282.753906 " fill-opacity="1" fill-rule="nonzero"/><path fill="#bab195" d="M 475.761719 177.3125 C 472.03125 177.3125 468.988281 180.355469 468.988281 184.089844 C 468.988281 187.820312 472.03125 190.863281 475.761719 190.863281 C 479.5 190.863281 482.539062 187.820312 482.539062 184.089844 C 482.539062 180.355469 479.5 177.3125 475.761719 177.3125 Z M 475.761719 194.988281 C 469.75 194.988281 464.863281 190.101562 464.863281 184.089844 C 464.863281 178.082031 469.75 173.1875 475.761719 173.1875 C 481.773438 173.1875 486.667969 178.082031 486.667969 184.089844 C 486.667969 190.101562 481.773438 194.988281 475.761719 194.988281 " fill-opacity="1" fill-rule="nonzero"/><g clip-path="url(#e50126b72f)"><path fill="#bab195" d="M 409.765625 700.609375 L 421.765625 691.878906 L 406.929688 691.878906 L 402.34375 677.773438 L 397.761719 691.878906 L 382.921875 691.878906 L 394.925781 700.609375 L 390.34375 714.714844 L 402.34375 705.996094 L 414.347656 714.714844 Z M 437.648438 686.722656 L 415.835938 702.578125 L 424.160156 728.21875 L 402.34375 712.371094 L 380.53125 728.21875 L 388.855469 702.578125 L 367.046875 686.722656 L 394.003906 686.722656 L 402.34375 661.085938 L 410.679688 686.722656 L 437.648438 686.722656 " fill-opacity="1" fill-rule="nonzero"/></g><path fill="#bab195" d="M 563.65625 529.878906 L 571.707031 524.015625 L 561.746094 524.015625 L 558.671875 514.554688 L 555.601562 524.015625 L 545.640625 524.015625 L 553.695312 529.878906 L 550.625 539.339844 L 558.671875 533.488281 L 566.730469 539.339844 Z M 587.589844 518.855469 L 569.726562 531.847656 L 576.542969 552.84375 L 558.671875 539.863281 L 540.8125 552.84375 L 547.632812 531.847656 L 529.757812 518.855469 L 551.851562 518.855469 L 558.671875 497.859375 L 565.503906 518.855469 L 587.589844 518.855469 " fill-opacity="1" fill-rule="nonzero"/><path fill="#bab195" d="M 689.648438 311.566406 L 697.691406 305.710938 L 687.738281 305.710938 L 684.65625 296.25 L 681.585938 305.710938 L 671.625 305.710938 L 679.6875 311.566406 L 676.613281 321.027344 L 684.65625 315.183594 L 692.71875 321.027344 Z M 713.574219 300.546875 L 695.710938 313.539062 L 702.535156 334.535156 L 684.65625 321.558594 L 666.796875 334.535156 L 673.617188 313.539062 L 655.75 300.546875 L 677.839844 300.546875 L 684.65625 279.550781 L 691.492188 300.546875 L 713.574219 300.546875 " fill-opacity="1" fill-rule="nonzero"/><path fill="#bab195" d="M 691.851562 462.625 L 700.136719 460.351562 L 692.082031 457.347656 L 696.96875 450.285156 L 688.867188 453.160156 L 688.074219 444.605469 L 683.71875 452.015625 L 677.609375 445.980469 L 679.035156 454.449219 L 670.46875 453.757812 L 677.011719 459.328125 L 670.007812 464.304688 L 678.601562 464.355469 L 676.421875 472.671875 L 683.046875 467.203125 L 686.734375 474.960938 L 688.28125 466.515625 L 696.09375 470.097656 Z M 716.925781 461.089844 L 699.613281 465.84375 L 708.476562 481.449219 L 692.164062 473.96875 L 688.914062 491.625 L 681.21875 475.394531 L 667.382812 486.847656 L 671.925781 469.472656 L 653.972656 469.339844 L 668.621094 458.957031 L 654.949219 447.320312 L 672.84375 448.777344 L 669.847656 431.070312 L 682.625 443.691406 L 691.71875 428.203125 L 693.390625 446.082031 L 710.316406 440.058594 L 700.097656 454.832031 L 716.925781 461.089844 " fill-opacity="1" fill-rule="nonzero"/><path fill="#bab195" d="M 410.296875 213.136719 L 418.582031 210.867188 L 410.527344 207.867188 L 415.421875 200.800781 L 407.320312 203.675781 L 406.519531 195.121094 L 402.164062 202.53125 L 396.054688 196.496094 L 397.480469 204.964844 L 388.921875 204.277344 L 395.460938 209.84375 L 388.453125 214.820312 L 397.046875 214.871094 L 394.867188 223.1875 L 401.5 217.722656 L 405.179688 225.476562 L 406.726562 217.023438 L 414.539062 220.621094 Z M 435.378906 211.613281 L 418.058594 216.355469 L 426.925781 231.964844 L 410.609375 224.484375 L 407.359375 242.140625 L 399.671875 225.910156 L 385.835938 237.363281 L 390.371094 219.988281 L 372.417969 219.855469 L 387.066406 209.476562 L 373.394531 197.835938 L 391.289062 199.292969 L 388.300781 181.585938 L 401.070312 194.203125 L 410.164062 178.71875 L 411.835938 196.597656 L 428.761719 190.574219 L 418.542969 205.347656 L 435.378906 211.613281 " fill-opacity="1" fill-rule="nonzero"/><g clip-path="url(#4c60a51bde)"><path fill="#bab195" d="M 700.730469 385.796875 L 683.777344 382.800781 L 700.730469 379.796875 L 703.734375 362.84375 L 706.730469 379.796875 L 723.691406 382.800781 L 706.730469 385.796875 L 703.734375 402.753906 L 700.730469 385.796875 " fill-opacity="1" fill-rule="nonzero"/></g><path fill="#bab195" d="M 662.285156 549.359375 L 645.328125 546.359375 L 662.285156 543.355469 L 665.289062 526.402344 L 668.289062 543.355469 L 685.246094 546.359375 L 668.289062 549.359375 L 665.289062 566.3125 L 662.285156 549.359375 " fill-opacity="1" fill-rule="nonzero"/><path fill="#bab195" d="M 520.148438 682.195312 L 498.851562 678.433594 L 520.148438 674.664062 L 523.917969 653.367188 L 527.6875 674.664062 L 548.980469 678.433594 L 527.6875 682.195312 L 523.917969 703.492188 L 520.148438 682.195312 " fill-opacity="1" fill-rule="nonzero"/><path fill="#bab195" d="M 671.402344 231.703125 C 667.671875 231.703125 664.628906 234.742188 664.628906 238.480469 C 664.628906 242.210938 667.671875 245.25 671.402344 245.25 C 675.140625 245.25 678.179688 242.210938 678.179688 238.480469 C 678.179688 234.742188 675.140625 231.703125 671.402344 231.703125 Z M 671.402344 249.378906 C 665.390625 249.378906 660.503906 244.492188 660.503906 238.480469 C 660.503906 232.46875 665.390625 227.578125 671.402344 227.578125 C 677.414062 227.578125 682.308594 232.46875 682.308594 238.480469 C 682.308594 244.492188 677.414062 249.378906 671.402344 249.378906 " fill-opacity="1" fill-rule="nonzero"/><path fill="#bab195" d="M 501.789062 608.015625 C 498.058594 608.015625 495.015625 611.058594 495.015625 614.792969 C 495.015625 618.53125 498.058594 621.566406 501.789062 621.566406 C 505.527344 621.566406 508.566406 618.53125 508.566406 614.792969 C 508.566406 611.058594 505.527344 608.015625 501.789062 608.015625 Z M 501.789062 625.691406 C 495.777344 625.691406 490.890625 620.804688 490.890625 614.792969 C 490.890625 608.785156 495.777344 603.890625 501.789062 603.890625 C 507.808594 603.890625 512.695312 608.785156 512.695312 614.792969 C 512.695312 620.804688 507.808594 625.691406 501.789062 625.691406 " fill-opacity="1" fill-rule="nonzero"/><path fill="#bab195" d="M 588.203125 442.914062 C 584.464844 442.914062 581.421875 445.953125 581.421875 449.691406 C 581.421875 453.425781 584.464844 456.46875 588.203125 456.46875 C 591.933594 456.46875 594.972656 453.425781 594.972656 449.691406 C 594.972656 445.953125 591.933594 442.914062 588.203125 442.914062 Z M 588.203125 460.59375 C 582.191406 460.59375 577.296875 455.699219 577.296875 449.691406 C 577.296875 443.679688 582.191406 438.792969 588.203125 438.792969 C 594.214844 438.792969 599.101562 443.679688 599.101562 449.691406 C 599.101562 455.699219 594.214844 460.59375 588.203125 460.59375 " fill-opacity="1" fill-rule="nonzero"/><path fill="#bab195" d="M 235.945312 146.265625 L 241.09375 143.90625 L 242.117188 149.476562 L 244.535156 144.355469 L 248.898438 147.96875 L 247.46875 142.488281 L 253.136719 142.449219 L 248.523438 139.167969 L 252.835938 135.507812 L 247.183594 135.960938 L 248.128906 130.378906 L 244.097656 134.363281 L 241.226562 129.472656 L 240.703125 135.113281 L 235.363281 133.214844 L 238.582031 137.871094 L 233.28125 139.851562 L 238.742188 141.347656 Z M 230.566406 135.347656 L 222.023438 122.988281 L 236.179688 128.027344 L 237.585938 113.0625 L 245.1875 126.023438 L 255.882812 115.46875 L 253.386719 130.28125 L 268.355469 129.054688 L 256.910156 138.796875 L 269.171875 147.496094 L 254.144531 147.597656 L 257.945312 162.136719 L 246.363281 152.5625 L 239.925781 166.136719 L 237.214844 151.363281 L 223.554688 157.628906 L 230.980469 144.566406 L 216.492188 140.59375 L 230.566406 135.347656 " fill-opacity="1" fill-rule="nonzero"/><path fill="#bab195" d="M 187.753906 628.226562 L 192.902344 625.863281 L 193.925781 631.433594 L 196.355469 626.316406 L 200.71875 629.933594 L 199.28125 624.453125 L 204.945312 624.414062 L 200.332031 621.128906 L 204.644531 617.464844 L 198.992188 617.925781 L 199.945312 612.339844 L 195.90625 616.320312 L 193.039062 611.433594 L 192.515625 617.074219 L 187.179688 615.175781 L 190.398438 619.828125 L 185.089844 621.8125 L 190.550781 623.308594 Z M 182.375 617.3125 L 173.832031 604.953125 L 187.992188 609.984375 L 189.394531 595.023438 L 197 607.984375 L 207.695312 597.433594 L 205.195312 612.246094 L 220.171875 611.019531 L 208.722656 620.761719 L 220.980469 629.453125 L 205.957031 629.5625 L 209.757812 644.09375 L 198.179688 634.523438 L 191.742188 648.097656 L 189.027344 633.324219 L 175.375 639.589844 L 182.789062 626.527344 L 168.300781 622.554688 L 182.375 617.3125 " fill-opacity="1" fill-rule="nonzero"/><path fill="#bab195" d="M 313.265625 116.027344 L 332.195312 112.679688 L 313.265625 109.324219 L 309.910156 90.398438 L 306.5625 109.324219 L 287.632812 112.679688 L 306.5625 116.027344 L 309.910156 134.953125 L 313.265625 116.027344 " fill-opacity="1" fill-rule="nonzero"/><path fill="#bab195" d="M 232.738281 282.753906 L 251.667969 279.40625 L 232.738281 276.050781 L 229.382812 257.125 L 226.035156 276.050781 L 207.097656 279.40625 L 226.035156 282.753906 L 229.382812 301.679688 L 232.738281 282.753906 " fill-opacity="1" fill-rule="nonzero"/><path fill="#bab195" d="M 322.152344 184.089844 C 322.152344 187.820312 325.195312 190.863281 328.929688 190.863281 C 332.660156 190.863281 335.703125 187.820312 335.703125 184.089844 C 335.703125 180.355469 332.660156 177.3125 328.929688 177.3125 C 325.195312 177.3125 322.152344 180.355469 322.152344 184.089844 Z M 318.027344 184.089844 C 318.027344 178.082031 322.914062 173.1875 328.929688 173.1875 C 334.941406 173.1875 339.828125 178.082031 339.828125 184.089844 C 339.828125 190.101562 334.941406 194.988281 328.929688 194.988281 C 322.914062 194.988281 318.027344 190.101562 318.027344 184.089844 " fill-opacity="1" fill-rule="nonzero"/><path fill="#bab195" d="M 237.957031 539.339844 L 246.019531 533.488281 L 254.070312 539.339844 L 250.988281 529.878906 L 259.050781 524.015625 L 249.09375 524.015625 L 246.019531 514.554688 L 242.945312 524.015625 L 232.984375 524.015625 L 241.035156 529.878906 Z M 239.191406 518.855469 L 246.019531 497.859375 L 252.84375 518.855469 L 274.933594 518.855469 L 257.058594 531.847656 L 263.882812 552.84375 L 246.019531 539.863281 L 228.144531 552.84375 L 234.964844 531.847656 L 217.105469 518.855469 L 239.191406 518.855469 " fill-opacity="1" fill-rule="nonzero"/><path fill="#bab195" d="M 111.972656 321.027344 L 120.027344 315.183594 L 128.078125 321.027344 L 125.003906 311.566406 L 133.066406 305.710938 L 123.109375 305.710938 L 120.027344 296.25 L 116.957031 305.710938 L 106.996094 305.710938 L 115.046875 311.566406 Z M 113.199219 300.546875 L 120.027344 279.550781 L 126.851562 300.546875 L 148.945312 300.546875 L 131.074219 313.539062 L 137.890625 334.535156 L 120.027344 321.558594 L 102.160156 334.535156 L 108.976562 313.539062 L 91.121094 300.546875 L 113.199219 300.546875 " fill-opacity="1" fill-rule="nonzero"/><path fill="#bab195" d="M 108.597656 470.097656 L 116.414062 466.515625 L 117.957031 474.960938 L 121.644531 467.203125 L 128.269531 472.671875 L 126.089844 464.355469 L 134.683594 464.304688 L 127.675781 459.328125 L 134.222656 453.757812 L 125.65625 454.449219 L 127.082031 445.980469 L 120.972656 452.015625 L 116.617188 444.605469 L 115.816406 453.160156 L 107.722656 450.285156 L 112.609375 457.347656 L 104.554688 460.351562 L 112.839844 462.625 Z M 104.59375 454.832031 L 94.378906 440.058594 L 111.300781 446.082031 L 112.976562 428.203125 L 122.066406 443.691406 L 134.835938 431.070312 L 131.847656 448.777344 L 149.742188 447.320312 L 136.070312 458.957031 L 150.71875 469.339844 L 132.765625 469.472656 L 137.304688 486.847656 L 123.472656 475.394531 L 115.78125 491.625 L 112.527344 473.96875 L 96.21875 481.449219 L 105.078125 465.84375 L 87.765625 461.089844 L 104.59375 454.832031 " fill-opacity="1" fill-rule="nonzero"/><path fill="#bab195" d="M 103.960938 385.796875 L 120.917969 382.800781 L 103.960938 379.796875 L 100.957031 362.84375 L 97.957031 379.796875 L 81 382.800781 L 97.957031 385.796875 L 100.957031 402.753906 L 103.960938 385.796875 " fill-opacity="1" fill-rule="nonzero"/><path fill="#bab195" d="M 142.402344 549.359375 L 159.363281 546.359375 L 142.402344 543.355469 L 139.40625 526.402344 L 136.402344 543.355469 L 119.445312 546.359375 L 136.402344 549.359375 L 139.40625 566.3125 L 142.402344 549.359375 " fill-opacity="1" fill-rule="nonzero"/><path fill="#bab195" d="M 284.542969 682.195312 L 305.84375 678.433594 L 284.542969 674.664062 L 280.773438 653.367188 L 277.003906 674.664062 L 255.703125 678.433594 L 277.003906 682.195312 L 280.773438 703.492188 L 284.542969 682.195312 " fill-opacity="1" fill-rule="nonzero"/><path fill="#bab195" d="M 126.511719 238.480469 C 126.511719 242.210938 129.554688 245.25 133.285156 245.25 C 137.023438 245.25 140.0625 242.210938 140.0625 238.480469 C 140.0625 234.742188 137.023438 231.703125 133.285156 231.703125 C 129.554688 231.703125 126.511719 234.742188 126.511719 238.480469 Z M 122.386719 238.480469 C 122.386719 232.46875 127.273438 227.578125 133.285156 227.578125 C 139.304688 227.578125 144.191406 232.46875 144.191406 238.480469 C 144.191406 244.492188 139.304688 249.378906 133.285156 249.378906 C 127.273438 249.378906 122.386719 244.492188 122.386719 238.480469 " fill-opacity="1" fill-rule="nonzero"/><path fill="#bab195" d="M 296.125 614.792969 C 296.125 618.53125 299.167969 621.566406 302.898438 621.566406 C 306.632812 621.566406 309.675781 618.53125 309.675781 614.792969 C 309.675781 611.058594 306.632812 608.015625 302.898438 608.015625 C 299.167969 608.015625 296.125 611.058594 296.125 614.792969 Z M 292 614.792969 C 292 608.785156 296.886719 603.890625 302.898438 603.890625 C 308.910156 603.890625 313.800781 608.785156 313.800781 614.792969 C 313.800781 620.804688 308.910156 625.691406 302.898438 625.691406 C 296.886719 625.691406 292 620.804688 292 614.792969 " fill-opacity="1" fill-rule="nonzero"/><path fill="#bab195" d="M 209.71875 449.691406 C 209.71875 453.425781 212.753906 456.46875 216.492188 456.46875 C 220.226562 456.46875 223.269531 453.425781 223.269531 449.691406 C 223.269531 445.953125 220.226562 442.914062 216.492188 442.914062 C 212.753906 442.914062 209.71875 445.953125 209.71875 449.691406 Z M 205.585938 449.691406 C 205.585938 443.679688 210.480469 438.792969 216.492188 438.792969 C 222.503906 438.792969 227.394531 443.679688 227.394531 449.691406 C 227.394531 455.699219 222.503906 460.59375 216.492188 460.59375 C 210.480469 460.59375 205.585938 455.699219 205.585938 449.691406 " fill-opacity="1" fill-rule="nonzero"/></svg>