<svg xmlns="http://www.w3.org/2000/svg" xmlns:xlink="http://www.w3.org/1999/xlink" width="1080" zoomAndPan="magnify" viewBox="0 0 810 809.999993" height="1080" preserveAspectRatio="xMidYMid meet" version="1.0"><defs><clipPath id="a329b3375b"><path d="M 661 391 L 724.464844 391 L 724.464844 455.15625 L 661 455.15625 Z M 661 391 " clip-rule="nonzero"/></clipPath><clipPath id="febf2810a5"><path d="M 371 665 L 434.351562 665 L 434.351562 728.59375 L 371 728.59375 Z M 371 665 " clip-rule="nonzero"/></clipPath><clipPath id="13b7d61edb"><path d="M 373 76.484375 L 437 76.484375 L 437 141 L 373 141 Z M 373 76.484375 " clip-rule="nonzero"/></clipPath></defs><rect x="-81" width="972" fill="#ffffff" y="-80.999999" height="971.999992" fill-opacity="1"/><rect x="-81" width="972" fill="#ffffff" y="-80.999999" height="971.999992" fill-opacity="1"/><rect x="-81" width="972" fill="#11091a" y="-80.999999" height="971.999992" fill-opacity="1"/><path fill="#bab195" d="M 589.054688 253.039062 L 594.515625 251.542969 L 589.210938 249.558594 L 592.429688 244.90625 L 587.089844 246.804688 L 586.566406 241.160156 L 583.703125 246.050781 L 579.664062 242.066406 L 580.609375 247.652344 L 574.960938 247.199219 L 579.269531 250.859375 L 574.65625 254.148438 L 580.324219 254.1875 L 578.894531 259.660156 L 583.253906 256.050781 L 585.679688 261.171875 L 586.703125 255.597656 L 591.855469 257.964844 Z M 611.308594 252.285156 L 596.816406 256.257812 L 604.238281 269.324219 L 590.582031 263.0625 L 587.867188 277.839844 L 581.425781 264.257812 L 569.847656 273.835938 L 573.644531 259.292969 L 558.625 259.1875 L 570.882812 250.492188 L 559.433594 240.746094 L 574.410156 241.976562 L 571.914062 227.15625 L 582.605469 237.710938 L 590.207031 224.75 L 591.613281 239.714844 L 605.773438 234.679688 L 597.226562 247.042969 L 611.308594 252.285156 " fill-opacity="1" fill-rule="nonzero"/><path fill="#bab195" d="M 580.390625 168.753906 L 561.457031 165.402344 L 580.390625 162.054688 L 583.742188 143.117188 L 587.089844 162.054688 L 606.027344 165.402344 L 587.089844 168.753906 L 583.742188 187.683594 L 580.390625 168.753906 " fill-opacity="1" fill-rule="nonzero"/><path fill="#bab195" d="M 512.796875 101.855469 C 509.0625 101.855469 506.023438 104.894531 506.023438 108.628906 C 506.023438 112.367188 509.0625 115.40625 512.796875 115.40625 C 516.535156 115.40625 519.574219 112.367188 519.574219 108.628906 C 519.574219 104.894531 516.535156 101.855469 512.796875 101.855469 Z M 512.796875 119.535156 C 506.78125 119.535156 501.894531 114.640625 501.894531 108.628906 C 501.894531 102.613281 506.78125 97.726562 512.796875 97.726562 C 518.808594 97.726562 523.703125 102.613281 523.703125 108.628906 C 523.703125 114.640625 518.808594 119.535156 512.796875 119.535156 " fill-opacity="1" fill-rule="nonzero"/><path fill="#bab195" d="M 562.84375 658.875 L 570.890625 653.019531 L 560.929688 653.019531 L 557.859375 643.550781 L 554.78125 653.019531 L 544.820312 653.019531 L 552.882812 658.875 L 549.808594 668.34375 L 557.859375 662.492188 L 565.921875 668.34375 Z M 586.773438 647.851562 L 568.90625 660.847656 L 575.730469 681.847656 L 557.859375 668.871094 L 539.992188 681.847656 L 546.816406 660.847656 L 528.9375 647.851562 L 551.035156 647.851562 L 557.859375 626.851562 L 564.6875 647.851562 L 586.773438 647.851562 " fill-opacity="1" fill-rule="nonzero"/><path fill="#bab195" d="M 686.246094 316.25 L 694.292969 310.382812 L 684.332031 310.382812 L 681.261719 300.921875 L 678.183594 310.382812 L 668.222656 310.382812 L 676.285156 316.25 L 673.214844 325.710938 L 681.261719 319.859375 L 689.324219 325.710938 Z M 710.175781 305.226562 L 692.308594 318.21875 L 699.132812 339.222656 L 681.261719 326.234375 L 663.394531 339.222656 L 670.21875 318.21875 L 652.339844 305.226562 L 674.4375 305.226562 L 681.261719 284.222656 L 688.089844 305.226562 L 710.175781 305.226562 " fill-opacity="1" fill-rule="nonzero"/><g clip-path="url(#a329b3375b)"><path fill="#bab195" d="M 699.394531 426.085938 L 707.679688 423.8125 L 699.621094 420.8125 L 704.511719 413.742188 L 696.414062 416.617188 L 695.613281 408.0625 L 691.261719 415.472656 L 685.148438 409.4375 L 686.574219 417.90625 L 678.007812 417.21875 L 684.554688 422.792969 L 677.546875 427.765625 L 686.140625 427.816406 L 683.964844 436.136719 L 690.59375 430.667969 L 694.273438 438.425781 L 695.824219 429.972656 L 703.636719 433.5625 Z M 724.472656 424.554688 L 707.15625 429.300781 L 716.019531 444.917969 L 699.703125 437.433594 L 696.449219 455.09375 L 688.765625 438.859375 L 674.921875 450.316406 L 679.464844 432.9375 L 661.511719 432.800781 L 676.160156 422.417969 L 662.488281 410.777344 L 680.386719 412.238281 L 677.394531 394.527344 L 690.164062 407.144531 L 699.257812 391.65625 L 700.929688 409.542969 L 717.855469 403.515625 L 707.640625 418.289062 L 724.472656 424.554688 " fill-opacity="1" fill-rule="nonzero"/></g><path fill="#bab195" d="M 619.769531 375.777344 L 602.8125 372.777344 L 619.769531 369.777344 L 622.769531 352.816406 L 625.777344 369.777344 L 642.738281 372.777344 L 625.777344 375.777344 L 622.769531 392.742188 L 619.769531 375.777344 " fill-opacity="1" fill-rule="nonzero"/><path fill="#bab195" d="M 683.835938 521.128906 L 666.875 518.128906 L 683.835938 515.128906 L 686.835938 498.167969 L 689.835938 515.128906 L 706.792969 518.128906 L 689.835938 521.128906 L 686.835938 538.085938 L 683.835938 521.128906 " fill-opacity="1" fill-rule="nonzero"/><path fill="#bab195" d="M 396.488281 622.300781 L 379.53125 619.292969 L 396.488281 616.292969 L 399.488281 599.335938 L 402.496094 616.292969 L 419.453125 619.292969 L 402.496094 622.300781 L 399.488281 639.261719 L 396.488281 622.300781 " fill-opacity="1" fill-rule="nonzero"/><path fill="#bab195" d="M 396.84375 227.75 L 379.886719 224.75 L 396.84375 221.75 L 399.84375 204.792969 L 402.847656 221.75 L 419.804688 224.75 L 402.847656 227.75 L 399.84375 244.710938 L 396.84375 227.75 " fill-opacity="1" fill-rule="nonzero"/><path fill="#bab195" d="M 655.605469 226.488281 C 651.875 226.488281 648.835938 229.527344 648.835938 233.265625 C 648.835938 237 651.875 240.046875 655.605469 240.046875 C 659.34375 240.046875 662.382812 237 662.382812 233.265625 C 662.382812 229.527344 659.34375 226.488281 655.605469 226.488281 Z M 655.605469 244.167969 C 649.597656 244.167969 644.707031 239.28125 644.707031 233.265625 C 644.707031 227.253906 649.597656 222.359375 655.605469 222.359375 C 661.621094 222.359375 666.511719 227.253906 666.511719 233.265625 C 666.511719 239.28125 661.621094 244.167969 655.605469 244.167969 " fill-opacity="1" fill-rule="nonzero"/><path fill="#bab195" d="M 482.921875 681.492188 C 479.183594 681.492188 476.144531 684.53125 476.144531 688.273438 C 476.144531 692.003906 479.183594 695.042969 482.921875 695.042969 C 486.65625 695.042969 489.695312 692.003906 489.695312 688.273438 C 489.695312 684.53125 486.65625 681.492188 482.921875 681.492188 Z M 482.921875 699.179688 C 476.90625 699.179688 472.015625 694.285156 472.015625 688.273438 C 472.015625 682.257812 476.90625 677.363281 482.921875 677.363281 C 488.929688 677.363281 493.820312 682.257812 493.820312 688.273438 C 493.820312 694.285156 488.929688 699.179688 482.921875 699.179688 " fill-opacity="1" fill-rule="nonzero"/><path fill="#bab195" d="M 627.035156 468.894531 C 623.300781 468.894531 620.257812 471.933594 620.257812 475.667969 C 620.257812 479.40625 623.300781 482.445312 627.035156 482.445312 C 630.773438 482.445312 633.8125 479.40625 633.8125 475.667969 C 633.8125 471.933594 630.773438 468.894531 627.035156 468.894531 Z M 627.035156 486.574219 C 621.019531 486.574219 616.128906 481.679688 616.128906 475.667969 C 616.128906 469.652344 621.019531 464.761719 627.035156 464.761719 C 633.046875 464.761719 637.941406 469.652344 637.941406 475.667969 C 637.941406 481.679688 633.046875 486.574219 627.035156 486.574219 " fill-opacity="1" fill-rule="nonzero"/><path fill="#bab195" d="M 333.457031 549.488281 C 329.722656 549.488281 326.683594 552.527344 326.683594 556.257812 C 326.683594 559.996094 329.722656 563.035156 333.457031 563.035156 C 337.195312 563.035156 340.234375 559.996094 340.234375 556.257812 C 340.234375 552.527344 337.195312 549.488281 333.457031 549.488281 Z M 333.457031 567.164062 C 327.441406 567.164062 322.550781 562.273438 322.550781 556.257812 C 322.550781 550.25 327.441406 545.359375 333.457031 545.359375 C 339.46875 545.359375 344.363281 550.25 344.363281 556.257812 C 344.363281 562.273438 339.46875 567.164062 333.457031 567.164062 " fill-opacity="1" fill-rule="nonzero"/><path fill="#bab195" d="M 642.738281 585.613281 C 638.996094 585.613281 635.957031 588.652344 635.957031 592.386719 C 635.957031 596.125 638.996094 599.164062 642.738281 599.164062 C 646.46875 599.164062 649.507812 596.125 649.507812 592.386719 C 649.507812 588.652344 646.46875 585.613281 642.738281 585.613281 Z M 642.738281 603.292969 C 636.722656 603.292969 631.832031 598.402344 631.832031 592.386719 C 631.832031 586.378906 636.722656 581.488281 642.738281 581.488281 C 648.742188 581.488281 653.636719 586.378906 653.636719 592.386719 C 653.636719 598.402344 648.742188 603.292969 642.738281 603.292969 " fill-opacity="1" fill-rule="nonzero"/><path fill="#bab195" d="M 213.617188 257.964844 L 218.769531 255.597656 L 219.792969 261.171875 L 222.214844 256.050781 L 226.585938 259.660156 L 225.144531 254.1875 L 230.816406 254.148438 L 226.203125 250.859375 L 230.511719 247.199219 L 224.859375 247.652344 L 225.808594 242.066406 L 221.769531 246.050781 L 218.90625 241.160156 L 218.375 246.804688 L 213.039062 244.90625 L 216.261719 249.558594 L 210.960938 251.542969 L 216.417969 253.039062 Z M 208.246094 247.042969 L 199.699219 234.679688 L 213.855469 239.714844 L 215.261719 224.75 L 222.863281 237.710938 L 233.558594 227.15625 L 231.0625 241.976562 L 246.039062 240.746094 L 234.585938 250.492188 L 246.847656 259.1875 L 231.828125 259.292969 L 235.625 273.835938 L 224.042969 264.257812 L 217.601562 277.839844 L 214.886719 263.0625 L 201.234375 269.324219 L 208.652344 256.257812 L 194.164062 252.285156 L 208.246094 247.042969 " fill-opacity="1" fill-rule="nonzero"/><path fill="#bab195" d="M 241.859375 574.074219 L 247.003906 571.707031 L 248.027344 577.28125 L 250.449219 572.160156 L 254.820312 575.777344 L 253.378906 570.296875 L 259.050781 570.257812 L 254.4375 566.96875 L 258.753906 563.308594 L 253.09375 563.761719 L 254.039062 558.175781 L 250.011719 562.164062 L 247.140625 557.269531 L 246.613281 562.914062 L 241.273438 561.015625 L 244.496094 565.667969 L 239.195312 567.652344 L 244.652344 569.148438 Z M 236.480469 563.152344 L 227.933594 550.789062 L 242.089844 555.824219 L 243.496094 540.859375 L 251.097656 553.820312 L 261.792969 543.265625 L 259.296875 558.085938 L 274.273438 556.855469 L 262.828125 566.601562 L 275.089844 575.296875 L 260.0625 575.402344 L 263.859375 589.945312 L 252.277344 580.367188 L 245.835938 593.949219 L 243.121094 579.171875 L 229.46875 585.433594 L 236.894531 572.367188 L 222.40625 568.394531 L 236.480469 563.152344 " fill-opacity="1" fill-rule="nonzero"/><path fill="#bab195" d="M 225.082031 168.753906 L 244.015625 165.402344 L 225.082031 162.054688 L 221.730469 143.117188 L 218.378906 162.054688 L 199.445312 165.402344 L 218.378906 168.753906 L 221.730469 187.683594 L 225.082031 168.753906 " fill-opacity="1" fill-rule="nonzero"/><path fill="#bab195" d="M 285.898438 108.628906 C 285.898438 112.367188 288.9375 115.40625 292.675781 115.40625 C 296.410156 115.40625 299.449219 112.367188 299.449219 108.628906 C 299.449219 104.894531 296.410156 101.855469 292.675781 101.855469 C 288.9375 101.855469 285.898438 104.894531 285.898438 108.628906 Z M 281.769531 108.628906 C 281.769531 102.613281 286.664062 97.726562 292.675781 97.726562 C 298.691406 97.726562 303.574219 102.613281 303.574219 108.628906 C 303.574219 114.640625 298.691406 119.535156 292.675781 119.535156 C 286.664062 119.535156 281.769531 114.640625 281.769531 108.628906 " fill-opacity="1" fill-rule="nonzero"/><path fill="#bab195" d="M 239.558594 668.34375 L 247.613281 662.492188 L 255.660156 668.34375 L 252.589844 658.875 L 260.652344 653.019531 L 250.691406 653.019531 L 247.613281 643.550781 L 244.539062 653.019531 L 234.582031 653.019531 L 242.628906 658.875 Z M 240.78125 647.851562 L 247.613281 626.851562 L 254.4375 647.851562 L 276.535156 647.851562 L 258.65625 660.847656 L 265.476562 681.847656 L 247.613281 668.871094 L 229.738281 681.847656 L 236.5625 660.847656 L 218.699219 647.851562 L 240.78125 647.851562 " fill-opacity="1" fill-rule="nonzero"/><path fill="#bab195" d="M 116.15625 325.710938 L 124.210938 319.859375 L 132.265625 325.710938 L 129.1875 316.25 L 137.25 310.382812 L 127.289062 310.382812 L 124.210938 300.921875 L 121.136719 310.382812 L 111.179688 310.382812 L 119.226562 316.25 Z M 117.378906 305.226562 L 124.210938 284.222656 L 131.035156 305.226562 L 153.132812 305.226562 L 135.253906 318.21875 L 142.074219 339.222656 L 124.210938 326.234375 L 106.335938 339.222656 L 113.160156 318.21875 L 95.296875 305.226562 L 117.378906 305.226562 " fill-opacity="1" fill-rule="nonzero"/><path fill="#bab195" d="M 101.832031 433.5625 L 109.648438 429.972656 L 111.199219 438.425781 L 114.878906 430.667969 L 121.507812 436.136719 L 119.332031 427.816406 L 127.921875 427.765625 L 120.917969 422.792969 L 127.464844 417.21875 L 118.894531 417.90625 L 120.320312 409.4375 L 114.210938 415.472656 L 109.855469 408.0625 L 109.058594 416.617188 L 100.960938 413.742188 L 105.851562 420.8125 L 97.789062 423.8125 L 106.078125 426.085938 Z M 97.835938 418.289062 L 87.617188 403.515625 L 104.542969 409.542969 L 106.214844 391.65625 L 115.304688 407.144531 L 128.078125 394.527344 L 125.085938 412.238281 L 142.984375 410.777344 L 129.308594 422.417969 L 143.960938 432.800781 L 126.003906 432.9375 L 130.546875 450.316406 L 116.707031 438.859375 L 109.019531 455.09375 L 105.765625 437.433594 L 89.449219 444.917969 L 98.316406 429.300781 L 81 424.554688 L 97.835938 418.289062 " fill-opacity="1" fill-rule="nonzero"/><path fill="#bab195" d="M 185.699219 375.777344 L 202.660156 372.777344 L 185.699219 369.777344 L 182.699219 352.816406 L 179.699219 369.777344 L 162.742188 372.777344 L 179.699219 375.777344 L 182.699219 392.742188 L 185.699219 375.777344 " fill-opacity="1" fill-rule="nonzero"/><path fill="#bab195" d="M 121.636719 521.128906 L 138.597656 518.128906 L 121.636719 515.128906 L 118.636719 498.167969 L 115.636719 515.128906 L 98.679688 518.128906 L 115.636719 521.128906 L 118.636719 538.085938 L 121.636719 521.128906 " fill-opacity="1" fill-rule="nonzero"/><path fill="#bab195" d="M 143.085938 233.265625 C 143.085938 237 146.125 240.046875 149.863281 240.046875 C 153.597656 240.046875 156.636719 237 156.636719 233.265625 C 156.636719 229.527344 153.597656 226.488281 149.863281 226.488281 C 146.125 226.488281 143.085938 229.527344 143.085938 233.265625 Z M 138.957031 233.265625 C 138.957031 227.253906 143.851562 222.359375 149.863281 222.359375 C 155.871094 222.359375 160.765625 227.253906 160.765625 233.265625 C 160.765625 239.28125 155.871094 244.167969 149.863281 244.167969 C 143.851562 244.167969 138.957031 239.28125 138.957031 233.265625 " fill-opacity="1" fill-rule="nonzero"/><path fill="#bab195" d="M 315.777344 688.273438 C 315.777344 692.003906 318.816406 695.042969 322.550781 695.042969 C 326.289062 695.042969 329.328125 692.003906 329.328125 688.273438 C 329.328125 684.53125 326.289062 681.492188 322.550781 681.492188 C 318.816406 681.492188 315.777344 684.53125 315.777344 688.273438 Z M 311.648438 688.273438 C 311.648438 682.257812 316.542969 677.363281 322.550781 677.363281 C 328.5625 677.363281 333.457031 682.257812 333.457031 688.273438 C 333.457031 694.285156 328.5625 699.179688 322.550781 699.179688 C 316.542969 699.179688 311.648438 694.285156 311.648438 688.273438 " fill-opacity="1" fill-rule="nonzero"/><path fill="#bab195" d="M 171.65625 475.667969 C 171.65625 479.40625 174.699219 482.445312 178.4375 482.445312 C 182.167969 482.445312 185.214844 479.40625 185.214844 475.667969 C 185.214844 471.933594 182.167969 468.894531 178.4375 468.894531 C 174.699219 468.894531 171.65625 471.933594 171.65625 475.667969 Z M 167.53125 475.667969 C 167.53125 469.652344 172.421875 464.761719 178.4375 464.761719 C 184.449219 464.761719 189.34375 469.652344 189.34375 475.667969 C 189.34375 481.679688 184.449219 486.574219 178.4375 486.574219 C 172.421875 486.574219 167.53125 481.679688 167.53125 475.667969 " fill-opacity="1" fill-rule="nonzero"/><path fill="#bab195" d="M 155.964844 592.386719 C 155.964844 596.125 159.003906 599.164062 162.734375 599.164062 C 166.472656 599.164062 169.511719 596.125 169.511719 592.386719 C 169.511719 588.652344 166.472656 585.613281 162.734375 585.613281 C 159.003906 585.613281 155.964844 588.652344 155.964844 592.386719 Z M 151.835938 592.386719 C 151.835938 586.378906 156.726562 581.488281 162.734375 581.488281 C 168.75 581.488281 173.640625 586.378906 173.640625 592.386719 C 173.640625 598.402344 168.75 603.292969 162.734375 603.292969 C 156.726562 603.292969 151.835938 598.402344 151.835938 592.386719 " fill-opacity="1" fill-rule="nonzero"/><path fill="#bab195" d="M 331.226562 260.660156 C 332.890625 251.660156 330.792969 240.140625 328.511719 237.480469 C 323.351562 239.933594 318.097656 240.441406 314.707031 240.441406 C 311.875 240.441406 309.667969 240.109375 308.246094 239.8125 C 307.203125 246.871094 309.542969 259.429688 315.757812 265.488281 C 319.050781 268.695312 322.855469 269.503906 327.390625 267.945312 C 329.09375 267.355469 330.488281 264.703125 331.226562 260.660156 Z M 333.066406 227.589844 C 338.613281 220.933594 340.175781 210.3125 337.71875 196.011719 C 330.230469 190.425781 326.386719 183.75 326.300781 176.140625 C 326.152344 163.375 336.761719 151.339844 343.757812 144.800781 C 319.945312 147.820312 295.027344 167.152344 291.339844 200.578125 C 289.761719 214.816406 293.601562 231.25 309.058594 234.710938 C 310.703125 235.074219 312.707031 235.28125 314.707031 235.28125 C 319.171875 235.28125 327.492188 234.277344 333.066406 227.589844 Z M 339.824219 191.113281 C 346.222656 183.679688 352.417969 171.804688 352.507812 162.1875 C 348.792969 171.574219 342.828125 181.324219 335.789062 187.183594 C 336.917969 188.550781 338.257812 189.847656 339.824219 191.113281 Z M 354.878906 399.945312 C 355.085938 396.898438 355.3125 393.917969 355.558594 390.980469 C 347.84375 395.363281 344.375 404.980469 341.019531 414.335938 C 339.566406 418.417969 338.179688 422.269531 336.46875 425.714844 L 335.53125 427.589844 C 329.535156 439.644531 323.332031 452.105469 313.09375 461.753906 C 312.867188 461.96875 289.933594 483.488281 275.800781 487.65625 C 271.484375 488.925781 267.253906 489.394531 263.160156 489.832031 C 259.082031 490.28125 255.238281 490.703125 251.460938 491.867188 C 247.632812 493.035156 244.546875 495.878906 242.628906 499.832031 C 245.28125 497.152344 248.589844 495.097656 253.742188 494.539062 C 256.21875 494.273438 258.597656 494.078125 260.898438 493.878906 C 266.921875 493.386719 272.613281 492.914062 278.644531 491.296875 C 292.765625 487.546875 305.796875 476.53125 315.582031 467.351562 C 324.1875 459.285156 331.292969 448.714844 337.292969 435.0625 L 338.226562 432.929688 C 347.542969 411.558594 352.074219 403.214844 354.878906 399.945312 Z M 358.675781 363.828125 C 358.234375 363.707031 357.800781 363.574219 357.367188 363.433594 C 355.574219 362.867188 353.886719 362.34375 352.003906 362.863281 C 349.496094 363.550781 346.261719 365.667969 343.351562 368.539062 C 342.617188 369.257812 340.527344 372.078125 338.109375 375.335938 C 324.644531 393.535156 294.929688 433.648438 269.75 433.660156 C 266.910156 433.660156 264.125 433.144531 261.421875 432.027344 C 256.246094 429.890625 251.074219 429.054688 246.25 429.460938 C 249.050781 429.535156 251.949219 430.058594 254.960938 431.417969 C 256.808594 432.25 258.570312 433.136719 260.289062 433.992188 C 265.128906 436.429688 269.695312 438.730469 275.167969 439.265625 C 278.433594 439.589844 286.707031 437.394531 305.8125 419.152344 C 318.128906 407.382812 329.183594 394.402344 332.40625 390.386719 C 333.242188 389.339844 334.253906 387.949219 335.316406 386.464844 C 340.433594 379.34375 348.523438 368.085938 357.855469 369.746094 C 358.121094 367.710938 358.398438 365.738281 358.675781 363.828125 Z M 361.691406 346.578125 C 362.167969 344.316406 362.628906 342.28125 363.082031 340.472656 C 361.367188 337.6875 358.929688 336.265625 355.644531 336.144531 C 355.5 336.144531 355.347656 336.144531 355.191406 336.144531 C 345.46875 336.144531 332.132812 346.925781 328.285156 352.714844 C 320.824219 363.964844 301.234375 369.90625 279.566406 367.503906 C 273.714844 366.855469 269.242188 364.4375 264.921875 362.117188 C 263.238281 361.210938 261.507812 360.269531 259.691406 359.433594 C 257.4375 358.402344 255.105469 357.878906 252.648438 357.851562 C 256.644531 358.753906 260.390625 360.394531 264.035156 363.367188 C 270.460938 368.589844 275.28125 372.066406 283.394531 372.796875 C 300.898438 374.371094 317.269531 370.582031 329.503906 362.117188 C 333.382812 359.433594 335.847656 356.382812 338.457031 353.160156 C 339.84375 351.4375 341.277344 349.660156 342.980469 347.867188 C 347.425781 343.167969 353.726562 342.746094 361.691406 346.578125 Z M 367.671875 326.273438 C 368.785156 323.226562 370.082031 319.859375 371.546875 316.347656 C 364.675781 308.121094 352.800781 311.9375 341.296875 315.644531 C 337.089844 317.007812 333.09375 318.296875 329.398438 318.96875 C 328.765625 319.082031 328.078125 319.21875 327.34375 319.359375 C 318.371094 321.078125 301.664062 324.265625 278.472656 319.074219 C 273.734375 318.003906 268.335938 313.78125 262.089844 308.859375 C 256.59375 304.550781 250.671875 299.890625 245.136719 297.535156 C 251.480469 301.785156 255.519531 307.128906 260.203125 313.351562 C 262.25 316.054688 264.351562 318.855469 266.882812 321.917969 C 271.609375 327.628906 303.726562 333.414062 312.726562 332.105469 C 316.90625 331.511719 325.234375 328.742188 333.292969 326.066406 C 345.535156 322.011719 353.207031 319.554688 356.390625 320.035156 C 359.421875 320.507812 362.222656 322.507812 364.683594 324.285156 C 365.695312 325.015625 366.804688 325.808594 367.671875 326.273438 Z M 370.003906 285.914062 C 370.984375 283.847656 372.402344 282.050781 374.171875 280.644531 C 369.9375 276.550781 361.742188 274.683594 352.402344 272.5625 C 346.46875 271.214844 340.335938 269.808594 334.382812 267.664062 C 333.417969 269.617188 332.269531 270.898438 331.136719 271.734375 C 335.398438 279.835938 343.074219 280.773438 352.613281 281.914062 C 358.429688 282.609375 364.4375 283.335938 370.003906 285.914062 Z M 378.246094 302.054688 C 381.890625 295.234375 386.03125 289.039062 390.441406 285.105469 C 387.320312 282.824219 383.902344 282.039062 380.722656 282.957031 C 377.253906 283.964844 374.574219 286.925781 373.890625 290.484375 C 373.148438 294.324219 374.726562 298.40625 378.246094 302.054688 Z M 425.707031 302.777344 C 429.746094 299.015625 431.625 294.675781 430.886719 290.585938 C 430.238281 287.015625 427.585938 284.035156 424.125 282.992188 C 420.867188 282.011719 417.316406 282.824219 414.089844 285.238281 C 417.917969 288.855469 421.769531 294.664062 425.707031 302.777344 Z M 437.566406 540.15625 C 435.648438 532.839844 434.863281 526.039062 434.890625 520.449219 C 427.433594 528.121094 417.90625 532.035156 406.46875 532.035156 C 405.082031 532.035156 403.644531 531.976562 402.191406 531.859375 C 396.644531 532.175781 391.519531 531.300781 386.851562 529.265625 C 388.996094 536.453125 392.949219 545.046875 398.710938 554.085938 C 407.71875 557.890625 419.125 557.601562 427.183594 553.335938 C 431.035156 551.300781 435.882812 547.378906 437.566406 540.15625 Z M 436.347656 510.28125 C 450.417969 488.316406 450.527344 448.890625 448.050781 419.171875 C 444.933594 381.921875 436.886719 347.96875 433.476562 337.355469 C 419.074219 292.554688 409.09375 285.867188 404.425781 285.867188 L 400.015625 285.867188 C 390.300781 285.867188 377.289062 312.5625 369.316406 337.355469 C 365.726562 348.535156 360 382.621094 359.128906 420.265625 C 357.835938 476.472656 367.695312 502.167969 376.199219 513.832031 C 382.992188 523.148438 391.484375 527.347656 402.0625 526.703125 L 402.25 526.675781 L 402.4375 526.703125 C 403.8125 526.8125 405.171875 526.875 406.46875 526.875 C 418.515625 526.875 427.78125 522.199219 434.792969 512.582031 C 435.214844 512.003906 435.617188 511.414062 436.003906 510.804688 C 436.058594 510.609375 436.109375 510.402344 436.171875 510.226562 Z M 444.851562 578.589844 C 447.359375 576.535156 450.28125 573.222656 450.804688 568.734375 C 446.015625 561.988281 442.5 554.890625 440.003906 548.023438 C 437.671875 552.136719 434.160156 555.492188 429.589844 557.910156 C 424.582031 560.546875 418.484375 561.882812 412.300781 561.882812 C 409.300781 561.882812 406.285156 561.554688 403.363281 560.925781 C 409.074219 568.804688 416.097656 576.828125 424.46875 584.359375 C 430.683594 585.628906 439.226562 583.222656 444.851562 578.589844 Z M 464.925781 191.113281 C 466.480469 189.847656 467.835938 188.550781 468.957031 187.183594 C 461.917969 181.324219 455.957031 171.574219 452.238281 162.1875 C 452.320312 171.804688 458.523438 183.679688 464.925781 191.113281 Z M 462.613281 598.011719 C 465.976562 594.855469 467.992188 590.707031 468.171875 586.722656 C 463.007812 582.78125 458.550781 578.433594 454.753906 573.867188 C 453.449219 577.0625 451.21875 580.046875 448.136719 582.582031 C 443.300781 586.546875 436.847656 589.109375 430.738281 589.703125 C 436.59375 594.433594 443.015625 598.875 449.988281 602.878906 L 450.003906 602.832031 C 454.335938 603.25 458.9375 601.480469 462.613281 598.011719 Z M 473.617188 271.734375 C 472.480469 270.898438 471.335938 269.617188 470.351562 267.664062 C 464.40625 269.808594 458.277344 271.214844 452.335938 272.5625 C 443.003906 274.683594 434.8125 276.550781 430.582031 280.644531 C 432.34375 282.050781 433.777344 283.847656 434.746094 285.902344 C 440.320312 283.335938 446.316406 282.609375 452.128906 281.914062 C 461.671875 280.773438 469.351562 279.835938 473.617188 271.734375 Z M 489.15625 609.519531 C 490.878906 606.695312 491.332031 602.96875 490.464844 599.125 C 484.542969 596.808594 479.796875 594.277344 476.785156 592.515625 C 475.464844 591.738281 474.179688 590.941406 472.941406 590.132812 C 472.027344 594.371094 469.667969 598.460938 466.152344 601.769531 C 463.605469 604.175781 460.675781 605.929688 457.609375 606.960938 C 464.335938 610.304688 471.515625 613.226562 479.175781 615.601562 C 483.894531 614.671875 487.257812 612.636719 489.15625 609.519531 Z M 488.980469 265.488281 C 495.203125 259.429688 497.535156 246.871094 496.503906 239.8125 C 495.070312 240.109375 492.867188 240.441406 490.042969 240.441406 C 486.648438 240.441406 481.386719 239.933594 476.234375 237.480469 C 473.953125 240.140625 471.859375 251.660156 473.519531 260.660156 C 474.265625 264.703125 475.65625 267.355469 477.347656 267.945312 C 481.890625 269.503906 485.703125 268.695312 488.980469 265.488281 Z M 495.6875 234.710938 C 511.148438 231.25 514.980469 214.816406 513.410156 200.578125 C 509.722656 167.152344 484.800781 147.820312 460.992188 144.800781 C 467.992188 151.339844 478.597656 163.375 478.445312 176.140625 C 478.351562 183.75 474.511719 190.425781 467.03125 196.011719 C 464.5625 210.3125 466.132812 220.933594 471.671875 227.589844 C 474.472656 230.933594 477.9375 232.851562 481.28125 233.933594 C 484.613281 235.03125 487.808594 235.28125 490.042969 235.28125 C 492.046875 235.28125 494.046875 235.074219 495.6875 234.710938 Z M 517.402344 612.09375 C 517.734375 610.324219 517.910156 607.136719 515.742188 604.90625 C 508.621094 604.519531 501.890625 603.007812 495.980469 601.089844 C 496.308594 605.148438 495.492188 609.046875 493.5625 612.203125 C 492.128906 614.542969 490.109375 616.46875 487.601562 617.933594 C 493.445312 619.339844 501.746094 620.789062 511.242188 620.933594 L 511.164062 620.699219 C 514.046875 619.6875 516.671875 616.066406 517.402344 612.09375 Z M 539.066406 363.367188 C 542.707031 360.394531 546.453125 358.753906 550.4375 357.851562 C 547.984375 357.878906 545.65625 358.402344 543.40625 359.433594 C 541.59375 360.269531 539.851562 361.210938 538.179688 362.117188 C 533.851562 364.4375 529.386719 366.855469 523.535156 367.503906 C 501.851562 369.90625 482.273438 363.964844 474.800781 352.714844 C 470.902344 346.828125 457.164062 335.8125 447.457031 336.144531 C 444.078125 336.265625 441.597656 337.765625 439.855469 340.710938 C 440.359375 342.476562 440.878906 344.4375 441.417969 346.5625 C 449.378906 342.746094 455.667969 343.167969 460.117188 347.867188 C 461.816406 349.660156 463.253906 351.4375 464.632812 353.160156 C 467.246094 356.382812 469.714844 359.433594 473.589844 362.117188 C 485.832031 370.582031 502.199219 374.371094 519.703125 372.796875 C 527.816406 372.066406 532.632812 368.589844 539.066406 363.367188 Z M 543.789062 615.269531 C 545.683594 613.035156 546.539062 610.058594 546.070312 607.222656 C 545.761719 605.289062 544.699219 602.625 541.503906 600.625 C 534.914062 603.4375 528.25 604.710938 521.789062 604.972656 C 522.75 607.332031 523.015625 610.078125 522.476562 613.019531 C 521.953125 615.890625 520.757812 618.546875 519.125 620.734375 C 527.039062 620.195312 535.464844 618.59375 543.789062 615.269531 Z M 542.894531 313.351562 C 547.582031 307.128906 551.613281 301.785156 557.960938 297.535156 C 552.429688 299.90625 546.503906 304.550781 541.003906 308.875 C 534.761719 313.78125 529.367188 318.003906 524.628906 319.074219 C 501.4375 324.265625 484.730469 321.078125 475.75 319.359375 C 475.015625 319.21875 474.335938 319.082031 473.699219 318.96875 C 469.992188 318.296875 466.007812 317.007812 461.796875 315.644531 C 450.300781 311.9375 438.433594 308.121094 431.558594 316.347656 C 432.777344 319.476562 434.003906 322.820312 435.242188 326.378906 C 436.128906 325.925781 437.328125 325.070312 438.410156 324.285156 C 440.878906 322.507812 443.675781 320.507812 446.710938 320.035156 C 449.917969 319.546875 457.566406 322.011719 469.804688 326.066406 C 477.867188 328.742188 486.195312 331.511719 490.375 332.105469 C 499.382812 333.410156 531.492188 327.628906 536.214844 321.917969 C 538.742188 318.855469 540.847656 316.054688 542.894531 313.351562 Z M 558.5 429.460938 C 553.6875 429.054688 548.507812 429.890625 543.316406 432.027344 C 540.621094 433.144531 537.835938 433.660156 534.988281 433.660156 C 509.816406 433.660156 480.101562 393.535156 466.625 375.335938 C 464.214844 372.078125 462.125 369.257812 461.394531 368.539062 C 458.484375 365.667969 455.257812 363.550781 452.75 362.863281 C 450.859375 362.34375 449.179688 362.867188 447.378906 363.433594 C 446.71875 363.648438 446.050781 363.855469 445.355469 364.007812 C 445.738281 365.882812 446.121094 367.828125 446.488281 369.816406 C 455.988281 367.753906 464.246094 379.238281 469.4375 386.464844 C 470.5 387.949219 471.511719 389.339844 472.347656 390.386719 C 475.566406 394.402344 486.617188 407.382812 498.941406 419.152344 C 518.042969 437.394531 526.328125 439.589844 529.578125 439.265625 C 535.046875 438.730469 539.625 436.429688 544.464844 433.992188 C 546.175781 433.136719 547.9375 432.25 549.792969 431.417969 C 552.796875 430.058594 555.6875 429.535156 558.5 429.460938 Z M 563.769531 499.832031 C 561.851562 495.878906 558.765625 493.035156 554.9375 491.867188 C 551.160156 490.703125 547.308594 490.28125 543.246094 489.832031 C 539.152344 489.394531 534.914062 488.925781 530.601562 487.65625 C 516.464844 483.488281 493.523438 461.96875 493.296875 461.753906 C 483.058594 452.105469 476.863281 439.644531 470.867188 427.589844 L 469.929688 425.714844 C 468.21875 422.269531 466.832031 418.417969 465.378906 414.335938 C 461.894531 404.617188 458.308594 394.617188 449.957031 390.5 C 450.398438 393.46875 450.804688 396.507812 451.1875 399.566406 C 453.976562 402.585938 458.484375 410.726562 468.171875 432.9375 L 469.105469 435.0625 C 475.113281 448.730469 482.207031 459.285156 490.816406 467.351562 C 500.601562 476.53125 513.636719 487.546875 527.746094 491.296875 C 533.792969 492.914062 539.472656 493.386719 545.507812 493.878906 C 547.796875 494.078125 550.179688 494.273438 552.65625 494.539062 C 557.808594 495.097656 561.105469 497.152344 563.769531 499.832031 Z M 569.042969 598.179688 C 569.535156 595.496094 569.464844 591.945312 567.714844 589.703125 C 566.375 587.992188 564.046875 587.085938 560.839844 586.980469 C 556.265625 591.738281 551.5 595.382812 546.628906 598.097656 C 549.050781 600.324219 550.644531 603.175781 551.171875 606.398438 C 551.46875 608.230469 551.386719 610.097656 551.003906 611.914062 C 557.144531 608.628906 563.140625 604.265625 568.707031 598.53125 C 568.816406 598.414062 568.925781 598.289062 569.042969 598.179688 Z M 574.246094 592.386719 C 581.847656 583.367188 588.082031 573.171875 587.648438 566.835938 C 587.519531 564.976562 586.84375 563.625 585.515625 562.597656 C 584.617188 561.890625 583.773438 561.644531 582.769531 561.820312 C 577.980469 562.617188 571.964844 571.832031 568.382812 577.339844 C 567.054688 579.375 565.90625 581.128906 564.980469 582.277344 C 564.96875 582.296875 564.949219 582.316406 564.933594 582.335938 C 567.839844 583.027344 570.140625 584.421875 571.777344 586.527344 C 573.203125 588.34375 573.921875 590.410156 574.246094 592.386719 Z M 590.363281 560.140625 C 596.320312 556.699219 597.914062 548.753906 596.804688 542.550781 C 595.597656 535.800781 590.847656 528.277344 581.179688 527.453125 C 573.066406 526.753906 568.394531 530.730469 562.460938 535.78125 C 557.144531 540.308594 551.242188 545.324219 541.890625 547.808594 C 547.742188 549.886719 553.492188 548.105469 559.082031 546.363281 C 564.617188 544.640625 569.839844 543.019531 574.320312 545.78125 C 577.34375 547.652344 579.449219 551.261719 580.832031 556.992188 C 581.195312 556.886719 581.5625 556.796875 581.925781 556.730469 C 584.332031 556.328125 586.667969 556.945312 588.691406 558.527344 C 589.320312 559.011719 589.882812 559.558594 590.363281 560.140625 Z M 601.886719 541.644531 C 603.648438 551.488281 599.832031 560.851562 592.558594 564.824219 C 592.671875 565.355469 592.761719 565.90625 592.792969 566.472656 C 593.492188 576.535156 582.71875 591.480469 572.40625 602.121094 C 553.964844 621.140625 531.324219 626.105469 512.722656 626.105469 C 500.820312 626.105469 490.5625 624.070312 484.140625 622.390625 C 420.796875 605.832031 386.183594 552.480469 380.613281 525.644531 C 377.496094 523.34375 374.625 520.429688 372.03125 516.871094 C 355.78125 494.570312 353.238281 451.957031 353.972656 420.148438 C 354.042969 416.929688 354.160156 413.742188 354.289062 410.589844 C 351.757812 415.464844 348.132812 423.109375 342.960938 434.984375 L 342.007812 437.148438 C 335.730469 451.449219 328.234375 462.558594 319.109375 471.113281 C 308.882812 480.710938 295.195312 492.238281 279.976562 496.28125 C 273.488281 498.003906 267.585938 498.503906 261.332031 499.03125 C 259.0625 499.21875 256.703125 499.410156 254.292969 499.671875 C 248.253906 500.320312 245.777344 503.695312 242.363281 508.347656 C 241.527344 509.496094 240.644531 510.679688 239.679688 511.886719 L 235.191406 517.453125 L 235.085938 510.3125 C 235.066406 508.75 235.3125 507.214844 235.558594 505.71875 L 235.664062 505.074219 C 237.109375 496.015625 242.453125 489.238281 249.945312 486.9375 C 254.191406 485.621094 258.460938 485.160156 262.589844 484.707031 C 266.644531 484.261719 270.460938 483.851562 274.34375 482.707031 C 285.09375 479.535156 303.414062 463.796875 309.558594 458.007812 C 319.121094 448.988281 325.117188 436.941406 330.910156 425.300781 L 331.847656 423.410156 C 333.421875 420.242188 334.757812 416.527344 336.15625 412.605469 C 340.070312 401.6875 344.480469 389.425781 356.109375 385.03125 C 356.441406 381.539062 356.808594 378.167969 357.207031 374.929688 C 351.425781 373.730469 345.535156 381.085938 339.5 389.476562 C 338.398438 391.015625 337.355469 392.472656 336.429688 393.625 C 336.015625 394.144531 295.066406 444.445312 275.683594 444.445312 C 275.335938 444.445312 274.992188 444.433594 274.660156 444.40625 C 268.234375 443.777344 263.007812 441.140625 257.96875 438.605469 C 256.300781 437.769531 254.589844 436.914062 252.847656 436.125 C 247.507812 433.71875 242.402344 434.679688 236.984375 435.695312 C 234.640625 436.125 232.214844 436.585938 229.6875 436.777344 L 222.445312 437.355469 L 227.707031 432.339844 C 236.789062 423.6875 250.132812 421.789062 263.390625 427.257812 C 286.261719 436.695312 320.917969 389.890625 333.960938 372.273438 C 337.175781 367.949219 338.75 365.824219 339.734375 364.851562 C 341.414062 363.199219 345.851562 359.195312 350.640625 357.886719 C 353.984375 356.964844 356.824219 357.851562 358.898438 358.507812 C 359.089844 358.566406 359.285156 358.632812 359.472656 358.683594 C 359.871094 356.265625 360.269531 353.984375 360.660156 351.839844 C 351.148438 346.8125 347.835938 350.25 346.726562 351.417969 C 345.171875 353.070312 343.796875 354.761719 342.464844 356.402344 C 339.742188 359.765625 336.921875 363.25 332.433594 366.363281 C 321.144531 374.164062 306.671875 378.300781 291.0625 378.300781 C 288.378906 378.300781 285.664062 378.1875 282.929688 377.9375 C 273.382812 377.082031 267.726562 373.015625 260.78125 367.371094 C 254.382812 362.167969 247.75 361.878906 238.328125 362.03125 L 227.75 362.214844 L 237.054688 357.1875 C 246.363281 352.15625 254.46875 351.367188 261.835938 354.75 C 263.804688 355.65625 265.621094 356.628906 267.363281 357.574219 C 271.617188 359.855469 275.28125 361.824219 280.128906 362.375 C 302.890625 364.898438 318.8125 357.660156 323.996094 349.871094 C 328.523438 343.03125 343.488281 330.550781 355.832031 330.992188 C 359.371094 331.113281 362.394531 332.347656 364.808594 334.542969 C 365.136719 333.539062 365.511719 332.40625 365.933594 331.167969 C 364.542969 330.539062 363.136719 329.527344 361.664062 328.472656 C 359.667969 327.039062 357.417969 325.417969 355.613281 325.140625 C 353.480469 324.804688 342.742188 328.367188 334.914062 330.972656 C 326.261719 333.835938 318.089844 336.546875 313.457031 337.214844 C 312.558594 337.347656 311.402344 337.414062 310.03125 337.414062 C 297.835938 337.414062 268.925781 332.46875 262.90625 325.210938 C 260.292969 322.054688 258.066406 319.082031 256.089844 316.460938 C 249.140625 307.246094 244.558594 301.167969 232.234375 297.015625 L 226.28125 295.007812 L 231.925781 292.25 C 242.640625 287.027344 254.664062 296.46875 265.285156 304.8125 C 270.792969 309.140625 276.003906 313.230469 279.605469 314.03125 C 301.742188 318.988281 317.765625 315.929688 326.378906 314.285156 C 327.132812 314.148438 327.824219 314.011719 328.472656 313.890625 C 331.835938 313.28125 335.664062 312.042969 339.722656 310.742188 C 350.925781 307.117188 364.644531 302.710938 373.769531 311.207031 C 374.429688 309.75 375.109375 308.296875 375.808594 306.851562 C 370.660156 302.152344 368.097656 296.527344 368.617188 290.988281 C 363.582031 288.441406 357.699219 287.714844 352.003906 287.035156 C 342.003906 285.847656 331.679688 284.609375 326.261719 273.554688 C 325.199219 273.761719 324.15625 273.867188 323.140625 273.867188 C 319.070312 273.867188 315.34375 272.285156 312.15625 269.179688 C 304.25 261.464844 301.8125 246.550781 303.277344 238.25 C 290.785156 232.9375 284.167969 218.515625 286.207031 200.015625 C 287.839844 185.195312 294.683594 170.320312 304.976562 159.195312 C 313.40625 150.082031 328.109375 139.230469 350.265625 139.230469 C 350.609375 139.230469 350.9375 139.230469 351.28125 139.230469 L 358.863281 139.339844 L 352.785156 143.882812 C 352.746094 143.914062 351.839844 144.59375 350.421875 145.800781 C 344.828125 150.539062 331.3125 163.34375 331.464844 176.082031 C 331.484375 178.417969 332.003906 180.652344 332.984375 182.789062 C 341.117188 175.71875 347.84375 162.34375 350.351562 152.125 L 351.828125 146.148438 L 351.898438 145.863281 L 355.101562 151.464844 C 359.472656 159.125 357.433594 168.734375 354.957031 175.449219 C 352.289062 182.640625 347.824219 189.992188 342.84375 195.453125 C 345.488281 211.148438 343.539062 223.078125 337.027344 230.894531 C 335.75 232.429688 334.363281 233.71875 332.917969 234.816406 C 336.554688 240.21875 337.875 253.082031 336.308594 261.597656 C 336.234375 262.007812 336.136719 262.402344 336.054688 262.785156 C 341.742188 264.839844 347.738281 266.207031 353.550781 267.527344 C 364.398438 269.996094 373.847656 272.144531 378.894531 278.128906 C 379.019531 278.09375 379.152344 278.046875 379.289062 278.007812 C 384.558594 276.476562 390.125 277.941406 394.863281 282.019531 C 396.554688 281.175781 398.277344 280.710938 400.015625 280.710938 L 404.425781 280.710938 C 406.214844 280.710938 407.996094 281.175781 409.785156 282.089844 C 414.613281 277.921875 420.277344 276.445312 425.625 278.058594 C 425.695312 278.078125 425.78125 278.113281 425.851562 278.128906 C 430.898438 272.144531 440.351562 269.996094 451.203125 267.527344 C 457.007812 266.207031 463.007812 264.839844 468.691406 262.785156 C 468.601562 262.402344 468.515625 262.007812 468.445312 261.597656 C 466.875 253.082031 468.199219 240.21875 471.828125 234.816406 C 470.382812 233.71875 469.003906 232.429688 467.710938 230.894531 C 461.199219 223.078125 459.261719 211.148438 461.898438 195.453125 C 456.929688 189.992188 452.445312 182.640625 449.796875 175.449219 C 447.304688 168.734375 445.277344 159.125 449.652344 151.464844 L 452.847656 145.863281 L 454.390625 152.125 C 456.902344 162.34375 463.625 175.71875 471.769531 182.789062 C 472.746094 180.652344 473.253906 178.417969 473.285156 176.082031 C 473.449219 162.605469 458.289062 149.035156 453.4375 145.046875 C 452.542969 144.316406 451.992188 143.902344 451.960938 143.882812 L 445.882812 139.351562 L 453.46875 139.230469 C 476.148438 138.90625 491.210938 149.949219 499.777344 159.195312 C 510.066406 170.320312 516.910156 185.195312 518.535156 200.015625 C 520.578125 218.515625 513.96875 232.9375 501.46875 238.25 C 502.933594 246.558594 500.496094 261.464844 492.589844 269.179688 C 489.402344 272.285156 485.667969 273.867188 481.613281 273.867188 C 480.589844 273.867188 479.546875 273.761719 478.484375 273.554688 C 473.066406 284.609375 462.75 285.847656 452.75 287.035156 C 447.046875 287.714844 441.167969 288.441406 436.140625 290.988281 C 436.679688 296.871094 433.757812 302.828125 427.96875 307.648438 C 428.457031 308.765625 428.949219 309.90625 429.441406 311.089844 C 438.578125 302.742188 452.21875 307.144531 463.378906 310.742188 C 467.433594 312.042969 471.257812 313.28125 474.628906 313.890625 C 475.273438 314.011719 475.96875 314.148438 476.71875 314.285156 C 485.324219 315.929688 501.34375 318.988281 523.496094 314.03125 C 527.089844 313.230469 532.308594 309.140625 537.816406 304.8125 C 548.4375 296.46875 560.457031 287.027344 571.167969 292.25 L 576.8125 295.007812 L 570.859375 297.015625 C 558.539062 301.167969 553.957031 307.246094 547.011719 316.460938 C 545.042969 319.082031 542.800781 322.054688 540.1875 325.210938 C 534.171875 332.46875 505.265625 337.414062 493.070312 337.414062 C 491.695312 337.414062 490.53125 337.347656 489.640625 337.214844 C 485.007812 336.546875 476.835938 333.835938 468.1875 330.972656 C 460.351562 328.367188 449.632812 324.804688 447.480469 325.140625 C 445.679688 325.417969 443.429688 327.039062 441.433594 328.472656 C 439.878906 329.585938 438.390625 330.660156 436.917969 331.277344 C 437.292969 332.417969 437.671875 333.585938 438.054688 334.757812 C 440.507812 332.425781 443.613281 331.113281 447.269531 330.992188 C 447.476562 330.980469 447.6875 330.980469 447.910156 330.980469 C 460.167969 330.980469 474.660156 343.160156 479.105469 349.871094 C 484.28125 357.660156 500.21875 364.898438 522.964844 362.375 C 527.816406 361.824219 531.476562 359.855469 535.722656 357.574219 C 537.472656 356.628906 539.292969 355.65625 541.261719 354.75 C 548.632812 351.367188 556.730469 352.167969 566.042969 357.1875 L 575.363281 362.214844 L 564.773438 362.03125 C 555.371094 361.871094 548.714844 362.15625 542.3125 367.371094 C 535.371094 373.015625 529.714844 377.082031 520.171875 377.9375 C 517.433594 378.1875 514.71875 378.300781 512.039062 378.300781 C 496.414062 378.300781 481.949219 374.171875 470.660156 366.363281 C 469.261719 365.390625 468.023438 364.378906 466.894531 363.347656 C 464.421875 361.085938 462.503906 358.714844 460.628906 356.402344 C 459.300781 354.761719 457.925781 353.070312 456.371094 351.417969 C 455.277344 350.257812 452.011719 346.863281 442.671875 351.714844 C 443.210938 353.996094 443.761719 356.40625 444.304688 358.960938 C 444.765625 358.84375 445.304688 358.683594 445.84375 358.507812 C 447.914062 357.851562 450.765625 356.964844 454.109375 357.886719 C 458.296875 359.03125 462.210938 362.242188 464.265625 364.132812 C 464.550781 364.398438 464.808594 364.644531 465.015625 364.851562 C 465.996094 365.824219 467.578125 367.949219 470.777344 372.273438 C 483.828125 389.890625 518.484375 436.695312 541.355469 427.257812 C 554.625 421.789062 567.960938 423.6875 577.039062 432.339844 L 582.308594 437.355469 L 575.050781 436.777344 C 572.535156 436.585938 570.105469 436.125 567.765625 435.695312 C 562.34375 434.679688 557.230469 433.71875 551.902344 436.125 C 550.160156 436.914062 548.441406 437.769531 546.785156 438.605469 C 541.734375 441.140625 536.511719 443.777344 530.085938 444.40625 C 529.753906 444.433594 529.417969 444.445312 529.066406 444.445312 C 509.683594 444.457031 468.730469 394.144531 468.320312 393.625 C 467.390625 392.472656 466.34375 391.015625 465.242188 389.476562 C 459.183594 381.035156 453.242188 373.644531 447.441406 374.949219 C 448 378.070312 448.542969 381.304688 449.0625 384.617188 C 461.601562 388.601562 466.195312 401.316406 470.226562 412.605469 C 471.644531 416.527344 472.960938 420.242188 474.542969 423.410156 L 475.484375 425.300781 C 481.28125 436.941406 487.269531 448.988281 496.835938 458.007812 C 502.984375 463.796875 521.292969 479.535156 532.054688 482.707031 C 535.929688 483.851562 539.753906 484.261719 543.804688 484.707031 C 547.929688 485.160156 552.203125 485.621094 556.445312 486.9375 C 563.945312 489.238281 569.285156 496.015625 570.730469 505.074219 L 570.832031 505.703125 C 571.078125 507.203125 571.335938 508.75 571.304688 510.3125 L 571.203125 517.453125 L 566.722656 511.886719 C 565.738281 510.679688 564.875 509.496094 564.027344 508.347656 C 560.613281 503.695312 558.144531 500.320312 552.097656 499.671875 C 549.679688 499.410156 547.339844 499.21875 545.074219 499.03125 C 538.820312 498.503906 532.902344 498.003906 526.421875 496.28125 C 511.203125 492.238281 497.503906 480.710938 487.289062 471.113281 C 478.164062 462.570312 470.675781 451.449219 464.375 437.148438 L 463.449219 435.003906 C 458.550781 423.773438 455.039062 416.320312 452.53125 411.421875 C 456.253906 448.832031 455.398438 489.847656 440.773438 512.921875 C 438.402344 522.851562 441.105469 546.710938 456.042969 567.023438 L 456.046875 567.023438 C 456.046875 567.027344 456.046875 567.027344 456.046875 567.027344 C 461.847656 574.914062 469.476562 582.277344 479.382812 588.066406 C 485.546875 591.65625 498.039062 597.941406 512.496094 599.527344 C 531.929688 601.667969 548.234375 594.773438 560.964844 579.039062 C 561.726562 578.097656 562.808594 576.433594 564.058594 574.527344 C 567.332031 569.511719 571.460938 563.179688 576.125 559.550781 C 575.089844 554.535156 573.574219 551.386719 571.601562 550.167969 C 569.128906 548.644531 565.179688 549.867188 560.625 551.292969 C 553.160156 553.613281 542.933594 556.796875 532.988281 548.496094 L 528.300781 544.585938 L 534.367188 543.945312 C 546.390625 542.675781 552.863281 537.171875 559.128906 531.847656 C 565.421875 526.492188 571.375 521.433594 581.621094 522.3125 C 591.984375 523.203125 599.941406 530.785156 601.886719 541.644531 " fill-opacity="1" fill-rule="nonzero"/><path fill="#bab195" d="M 403.628906 390.957031 C 394.789062 391.167969 387.773438 398.542969 387.992188 407.382812 C 388.207031 416.230469 395.582031 423.246094 404.421875 423.035156 C 413.265625 422.8125 420.285156 415.4375 420.0625 406.597656 C 419.851562 397.753906 412.476562 390.734375 403.628906 390.957031 Z M 404.550781 428.183594 C 392.859375 428.476562 383.121094 419.203125 382.828125 407.511719 C 382.542969 395.820312 391.816406 386.082031 403.507812 385.796875 C 415.191406 385.503906 424.9375 394.777344 425.222656 406.46875 C 425.511719 418.160156 416.234375 427.898438 404.550781 428.183594 " fill-opacity="1" fill-rule="nonzero"/><path fill="#bab195" d="M 434.597656 385.121094 L 429.492188 384.417969 L 430.777344 375.117188 L 422.078125 378.65625 L 420.136719 373.871094 L 437.113281 366.972656 L 434.597656 385.121094 " fill-opacity="1" fill-rule="nonzero"/><path fill="#bab195" d="M 418.042969 395.691406 L 413.972656 392.523438 L 431.910156 369.460938 L 435.980469 372.628906 L 418.042969 395.691406 " fill-opacity="1" fill-rule="nonzero"/><path fill="#bab195" d="M 409.480469 321.582031 C 409.480469 325.957031 405.929688 329.507812 401.550781 329.507812 C 397.167969 329.507812 393.617188 325.957031 393.617188 321.582031 C 393.617188 317.203125 397.167969 313.648438 401.550781 313.648438 C 405.929688 313.648438 409.480469 317.203125 409.480469 321.582031 " fill-opacity="1" fill-rule="nonzero"/><path fill="#bab195" d="M 407.828125 347.828125 C 407.828125 351.171875 405.113281 353.886719 401.769531 353.886719 C 398.417969 353.886719 395.703125 351.171875 395.703125 347.828125 C 395.703125 344.476562 398.417969 341.761719 401.769531 341.761719 C 405.113281 341.761719 407.828125 344.476562 407.828125 347.828125 " fill-opacity="1" fill-rule="nonzero"/><path fill="#bab195" d="M 405.417969 368.910156 C 405.417969 370.925781 403.785156 372.550781 401.777344 372.550781 C 399.761719 372.550781 398.136719 370.925781 398.136719 368.910156 C 398.136719 366.898438 399.761719 365.273438 401.777344 365.273438 C 403.785156 365.273438 405.417969 366.898438 405.417969 368.910156 " fill-opacity="1" fill-rule="nonzero"/><path fill="#bab195" d="M 433.050781 411.710938 C 431.546875 411.710938 430.328125 410.492188 430.328125 408.996094 C 430.328125 407.492188 431.546875 406.273438 433.050781 406.273438 C 434.546875 406.273438 435.765625 407.492188 435.765625 408.996094 C 435.765625 410.492188 434.546875 411.710938 433.050781 411.710938 " fill-opacity="1" fill-rule="nonzero"/><path fill="#bab195" d="M 439.289062 426.390625 C 436.820312 426.390625 434.820312 424.386719 434.820312 421.917969 C 434.820312 419.449219 436.820312 417.453125 439.289062 417.453125 C 441.757812 417.453125 443.761719 419.449219 443.761719 421.917969 C 443.761719 424.386719 441.757812 426.390625 439.289062 426.390625 " fill-opacity="1" fill-rule="nonzero"/><path fill="#bab195" d="M 439.070312 441.800781 C 435.992188 441.800781 433.503906 439.3125 433.503906 436.242188 C 433.503906 433.164062 435.992188 430.675781 439.070312 430.675781 C 442.140625 430.675781 444.628906 433.164062 444.628906 436.242188 C 444.628906 439.3125 442.140625 441.800781 439.070312 441.800781 " fill-opacity="1" fill-rule="nonzero"/><path fill="#bab195" d="M 433.964844 455.832031 C 430.59375 455.832031 427.859375 453.097656 427.859375 449.726562 C 427.859375 446.355469 430.59375 443.621094 433.964844 443.621094 C 437.332031 443.621094 440.0625 446.355469 440.0625 449.726562 C 440.0625 453.097656 437.332031 455.832031 433.964844 455.832031 " fill-opacity="1" fill-rule="nonzero"/><path fill="#bab195" d="M 427.414062 468.753906 C 424.015625 468.753906 421.261719 466 421.261719 462.601562 C 421.261719 459.207031 424.015625 456.453125 427.414062 456.453125 C 430.808594 456.453125 433.5625 459.207031 433.5625 462.601562 C 433.5625 466 430.808594 468.753906 427.414062 468.753906 " fill-opacity="1" fill-rule="nonzero"/><path fill="#bab195" d="M 421.257812 481.371094 C 418.113281 481.371094 415.558594 478.816406 415.558594 475.667969 C 415.558594 472.523438 418.113281 469.972656 421.257812 469.972656 C 424.40625 469.972656 426.953125 472.523438 426.953125 475.667969 C 426.953125 478.816406 424.40625 481.371094 421.257812 481.371094 " fill-opacity="1" fill-rule="nonzero"/><path fill="#bab195" d="M 416.566406 494.039062 C 413.964844 494.039062 411.851562 491.925781 411.851562 489.320312 C 411.851562 486.71875 413.964844 484.609375 416.566406 484.609375 C 419.167969 484.609375 421.28125 486.71875 421.28125 489.320312 C 421.28125 491.925781 419.167969 494.039062 416.566406 494.039062 " fill-opacity="1" fill-rule="nonzero"/><path fill="#bab195" d="M 414.019531 506.613281 C 412.3125 506.613281 410.933594 505.230469 410.933594 503.527344 C 410.933594 501.828125 412.3125 500.449219 414.019531 500.449219 C 415.722656 500.449219 417.101562 501.828125 417.101562 503.527344 C 417.101562 505.230469 415.722656 506.613281 414.019531 506.613281 " fill-opacity="1" fill-rule="nonzero"/><path fill="#bab195" d="M 413.84375 518.511719 C 413.539062 518.511719 413.292969 518.265625 413.292969 517.960938 C 413.292969 517.660156 413.539062 517.414062 413.84375 517.414062 C 414.140625 517.414062 414.394531 517.660156 414.394531 517.960938 C 414.394531 518.265625 414.140625 518.511719 413.84375 518.511719 " fill-opacity="1" fill-rule="nonzero"/><path fill="#bab195" d="M 373.347656 411.710938 C 371.84375 411.710938 370.625 410.492188 370.625 408.996094 C 370.625 407.492188 371.84375 406.273438 373.347656 406.273438 C 374.851562 406.273438 376.070312 407.492188 376.070312 408.996094 C 376.070312 410.492188 374.851562 411.710938 373.347656 411.710938 " fill-opacity="1" fill-rule="nonzero"/><path fill="#bab195" d="M 367.109375 426.390625 C 364.636719 426.390625 362.636719 424.386719 362.636719 421.917969 C 362.636719 419.449219 364.636719 417.453125 367.109375 417.453125 C 369.578125 417.453125 371.574219 419.449219 371.574219 421.917969 C 371.574219 424.386719 369.578125 426.390625 367.109375 426.390625 " fill-opacity="1" fill-rule="nonzero"/><path fill="#bab195" d="M 367.328125 441.800781 C 364.257812 441.800781 361.761719 439.3125 361.761719 436.242188 C 361.761719 433.164062 364.257812 430.675781 367.328125 430.675781 C 370.398438 430.675781 372.886719 433.164062 372.886719 436.242188 C 372.886719 439.3125 370.398438 441.800781 367.328125 441.800781 " fill-opacity="1" fill-rule="nonzero"/><path fill="#bab195" d="M 372.433594 455.832031 C 369.066406 455.832031 366.328125 453.097656 366.328125 449.726562 C 366.328125 446.355469 369.066406 443.621094 372.433594 443.621094 C 375.804688 443.621094 378.53125 446.355469 378.53125 449.726562 C 378.53125 453.097656 375.804688 455.832031 372.433594 455.832031 " fill-opacity="1" fill-rule="nonzero"/><path fill="#bab195" d="M 378.984375 468.753906 C 375.582031 468.753906 372.835938 466 372.835938 462.601562 C 372.835938 459.207031 375.582031 456.453125 378.984375 456.453125 C 382.382812 456.453125 385.128906 459.207031 385.128906 462.601562 C 385.128906 466 382.382812 468.753906 378.984375 468.753906 " fill-opacity="1" fill-rule="nonzero"/><path fill="#bab195" d="M 385.140625 481.371094 C 381.992188 481.371094 379.4375 478.816406 379.4375 475.667969 C 379.4375 472.523438 381.992188 469.972656 385.140625 469.972656 C 388.285156 469.972656 390.839844 472.523438 390.839844 475.667969 C 390.839844 478.816406 388.285156 481.371094 385.140625 481.371094 " fill-opacity="1" fill-rule="nonzero"/><path fill="#bab195" d="M 389.828125 494.039062 C 387.222656 494.039062 385.109375 491.925781 385.109375 489.320312 C 385.109375 486.71875 387.222656 484.609375 389.828125 484.609375 C 392.433594 484.609375 394.542969 486.71875 394.542969 489.320312 C 394.542969 491.925781 392.433594 494.039062 389.828125 494.039062 " fill-opacity="1" fill-rule="nonzero"/><path fill="#bab195" d="M 392.378906 506.613281 C 390.675781 506.613281 389.296875 505.230469 389.296875 503.527344 C 389.296875 501.828125 390.675781 500.449219 392.378906 500.449219 C 394.078125 500.449219 395.457031 501.828125 395.457031 503.527344 C 395.457031 505.230469 394.078125 506.613281 392.378906 506.613281 " fill-opacity="1" fill-rule="nonzero"/><path fill="#bab195" d="M 392.554688 518.511719 C 392.25 518.511719 392.003906 518.265625 392.003906 517.960938 C 392.003906 517.660156 392.25 517.414062 392.554688 517.414062 C 392.859375 517.414062 393.105469 517.660156 393.105469 517.960938 C 393.105469 518.265625 392.859375 518.511719 392.554688 518.511719 " fill-opacity="1" fill-rule="nonzero"/><g clip-path="url(#febf2810a5)"><path fill="#bab195" d="M 409.136719 699.578125 L 417.425781 697.3125 L 409.363281 694.304688 L 414.257812 687.242188 L 406.15625 690.117188 L 405.359375 681.5625 L 401.003906 688.972656 L 394.902344 682.9375 L 396.320312 691.40625 L 387.753906 690.714844 L 394.296875 696.289062 L 387.292969 701.265625 L 395.886719 701.316406 L 393.707031 709.632812 L 400.339844 704.160156 L 404.019531 711.925781 L 405.566406 703.476562 L 413.382812 707.066406 Z M 434.214844 698.058594 L 416.902344 702.800781 L 425.765625 718.417969 L 409.449219 710.933594 L 406.195312 728.59375 L 398.511719 712.359375 L 384.667969 723.816406 L 389.210938 706.4375 L 371.253906 706.300781 L 385.90625 695.917969 L 372.234375 684.273438 L 390.132812 685.730469 L 387.136719 668.019531 L 399.910156 680.644531 L 409.007812 665.15625 L 410.679688 683.035156 L 427.601562 677.007812 L 417.386719 691.789062 L 434.214844 698.058594 " fill-opacity="1" fill-rule="nonzero"/></g><g clip-path="url(#13b7d61edb)"><path fill="#bab195" d="M 411.820312 111.335938 L 420.109375 109.070312 L 412.046875 106.0625 L 416.941406 99 L 408.832031 101.875 L 408.042969 93.320312 L 403.6875 100.730469 L 397.578125 94.695312 L 399.003906 103.164062 L 390.4375 102.472656 L 396.980469 108.046875 L 389.96875 113.023438 L 398.570312 113.074219 L 396.390625 121.386719 L 403.015625 115.917969 L 406.703125 123.683594 L 408.25 115.230469 L 416.058594 118.820312 Z M 436.898438 109.8125 L 419.578125 114.558594 L 428.441406 130.175781 L 412.132812 122.691406 L 408.878906 140.351562 L 401.195312 124.117188 L 387.351562 135.574219 L 391.894531 118.195312 L 373.929688 118.058594 L 388.589844 107.675781 L 374.917969 96.03125 L 392.808594 97.488281 L 389.8125 79.777344 L 402.59375 92.402344 L 411.683594 76.914062 L 413.355469 94.792969 L 430.28125 88.765625 L 420.0625 103.546875 L 436.898438 109.8125 " fill-opacity="1" fill-rule="nonzero"/></g></svg>