<svg xmlns="http://www.w3.org/2000/svg" xmlns:xlink="http://www.w3.org/1999/xlink" width="1080" zoomAndPan="magnify" viewBox="0 0 810 809.999993" height="1080" preserveAspectRatio="xMidYMid meet" version="1.0"><defs><clipPath id="98e09c9766"><path d="M 369 81 L 441 81 L 441 148 L 369 148 Z M 369 81 " clip-rule="nonzero"/></clipPath><clipPath id="13db1fbd47"><path d="M 369 661 L 441 661 L 441 728.910156 L 369 728.910156 Z M 369 661 " clip-rule="nonzero"/></clipPath><clipPath id="7c58eca66b"><path d="M 680.660156 378 L 720.507812 378 L 720.507812 419 L 680.660156 419 Z M 680.660156 378 " clip-rule="nonzero"/></clipPath><clipPath id="dd4f1dad3e"><path d="M 369 661 L 441 661 L 441 728.910156 L 369 728.910156 Z M 369 661 " clip-rule="nonzero"/></clipPath></defs><rect x="-81" width="972" fill="#ffffff" y="-80.999999" height="971.999992" fill-opacity="1"/><rect x="-81" width="972" fill="#ffffff" y="-80.999999" height="971.999992" fill-opacity="1"/><rect x="-81" width="972" fill="#11091a" y="-80.999999" height="971.999992" fill-opacity="1"/><path fill="#bab195" d="M 415.917969 233.03125 L 424.179688 230.769531 L 416.152344 227.773438 L 421.023438 220.730469 L 412.949219 223.601562 L 412.15625 215.070312 L 407.824219 222.457031 L 401.738281 216.441406 L 403.15625 224.882812 L 394.621094 224.195312 L 401.136719 229.75 L 394.15625 234.710938 L 402.71875 234.757812 L 400.550781 243.050781 L 407.15625 237.601562 L 410.820312 245.332031 L 412.363281 236.910156 L 420.144531 240.492188 Z M 440.90625 231.511719 L 423.65625 236.242188 L 432.488281 251.804688 L 416.234375 244.34375 L 412.996094 261.953125 L 405.335938 245.769531 L 391.546875 257.183594 L 396.066406 239.863281 L 378.183594 239.726562 L 392.78125 229.375 L 379.15625 217.777344 L 396.988281 219.230469 L 394 201.574219 L 406.730469 214.15625 L 415.789062 198.71875 L 417.453125 216.542969 L 434.3125 210.535156 L 424.140625 225.265625 L 440.90625 231.511719 " fill-opacity="1" fill-rule="nonzero"/><path fill="#bab195" d="M 385.019531 555.664062 C 385.019531 543.429688 394.96875 533.480469 407.195312 533.480469 C 419.421875 533.480469 429.371094 543.429688 429.371094 555.664062 C 429.371094 567.898438 419.421875 577.851562 407.195312 577.851562 C 394.96875 577.851562 385.019531 567.898438 385.019531 555.664062 Z M 434.054688 555.664062 C 434.054688 544.574219 427.300781 535.03125 417.691406 530.929688 C 424.839844 527.699219 430.15625 521.28125 431.34375 513.542969 L 426.714844 512.832031 C 425.34375 521.765625 416.957031 528.511719 407.195312 528.511719 C 397.585938 528.511719 389.011719 521.617188 387.671875 512.8125 L 383.042969 513.515625 C 384.222656 521.269531 389.542969 527.699219 396.695312 530.929688 C 387.089844 535.03125 380.335938 544.574219 380.335938 555.664062 C 380.335938 569.691406 391.140625 581.242188 404.851562 582.429688 L 404.851562 599.648438 L 391.117188 599.648438 L 391.117188 604.332031 L 404.851562 604.332031 L 404.851562 621.605469 L 409.539062 621.605469 L 409.539062 604.332031 L 423.273438 604.332031 L 423.273438 599.648438 L 409.539062 599.648438 L 409.539062 582.429688 C 423.253906 581.242188 434.054688 569.691406 434.054688 555.664062 " fill-opacity="1" fill-rule="nonzero"/><path fill="#bab195" d="M 191.136719 290.484375 C 192.289062 290.484375 193.40625 290.421875 194.488281 290.324219 C 182.679688 268.328125 146.40625 254.464844 136.28125 254.210938 C 141.160156 268.421875 153.496094 278.734375 166.226562 284.488281 C 171.179688 286.726562 181.007812 290.484375 191.128906 290.484375 C 191.128906 290.484375 191.128906 290.484375 191.136719 290.484375 Z M 199.335938 289.472656 C 201.484375 288.804688 204.414062 287.195312 207.417969 284.953125 C 206.609375 273.988281 197.933594 253.121094 180.996094 240.519531 C 167.925781 230.789062 152.542969 227.582031 135.230469 230.9375 C 135.222656 230.953125 135.222656 230.964844 135.222656 230.980469 C 133.710938 237.722656 133.765625 243.9375 134.984375 249.617188 C 147.089844 249.058594 187.203125 264.679688 199.335938 289.472656 Z M 211.691406 281.394531 C 213.265625 279.921875 214.765625 278.3125 216.085938 276.613281 C 215.773438 245.277344 203.117188 228.523438 192.5 219.988281 C 180.230469 210.125 164.148438 206.089844 149.339844 209.097656 C 143.953125 212.96875 139.402344 218.460938 136.6875 225.933594 C 154.230469 223.109375 170.425781 226.800781 183.796875 236.753906 C 201.210938 249.71875 209.6875 269.574219 211.691406 281.394531 Z M 203.804688 467.964844 C 209.816406 456.683594 221.800781 448.425781 236.855469 441.8125 C 218.835938 427.320312 204.394531 402.515625 196.890625 372.878906 C 189.863281 345.160156 189.707031 316.476562 196.277344 294.832031 C 194.625 295.050781 192.910156 295.175781 191.136719 295.175781 C 191.128906 295.175781 191.128906 295.175781 191.128906 295.175781 C 188.855469 295.175781 186.605469 294.996094 184.410156 294.703125 C 172.117188 313.953125 164.980469 341.699219 166.199219 365.875 C 169.21875 425.78125 186.558594 451.460938 203.804688 467.964844 Z M 220.441406 268.777344 C 221.0625 265.273438 228.089844 221.316406 194.578125 205.851562 C 188.261719 202.9375 181.21875 201.398438 174.179688 201.398438 C 169.914062 201.398438 165.28125 202.039062 160.746094 203.464844 C 173.105469 203.824219 185.445312 208.300781 195.429688 216.332031 C 205.914062 224.761719 218.25 240.546875 220.441406 268.777344 Z M 241.824219 439.726562 C 254.851562 434.507812 269.773438 430.316406 284.964844 426.386719 C 240.464844 387.738281 221.765625 329.808594 211.609375 287.667969 C 208.105469 290.457031 204.515625 292.582031 201.550781 293.660156 C 187.046875 336.476562 202.410156 410.382812 241.824219 439.726562 Z M 296.972656 423.324219 C 307.597656 420.632812 318.359375 417.90625 328.636719 414.898438 C 316.335938 370.484375 276.738281 311.089844 217.246094 282.4375 C 216.707031 283.023438 216.15625 283.59375 215.589844 284.148438 C 225.636719 326.605469 244.371094 386.488281 290.546875 424.960938 C 292.683594 424.410156 294.824219 423.871094 296.972656 423.324219 Z M 341.660156 523.347656 C 341.871094 521.726562 340.921875 520.539062 338.988281 520 C 336.617188 519.339844 333.808594 519.289062 330.90625 519.289062 L 328.839844 519.289062 C 325.058594 519.289062 321.378906 519.167969 318.039062 518.070312 C 318.957031 523.320312 321.105469 531.257812 325.957031 535.089844 C 327.414062 536.257812 328.941406 536.503906 329.957031 536.503906 C 332.527344 536.503906 334.632812 535.035156 335.117188 533.664062 C 335.445312 532.765625 335.027344 531.832031 333.871094 530.882812 L 326.742188 525.003906 L 335.8125 526.769531 C 336.253906 526.859375 336.691406 526.902344 337.105469 526.902344 C 339.773438 526.902344 341.414062 525.109375 341.660156 523.347656 Z M 367.75 399.59375 C 368.980469 398.878906 370.183594 398.171875 371.328125 397.433594 C 368.546875 366.179688 346.902344 330.246094 315.828125 305.464844 C 286.59375 282.148438 253.25 271.902344 221.867188 276.539062 C 221.390625 277.289062 220.886719 278.015625 220.339844 278.742188 C 280.511719 308.199219 320.578125 368.417969 333.128906 413.546875 C 346.070312 409.585938 358.070312 405.113281 367.75 399.59375 Z M 375.722656 394.398438 C 389.851562 383.824219 394.824219 370.976562 391.308594 354.519531 C 384.1875 321.175781 349.851562 287.84375 321.167969 273.414062 C 291.519531 258.515625 256.046875 255.1875 225.765625 264.371094 C 225.4375 267.671875 225.035156 269.710938 224.996094 269.921875 L 224.925781 270.160156 C 224.789062 270.605469 224.628906 271.035156 224.464844 271.476562 C 256.175781 267.800781 289.503906 278.472656 318.753906 301.796875 C 349.921875 326.65625 371.898438 362.566406 375.722656 394.398438 Z M 387.957031 420.074219 C 391.628906 413.179688 397.394531 399.628906 394.738281 386.210938 L 394.613281 385.59375 C 394.417969 384.585938 394.0625 382.746094 393.578125 380.609375 C 381.359375 406.789062 339.199219 417.46875 298.125 427.867188 C 258.207031 437.972656 216.933594 448.425781 206.695312 472.769531 L 205.40625 475.832031 L 205.339844 475.769531 C 190.6875 527.847656 187.203125 558.085938 186.558594 565.066406 C 193.761719 580.996094 204.207031 594.859375 216.808594 605.183594 C 238.667969 623.117188 265.675781 629.65625 297.21875 624.707031 C 281.46875 619.816406 269.640625 610.558594 262.003906 597.082031 C 248.699219 573.625 251.949219 544.207031 257.382812 530.148438 L 258.855469 526.335938 L 261.402344 529.527344 C 263.582031 532.28125 265.109375 533.984375 265.128906 533.992188 L 265.261719 534.164062 C 272.019531 543.273438 295.417969 566.179688 308.054688 563.785156 C 311.824219 563.070312 314.378906 560.027344 315.863281 554.496094 C 317.402344 548.804688 319.652344 543.710938 322.863281 538.609375 C 315.339844 532.457031 313.335938 519.6875 312.824219 514.4375 L 312.804688 514.265625 L 312.203125 508.960938 L 316.511719 512.097656 C 319.679688 514.414062 323.972656 514.605469 328.839844 514.605469 L 330.90625 514.605469 C 334.011719 514.605469 337.296875 514.667969 340.242188 515.484375 C 340.570312 515.574219 340.890625 515.691406 341.210938 515.800781 C 341.347656 515.621094 341.496094 515.457031 341.640625 515.269531 C 342.355469 514.382812 343.015625 513.507812 343.664062 512.664062 C 346.894531 508.40625 349.960938 504.382812 356.128906 502.128906 C 357.417969 501.648438 359.023438 501.5 360.722656 501.328125 C 361.855469 501.226562 363.84375 501.03125 364.695312 500.695312 C 364.675781 500.652344 364.65625 500.621094 364.632812 500.578125 C 358.644531 488.195312 353.523438 473.597656 361.042969 459.195312 C 364.832031 451.925781 369.894531 445.40625 374.800781 439.117188 C 379.484375 433.089844 384.332031 426.871094 387.957031 420.074219 Z M 399.332031 385.289062 C 402.28125 400.148438 396.058594 414.84375 392.085938 422.28125 C 388.277344 429.429688 383.300781 435.816406 378.496094 441.996094 C 373.726562 448.125 368.785156 454.460938 365.191406 461.363281 C 358.664062 473.882812 363.09375 486.632812 368.851562 498.539062 C 369.847656 500.59375 369.472656 502.078125 368.976562 502.972656 C 367.621094 505.375 364.347656 505.6875 361.179688 506 C 359.84375 506.128906 358.464844 506.257812 357.742188 506.527344 C 352.851562 508.320312 350.445312 511.488281 347.382812 515.5 C 346.722656 516.371094 346.035156 517.273438 345.300781 518.199219 C 345.191406 518.335938 345.085938 518.457031 344.984375 518.589844 C 346.089844 520.074219 346.574219 521.945312 346.292969 523.976562 C 345.863281 527.121094 343.511719 530.285156 339.667969 531.277344 C 340.042969 532.5625 340.011719 533.917969 339.535156 535.253906 C 338.914062 536.980469 337.597656 538.460938 335.894531 539.507812 C 334.203125 540.558594 332.117188 541.1875 329.957031 541.1875 C 328.957031 541.1875 327.980469 541.058594 327.035156 540.792969 C 323.960938 545.59375 321.835938 550.378906 320.394531 555.710938 C 318.40625 563.054688 314.554688 567.316406 308.925781 568.386719 C 291.800781 571.648438 265.851562 542.761719 261.558594 537.039062 C 261.410156 536.878906 261.015625 536.425781 260.449219 535.746094 C 256.378906 549.746094 254.8125 574.914062 266.078125 594.765625 C 274.636719 609.867188 288.984375 619.238281 308.707031 622.621094 L 320.226562 624.589844 L 308.84375 627.214844 C 297.863281 629.746094 287.363281 631 277.363281 631 C 253.128906 631 231.851562 623.589844 213.839844 608.8125 C 200.535156 597.894531 189.535156 583.246094 182.023438 566.429688 L 181.78125 565.878906 L 181.832031 565.265625 C 183.304688 548.476562 189.25 515.269531 201.484375 472.199219 C 169.511719 441.921875 163.304688 401.632812 161.523438 366.105469 C 160.296875 341.699219 167.277344 313.769531 179.433594 293.824219 C 173.105469 292.433594 167.652344 290.269531 164.296875 288.75 C 138.078125 276.890625 125.179688 254.363281 130.652344 229.964844 C 135.164062 209.765625 152.261719 196.714844 174.179688 196.714844 C 181.882812 196.714844 189.625 198.40625 196.546875 201.597656 C 212.367188 208.898438 222.296875 223.089844 225.269531 242.625 C 226.222656 248.894531 226.324219 254.722656 226.121094 259.378906 C 257.136719 250.496094 293.128906 254.074219 323.265625 269.234375 C 338.839844 277.0625 355.1875 289.707031 368.101562 303.921875 C 382.804688 320.113281 392.414062 337.277344 395.890625 353.550781 C 397.394531 360.625 397.4375 366.953125 396.230469 372.644531 C 397.789062 377.304688 398.8125 382.644531 399.214844 384.714844 L 399.332031 385.289062 " fill-opacity="1" fill-rule="nonzero"/><path fill="#bab195" d="M 354.699219 446.707031 L 350.363281 448.480469 C 350.042969 447.71875 342.355469 429.714844 320.941406 437.523438 L 319.339844 433.117188 C 345.046875 423.734375 354.601562 446.484375 354.699219 446.707031 " fill-opacity="1" fill-rule="nonzero"/><path fill="#bab195" d="M 352.121094 499.5 L 349.925781 501.261719 C 349.386719 500.59375 347.398438 498.5 344.734375 499.898438 L 343.433594 497.402344 C 346.417969 495.839844 349.824219 496.664062 352.121094 499.5 " fill-opacity="1" fill-rule="nonzero"/><path fill="#bab195" d="M 343.683594 458.164062 L 345.539062 462.46875 C 343.699219 463.257812 341.191406 463.859375 338.320312 463.859375 C 331.457031 463.859375 322.578125 460.433594 316.320312 448.058594 L 320.5 445.945312 C 329.617188 463.96875 343.117188 458.410156 343.683594 458.164062 " fill-opacity="1" fill-rule="nonzero"/><path fill="#bab195" d="M 274.132812 622.0625 C 272.953125 622.0625 272.007812 621.113281 272.007812 619.933594 C 272.007812 618.761719 272.953125 617.804688 274.132812 617.804688 C 275.304688 617.804688 276.261719 618.761719 276.261719 619.933594 C 276.261719 621.113281 275.304688 622.0625 274.132812 622.0625 " fill-opacity="1" fill-rule="nonzero"/><path fill="#bab195" d="M 261.449219 620.191406 C 259.46875 620.191406 257.859375 618.589844 257.859375 616.605469 C 257.859375 614.621094 259.46875 613.011719 261.449219 613.011719 C 263.433594 613.011719 265.042969 614.621094 265.042969 616.605469 C 265.042969 618.589844 263.433594 620.191406 261.449219 620.191406 " fill-opacity="1" fill-rule="nonzero"/><path fill="#bab195" d="M 249.074219 616.871094 C 246.523438 616.871094 244.464844 614.804688 244.464844 612.261719 C 244.464844 609.710938 246.523438 607.652344 249.074219 607.652344 C 251.621094 607.652344 253.679688 609.710938 253.679688 612.261719 C 253.679688 614.804688 251.621094 616.871094 249.074219 616.871094 " fill-opacity="1" fill-rule="nonzero"/><path fill="#bab195" d="M 237.179688 611.984375 C 234.285156 611.984375 231.933594 609.628906 231.933594 606.730469 C 231.933594 603.828125 234.285156 601.476562 237.179688 601.476562 C 240.085938 601.476562 242.4375 603.828125 242.4375 606.730469 C 242.4375 609.628906 240.085938 611.984375 237.179688 611.984375 " fill-opacity="1" fill-rule="nonzero"/><path fill="#bab195" d="M 226.039062 605.394531 C 222.964844 605.394531 220.46875 602.898438 220.46875 599.824219 C 220.46875 596.742188 222.964844 594.253906 226.039062 594.253906 C 229.117188 594.253906 231.605469 596.742188 231.605469 599.824219 C 231.605469 602.898438 229.117188 605.394531 226.039062 605.394531 " fill-opacity="1" fill-rule="nonzero"/><path fill="#bab195" d="M 216 596.972656 C 212.917969 596.972656 210.425781 594.472656 210.425781 591.390625 C 210.425781 588.308594 212.917969 585.8125 216 585.8125 C 219.078125 585.8125 221.582031 588.308594 221.582031 591.390625 C 221.582031 594.472656 219.078125 596.972656 216 596.972656 " fill-opacity="1" fill-rule="nonzero"/><path fill="#bab195" d="M 207.5 586.703125 C 204.582031 586.703125 202.21875 584.339844 202.21875 581.414062 C 202.21875 578.496094 204.582031 576.128906 207.5 576.128906 C 210.417969 576.128906 212.78125 578.496094 212.78125 581.414062 C 212.78125 584.339844 210.417969 586.703125 207.5 586.703125 " fill-opacity="1" fill-rule="nonzero"/><path fill="#bab195" d="M 200.9375 574.738281 C 198.359375 574.738281 196.269531 572.648438 196.269531 570.074219 C 196.269531 567.496094 198.359375 565.402344 200.9375 565.402344 C 203.511719 565.402344 205.597656 567.496094 205.597656 570.074219 C 205.597656 572.648438 203.511719 574.738281 200.9375 574.738281 " fill-opacity="1" fill-rule="nonzero"/><path fill="#bab195" d="M 196.535156 561.386719 C 194.511719 561.386719 192.875 559.75 192.875 557.722656 C 192.875 555.699219 194.511719 554.0625 196.535156 554.0625 C 198.558594 554.0625 200.195312 555.699219 200.195312 557.722656 C 200.195312 559.75 198.558594 561.386719 196.535156 561.386719 " fill-opacity="1" fill-rule="nonzero"/><path fill="#bab195" d="M 194.265625 547.023438 C 193.046875 547.023438 192.050781 546.027344 192.050781 544.808594 C 192.050781 543.582031 193.046875 542.585938 194.265625 542.585938 C 195.492188 542.585938 196.488281 543.582031 196.488281 544.808594 C 196.488281 546.027344 195.492188 547.023438 194.265625 547.023438 " fill-opacity="1" fill-rule="nonzero"/><path fill="#bab195" d="M 618.578125 290.484375 C 628.695312 290.484375 638.519531 286.726562 643.476562 284.488281 C 656.207031 278.734375 668.550781 268.421875 673.429688 254.210938 C 663.300781 254.464844 627.03125 268.328125 615.210938 290.324219 C 616.304688 290.421875 617.414062 290.484375 618.566406 290.484375 C 618.578125 290.484375 618.578125 290.484375 618.578125 290.484375 Z M 674.722656 249.617188 C 675.9375 243.9375 675.992188 237.722656 674.484375 230.980469 C 674.484375 230.964844 674.484375 230.953125 674.480469 230.9375 C 657.167969 227.582031 641.785156 230.789062 628.714844 240.519531 C 611.777344 253.121094 603.101562 273.988281 602.285156 284.953125 C 605.296875 287.195312 608.226562 288.804688 610.375 289.472656 C 622.503906 264.679688 662.621094 249.058594 674.722656 249.617188 Z M 625.914062 236.753906 C 639.277344 226.800781 655.476562 223.109375 673.011719 225.933594 C 670.308594 218.460938 665.753906 212.96875 660.371094 209.097656 C 645.5625 206.089844 629.46875 210.125 617.210938 219.988281 C 606.585938 228.523438 593.929688 245.277344 593.621094 276.613281 C 594.945312 278.3125 596.441406 279.921875 598.019531 281.394531 C 600.019531 269.574219 608.5 249.71875 625.914062 236.753906 Z M 643.503906 365.875 C 644.722656 341.699219 637.59375 313.953125 625.292969 294.703125 C 623.105469 294.996094 620.855469 295.175781 618.578125 295.175781 C 618.578125 295.175781 618.578125 295.175781 618.566406 295.175781 C 616.800781 295.175781 615.082031 295.050781 613.433594 294.832031 C 620.003906 316.476562 619.839844 345.160156 612.8125 372.878906 C 605.308594 402.515625 590.875 427.320312 572.855469 441.8125 C 587.902344 448.425781 599.886719 456.683594 605.902344 467.964844 C 623.144531 451.460938 640.492188 425.78125 643.503906 365.875 Z M 614.277344 216.332031 C 624.261719 208.300781 636.597656 203.824219 648.957031 203.464844 C 644.421875 202.039062 639.796875 201.398438 635.523438 201.398438 C 628.488281 201.398438 621.441406 202.9375 615.132812 205.851562 C 581.621094 221.316406 588.648438 265.273438 589.265625 268.777344 C 591.453125 240.546875 603.796875 224.761719 614.277344 216.332031 Z M 608.160156 293.660156 C 605.1875 292.582031 601.601562 290.457031 598.097656 287.667969 C 587.945312 329.808594 569.242188 387.738281 524.746094 426.386719 C 539.929688 430.316406 554.855469 434.507812 567.886719 439.726562 C 607.300781 410.382812 622.660156 336.476562 608.160156 293.660156 Z M 519.164062 424.960938 C 565.339844 386.488281 584.074219 326.605469 594.121094 284.148438 C 593.554688 283.59375 593 283.023438 592.457031 282.4375 C 532.972656 311.089844 493.367188 370.484375 481.074219 414.898438 C 491.34375 417.90625 502.113281 420.632812 512.738281 423.324219 C 514.878906 423.871094 517.023438 424.410156 519.164062 424.960938 Z M 472.601562 526.902344 C 473.011719 526.902344 473.453125 526.859375 473.898438 526.769531 L 482.960938 525.003906 L 475.832031 530.882812 C 474.679688 531.832031 474.257812 532.765625 474.585938 533.664062 C 475.078125 535.035156 477.183594 536.503906 479.75 536.503906 C 480.761719 536.503906 482.285156 536.257812 483.753906 535.089844 C 488.605469 531.257812 490.75 523.320312 491.664062 518.070312 C 488.332031 519.167969 484.652344 519.289062 480.863281 519.289062 L 478.804688 519.289062 C 475.902344 519.289062 473.085938 519.339844 470.722656 520 C 468.777344 520.539062 467.832031 521.726562 468.050781 523.347656 C 468.296875 525.109375 469.929688 526.902344 472.601562 526.902344 Z M 476.582031 413.546875 C 489.128906 368.417969 529.195312 308.199219 589.367188 278.742188 C 588.824219 278.015625 588.320312 277.289062 587.84375 276.539062 C 556.457031 271.902344 523.117188 282.148438 493.878906 305.464844 C 462.800781 330.246094 441.164062 366.179688 438.382812 397.433594 C 439.519531 398.171875 440.71875 398.878906 441.960938 399.59375 C 451.636719 405.113281 463.632812 409.585938 476.582031 413.546875 Z M 490.957031 301.796875 C 520.199219 278.472656 553.535156 267.800781 585.246094 271.476562 C 585.074219 271.035156 584.917969 270.605469 584.777344 270.160156 L 584.714844 269.921875 C 584.671875 269.710938 584.269531 267.671875 583.945312 264.371094 C 553.664062 255.1875 518.191406 258.515625 488.535156 273.414062 C 459.851562 287.84375 425.515625 321.175781 418.398438 354.519531 C 414.882812 370.976562 419.859375 383.824219 433.988281 394.398438 C 437.808594 362.566406 459.789062 326.65625 490.957031 301.796875 Z M 434.90625 439.117188 C 439.8125 445.40625 444.871094 451.925781 448.667969 459.195312 C 456.175781 473.597656 451.066406 488.195312 445.070312 500.578125 C 445.046875 500.621094 445.035156 500.652344 445.015625 500.695312 C 445.867188 501.03125 447.847656 501.226562 448.988281 501.328125 C 450.683594 501.5 452.292969 501.648438 453.574219 502.128906 C 459.75 504.382812 462.816406 508.40625 466.046875 512.664062 C 466.695312 513.507812 467.355469 514.382812 468.070312 515.269531 C 468.207031 515.457031 468.355469 515.621094 468.5 515.800781 C 468.820312 515.691406 469.132812 515.574219 469.460938 515.484375 C 472.40625 514.667969 475.695312 514.605469 478.804688 514.605469 L 480.863281 514.605469 C 485.734375 514.605469 490.027344 514.414062 493.191406 512.097656 L 497.503906 508.960938 L 496.90625 514.265625 L 496.886719 514.4375 C 496.367188 519.6875 494.363281 532.457031 486.839844 538.609375 C 490.054688 543.710938 492.304688 548.804688 493.839844 554.496094 C 495.332031 560.027344 497.886719 563.070312 501.65625 563.785156 C 514.292969 566.179688 537.683594 543.273438 544.449219 534.164062 L 544.578125 533.992188 C 544.597656 533.984375 546.125 532.28125 548.308594 529.527344 L 550.855469 526.335938 L 552.328125 530.148438 C 557.757812 544.207031 561.011719 573.625 547.707031 597.082031 C 540.058594 610.558594 528.242188 619.816406 512.492188 624.707031 C 544.035156 629.65625 571.042969 623.117188 592.898438 605.183594 C 605.5 594.859375 615.941406 580.996094 623.144531 565.066406 C 622.503906 558.085938 619.015625 527.847656 604.363281 475.769531 L 604.300781 475.832031 L 603.007812 472.769531 C 592.777344 448.425781 551.503906 437.972656 511.585938 427.867188 C 470.503906 417.46875 428.351562 406.789062 416.128906 380.609375 C 415.648438 382.746094 415.285156 384.585938 415.089844 385.59375 L 414.972656 386.210938 C 412.308594 399.628906 418.078125 413.179688 421.753906 420.074219 C 425.378906 426.871094 430.226562 433.089844 434.90625 439.117188 Z M 410.496094 384.714844 C 410.898438 382.644531 411.917969 377.304688 413.480469 372.644531 C 412.273438 366.953125 412.308594 360.625 413.820312 353.550781 C 417.296875 337.277344 426.90625 320.113281 441.605469 303.921875 C 454.519531 289.707031 470.871094 277.0625 486.4375 269.234375 C 516.574219 254.074219 552.574219 250.496094 583.589844 259.378906 C 583.378906 254.722656 583.488281 248.894531 584.441406 242.625 C 587.414062 223.089844 597.335938 208.898438 613.160156 201.597656 C 620.085938 198.40625 627.820312 196.714844 635.523438 196.714844 C 657.445312 196.714844 674.539062 209.765625 679.058594 229.964844 C 684.53125 254.363281 671.628906 276.890625 645.410156 288.75 C 642.050781 290.269531 636.597656 292.433594 630.269531 293.824219 C 642.425781 313.769531 649.410156 341.699219 648.179688 366.105469 C 646.398438 401.632812 640.199219 441.921875 608.226562 472.199219 C 620.460938 515.269531 626.398438 548.476562 627.867188 565.265625 L 627.929688 565.878906 L 627.683594 566.429688 C 620.167969 583.246094 609.175781 597.894531 595.871094 608.8125 C 577.851562 623.589844 556.582031 631 532.34375 631 C 522.347656 631 511.84375 629.746094 500.867188 627.214844 L 489.484375 624.589844 L 500.996094 622.621094 C 520.726562 619.238281 535.070312 609.867188 543.632812 594.765625 C 554.890625 574.914062 553.328125 549.746094 549.261719 535.746094 C 548.6875 536.425781 548.300781 536.878906 548.148438 537.039062 C 543.855469 542.761719 517.910156 571.648438 500.785156 568.386719 C 495.152344 567.316406 491.304688 563.054688 489.3125 555.710938 C 487.875 550.378906 485.742188 545.59375 482.675781 540.792969 C 481.726562 541.058594 480.753906 541.1875 479.75 541.1875 C 477.585938 541.1875 475.503906 540.558594 473.808594 539.507812 C 472.105469 538.460938 470.796875 536.980469 470.175781 535.253906 C 469.699219 533.917969 469.65625 532.5625 470.03125 531.277344 C 466.195312 530.285156 463.84375 527.121094 463.414062 523.976562 C 463.128906 521.945312 463.621094 520.074219 464.722656 518.589844 C 464.621094 518.457031 464.519531 518.335938 464.402344 518.199219 C 463.675781 517.273438 462.980469 516.371094 462.324219 515.5 C 459.265625 511.488281 456.851562 508.320312 451.964844 506.527344 C 451.242188 506.257812 449.867188 506.128906 448.523438 506 C 445.363281 505.6875 442.089844 505.375 440.734375 502.972656 C 440.238281 502.078125 439.863281 500.59375 440.855469 498.539062 C 446.617188 486.632812 451.046875 473.882812 444.515625 461.363281 C 440.917969 454.460938 435.984375 448.125 431.214844 441.996094 C 426.40625 435.816406 421.433594 429.429688 417.625 422.28125 C 413.648438 414.84375 407.425781 400.148438 410.378906 385.289062 L 410.496094 384.714844 " fill-opacity="1" fill-rule="nonzero"/><path fill="#bab195" d="M 455.003906 446.707031 L 459.347656 448.480469 C 459.667969 447.71875 467.355469 429.714844 488.761719 437.523438 L 490.363281 433.117188 C 464.65625 423.734375 455.101562 446.484375 455.003906 446.707031 " fill-opacity="1" fill-rule="nonzero"/><path fill="#bab195" d="M 457.589844 499.5 L 459.777344 501.261719 C 460.320312 500.59375 462.304688 498.5 464.976562 499.898438 L 466.277344 497.402344 C 463.292969 495.839844 459.878906 496.664062 457.589844 499.5 " fill-opacity="1" fill-rule="nonzero"/><path fill="#bab195" d="M 466.027344 458.164062 L 464.171875 462.46875 C 466.003906 463.257812 468.519531 463.859375 471.382812 463.859375 C 478.253906 463.859375 487.132812 460.433594 493.390625 448.058594 L 489.210938 445.945312 C 480.085938 463.96875 466.589844 458.410156 466.027344 458.164062 " fill-opacity="1" fill-rule="nonzero"/><path fill="#bab195" d="M 535.574219 622.0625 C 536.746094 622.0625 537.703125 621.113281 537.703125 619.933594 C 537.703125 618.761719 536.746094 617.804688 535.574219 617.804688 C 534.402344 617.804688 533.449219 618.761719 533.449219 619.933594 C 533.449219 621.113281 534.402344 622.0625 535.574219 622.0625 " fill-opacity="1" fill-rule="nonzero"/><path fill="#bab195" d="M 548.257812 620.191406 C 550.242188 620.191406 551.851562 618.589844 551.851562 616.605469 C 551.851562 614.621094 550.242188 613.011719 548.257812 613.011719 C 546.277344 613.011719 544.667969 614.621094 544.667969 616.605469 C 544.667969 618.589844 546.277344 620.191406 548.257812 620.191406 " fill-opacity="1" fill-rule="nonzero"/><path fill="#bab195" d="M 560.636719 616.871094 C 563.179688 616.871094 565.242188 614.804688 565.242188 612.261719 C 565.242188 609.710938 563.179688 607.652344 560.636719 607.652344 C 558.085938 607.652344 556.023438 609.710938 556.023438 612.261719 C 556.023438 614.804688 558.085938 616.871094 560.636719 616.871094 " fill-opacity="1" fill-rule="nonzero"/><path fill="#bab195" d="M 572.523438 611.984375 C 575.425781 611.984375 577.777344 609.628906 577.777344 606.730469 C 577.777344 603.828125 575.425781 601.476562 572.523438 601.476562 C 569.625 601.476562 567.273438 603.828125 567.273438 606.730469 C 567.273438 609.628906 569.625 611.984375 572.523438 611.984375 " fill-opacity="1" fill-rule="nonzero"/><path fill="#bab195" d="M 583.664062 605.394531 C 586.746094 605.394531 589.238281 602.898438 589.238281 599.824219 C 589.238281 596.742188 586.746094 594.253906 583.664062 594.253906 C 580.589844 594.253906 578.097656 596.742188 578.097656 599.824219 C 578.097656 602.898438 580.589844 605.394531 583.664062 605.394531 " fill-opacity="1" fill-rule="nonzero"/><path fill="#bab195" d="M 593.703125 596.972656 C 596.785156 596.972656 599.285156 594.472656 599.285156 591.390625 C 599.285156 588.308594 596.785156 585.8125 593.703125 585.8125 C 590.625 585.8125 588.128906 588.308594 588.128906 591.390625 C 588.128906 594.472656 590.625 596.972656 593.703125 596.972656 " fill-opacity="1" fill-rule="nonzero"/><path fill="#bab195" d="M 602.210938 586.703125 C 605.125 586.703125 607.492188 584.339844 607.492188 581.414062 C 607.492188 578.496094 605.125 576.128906 602.210938 576.128906 C 599.292969 576.128906 596.925781 578.496094 596.925781 581.414062 C 596.925781 584.339844 599.292969 586.703125 602.210938 586.703125 " fill-opacity="1" fill-rule="nonzero"/><path fill="#bab195" d="M 608.773438 574.738281 C 611.347656 574.738281 613.433594 572.648438 613.433594 570.074219 C 613.433594 567.496094 611.347656 565.402344 608.773438 565.402344 C 606.195312 565.402344 604.105469 567.496094 604.105469 570.074219 C 604.105469 572.648438 606.195312 574.738281 608.773438 574.738281 " fill-opacity="1" fill-rule="nonzero"/><path fill="#bab195" d="M 613.175781 561.386719 C 615.191406 561.386719 616.835938 559.75 616.835938 557.722656 C 616.835938 555.699219 615.191406 554.0625 613.175781 554.0625 C 611.152344 554.0625 609.507812 555.699219 609.507812 557.722656 C 609.507812 559.75 611.152344 561.386719 613.175781 561.386719 " fill-opacity="1" fill-rule="nonzero"/><path fill="#bab195" d="M 615.4375 547.023438 C 616.664062 547.023438 617.660156 546.027344 617.660156 544.808594 C 617.660156 543.582031 616.664062 542.585938 615.4375 542.585938 C 614.210938 542.585938 613.222656 543.582031 613.222656 544.808594 C 613.222656 546.027344 614.210938 547.023438 615.4375 547.023438 " fill-opacity="1" fill-rule="nonzero"/><g clip-path="url(#98e09c9766)"><path fill="#bab195" d="M 412.246094 120.394531 L 424.207031 111.699219 L 409.417969 111.699219 L 404.851562 97.636719 L 400.292969 111.699219 L 385.503906 111.699219 L 397.464844 120.394531 L 392.898438 134.46875 L 404.851562 125.773438 L 416.8125 134.46875 Z M 440.023438 106.558594 L 418.292969 122.359375 L 426.59375 147.929688 L 404.851562 132.128906 L 383.117188 147.929688 L 391.417969 122.359375 L 369.683594 106.558594 L 396.542969 106.558594 L 404.851562 80.992188 L 413.160156 106.558594 L 440.023438 106.558594 " fill-opacity="1" fill-rule="nonzero"/></g><path fill="#bab195" d="M 581.421875 157.011719 L 586.859375 155.519531 L 581.578125 153.546875 L 584.78125 148.90625 L 579.464844 150.800781 L 578.941406 145.175781 L 576.085938 150.050781 L 572.066406 146.074219 L 573.011719 151.644531 L 567.375 151.1875 L 571.675781 154.84375 L 567.074219 158.117188 L 572.726562 158.152344 L 571.292969 163.621094 L 575.644531 160.019531 L 578.0625 165.121094 L 579.078125 159.5625 L 584.210938 161.921875 Z M 603.585938 156.261719 L 589.152344 160.222656 L 596.546875 173.25 L 582.941406 167.003906 L 580.238281 181.730469 L 573.824219 168.195312 L 562.285156 177.742188 L 566.074219 163.246094 L 551.101562 163.144531 L 563.3125 154.476562 L 551.910156 144.757812 L 566.832031 145.984375 L 564.34375 131.214844 L 574.996094 141.738281 L 582.574219 128.816406 L 583.972656 143.734375 L 598.078125 138.710938 L 589.566406 151.039062 L 603.585938 156.261719 " fill-opacity="1" fill-rule="nonzero"/><path fill="#bab195" d="M 497.53125 211.457031 L 478.675781 208.121094 L 497.53125 204.78125 L 500.871094 185.910156 L 504.210938 204.78125 L 523.070312 208.121094 L 504.210938 211.457031 L 500.871094 230.332031 L 497.53125 211.457031 " fill-opacity="1" fill-rule="nonzero"/><path fill="#bab195" d="M 497.207031 115.007812 C 493.484375 115.007812 490.457031 118.035156 490.457031 121.757812 C 490.457031 125.480469 493.484375 128.515625 497.207031 128.515625 C 500.925781 128.515625 503.960938 125.480469 503.960938 121.757812 C 503.960938 118.035156 500.925781 115.007812 497.207031 115.007812 Z M 497.207031 132.628906 C 491.214844 132.628906 486.34375 127.75 486.34375 121.757812 C 486.34375 115.765625 491.214844 110.886719 497.207031 110.886719 C 503.195312 110.886719 508.070312 115.765625 508.070312 121.757812 C 508.070312 127.75 503.195312 132.628906 497.207031 132.628906 " fill-opacity="1" fill-rule="nonzero"/><g clip-path="url(#13db1fbd47)"><path fill="#bab195" d="M 412.246094 701.386719 L 424.207031 692.679688 L 409.417969 692.679688 L 404.851562 678.617188 L 400.292969 692.679688 L 385.503906 692.679688 L 397.464844 701.386719 L 392.898438 715.449219 L 404.851562 706.753906 L 416.8125 715.449219 Z M 440.023438 687.539062 L 418.292969 703.351562 L 426.59375 728.910156 L 404.851562 713.109375 L 383.117188 728.910156 L 391.417969 703.351562 L 369.683594 687.539062 L 396.542969 687.539062 L 404.851562 661.972656 L 413.160156 687.539062 L 440.023438 687.539062 " fill-opacity="1" fill-rule="nonzero"/></g><path fill="#bab195" d="M 692.601562 321.480469 L 700.621094 315.636719 L 690.699219 315.636719 L 687.640625 306.207031 L 684.570312 315.636719 L 674.648438 315.636719 L 682.675781 321.480469 L 679.617188 330.914062 L 687.640625 325.082031 L 695.667969 330.914062 Z M 716.449219 310.496094 L 698.644531 323.445312 L 705.441406 344.382812 L 687.640625 331.4375 L 669.835938 344.382812 L 676.632812 323.445312 L 658.832031 310.496094 L 680.84375 310.496094 L 687.640625 289.5625 L 694.441406 310.496094 L 716.449219 310.496094 " fill-opacity="1" fill-rule="nonzero"/><path fill="#bab195" d="M 687.132812 476.597656 L 695.386719 474.332031 L 687.359375 471.339844 L 692.234375 464.292969 L 684.164062 467.164062 L 683.367188 458.636719 L 679.03125 466.019531 L 672.945312 460.003906 L 674.363281 468.449219 L 665.828125 467.757812 L 672.34375 473.316406 L 665.367188 478.273438 L 673.925781 478.320312 L 671.757812 486.613281 L 678.363281 481.164062 L 682.03125 488.898438 L 683.578125 480.476562 L 691.359375 484.054688 Z M 712.113281 475.074219 L 694.863281 479.808594 L 703.695312 495.371094 L 687.441406 487.917969 L 684.195312 505.515625 L 676.542969 489.335938 L 662.757812 500.75 L 667.273438 483.429688 L 649.382812 483.292969 L 663.988281 472.949219 L 650.367188 461.34375 L 668.195312 462.789062 L 665.210938 445.140625 L 677.941406 457.722656 L 687 442.277344 L 688.660156 460.109375 L 705.523438 454.101562 L 695.347656 468.828125 L 712.113281 475.074219 " fill-opacity="1" fill-rule="nonzero"/><g clip-path="url(#7c58eca66b)"><path fill="#bab195" d="M 697.628906 401.183594 L 680.734375 398.191406 L 697.628906 395.203125 L 700.621094 378.300781 L 703.613281 395.203125 L 720.507812 398.191406 L 703.613281 401.183594 L 700.621094 418.089844 L 697.628906 401.183594 " fill-opacity="1" fill-rule="nonzero"/></g><path fill="#bab195" d="M 657.972656 574.007812 L 641.078125 571.019531 L 657.972656 568.027344 L 660.964844 551.121094 L 663.949219 568.027344 L 680.84375 571.019531 L 663.949219 574.007812 L 660.964844 590.910156 L 657.972656 574.007812 " fill-opacity="1" fill-rule="nonzero"/><path fill="#bab195" d="M 507.378906 685.941406 L 486.15625 682.183594 L 507.378906 678.429688 L 511.136719 657.199219 L 514.882812 678.429688 L 536.105469 682.183594 L 514.882812 685.941406 L 511.136719 707.175781 L 507.378906 685.941406 " fill-opacity="1" fill-rule="nonzero"/><path fill="#bab195" d="M 602.890625 633.148438 C 599.167969 633.148438 596.144531 636.183594 596.144531 639.90625 C 596.144531 643.628906 599.167969 646.65625 602.890625 646.65625 C 606.613281 646.65625 609.644531 643.628906 609.644531 639.90625 C 609.644531 636.183594 606.613281 633.148438 602.890625 633.148438 Z M 602.890625 650.777344 C 596.898438 650.777344 592.027344 645.902344 592.027344 639.90625 C 592.027344 633.914062 596.898438 629.039062 602.890625 629.039062 C 608.882812 629.039062 613.753906 633.914062 613.753906 639.90625 C 613.753906 645.902344 608.882812 650.777344 602.890625 650.777344 " fill-opacity="1" fill-rule="nonzero"/><path fill="#bab195" d="M 225.5 161.921875 L 230.632812 159.5625 L 231.648438 165.121094 L 234.066406 160.019531 L 238.414062 163.621094 L 236.984375 158.152344 L 242.625 158.117188 L 238.03125 154.84375 L 242.332031 151.1875 L 236.695312 151.644531 L 237.644531 146.074219 L 233.625 150.050781 L 230.761719 145.175781 L 230.234375 150.800781 L 224.921875 148.90625 L 228.128906 153.546875 L 222.847656 155.519531 L 228.285156 157.011719 Z M 220.144531 151.039062 L 211.628906 138.710938 L 225.738281 143.734375 L 227.136719 128.816406 L 234.714844 141.738281 L 245.367188 131.214844 L 242.871094 145.984375 L 257.789062 144.757812 L 246.386719 154.476562 L 258.601562 163.144531 L 243.636719 163.246094 L 247.417969 177.742188 L 235.886719 168.195312 L 229.464844 181.730469 L 226.761719 167.003906 L 213.164062 173.25 L 220.550781 160.222656 L 206.117188 156.261719 L 220.144531 151.039062 " fill-opacity="1" fill-rule="nonzero"/><path fill="#bab195" d="M 312.171875 211.457031 L 331.035156 208.121094 L 312.171875 204.78125 L 308.835938 185.910156 L 305.496094 204.78125 L 286.632812 208.121094 L 305.496094 211.457031 L 308.835938 230.332031 L 312.171875 211.457031 " fill-opacity="1" fill-rule="nonzero"/><path fill="#bab195" d="M 305.75 121.757812 C 305.75 125.480469 308.777344 128.515625 312.496094 128.515625 C 316.226562 128.515625 319.25 125.480469 319.25 121.757812 C 319.25 118.035156 316.226562 115.007812 312.496094 115.007812 C 308.777344 115.007812 305.75 118.035156 305.75 121.757812 Z M 301.640625 121.757812 C 301.640625 115.765625 306.511719 110.886719 312.496094 110.886719 C 318.488281 110.886719 323.359375 115.765625 323.359375 121.757812 C 323.359375 127.75 318.488281 132.628906 312.496094 132.628906 C 306.511719 132.628906 301.640625 127.75 301.640625 121.757812 " fill-opacity="1" fill-rule="nonzero"/><g clip-path="url(#dd4f1dad3e)"><path fill="#bab195" d="M 392.898438 715.449219 L 404.851562 706.753906 L 416.8125 715.449219 L 412.246094 701.386719 L 424.207031 692.679688 L 409.417969 692.679688 L 404.851562 678.617188 L 400.292969 692.679688 L 385.503906 692.679688 L 397.464844 701.386719 Z M 396.542969 687.539062 L 404.851562 661.972656 L 413.160156 687.539062 L 440.023438 687.539062 L 418.292969 703.351562 L 426.59375 728.910156 L 404.851562 713.109375 L 383.117188 728.910156 L 391.417969 703.351562 L 369.683594 687.539062 L 396.542969 687.539062 " fill-opacity="1" fill-rule="nonzero"/></g><path fill="#bab195" d="M 114.042969 330.914062 L 122.070312 325.082031 L 130.09375 330.914062 L 127.023438 321.480469 L 135.054688 315.636719 L 125.136719 315.636719 L 122.070312 306.207031 L 119.011719 315.636719 L 109.085938 315.636719 L 117.101562 321.480469 Z M 115.261719 310.496094 L 122.070312 289.5625 L 128.867188 310.496094 L 150.878906 310.496094 L 133.070312 323.445312 L 139.867188 344.382812 L 122.070312 331.4375 L 104.261719 344.382812 L 111.058594 323.445312 L 93.261719 310.496094 L 115.261719 310.496094 " fill-opacity="1" fill-rule="nonzero"/><path fill="#bab195" d="M 118.347656 484.054688 L 126.132812 480.476562 L 127.671875 488.898438 L 131.347656 481.164062 L 137.949219 486.613281 L 135.777344 478.320312 L 144.34375 478.273438 L 137.355469 473.316406 L 143.878906 467.757812 L 135.347656 468.449219 L 136.765625 460.003906 L 130.679688 466.019531 L 126.335938 458.636719 L 125.546875 467.164062 L 117.476562 464.292969 L 122.351562 471.339844 L 114.320312 474.332031 L 122.574219 476.597656 Z M 114.363281 468.828125 L 104.179688 454.101562 L 121.046875 460.109375 L 122.710938 442.277344 L 131.769531 457.722656 L 144.5 445.140625 L 141.515625 462.789062 L 159.34375 461.34375 L 145.71875 472.949219 L 160.316406 483.292969 L 142.429688 483.429688 L 146.953125 500.75 L 133.164062 489.335938 L 125.503906 505.515625 L 122.269531 487.917969 L 106.011719 495.371094 L 114.847656 479.808594 L 97.597656 475.074219 L 114.363281 468.828125 " fill-opacity="1" fill-rule="nonzero"/><path fill="#bab195" d="M 112.074219 401.183594 L 128.96875 398.191406 L 112.074219 395.203125 L 109.085938 378.300781 L 106.09375 395.203125 L 89.199219 398.191406 L 106.09375 401.183594 L 109.085938 418.089844 L 112.074219 401.183594 " fill-opacity="1" fill-rule="nonzero"/><path fill="#bab195" d="M 151.738281 574.007812 L 168.632812 571.019531 L 151.738281 568.027344 L 148.746094 551.121094 L 145.753906 568.027344 L 128.859375 571.019531 L 145.753906 574.007812 L 148.746094 590.910156 L 151.738281 574.007812 " fill-opacity="1" fill-rule="nonzero"/><path fill="#bab195" d="M 302.328125 685.941406 L 323.550781 682.183594 L 302.328125 678.429688 L 298.574219 657.199219 L 294.816406 678.429688 L 273.601562 682.183594 L 294.816406 685.941406 L 298.574219 707.175781 L 302.328125 685.941406 " fill-opacity="1" fill-rule="nonzero"/><path fill="#bab195" d="M 200.066406 639.90625 C 200.066406 643.628906 203.097656 646.65625 206.820312 646.65625 C 210.539062 646.65625 213.566406 643.628906 213.566406 639.90625 C 213.566406 636.183594 210.539062 633.148438 206.820312 633.148438 C 203.097656 633.148438 200.066406 636.183594 200.066406 639.90625 Z M 195.957031 639.90625 C 195.957031 633.914062 200.828125 629.039062 206.820312 629.039062 C 212.800781 629.039062 217.683594 633.914062 217.683594 639.90625 C 217.683594 645.902344 212.800781 650.777344 206.820312 650.777344 C 200.828125 650.777344 195.957031 645.902344 195.957031 639.90625 " fill-opacity="1" fill-rule="nonzero"/></svg>