<svg xmlns="http://www.w3.org/2000/svg" xmlns:xlink="http://www.w3.org/1999/xlink" width="1080" zoomAndPan="magnify" viewBox="0 0 810 809.999993" height="1080" preserveAspectRatio="xMidYMid meet" version="1.0"><defs><clipPath id="6e455fbf00"><path d="M 374 664 L 446.816406 664 L 446.816406 732.816406 L 374 732.816406 Z M 374 664 " clip-rule="nonzero"/></clipPath><clipPath id="e8b9dccadc"><path d="M 657.03125 353 L 728.953125 353 L 728.953125 422 L 657.03125 422 Z M 657.03125 353 " clip-rule="nonzero"/></clipPath><clipPath id="e7cec1d8e2"><path d="M 85.453125 353 L 157 353 L 157 422 L 85.453125 422 Z M 85.453125 353 " clip-rule="nonzero"/></clipPath></defs><rect x="-81" width="972" fill="#ffffff" y="-80.999999" height="971.999992" fill-opacity="1"/><rect x="-81" width="972" fill="#ffffff" y="-80.999999" height="971.999992" fill-opacity="1"/><rect x="-81" width="972" fill="#11091a" y="-80.999999" height="971.999992" fill-opacity="1"/><path fill="#bab195" d="M 525.382812 104.84375 C 520.890625 104.84375 517.238281 108.492188 517.238281 112.980469 C 517.238281 117.472656 520.890625 121.125 525.382812 121.125 C 529.867188 121.125 533.519531 117.472656 533.519531 112.980469 C 533.519531 108.492188 529.867188 104.84375 525.382812 104.84375 Z M 525.382812 126.34375 C 518.011719 126.34375 512.019531 120.351562 512.019531 112.980469 C 512.019531 105.617188 518.011719 99.625 525.382812 99.625 C 532.746094 99.625 538.738281 105.617188 538.738281 112.980469 C 538.738281 120.351562 532.746094 126.34375 525.382812 126.34375 " fill-opacity="1" fill-rule="nonzero"/><g clip-path="url(#6e455fbf00)"><path fill="#bab195" d="M 417.84375 704.886719 L 429.980469 696.058594 L 414.972656 696.058594 L 410.339844 681.792969 L 405.703125 696.058594 L 390.699219 696.058594 L 402.839844 704.886719 L 398.203125 719.152344 L 410.339844 710.335938 L 422.472656 719.152344 Z M 446.042969 690.847656 L 423.980469 706.882812 L 432.402344 732.816406 L 410.339844 716.785156 L 388.277344 732.816406 L 396.699219 706.882812 L 374.644531 690.847656 L 401.910156 690.847656 L 410.339844 664.90625 L 418.773438 690.847656 L 446.042969 690.847656 " fill-opacity="1" fill-rule="nonzero"/></g><path fill="#bab195" d="M 415.652344 121.644531 L 427.785156 112.816406 L 412.78125 112.816406 L 408.148438 98.550781 L 403.511719 112.816406 L 388.507812 112.816406 L 400.648438 121.644531 L 396.011719 135.910156 L 408.148438 127.09375 L 420.28125 135.910156 Z M 443.84375 107.597656 L 421.789062 123.632812 L 430.210938 149.574219 L 408.148438 133.542969 L 386.089844 149.574219 L 394.507812 123.632812 L 372.449219 107.597656 L 399.71875 107.597656 L 408.148438 81.664062 L 416.582031 107.597656 L 443.84375 107.597656 " fill-opacity="1" fill-rule="nonzero"/><g clip-path="url(#e8b9dccadc)"><path fill="#bab195" d="M 700.769531 393.183594 L 712.902344 384.363281 L 697.898438 384.363281 L 693.261719 370.097656 L 688.628906 384.363281 L 673.621094 384.363281 L 685.757812 393.183594 L 681.128906 407.449219 L 693.261719 398.636719 L 705.402344 407.449219 Z M 728.964844 379.144531 L 706.902344 395.179688 L 715.324219 421.113281 L 693.261719 405.082031 L 671.199219 421.113281 L 679.628906 395.179688 L 657.566406 379.144531 L 684.835938 379.144531 L 693.261719 353.210938 L 701.699219 379.144531 L 728.964844 379.144531 " fill-opacity="1" fill-rule="nonzero"/></g><path fill="#bab195" d="M 601.355469 176.535156 L 582.210938 173.148438 L 601.355469 169.757812 L 604.742188 150.609375 L 608.128906 169.757812 L 627.273438 173.148438 L 608.128906 176.535156 L 604.742188 195.679688 L 601.355469 176.535156 " fill-opacity="1" fill-rule="nonzero"/><path fill="#bab195" d="M 604.742188 605.117188 C 600.554688 605.117188 597.148438 608.523438 597.148438 612.710938 C 597.148438 616.898438 600.554688 620.304688 604.742188 620.304688 C 608.929688 620.304688 612.34375 616.898438 612.34375 612.710938 C 612.34375 608.523438 608.929688 605.117188 604.742188 605.117188 Z M 604.742188 625.523438 C 597.675781 625.523438 591.929688 619.777344 591.929688 612.710938 C 591.929688 605.648438 597.675781 599.898438 604.742188 599.898438 C 611.804688 599.898438 617.554688 605.648438 617.554688 612.710938 C 617.554688 619.777344 611.804688 625.523438 604.742188 625.523438 " fill-opacity="1" fill-rule="nonzero"/><path fill="#bab195" d="M 665.066406 525.4375 L 673.445312 523.140625 L 665.296875 520.101562 L 670.242188 512.957031 L 662.050781 515.867188 L 661.246094 507.214844 L 656.839844 514.714844 L 650.664062 508.605469 L 652.101562 517.171875 L 643.445312 516.472656 L 650.0625 522.109375 L 642.976562 527.140625 L 651.664062 527.1875 L 649.464844 535.601562 L 656.160156 530.070312 L 659.886719 537.917969 L 661.453125 529.371094 L 669.355469 533.003906 Z M 690.425781 523.890625 L 672.910156 528.695312 L 681.875 544.480469 L 665.378906 536.917969 L 662.09375 554.773438 L 654.316406 538.359375 L 640.320312 549.941406 L 644.917969 532.367188 L 626.757812 532.230469 L 641.578125 521.730469 L 627.746094 509.960938 L 645.847656 511.429688 L 642.820312 493.527344 L 655.734375 506.285156 L 664.929688 490.621094 L 666.621094 508.707031 L 683.734375 502.613281 L 673.40625 517.558594 L 690.425781 523.890625 " fill-opacity="1" fill-rule="nonzero"/><path fill="#bab195" d="M 679.921875 267.335938 L 688.296875 265.039062 L 680.152344 262 L 685.09375 254.855469 L 676.902344 257.765625 L 676.101562 249.113281 L 671.695312 256.605469 L 665.519531 250.496094 L 666.957031 259.066406 L 658.300781 258.371094 L 664.917969 264.003906 L 657.832031 269.03125 L 666.523438 269.085938 L 664.320312 277.5 L 671.015625 271.960938 L 674.742188 279.816406 L 676.308594 271.269531 L 684.210938 274.902344 Z M 705.273438 265.785156 L 687.765625 270.585938 L 696.730469 286.378906 L 680.234375 278.808594 L 676.949219 296.667969 L 669.171875 280.25 L 655.175781 291.835938 L 659.765625 274.261719 L 641.613281 274.128906 L 656.425781 263.628906 L 642.601562 251.855469 L 660.695312 253.328125 L 657.667969 235.417969 L 670.589844 248.183594 L 679.785156 232.519531 L 681.476562 250.605469 L 698.589844 244.511719 L 688.253906 259.453125 L 705.273438 265.785156 " fill-opacity="1" fill-rule="nonzero"/><path fill="#bab195" d="M 516.9375 665.660156 L 495.40625 661.847656 L 516.9375 658.039062 L 520.753906 636.5 L 524.558594 658.039062 L 546.101562 661.847656 L 524.558594 665.660156 L 520.753906 687.195312 L 516.9375 665.660156 " fill-opacity="1" fill-rule="nonzero"/><path fill="#bab195" d="M 280.894531 112.980469 C 280.894531 117.472656 284.546875 121.125 289.039062 121.125 C 293.523438 121.125 297.175781 117.472656 297.175781 112.980469 C 297.175781 108.492188 293.523438 104.84375 289.039062 104.84375 C 284.546875 104.84375 280.894531 108.492188 280.894531 112.980469 Z M 275.675781 112.980469 C 275.675781 105.617188 281.667969 99.625 289.039062 99.625 C 296.402344 99.625 302.394531 105.617188 302.394531 112.980469 C 302.394531 120.351562 296.402344 126.34375 289.039062 126.34375 C 281.667969 126.34375 275.675781 120.351562 275.675781 112.980469 " fill-opacity="1" fill-rule="nonzero"/><g clip-path="url(#e7cec1d8e2)"><path fill="#bab195" d="M 109.015625 407.449219 L 121.152344 398.636719 L 133.292969 407.449219 L 128.65625 393.183594 L 140.792969 384.363281 L 125.785156 384.363281 L 121.152344 370.097656 L 116.523438 384.363281 L 101.511719 384.363281 L 113.652344 393.183594 Z M 112.722656 379.144531 L 121.152344 353.210938 L 129.585938 379.144531 L 156.855469 379.144531 L 134.792969 395.179688 L 143.214844 421.113281 L 121.152344 405.082031 L 99.09375 421.113281 L 107.515625 395.179688 L 85.453125 379.144531 L 112.722656 379.144531 " fill-opacity="1" fill-rule="nonzero"/></g><path fill="#bab195" d="M 213.066406 176.535156 L 232.210938 173.148438 L 213.066406 169.757812 L 209.671875 150.609375 L 206.285156 169.757812 L 187.140625 173.148438 L 206.285156 176.535156 L 209.671875 195.679688 L 213.066406 176.535156 " fill-opacity="1" fill-rule="nonzero"/><path fill="#bab195" d="M 202.078125 612.710938 C 202.078125 616.898438 205.484375 620.304688 209.671875 620.304688 C 213.859375 620.304688 217.273438 616.898438 217.273438 612.710938 C 217.273438 608.523438 213.859375 605.117188 209.671875 605.117188 C 205.484375 605.117188 202.078125 608.523438 202.078125 612.710938 Z M 196.859375 612.710938 C 196.859375 605.648438 202.609375 599.898438 209.671875 599.898438 C 216.742188 599.898438 222.492188 605.648438 222.492188 612.710938 C 222.492188 619.777344 216.742188 625.523438 209.671875 625.523438 C 202.609375 625.523438 196.859375 619.777344 196.859375 612.710938 " fill-opacity="1" fill-rule="nonzero"/><path fill="#bab195" d="M 145.066406 533.003906 L 152.964844 529.371094 L 154.527344 537.917969 L 158.253906 530.070312 L 164.957031 535.601562 L 162.75 527.1875 L 171.445312 527.140625 L 164.359375 522.109375 L 170.976562 516.472656 L 162.3125 517.171875 L 163.757812 508.605469 L 157.574219 514.714844 L 153.167969 507.214844 L 152.367188 515.867188 L 144.175781 512.957031 L 149.125 520.101562 L 140.972656 523.140625 L 149.355469 525.4375 Z M 141.015625 517.558594 L 130.6875 502.613281 L 147.800781 508.707031 L 149.492188 490.621094 L 158.679688 506.285156 L 171.601562 493.527344 L 168.574219 511.429688 L 186.671875 509.960938 L 172.84375 521.730469 L 187.664062 532.230469 L 169.503906 532.367188 L 174.097656 549.941406 L 160.105469 538.359375 L 152.328125 554.773438 L 149.035156 536.917969 L 132.539062 544.480469 L 141.503906 528.695312 L 123.996094 523.890625 L 141.015625 517.558594 " fill-opacity="1" fill-rule="nonzero"/><path fill="#bab195" d="M 130.210938 274.902344 L 138.109375 271.269531 L 139.679688 279.816406 L 143.398438 271.960938 L 150.101562 277.5 L 147.894531 269.085938 L 156.589844 269.03125 L 149.503906 264.003906 L 156.121094 258.371094 L 147.460938 259.066406 L 148.902344 250.496094 L 142.726562 256.605469 L 138.320312 249.113281 L 137.511719 257.765625 L 129.320312 254.855469 L 134.269531 262 L 126.117188 265.039062 L 134.5 267.335938 Z M 126.160156 259.453125 L 115.832031 244.511719 L 132.945312 250.605469 L 134.636719 232.519531 L 143.824219 248.183594 L 156.746094 235.417969 L 153.71875 253.328125 L 171.816406 251.855469 L 157.988281 263.628906 L 172.808594 274.128906 L 154.648438 274.261719 L 159.242188 291.835938 L 145.25 280.25 L 137.472656 296.667969 L 134.1875 278.808594 L 117.691406 286.378906 L 126.65625 270.585938 L 109.140625 265.785156 L 126.160156 259.453125 " fill-opacity="1" fill-rule="nonzero"/><path fill="#bab195" d="M 297.476562 665.660156 L 319.015625 661.847656 L 297.476562 658.039062 L 293.667969 636.5 L 289.855469 658.039062 L 268.320312 661.847656 L 289.855469 665.660156 L 293.667969 687.195312 L 297.476562 665.660156 " fill-opacity="1" fill-rule="nonzero"/><path fill="#bab195" d="M 439.867188 642.667969 C 468.660156 618.214844 480.054688 587.445312 478.523438 567.546875 C 477.4375 553.429688 470.527344 542.035156 457.984375 533.640625 C 455.167969 539.214844 450.886719 544.316406 442.351562 547.757812 C 436.960938 549.921875 422.453125 550.769531 409.777344 550.871094 L 409.777344 649.632812 C 414.824219 648.898438 426.179688 646.949219 439.867188 642.667969 Z M 622.765625 347.367188 L 622.765625 355.84375 L 618.0625 348.789062 C 610.820312 337.929688 599.339844 329.648438 590.183594 324.28125 C 597.804688 332.84375 607.640625 345.976562 614.824219 362.957031 C 627.074219 391.875 633.460938 437.679688 594.289062 491.660156 L 588.339844 499.871094 L 589.667969 489.820312 C 591.589844 475.324219 591.160156 450.402344 569.425781 437.269531 C 573.695312 447.722656 577.183594 464.683594 577.105469 485.328125 C 577.027344 508.164062 572.527344 544.113281 551.550781 585.734375 L 545.320312 598.113281 L 546.703125 584.332031 C 548.644531 565.082031 542.632812 547.878906 530.816406 538.046875 C 532.535156 580.164062 512.316406 613.574219 472.121094 634.910156 C 461.882812 640.355469 451.601562 644.363281 442.328125 647.316406 C 442.152344 647.472656 441.984375 647.628906 441.792969 647.773438 L 441.609375 647.546875 C 422.8125 653.464844 408.363281 655.007812 407.46875 655.101562 L 407.210938 655.128906 L 406.960938 655.101562 C 406.050781 655.007812 391.617188 653.464844 372.804688 647.546875 L 372.621094 647.773438 C 372.445312 647.628906 372.273438 647.472656 372.097656 647.316406 C 362.820312 644.363281 352.539062 640.355469 342.304688 634.910156 C 302.097656 613.574219 281.894531 580.164062 283.601562 538.046875 C 272.8125 547.039062 266.867188 562.207031 267.410156 579.445312 C 267.464844 579.578125 267.507812 579.722656 267.554688 579.851562 L 267.425781 579.90625 C 267.472656 581.363281 267.566406 582.84375 267.710938 584.332031 L 269.109375 598.113281 L 262.863281 585.734375 C 241.886719 544.113281 237.386719 508.164062 237.308594 485.328125 C 237.230469 464.683594 240.71875 447.722656 244.988281 437.269531 C 223.257812 450.402344 222.824219 475.324219 224.746094 489.820312 L 226.074219 499.871094 L 220.125 491.660156 C 180.964844 437.679688 187.339844 391.875 199.589844 362.957031 C 206.789062 345.976562 216.609375 332.84375 224.230469 324.28125 C 215.074219 329.648438 203.59375 337.929688 196.359375 348.789062 L 191.660156 355.84375 L 191.660156 347.367188 C 191.660156 322.84375 212.765625 198.289062 313.109375 198.289062 C 323.308594 198.289062 334.136719 199.605469 345.351562 202.195312 C 338.890625 190.972656 318.824219 183.214844 294.835938 183.214844 C 286.160156 183.214844 277.449219 184.300781 269.628906 186.34375 L 260.339844 188.773438 L 267.179688 182.035156 C 280.175781 169.214844 302.3125 161.863281 327.898438 161.863281 C 346.480469 161.863281 364.769531 165.800781 379.394531 172.933594 C 393.683594 179.890625 403.566406 189.410156 408.289062 200.667969 C 416.570312 188.90625 442.070312 158.171875 482.492188 158.171875 C 503.109375 158.171875 524.785156 166.117188 546.921875 181.761719 L 558.457031 189.925781 L 544.796875 186.34375 C 536.980469 184.300781 528.253906 183.214844 519.578125 183.214844 C 495.589844 183.214844 475.535156 190.972656 469.074219 202.195312 C 480.285156 199.605469 491.105469 198.289062 501.316406 198.289062 C 601.648438 198.289062 622.765625 322.84375 622.765625 347.367188 Z M 408.90625 265.679688 C 413.617188 265.679688 419.332031 266.335938 425.613281 267.671875 C 442.757812 241.925781 468.925781 229.601562 499.519531 232.933594 C 545.976562 238.015625 592.371094 277.132812 615.898438 329.792969 C 609.355469 288.71875 582.246094 203.417969 501.316406 203.417969 C 490.066406 203.417969 478.011719 205.082031 465.476562 208.367188 L 461.304688 209.453125 L 462.328125 205.265625 C 466.949219 186.585938 495.238281 178.082031 519.578125 178.082031 C 524.1875 178.082031 528.714844 178.355469 533.125 178.910156 C 515.671875 168.546875 498.691406 163.300781 482.492188 163.300781 C 435.699219 163.300781 410.046875 207.28125 409.789062 207.71875 L 406.703125 213.128906 L 405.078125 207.117188 C 397.972656 180.785156 360.878906 166.996094 327.898438 166.996094 C 308.449219 166.996094 291.21875 171.378906 278.933594 179.238281 C 284.121094 178.484375 289.488281 178.082031 294.835938 178.082031 C 319.175781 178.082031 347.476562 186.585938 352.085938 205.265625 L 353.121094 209.453125 L 348.941406 208.367188 C 336.402344 205.082031 324.347656 203.417969 313.109375 203.417969 C 230.664062 203.417969 204.066406 291.941406 198.175781 332.042969 C 221.425781 278.253906 268.355469 238.117188 315.277344 233.007812 C 345.679688 229.683594 371.71875 241.992188 388.8125 267.671875 C 395.089844 266.335938 400.796875 265.679688 405.519531 265.679688 C 405.929688 265.679688 406.320312 265.691406 406.722656 265.707031 L 407.765625 265.707031 C 408.09375 265.691406 408.492188 265.679688 408.90625 265.679688 Z M 303.71875 595.054688 C 313.132812 609.054688 326.921875 620.945312 344.707031 630.382812 C 350.707031 633.566406 356.753906 636.25 362.609375 638.515625 C 354.433594 630.121094 347.257812 620.539062 341.859375 610.65625 C 333.585938 595.535156 329.75 580.488281 330.78125 567.160156 C 332.003906 551.328125 340.140625 538.148438 354.34375 528.890625 C 353.84375 527.609375 353.382812 526.320312 352.914062 525.042969 C 351.589844 521.378906 350.226562 517.589844 348.121094 513.898438 C 345.8125 509.847656 342.726562 505.929688 339.449219 501.796875 C 334.167969 495.105469 328.699219 488.179688 326.140625 480 C 324.835938 475.832031 323.851562 472.101562 322.910156 468.476562 C 320.414062 458.980469 318.417969 451.378906 312.214844 441.886719 C 293.695312 447.070312 282.027344 462.769531 275.460938 475.230469 C 261.839844 501.019531 257.375 536.519531 263.304688 565.097656 C 266 550.167969 273.675781 537.71875 285.15625 530.628906 L 289.488281 527.960938 L 289.054688 533.03125 C 287.078125 556.742188 292 577.617188 303.71875 595.054688 Z M 331.039062 478.472656 C 333.308594 485.75 338.476562 492.285156 343.488281 498.617188 C 346.730469 502.722656 350.074219 506.96875 352.582031 511.355469 C 352.804688 511.742188 353.007812 512.132812 353.210938 512.515625 L 353.226562 512.480469 C 372.945312 517.949219 393.914062 507.675781 402.074219 488.585938 C 404.882812 475.085938 405.546875 466.40625 392.179688 459.953125 C 382.699219 455.386719 369.640625 447.472656 365.8125 431.679688 C 363.410156 421.742188 365.855469 408.277344 368.019531 396.402344 C 368.589844 393.3125 369.117188 390.402344 369.519531 387.757812 C 371.101562 377.378906 371.996094 363.859375 368.554688 353.835938 C 363.96875 358.59375 355.472656 361.839844 346.566406 361.839844 C 346.039062 361.839844 345.515625 361.832031 345.007812 361.8125 C 332.511719 361.273438 323.464844 354.601562 319.625 343.359375 C 318.039062 344.816406 316.457031 346.5 314.914062 348.488281 L 310.863281 345.339844 C 321.320312 331.855469 333.46875 329.535156 341.804688 329.960938 C 353.230469 330.550781 365.007812 337.03125 370.433594 345.746094 C 377.527344 357.140625 376.609375 375.296875 374.589844 388.523438 C 374.179688 391.246094 373.644531 394.195312 373.066406 397.324219 C 371 408.699219 368.648438 421.585938 370.800781 430.464844 C 371.949219 435.214844 374.160156 439.441406 377.484375 443.25 C 381.144531 438.5 385.820312 436.015625 390.875 434.734375 C 395.925781 433.445312 401.355469 433.335938 406.546875 433.328125 C 406.890625 433.328125 407.246094 433.328125 407.589844 433.328125 C 407.683594 433.328125 407.773438 433.328125 407.882812 433.328125 C 418.25 433.347656 429.613281 433.75 436.941406 443.25 C 440.265625 439.441406 442.457031 435.214844 443.621094 430.464844 C 445.765625 421.585938 443.414062 408.699219 441.347656 397.324219 C 440.78125 394.195312 440.246094 391.246094 439.824219 388.523438 C 437.816406 375.296875 436.886719 357.140625 443.980469 345.746094 C 449.40625 337.046875 461.183594 330.550781 472.609375 329.960938 C 480.957031 329.535156 493.097656 331.855469 503.550781 345.339844 L 499.5 348.488281 C 497.957031 346.5 496.390625 344.816406 494.796875 343.359375 C 490.949219 354.601562 481.902344 361.273438 469.421875 361.8125 C 468.898438 361.832031 468.375 361.839844 467.859375 361.839844 C 458.957031 361.839844 450.460938 358.59375 445.859375 353.835938 C 442.425781 363.859375 443.3125 377.378906 444.902344 387.757812 C 445.308594 390.402344 445.839844 393.3125 446.394531 396.402344 C 448.558594 408.277344 451.007812 421.742188 448.601562 431.679688 C 444.773438 447.472656 431.730469 455.386719 422.25 459.953125 C 408.867188 466.40625 409.546875 475.085938 412.339844 488.585938 C 420.511719 507.675781 441.46875 517.949219 461.203125 512.480469 L 461.203125 512.515625 C 461.40625 512.132812 461.625 511.742188 461.839844 511.355469 C 464.34375 506.96875 467.699219 502.722656 470.941406 498.617188 C 475.9375 492.296875 481.105469 485.75 483.386719 478.472656 C 484.648438 474.421875 485.613281 470.734375 486.550781 467.171875 C 489.183594 457.128906 491.464844 448.433594 498.96875 437.480469 C 499.859375 436.179688 500.773438 434.875 501.683594 433.550781 C 508.75 423.40625 516.042969 412.90625 517.828125 401.511719 C 522.925781 369.09375 515.140625 343.039062 490.941406 311.578125 C 469.558594 283.765625 429.347656 270.808594 408.90625 270.808594 C 408.546875 270.808594 408.1875 270.824219 407.839844 270.835938 L 406.648438 270.835938 C 406.238281 270.824219 405.878906 270.808594 405.519531 270.808594 C 385.078125 270.808594 344.871094 283.765625 323.488281 311.578125 C 299.285156 343.039062 291.496094 369.09375 296.585938 401.511719 C 298.382812 412.90625 305.679688 423.40625 312.738281 433.550781 C 313.652344 434.875 314.570312 436.179688 315.457031 437.480469 C 322.949219 448.433594 325.230469 457.128906 327.863281 467.171875 C 328.800781 470.734375 329.777344 474.421875 331.039062 478.472656 Z M 381.15625 446.910156 C 384.6875 449.960938 389.070312 452.757812 394.40625 455.332031 C 401.433594 458.71875 405.304688 462.871094 407.210938 467.609375 C 409.125 462.871094 412.992188 458.71875 420.015625 455.332031 C 425.355469 452.757812 429.742188 449.960938 433.269531 446.910156 C 427.359375 438.738281 417.785156 438.472656 407.582031 438.457031 C 397.105469 438.457031 387.203125 438.539062 381.15625 446.910156 Z M 335.898438 567.546875 C 334.367188 587.445312 345.765625 618.214844 374.5625 642.683594 C 388.25 646.957031 399.597656 648.898438 404.644531 649.632812 L 404.644531 550.871094 C 391.976562 550.769531 377.453125 549.921875 372.078125 547.757812 C 363.527344 544.316406 359.257812 539.214844 356.433594 533.640625 C 343.894531 542.035156 336.992188 553.429688 335.898438 567.546875 Z M 310.003906 270.101562 C 316.695312 264.078125 325.496094 261.21875 334.773438 262.039062 C 344.402344 262.902344 354.25 267.671875 363.371094 275.890625 C 370.238281 272.914062 377.066406 270.597656 383.464844 268.9375 C 367.46875 246.011719 343.589844 235.070312 315.832031 238.105469 C 293.402344 240.546875 269.574219 252.003906 248.726562 270.339844 C 229.460938 287.292969 213.90625 308.820312 203.273438 333.117188 C 217.898438 319.769531 235.664062 312.703125 236.613281 312.335938 L 251.925781 306.34375 L 239.171875 316.714844 C 238.941406 316.890625 216.941406 334.996094 204.238281 365.144531 C 196.820312 382.746094 193.957031 400.984375 195.753906 419.328125 C 197.550781 437.734375 204.066406 456.328125 215.128906 474.800781 C 206.171875 423.535156 217.539062 379.625 247.09375 352.980469 C 264.34375 337.445312 286.222656 330.355469 302.171875 334.996094 C 303.902344 331.65625 305.835938 328.292969 307.945312 324.890625 C 301.429688 315.472656 298.199219 305.347656 298.585938 295.402344 C 298.980469 285.367188 303.03125 276.386719 310.003906 270.101562 Z M 544.320312 473.546875 C 557.1875 497.929688 562.199219 529.488281 558.472656 556.980469 C 581.605469 494.082031 569.742188 445.089844 561.449219 432.90625 L 556.644531 425.835938 L 564.550781 429.101562 C 575.4375 433.574219 591.726562 444.371094 594.996094 469.289062 C 602.203125 421.8125 591.222656 381.417969 563.894531 356.800781 C 548.246094 342.691406 528.753906 336.027344 514.550781 339.6875 C 524.039062 359.984375 526.46875 379.640625 522.898438 402.3125 C 520.921875 414.867188 513.296875 425.855469 505.90625 436.476562 C 505.679688 436.808594 505.464844 437.113281 505.238281 437.441406 C 520.96875 442.402344 534.421875 454.808594 544.320312 473.546875 Z M 506.292969 270.101562 C 519.078125 281.621094 523.359375 304.429688 507.351562 326.304688 C 509.121094 329.226562 510.757812 332.121094 512.242188 334.996094 C 528.191406 330.355469 550.082031 337.445312 567.328125 352.980469 C 596.890625 379.625 608.257812 423.535156 599.296875 474.800781 C 610.359375 456.328125 616.867188 437.734375 618.660156 419.328125 C 620.457031 400.984375 617.609375 382.746094 610.183594 365.144531 C 597.472656 334.996094 575.476562 316.890625 575.253906 316.714844 L 562.488281 306.34375 L 577.804688 312.335938 C 578.785156 312.714844 597.398438 320.128906 612.207031 334.121094 C 601.585938 309.371094 585.820312 287.429688 566.203125 270.226562 C 545.328125 251.929688 521.453125 240.5 498.957031 238.035156 C 471.023438 234.988281 447.003906 245.949219 430.957031 268.9375 C 437.75 270.699219 445.03125 273.203125 452.3125 276.457031 C 461.609375 267.898438 471.679688 262.921875 481.527344 262.039062 C 490.804688 261.226562 499.601562 264.078125 506.292969 270.101562 Z M 529.269531 530.628906 C 541.226562 538.003906 549.046875 551.191406 551.414062 566.941406 C 558.003906 538.515625 553.660156 502.234375 539.773438 475.949219 C 533.0625 463.222656 521.140625 447.171875 502.207031 441.886719 C 496.011719 451.378906 494 458.980469 491.515625 468.476562 C 490.5625 472.101562 489.582031 475.832031 488.28125 480 C 485.730469 488.179688 480.257812 495.105469 474.957031 501.796875 C 471.703125 505.929688 468.613281 509.847656 466.292969 513.898438 C 464.1875 517.589844 462.824219 521.378906 461.507812 525.042969 C 461.046875 526.320312 460.578125 527.609375 460.082031 528.890625 C 474.285156 538.148438 482.421875 551.328125 483.632812 567.160156 C 484.65625 580.488281 480.828125 595.535156 472.5625 610.65625 C 467.160156 620.523438 459.988281 630.113281 451.808594 638.515625 C 457.714844 636.226562 463.796875 633.527344 469.828125 630.316406 C 487.59375 620.875 501.359375 608.992188 510.738281 594.992188 C 522.421875 577.5625 527.347656 556.714844 525.359375 533.03125 L 524.941406 527.960938 Z M 313.429688 273.925781 C 299.90625 286.09375 301.871094 305.46875 310.992188 320.160156 C 313.550781 316.328125 316.355469 312.425781 319.421875 308.449219 C 329.566406 295.246094 343.769531 285.25 358.261719 278.242188 C 339.476562 262.332031 322.542969 265.71875 313.429688 273.925781 Z M 357.738281 523.296875 C 360.839844 531.898438 363.28125 538.683594 373.984375 542.992188 C 378.097656 544.640625 391.453125 545.753906 407.210938 545.753906 C 422.976562 545.753906 436.324219 544.640625 440.429688 542.992188 C 451.144531 538.683594 453.589844 531.898438 456.675781 523.296875 C 457.273438 521.667969 457.863281 520.007812 458.542969 518.324219 C 455.839844 518.8125 453.148438 519.085938 450.464844 519.085938 C 432.21875 519.085938 414.980469 508.0625 407.523438 490.347656 L 407.378906 489.875 C 407.3125 489.609375 407.265625 489.351562 407.210938 489.085938 C 407.148438 489.351562 407.101562 489.609375 407.046875 489.875 L 406.90625 490.347656 C 399.445312 508.0625 382.203125 519.085938 363.960938 519.085938 C 361.28125 519.085938 358.574219 518.8125 355.878906 518.324219 C 356.550781 520.007812 357.152344 521.667969 357.738281 523.296875 Z M 345.21875 356.679688 C 354.832031 357.101562 363.546875 352.960938 366.152344 348.605469 C 366.125 348.5625 366.105469 348.507812 366.085938 348.46875 C 362.324219 342.433594 353.042969 335.667969 341.546875 335.085938 C 336.714844 334.828125 330.363281 335.703125 323.929688 339.953125 C 327.695312 353.824219 338.785156 356.402344 345.21875 356.679688 Z M 309.1875 437.441406 C 308.964844 437.128906 308.746094 436.808594 308.523438 436.492188 C 301.132812 425.855469 293.496094 414.867188 291.515625 402.3125 C 287.960938 379.640625 290.375 359.984375 299.871094 339.6875 C 285.660156 336.027344 266.183594 342.691406 250.535156 356.800781 C 223.203125 381.417969 212.222656 421.8125 219.417969 469.289062 C 222.6875 444.371094 238.976562 433.574219 249.867188 429.101562 L 257.773438 425.835938 L 252.964844 432.90625 C 244.527344 445.3125 232.367188 495.941406 257.292969 560.5625 C 252.78125 531.898438 257.664062 497.929688 270.914062 472.839844 C 280.609375 454.480469 293.78125 442.328125 309.1875 437.441406 Z M 448.261719 348.605469 C 450.867188 352.960938 459.609375 357.101562 469.195312 356.679688 C 475.636719 356.402344 486.734375 353.824219 490.484375 339.964844 C 484.066406 335.703125 477.714844 334.839844 472.882812 335.085938 C 461.378906 335.667969 452.09375 342.433594 448.34375 348.46875 C 448.308594 348.507812 448.289062 348.5625 448.261719 348.605469 Z M 457.363281 278.832031 C 471.4375 285.792969 485.132812 295.605469 495.003906 308.449219 C 498.453125 312.925781 501.5625 317.304688 504.371094 321.601562 C 514.277344 306.765625 516.84375 286.492188 502.863281 273.925781 C 493.648438 265.632812 476.417969 262.265625 457.363281 278.832031 " fill-opacity="1" fill-rule="nonzero"/><path fill="#bab195" d="M 408.148438 293.769531 C 396.085938 293.769531 386.273438 303.582031 386.273438 315.640625 C 386.273438 327.695312 396.085938 337.507812 408.148438 337.507812 C 420.207031 337.507812 430.019531 327.695312 430.019531 315.640625 C 430.019531 303.582031 420.207031 293.769531 408.148438 293.769531 Z M 408.148438 342.640625 C 393.257812 342.640625 381.144531 330.523438 381.144531 315.640625 C 381.144531 300.75 393.257812 288.636719 408.148438 288.636719 C 423.035156 288.636719 435.148438 300.75 435.148438 315.640625 C 435.148438 330.523438 423.035156 342.640625 408.148438 342.640625 " fill-opacity="1" fill-rule="nonzero"/><path fill="#bab195" d="M 412.570312 315.640625 C 412.570312 318.085938 410.589844 320.066406 408.148438 320.066406 C 405.703125 320.066406 403.722656 318.085938 403.722656 315.640625 C 403.722656 313.191406 405.703125 311.210938 408.148438 311.210938 C 410.589844 311.210938 412.570312 313.191406 412.570312 315.640625 " fill-opacity="1" fill-rule="nonzero"/><path fill="#bab195" d="M 415.652344 373.449219 C 415.652344 378.011719 411.960938 381.703125 407.402344 381.703125 C 402.839844 381.703125 399.148438 378.011719 399.148438 373.449219 C 399.148438 368.890625 402.839844 365.199219 407.402344 365.199219 C 411.960938 365.199219 415.652344 368.890625 415.652344 373.449219 " fill-opacity="1" fill-rule="nonzero"/><path fill="#bab195" d="M 413.9375 400.765625 C 413.9375 404.246094 411.113281 407.070312 407.632812 407.070312 C 404.144531 407.070312 401.320312 404.246094 401.320312 400.765625 C 401.320312 397.277344 404.144531 394.453125 407.632812 394.453125 C 411.113281 394.453125 413.9375 397.277344 413.9375 400.765625 " fill-opacity="1" fill-rule="nonzero"/><path fill="#bab195" d="M 411.425781 422.707031 C 411.425781 424.804688 409.726562 426.5 407.636719 426.5 C 405.539062 426.5 403.84375 424.804688 403.84375 422.707031 C 403.84375 420.617188 405.539062 418.921875 407.636719 418.921875 C 409.726562 418.921875 411.425781 420.617188 411.425781 422.707031 " fill-opacity="1" fill-rule="nonzero"/><path fill="#bab195" d="M 307.253906 370.273438 C 306.054688 370.273438 305.074219 369.304688 305.074219 368.101562 C 305.074219 366.902344 306.054688 365.921875 307.253906 365.921875 C 308.457031 365.921875 309.433594 366.902344 309.433594 368.101562 C 309.433594 369.304688 308.457031 370.273438 307.253906 370.273438 " fill-opacity="1" fill-rule="nonzero"/><path fill="#bab195" d="M 311.265625 385.597656 C 309.207031 385.597656 307.546875 383.929688 307.546875 381.871094 C 307.546875 379.816406 309.207031 378.152344 311.265625 378.152344 C 313.320312 378.152344 314.992188 379.816406 314.992188 381.871094 C 314.992188 383.929688 313.320312 385.597656 311.265625 385.597656 " fill-opacity="1" fill-rule="nonzero"/><path fill="#bab195" d="M 317.5 399.632812 C 314.835938 399.632812 312.675781 397.46875 312.675781 394.800781 C 312.675781 392.132812 314.835938 389.976562 317.5 389.976562 C 320.167969 389.976562 322.332031 392.132812 322.332031 394.800781 C 322.332031 397.46875 320.167969 399.632812 317.5 399.632812 " fill-opacity="1" fill-rule="nonzero"/><path fill="#bab195" d="M 325.3125 412.4375 C 322.230469 412.4375 319.734375 409.933594 319.734375 406.855469 C 319.734375 403.765625 322.230469 401.269531 325.3125 401.269531 C 328.398438 401.269531 330.898438 403.765625 330.898438 406.855469 C 330.898438 409.933594 328.398438 412.4375 325.3125 412.4375 " fill-opacity="1" fill-rule="nonzero"/><path fill="#bab195" d="M 334.285156 424.070312 C 330.972656 424.070312 328.285156 421.382812 328.285156 418.070312 C 328.285156 414.761719 330.972656 412.074219 334.285156 412.074219 C 337.597656 412.074219 340.285156 414.761719 340.285156 418.070312 C 340.285156 421.382812 337.597656 424.070312 334.285156 424.070312 " fill-opacity="1" fill-rule="nonzero"/><path fill="#bab195" d="M 343.875 434.921875 C 340.472656 434.921875 337.71875 432.160156 337.71875 428.761719 C 337.71875 425.359375 340.472656 422.605469 343.875 422.605469 C 347.273438 422.605469 350.027344 425.359375 350.027344 428.761719 C 350.027344 432.160156 347.273438 434.921875 343.875 434.921875 " fill-opacity="1" fill-rule="nonzero"/><path fill="#bab195" d="M 351.496094 446.910156 C 348.183594 446.910156 345.5 444.226562 345.5 440.914062 C 345.5 437.605469 348.183594 434.917969 351.496094 434.917969 C 354.804688 434.917969 357.492188 437.605469 357.492188 440.914062 C 357.492188 444.226562 354.804688 446.910156 351.496094 446.910156 " fill-opacity="1" fill-rule="nonzero"/><path fill="#bab195" d="M 356.625 459.871094 C 353.558594 459.871094 351.066406 457.386719 351.066406 454.3125 C 351.066406 451.246094 353.558594 448.761719 356.625 448.761719 C 359.691406 448.761719 362.183594 451.246094 362.183594 454.3125 C 362.183594 457.386719 359.691406 459.871094 356.625 459.871094 " fill-opacity="1" fill-rule="nonzero"/><path fill="#bab195" d="M 359.671875 473.113281 C 357.039062 473.113281 354.90625 470.980469 354.90625 468.347656 C 354.90625 465.714844 357.039062 463.582031 359.671875 463.582031 C 362.304688 463.582031 364.441406 465.714844 364.441406 468.347656 C 364.441406 470.980469 362.304688 473.113281 359.671875 473.113281 " fill-opacity="1" fill-rule="nonzero"/><path fill="#bab195" d="M 361.179688 486.214844 C 359.195312 486.214844 357.589844 484.613281 357.589844 482.632812 C 357.589844 480.644531 359.195312 479.042969 361.179688 479.042969 C 363.160156 479.042969 364.769531 480.644531 364.769531 482.632812 C 364.769531 484.613281 363.160156 486.214844 361.179688 486.214844 " fill-opacity="1" fill-rule="nonzero"/><path fill="#bab195" d="M 361.667969 498.933594 C 360.589844 498.933594 359.71875 498.066406 359.71875 496.988281 C 359.71875 495.914062 360.589844 495.046875 361.667969 495.046875 C 362.738281 495.046875 363.609375 495.914062 363.609375 496.988281 C 363.609375 498.066406 362.738281 498.933594 361.667969 498.933594 " fill-opacity="1" fill-rule="nonzero"/><path fill="#bab195" d="M 359.386719 339.035156 C 354.066406 335.484375 348.316406 333.890625 342.007812 333.257812 C 341.023438 333.15625 340.316406 332.714844 339.847656 332.113281 C 337.234375 332.222656 334.664062 332.535156 332.308594 333 C 331.542969 334.269531 331 335.6875 330.742188 337.214844 C 329.5 344.519531 335.058594 351.554688 343.152344 352.933594 C 351.25 354.3125 358.824219 349.507812 360.066406 342.203125 C 360.222656 341.269531 360.261719 340.339844 360.207031 339.429688 C 359.929688 339.332031 359.660156 339.210938 359.386719 339.035156 " fill-opacity="1" fill-rule="nonzero"/><path fill="#bab195" d="M 507.167969 370.273438 C 505.964844 370.273438 504.988281 369.304688 504.988281 368.101562 C 504.988281 366.902344 505.964844 365.921875 507.167969 365.921875 C 508.367188 365.921875 509.34375 366.902344 509.34375 368.101562 C 509.34375 369.304688 508.367188 370.273438 507.167969 370.273438 " fill-opacity="1" fill-rule="nonzero"/><path fill="#bab195" d="M 503.15625 385.597656 C 501.101562 385.597656 499.429688 383.929688 499.429688 381.871094 C 499.429688 379.816406 501.101562 378.152344 503.15625 378.152344 C 505.210938 378.152344 506.875 379.816406 506.875 381.871094 C 506.875 383.929688 505.210938 385.597656 503.15625 385.597656 " fill-opacity="1" fill-rule="nonzero"/><path fill="#bab195" d="M 496.917969 399.632812 C 494.253906 399.632812 492.085938 397.46875 492.085938 394.800781 C 492.085938 392.132812 494.253906 389.976562 496.917969 389.976562 C 499.578125 389.976562 501.746094 392.132812 501.746094 394.800781 C 501.746094 397.46875 499.578125 399.632812 496.917969 399.632812 " fill-opacity="1" fill-rule="nonzero"/><path fill="#bab195" d="M 489.109375 412.4375 C 486.019531 412.4375 483.523438 409.933594 483.523438 406.855469 C 483.523438 403.765625 486.019531 401.269531 489.109375 401.269531 C 492.1875 401.269531 494.6875 403.765625 494.6875 406.855469 C 494.6875 409.933594 492.1875 412.4375 489.109375 412.4375 " fill-opacity="1" fill-rule="nonzero"/><path fill="#bab195" d="M 480.136719 424.070312 C 476.824219 424.070312 474.136719 421.382812 474.136719 418.070312 C 474.136719 414.761719 476.824219 412.074219 480.136719 412.074219 C 483.449219 412.074219 486.136719 414.761719 486.136719 418.070312 C 486.136719 421.382812 483.449219 424.070312 480.136719 424.070312 " fill-opacity="1" fill-rule="nonzero"/><path fill="#bab195" d="M 470.546875 434.921875 C 467.148438 434.921875 464.386719 432.160156 464.386719 428.761719 C 464.386719 425.359375 467.148438 422.605469 470.546875 422.605469 C 473.949219 422.605469 476.703125 425.359375 476.703125 428.761719 C 476.703125 432.160156 473.949219 434.921875 470.546875 434.921875 " fill-opacity="1" fill-rule="nonzero"/><path fill="#bab195" d="M 462.925781 446.910156 C 459.613281 446.910156 456.925781 444.226562 456.925781 440.914062 C 456.925781 437.605469 459.613281 434.917969 462.925781 434.917969 C 466.238281 434.917969 468.917969 437.605469 468.917969 440.914062 C 468.917969 444.226562 466.238281 446.910156 462.925781 446.910156 " fill-opacity="1" fill-rule="nonzero"/><path fill="#bab195" d="M 457.796875 459.871094 C 454.730469 459.871094 452.238281 457.386719 452.238281 454.3125 C 452.238281 451.246094 454.730469 448.761719 457.796875 448.761719 C 460.863281 448.761719 463.355469 451.246094 463.355469 454.3125 C 463.355469 457.386719 460.863281 459.871094 457.796875 459.871094 " fill-opacity="1" fill-rule="nonzero"/><path fill="#bab195" d="M 454.75 473.113281 C 452.117188 473.113281 449.976562 470.980469 449.976562 468.347656 C 449.976562 465.714844 452.117188 463.582031 454.75 463.582031 C 457.375 463.582031 459.511719 465.714844 459.511719 468.347656 C 459.511719 470.980469 457.375 473.113281 454.75 473.113281 " fill-opacity="1" fill-rule="nonzero"/><path fill="#bab195" d="M 453.242188 486.214844 C 451.261719 486.214844 449.652344 484.613281 449.652344 482.632812 C 449.652344 480.644531 451.261719 479.042969 453.242188 479.042969 C 455.222656 479.042969 456.832031 480.644531 456.832031 482.632812 C 456.832031 484.613281 455.222656 486.214844 453.242188 486.214844 " fill-opacity="1" fill-rule="nonzero"/><path fill="#bab195" d="M 452.753906 498.933594 C 451.679688 498.933594 450.8125 498.066406 450.8125 496.988281 C 450.8125 495.914062 451.679688 495.046875 452.753906 495.046875 C 453.824219 495.046875 454.703125 495.914062 454.703125 496.988281 C 454.703125 498.066406 453.824219 498.933594 452.753906 498.933594 " fill-opacity="1" fill-rule="nonzero"/><path fill="#bab195" d="M 455.035156 339.035156 C 460.355469 335.484375 466.101562 333.890625 472.414062 333.257812 C 473.398438 333.15625 474.105469 332.714844 474.570312 332.113281 C 477.183594 332.222656 479.757812 332.535156 482.113281 333 C 482.878906 334.269531 483.421875 335.6875 483.679688 337.214844 C 484.921875 344.519531 479.363281 351.554688 471.265625 352.933594 C 463.171875 354.3125 455.597656 349.507812 454.355469 342.203125 C 454.199219 341.269531 454.160156 340.339844 454.210938 339.429688 C 454.484375 339.332031 454.761719 339.210938 455.035156 339.035156 " fill-opacity="1" fill-rule="nonzero"/></svg>