<svg xmlns="http://www.w3.org/2000/svg" xmlns:xlink="http://www.w3.org/1999/xlink" width="1080" zoomAndPan="magnify" viewBox="0 0 810 809.999993" height="1080" preserveAspectRatio="xMidYMid meet" version="1.0"><defs><clipPath id="4526da5185"><path d="M 371.335938 661.5 L 442 661.5 L 442 729 L 371.335938 729 Z M 371.335938 661.5 " clip-rule="nonzero"/></clipPath><clipPath id="b916c5dfc7"><path d="M 373 81 L 445 81 L 445 149 L 373 149 Z M 373 81 " clip-rule="nonzero"/></clipPath><clipPath id="2bb1df626e"><path d="M 94 249 L 718.828125 249 L 718.828125 652 L 94 652 Z M 94 249 " clip-rule="nonzero"/></clipPath><clipPath id="4c05ed2f4c"><path d="M 654 445.5 L 718 445.5 L 718 509.625 L 654 509.625 Z M 654 445.5 " clip-rule="nonzero"/></clipPath><clipPath id="5ba12bdd4a"><path d="M 91.125 445 L 155 445 L 155 510 L 91.125 510 Z M 91.125 445 " clip-rule="nonzero"/></clipPath></defs><rect x="-81" width="972" fill="#ffffff" y="-80.999999" height="971.999992" fill-opacity="1"/><rect x="-81" width="972" fill="#ffffff" y="-80.999999" height="971.999992" fill-opacity="1"/><rect x="-81" width="972" fill="#11091a" y="-80.999999" height="971.999992" fill-opacity="1"/><g clip-path="url(#4526da5185)"><path fill="#bab195" d="M 394.644531 715.550781 L 406.648438 706.832031 L 418.648438 715.550781 L 414.070312 701.445312 L 426.074219 692.710938 L 411.226562 692.710938 L 406.648438 678.605469 L 402.066406 692.710938 L 387.21875 692.710938 L 399.222656 701.445312 Z M 398.308594 687.550781 L 406.648438 661.902344 L 414.984375 687.550781 L 441.957031 687.550781 L 420.140625 703.417969 L 428.464844 729.066406 L 406.648438 713.210938 L 384.828125 729.066406 L 393.152344 703.417969 L 371.335938 687.550781 L 398.308594 687.550781 " fill-opacity="1" fill-rule="nonzero"/></g><g clip-path="url(#b916c5dfc7)"><path fill="#bab195" d="M 396.988281 134.644531 L 409 125.921875 L 421.003906 134.644531 L 416.421875 120.53125 L 428.417969 111.804688 L 413.582031 111.804688 L 409 97.691406 L 404.410156 111.804688 L 389.574219 111.804688 L 401.578125 120.53125 Z M 400.65625 106.640625 L 409 80.992188 L 417.339844 106.640625 L 444.304688 106.640625 L 422.488281 122.507812 L 430.820312 148.15625 L 409 132.304688 L 387.175781 148.15625 L 395.507812 122.507812 L 373.6875 106.640625 L 400.65625 106.640625 " fill-opacity="1" fill-rule="nonzero"/></g><path fill="#bab195" d="M 598.527344 525.875 L 561.882812 362.207031 L 525.238281 525.875 Z M 626.417969 543.730469 L 497.351562 543.730469 C 504.3125 572.914062 530.597656 594.671875 561.882812 594.671875 C 593.167969 594.671875 619.457031 572.914062 626.417969 543.730469 Z M 628.175781 530.785156 L 495.589844 530.785156 C 495.6875 533.511719 495.972656 536.175781 496.378906 538.8125 L 627.386719 538.8125 C 627.808594 536.175781 628.085938 533.511719 628.175781 530.785156 Z M 633.148438 525.875 L 633.148438 528.332031 C 633.148438 567.621094 601.183594 599.589844 561.882812 599.589844 C 522.597656 599.589844 490.621094 567.621094 490.621094 528.332031 L 490.621094 525.875 L 520.203125 525.875 L 560.605469 345.4375 L 563.308594 346.050781 L 603.5625 525.875 L 633.148438 525.875 " fill-opacity="1" fill-rule="nonzero"/><path fill="#bab195" d="M 404.390625 236.183594 L 404.390625 192.757812 L 392.804688 214.492188 Z M 420.890625 214.429688 L 409.308594 192.699219 L 409.308594 236.21875 Z M 406.859375 177.65625 L 426.453125 214.429688 L 407.953125 249.234375 L 405.78125 249.234375 L 387.214844 214.472656 L 387.851562 213.3125 L 406.859375 177.65625 " fill-opacity="1" fill-rule="nonzero"/><path fill="#bab195" d="M 288.449219 525.875 L 251.8125 362.207031 L 215.167969 525.875 Z M 316.34375 543.730469 L 187.265625 543.730469 C 194.226562 572.914062 220.527344 594.671875 251.8125 594.671875 C 283.082031 594.671875 309.382812 572.914062 316.34375 543.730469 Z M 318.105469 530.785156 L 185.503906 530.785156 C 185.605469 533.511719 185.886719 536.175781 186.308594 538.8125 L 317.300781 538.8125 C 317.722656 536.175781 318.007812 533.511719 318.105469 530.785156 Z M 323.0625 525.875 L 323.0625 528.332031 C 323.0625 567.621094 291.097656 599.589844 251.8125 599.589844 C 212.511719 599.589844 180.546875 567.621094 180.546875 528.332031 L 180.546875 525.875 L 210.117188 525.875 L 250.472656 345.675781 L 253.019531 345.105469 L 293.492188 525.875 L 323.0625 525.875 " fill-opacity="1" fill-rule="nonzero"/><g clip-path="url(#2bb1df626e)"><path fill="#bab195" d="M 461.292969 423.667969 C 461.292969 393.722656 436.929688 369.359375 406.984375 369.359375 C 377.035156 369.359375 352.679688 393.722656 352.679688 423.667969 C 352.679688 453.613281 377.035156 477.972656 406.984375 477.972656 C 436.929688 477.972656 461.292969 453.613281 461.292969 423.667969 Z M 521.304688 644.867188 L 521.304688 640.90625 C 520.558594 640.269531 517.644531 639.207031 513.191406 639.207031 L 302.804688 639.207031 C 298.351562 639.207031 295.4375 640.269531 294.691406 640.90625 L 294.691406 644.867188 C 295.4375 645.519531 298.351562 646.570312 302.804688 646.570312 L 513.191406 646.570312 C 517.644531 646.570312 520.558594 645.519531 521.304688 644.867188 Z M 713.902344 388.613281 C 713.902344 383.648438 709.828125 380.175781 706.171875 380.175781 C 704.871094 380.175781 703.753906 380.597656 702.835938 381.449219 C 695.058594 388.605469 687.179688 392.085938 678.769531 392.085938 C 660.292969 392.085938 641.289062 374.914062 617.242188 353.167969 C 573.414062 313.539062 513.367188 259.269531 406.652344 254.234375 C 299.925781 259.269531 239.894531 313.546875 196.046875 353.167969 C 172.003906 374.914062 153.007812 392.085938 134.53125 392.085938 C 126.121094 392.085938 118.242188 388.605469 110.457031 381.449219 C 109.542969 380.597656 108.421875 380.175781 107.121094 380.175781 C 103.46875 380.175781 99.390625 383.648438 99.390625 388.613281 C 99.390625 400.78125 112.402344 413.878906 140.949219 413.878906 C 145.886719 413.878906 150.5625 413.390625 154.464844 412.457031 C 171.847656 408.320312 189.125 392.753906 211.007812 373.054688 C 251.8125 336.300781 307.585938 286.078125 404.082031 279.941406 L 409.21875 279.941406 C 505.714844 286.078125 561.480469 336.300781 602.292969 373.054688 C 624.167969 392.753906 641.445312 408.320312 658.824219 412.457031 C 662.730469 413.390625 667.398438 413.878906 672.335938 413.878906 C 700.898438 413.878906 713.902344 400.78125 713.902344 388.613281 Z M 250.472656 345.675781 C 237.019531 356.242188 225.121094 366.957031 214.292969 376.707031 C 191.898438 396.878906 174.207031 412.8125 155.605469 417.246094 C 151.339844 418.257812 146.277344 418.796875 140.949219 418.796875 C 117.820312 418.796875 94.472656 409.460938 94.472656 388.613281 C 94.472656 380.628906 101.011719 375.257812 107.121094 375.257812 C 109.660156 375.257812 111.960938 376.140625 113.792969 377.828125 C 120.621094 384.125 127.410156 387.167969 134.53125 387.167969 C 151.109375 387.167969 169.492188 370.558594 192.757812 349.53125 C 214.105469 330.222656 240.679688 306.195312 275.121094 286.675781 C 315.066406 264.042969 357.558594 251.832031 404.972656 249.394531 L 404.972656 249.234375 L 408.320312 249.234375 L 408.335938 249.394531 C 455.734375 251.832031 498.21875 264.042969 538.171875 286.675781 C 572.613281 306.195312 599.1875 330.222656 620.539062 349.53125 C 643.804688 370.558594 662.175781 387.167969 678.769531 387.167969 C 685.886719 387.167969 692.679688 384.125 699.511719 377.828125 C 701.332031 376.140625 703.632812 375.257812 706.171875 375.257812 C 712.273438 375.257812 718.8125 380.628906 718.8125 388.613281 C 718.8125 409.460938 695.480469 418.796875 672.335938 418.796875 C 667.027344 418.796875 661.960938 418.257812 657.695312 417.246094 C 639.101562 412.8125 621.402344 396.878906 599 376.707031 C 588.296875 367.078125 576.558594 356.496094 563.308594 346.050781 L 560.605469 345.4375 L 560.886719 344.164062 C 524.640625 316.023438 477.179688 289.300781 409.308594 284.878906 L 409.308594 364.5 C 440.882812 365.734375 466.210938 391.789062 466.210938 423.667969 C 466.210938 455.550781 440.882812 481.609375 409.308594 482.828125 L 409.308594 634.289062 L 513.191406 634.289062 C 519.683594 634.289062 526.222656 636.226562 526.222656 640.5625 L 526.222656 645.226562 C 526.222656 649.554688 519.683594 651.488281 513.191406 651.488281 L 302.804688 651.488281 C 296.3125 651.488281 289.773438 649.554688 289.773438 645.226562 L 289.773438 640.5625 C 289.773438 636.226562 296.3125 634.289062 302.804688 634.289062 L 404.390625 634.289062 L 404.390625 482.828125 C 372.929688 481.464844 347.761719 455.453125 347.761719 423.667969 C 347.761719 391.882812 372.929688 365.878906 404.390625 364.511719 L 404.390625 284.859375 C 336.515625 289.183594 289.027344 315.804688 252.746094 343.894531 L 253.019531 345.105469 L 250.472656 345.675781 " fill-opacity="1" fill-rule="nonzero"/></g><path fill="#bab195" d="M 259.582031 555.492188 C 259.582031 560.171875 255.792969 563.960938 251.113281 563.960938 C 246.433594 563.960938 242.636719 560.171875 242.636719 555.492188 C 242.636719 550.808594 246.433594 547.011719 251.113281 547.011719 C 255.792969 547.011719 259.582031 550.808594 259.582031 555.492188 " fill-opacity="1" fill-rule="nonzero"/><path fill="#bab195" d="M 257.824219 583.53125 C 257.824219 587.105469 254.921875 590.003906 251.351562 590.003906 C 247.769531 590.003906 244.871094 587.105469 244.871094 583.53125 C 244.871094 579.953125 247.769531 577.058594 251.351562 577.058594 C 254.921875 577.058594 257.824219 579.953125 257.824219 583.53125 " fill-opacity="1" fill-rule="nonzero"/><path fill="#bab195" d="M 406.648438 387.414062 C 397.65625 387.414062 390.332031 394.730469 390.332031 403.726562 C 390.332031 412.726562 397.65625 420.042969 406.648438 420.042969 C 415.644531 420.042969 422.960938 412.726562 422.960938 403.726562 C 422.960938 394.730469 415.644531 387.414062 406.648438 387.414062 Z M 406.648438 424.960938 C 394.941406 424.960938 385.414062 415.433594 385.414062 403.726562 C 385.414062 392.019531 394.941406 382.496094 406.648438 382.496094 C 418.355469 382.496094 427.878906 392.019531 427.878906 403.726562 C 427.878906 415.433594 418.355469 424.960938 406.648438 424.960938 " fill-opacity="1" fill-rule="nonzero"/><path fill="#bab195" d="M 409.105469 464.8125 L 404.1875 464.8125 L 404.1875 423.46875 L 409.105469 423.46875 L 409.105469 464.8125 " fill-opacity="1" fill-rule="nonzero"/><path fill="#bab195" d="M 419.039062 438.847656 L 394.261719 438.847656 L 394.261719 433.929688 L 419.039062 433.929688 L 419.039062 438.847656 " fill-opacity="1" fill-rule="nonzero"/><path fill="#bab195" d="M 155.757812 396.910156 C 155.398438 396.910156 155.105469 396.617188 155.105469 396.253906 C 155.105469 395.898438 155.398438 395.601562 155.757812 395.601562 C 156.117188 395.601562 156.414062 395.898438 156.414062 396.253906 C 156.414062 396.617188 156.117188 396.910156 155.757812 396.910156 " fill-opacity="1" fill-rule="nonzero"/><path fill="#bab195" d="M 168.359375 392.015625 C 167.679688 392.015625 167.132812 391.460938 167.132812 390.789062 C 167.132812 390.109375 167.679688 389.554688 168.359375 389.554688 C 169.039062 389.554688 169.585938 390.109375 169.585938 390.789062 C 169.585938 391.460938 169.039062 392.015625 168.359375 392.015625 " fill-opacity="1" fill-rule="nonzero"/><path fill="#bab195" d="M 179.875 385.015625 C 178.898438 385.015625 178.109375 384.230469 178.109375 383.253906 C 178.109375 382.277344 178.898438 381.492188 179.875 381.492188 C 180.84375 381.492188 181.636719 382.277344 181.636719 383.253906 C 181.636719 384.230469 180.84375 385.015625 179.875 385.015625 " fill-opacity="1" fill-rule="nonzero"/><path fill="#bab195" d="M 190.660156 376.925781 C 189.433594 376.925781 188.4375 375.929688 188.4375 374.703125 C 188.4375 373.472656 189.433594 372.476562 190.660156 372.476562 C 191.886719 372.476562 192.882812 373.472656 192.882812 374.703125 C 192.882812 375.929688 191.886719 376.925781 190.660156 376.925781 " fill-opacity="1" fill-rule="nonzero"/><path fill="#bab195" d="M 201.046875 368.328125 C 199.570312 368.328125 198.378906 367.136719 198.378906 365.667969 C 198.378906 364.191406 199.570312 362.996094 201.046875 362.996094 C 202.519531 362.996094 203.710938 364.191406 203.710938 365.667969 C 203.710938 367.136719 202.519531 368.328125 201.046875 368.328125 " fill-opacity="1" fill-rule="nonzero"/><path fill="#bab195" d="M 211.265625 359.515625 C 209.570312 359.515625 208.195312 358.144531 208.195312 356.445312 C 208.195312 354.75 209.570312 353.375 211.265625 353.375 C 212.964844 353.375 214.34375 354.75 214.34375 356.445312 C 214.34375 358.144531 212.964844 359.515625 211.265625 359.515625 " fill-opacity="1" fill-rule="nonzero"/><path fill="#bab195" d="M 221.496094 350.652344 C 219.605469 350.652344 218.074219 349.113281 218.074219 347.230469 C 218.074219 345.335938 219.605469 343.808594 221.496094 343.808594 C 223.382812 343.808594 224.917969 345.335938 224.917969 347.230469 C 224.917969 349.113281 223.382812 350.652344 221.496094 350.652344 " fill-opacity="1" fill-rule="nonzero"/><path fill="#bab195" d="M 231.839844 341.917969 C 229.753906 341.917969 228.074219 340.230469 228.074219 338.144531 C 228.074219 336.070312 229.753906 334.382812 231.839844 334.382812 C 233.921875 334.382812 235.609375 336.070312 235.609375 338.144531 C 235.609375 340.230469 233.921875 341.917969 231.839844 341.917969 " fill-opacity="1" fill-rule="nonzero"/><path fill="#bab195" d="M 242.390625 333.398438 C 240.132812 333.398438 238.296875 331.566406 238.296875 329.304688 C 238.296875 327.046875 240.132812 325.21875 242.390625 325.21875 C 244.652344 325.21875 246.484375 327.046875 246.484375 329.304688 C 246.484375 331.566406 244.652344 333.398438 242.390625 333.398438 " fill-opacity="1" fill-rule="nonzero"/><path fill="#bab195" d="M 253.214844 325.140625 C 250.816406 325.140625 248.871094 323.195312 248.871094 320.796875 C 248.871094 318.398438 250.816406 316.453125 253.214844 316.453125 C 255.609375 316.453125 257.554688 318.398438 257.554688 320.796875 C 257.554688 323.195312 255.609375 325.140625 253.214844 325.140625 " fill-opacity="1" fill-rule="nonzero"/><path fill="#bab195" d="M 264.34375 317.28125 C 261.804688 317.28125 259.75 315.226562 259.75 312.695312 C 259.75 310.15625 261.804688 308.101562 264.34375 308.101562 C 266.878906 308.101562 268.929688 310.15625 268.929688 312.695312 C 268.929688 315.226562 266.878906 317.28125 264.34375 317.28125 " fill-opacity="1" fill-rule="nonzero"/><path fill="#bab195" d="M 275.804688 309.90625 C 273.128906 309.90625 270.960938 307.738281 270.960938 305.0625 C 270.960938 302.390625 273.128906 300.222656 275.804688 300.222656 C 278.476562 300.222656 280.644531 302.390625 280.644531 305.0625 C 280.644531 307.738281 278.476562 309.90625 275.804688 309.90625 " fill-opacity="1" fill-rule="nonzero"/><path fill="#bab195" d="M 287.605469 303.039062 C 284.808594 303.039062 282.550781 300.777344 282.550781 297.980469 C 282.550781 295.1875 284.808594 292.917969 287.605469 292.917969 C 290.398438 292.917969 292.667969 295.1875 292.667969 297.980469 C 292.667969 300.777344 290.398438 303.039062 287.605469 303.039062 " fill-opacity="1" fill-rule="nonzero"/><path fill="#bab195" d="M 299.746094 296.730469 C 296.855469 296.730469 294.511719 294.382812 294.511719 291.496094 C 294.511719 288.601562 296.855469 286.261719 299.746094 286.261719 C 302.640625 286.261719 304.980469 288.601562 304.980469 291.496094 C 304.980469 294.382812 302.640625 296.730469 299.746094 296.730469 " fill-opacity="1" fill-rule="nonzero"/><path fill="#bab195" d="M 312.210938 291.046875 C 309.234375 291.046875 306.8125 288.628906 306.8125 285.648438 C 306.8125 282.667969 309.234375 280.257812 312.210938 280.257812 C 315.191406 280.257812 317.609375 282.667969 317.609375 285.648438 C 317.609375 288.628906 315.191406 291.046875 312.210938 291.046875 " fill-opacity="1" fill-rule="nonzero"/><path fill="#bab195" d="M 324.972656 286.011719 C 321.921875 286.011719 319.449219 283.539062 319.449219 280.488281 C 319.449219 277.4375 321.921875 274.964844 324.972656 274.964844 C 328.027344 274.964844 330.5 277.4375 330.5 280.488281 C 330.5 283.539062 328.027344 286.011719 324.972656 286.011719 " fill-opacity="1" fill-rule="nonzero"/><path fill="#bab195" d="M 338 281.667969 C 334.875 281.667969 332.351562 279.144531 332.351562 276.019531 C 332.351562 272.902344 334.875 270.371094 338 270.371094 C 341.117188 270.371094 343.648438 272.902344 343.648438 276.019531 C 343.648438 279.144531 341.117188 281.667969 338 281.667969 " fill-opacity="1" fill-rule="nonzero"/><path fill="#bab195" d="M 351.242188 277.996094 C 348.085938 277.996094 345.519531 275.433594 345.519531 272.269531 C 345.519531 269.109375 348.085938 266.539062 351.242188 266.539062 C 354.40625 266.539062 356.972656 269.109375 356.972656 272.269531 C 356.972656 275.433594 354.40625 277.996094 351.242188 277.996094 " fill-opacity="1" fill-rule="nonzero"/><path fill="#bab195" d="M 364.671875 275.03125 C 361.464844 275.03125 358.871094 272.433594 358.871094 269.230469 C 358.871094 266.023438 361.464844 263.429688 364.671875 263.429688 C 367.875 263.429688 370.472656 266.023438 370.472656 269.230469 C 370.472656 272.433594 367.875 275.03125 364.671875 275.03125 " fill-opacity="1" fill-rule="nonzero"/><path fill="#bab195" d="M 378.242188 272.734375 C 375.007812 272.734375 372.390625 270.117188 372.390625 266.890625 C 372.390625 263.652344 375.007812 261.035156 378.242188 261.035156 C 381.472656 261.035156 384.089844 263.652344 384.089844 266.890625 C 384.089844 270.117188 381.472656 272.734375 378.242188 272.734375 " fill-opacity="1" fill-rule="nonzero"/><path fill="#bab195" d="M 391.90625 271.101562 C 388.664062 271.101562 386.035156 268.472656 386.035156 265.222656 C 386.035156 261.976562 388.664062 259.347656 391.90625 259.347656 C 395.152344 259.347656 397.78125 261.976562 397.78125 265.222656 C 397.78125 268.472656 395.152344 271.101562 391.90625 271.101562 " fill-opacity="1" fill-rule="nonzero"/><path fill="#bab195" d="M 405.636719 270.113281 C 402.382812 270.113281 399.738281 267.476562 399.738281 264.210938 C 399.738281 260.957031 402.382812 258.3125 405.636719 258.3125 C 408.894531 258.3125 411.539062 260.957031 411.539062 264.210938 C 411.539062 267.476562 408.894531 270.113281 405.636719 270.113281 " fill-opacity="1" fill-rule="nonzero"/><path fill="#bab195" d="M 419.382812 270.910156 C 416.132812 270.910156 413.503906 268.28125 413.503906 265.035156 C 413.503906 261.792969 416.132812 259.15625 419.382812 259.15625 C 422.625 259.15625 425.253906 261.792969 425.253906 265.035156 C 425.253906 268.28125 422.625 270.910156 419.382812 270.910156 " fill-opacity="1" fill-rule="nonzero"/><path fill="#bab195" d="M 433.058594 272.453125 C 429.828125 272.453125 427.207031 269.828125 427.207031 266.597656 C 427.207031 263.367188 429.828125 260.75 433.058594 260.75 C 436.289062 260.75 438.914062 263.367188 438.914062 266.597656 C 438.914062 269.828125 436.289062 272.453125 433.058594 272.453125 " fill-opacity="1" fill-rule="nonzero"/><path fill="#bab195" d="M 446.644531 274.648438 C 443.441406 274.648438 440.84375 272.050781 440.84375 268.839844 C 440.84375 265.636719 443.441406 263.03125 446.644531 263.03125 C 449.855469 263.03125 452.453125 265.636719 452.453125 268.839844 C 452.453125 272.050781 449.855469 274.648438 446.644531 274.648438 " fill-opacity="1" fill-rule="nonzero"/><path fill="#bab195" d="M 460.097656 277.507812 C 456.933594 277.507812 454.371094 274.945312 454.371094 271.78125 C 454.371094 268.617188 456.933594 266.050781 460.097656 266.050781 C 463.261719 266.050781 465.828125 268.617188 465.828125 271.78125 C 465.828125 274.945312 463.261719 277.507812 460.097656 277.507812 " fill-opacity="1" fill-rule="nonzero"/><path fill="#bab195" d="M 473.382812 281.082031 C 470.257812 281.082031 467.726562 278.550781 467.726562 275.433594 C 467.726562 272.308594 470.257812 269.777344 473.382812 269.777344 C 476.5 269.777344 479.03125 272.308594 479.03125 275.433594 C 479.03125 278.550781 476.5 281.082031 473.382812 281.082031 " fill-opacity="1" fill-rule="nonzero"/><path fill="#bab195" d="M 486.441406 285.320312 C 483.386719 285.320312 480.917969 282.839844 480.917969 279.789062 C 480.917969 276.738281 483.386719 274.265625 486.441406 274.265625 C 489.492188 274.265625 491.964844 276.738281 491.964844 279.789062 C 491.964844 282.839844 489.492188 285.320312 486.441406 285.320312 " fill-opacity="1" fill-rule="nonzero"/><path fill="#bab195" d="M 499.242188 290.257812 C 496.261719 290.257812 493.84375 287.835938 493.84375 284.859375 C 493.84375 281.871094 496.261719 279.460938 499.242188 279.460938 C 502.226562 279.460938 504.640625 281.871094 504.640625 284.859375 C 504.640625 287.835938 502.226562 290.257812 499.242188 290.257812 " fill-opacity="1" fill-rule="nonzero"/><path fill="#bab195" d="M 511.757812 295.839844 C 508.867188 295.839844 506.519531 293.5 506.519531 290.605469 C 506.519531 287.710938 508.867188 285.367188 511.757812 285.367188 C 514.648438 285.367188 516.992188 287.710938 516.992188 290.605469 C 516.992188 293.5 514.648438 295.839844 511.757812 295.839844 " fill-opacity="1" fill-rule="nonzero"/><path fill="#bab195" d="M 523.949219 302.0625 C 521.152344 302.0625 518.890625 299.796875 518.890625 297 C 518.890625 294.207031 521.152344 291.945312 523.949219 291.945312 C 526.742188 291.945312 529.011719 294.207031 529.011719 297 C 529.011719 299.796875 526.742188 302.0625 523.949219 302.0625 " fill-opacity="1" fill-rule="nonzero"/><path fill="#bab195" d="M 535.804688 308.84375 C 533.136719 308.84375 530.96875 306.675781 530.96875 304.007812 C 530.96875 301.332031 533.136719 299.164062 535.804688 299.164062 C 538.484375 299.164062 540.644531 301.332031 540.644531 304.007812 C 540.644531 306.675781 538.484375 308.84375 535.804688 308.84375 " fill-opacity="1" fill-rule="nonzero"/><path fill="#bab195" d="M 547.320312 316.148438 C 544.785156 316.148438 542.726562 314.09375 542.726562 311.5625 C 542.726562 309.023438 544.785156 306.96875 547.320312 306.96875 C 549.851562 306.96875 551.910156 309.023438 551.910156 311.5625 C 551.910156 314.09375 549.851562 316.148438 547.320312 316.148438 " fill-opacity="1" fill-rule="nonzero"/><path fill="#bab195" d="M 558.496094 323.933594 C 556.101562 323.933594 554.15625 321.996094 554.15625 319.597656 C 554.15625 317.203125 556.101562 315.257812 558.496094 315.257812 C 560.894531 315.257812 562.832031 317.203125 562.832031 319.597656 C 562.832031 321.996094 560.894531 323.933594 558.496094 323.933594 " fill-opacity="1" fill-rule="nonzero"/><path fill="#bab195" d="M 569.359375 332.140625 C 567.105469 332.140625 565.277344 330.316406 565.277344 328.0625 C 565.277344 325.800781 567.105469 323.972656 569.359375 323.972656 C 571.621094 323.972656 573.445312 325.800781 573.445312 328.0625 C 573.445312 330.316406 571.621094 332.140625 569.359375 332.140625 " fill-opacity="1" fill-rule="nonzero"/><path fill="#bab195" d="M 579.953125 340.617188 C 577.875 340.617188 576.195312 338.9375 576.195312 336.859375 C 576.195312 334.785156 577.875 333.101562 579.953125 333.101562 C 582.027344 333.101562 583.707031 334.785156 583.707031 336.859375 C 583.707031 338.9375 582.027344 340.617188 579.953125 340.617188 " fill-opacity="1" fill-rule="nonzero"/><path fill="#bab195" d="M 590.328125 349.320312 C 588.441406 349.320312 586.917969 347.796875 586.917969 345.910156 C 586.917969 344.03125 588.441406 342.511719 590.328125 342.511719 C 592.207031 342.511719 593.734375 344.03125 593.734375 345.910156 C 593.734375 347.796875 592.207031 349.320312 590.328125 349.320312 " fill-opacity="1" fill-rule="nonzero"/><path fill="#bab195" d="M 600.5625 358.179688 C 598.875 358.179688 597.503906 356.808594 597.503906 355.121094 C 597.503906 353.433594 598.875 352.0625 600.5625 352.0625 C 602.257812 352.0625 603.621094 353.433594 603.621094 355.121094 C 603.621094 356.808594 602.257812 358.179688 600.5625 358.179688 " fill-opacity="1" fill-rule="nonzero"/><path fill="#bab195" d="M 610.789062 367 C 609.324219 367 608.144531 365.8125 608.144531 364.355469 C 608.144531 362.898438 609.324219 361.710938 610.789062 361.710938 C 612.246094 361.710938 613.425781 362.898438 613.425781 364.355469 C 613.425781 365.8125 612.246094 367 610.789062 367 " fill-opacity="1" fill-rule="nonzero"/><path fill="#bab195" d="M 621.136719 375.632812 C 619.925781 375.632812 618.941406 374.644531 618.941406 373.433594 C 618.941406 372.21875 619.925781 371.238281 621.136719 371.238281 C 622.355469 371.238281 623.339844 372.21875 623.339844 373.433594 C 623.339844 374.644531 622.355469 375.632812 621.136719 375.632812 " fill-opacity="1" fill-rule="nonzero"/><path fill="#bab195" d="M 631.855469 383.8125 C 630.898438 383.8125 630.128906 383.042969 630.128906 382.085938 C 630.128906 381.132812 630.898438 380.359375 631.855469 380.359375 C 632.8125 380.359375 633.582031 381.132812 633.582031 382.085938 C 633.582031 383.042969 632.8125 383.8125 631.855469 383.8125 " fill-opacity="1" fill-rule="nonzero"/><path fill="#bab195" d="M 643.246094 391 C 642.59375 391 642.058594 390.472656 642.058594 389.8125 C 642.058594 389.152344 642.59375 388.625 643.246094 388.625 C 643.90625 388.625 644.4375 389.152344 644.4375 389.8125 C 644.4375 390.472656 643.90625 391 643.246094 391 " fill-opacity="1" fill-rule="nonzero"/><path fill="#bab195" d="M 655.683594 396.273438 C 655.355469 396.273438 655.078125 396.003906 655.078125 395.667969 C 655.078125 395.335938 655.355469 395.058594 655.683594 395.058594 C 656.019531 395.058594 656.292969 395.335938 656.292969 395.667969 C 656.292969 396.003906 656.019531 396.273438 655.683594 396.273438 " fill-opacity="1" fill-rule="nonzero"/><path fill="#bab195" d="M 554.105469 555.492188 C 554.105469 560.171875 557.902344 563.960938 562.582031 563.960938 C 567.261719 563.960938 571.050781 560.171875 571.050781 555.492188 C 571.050781 550.808594 567.261719 547.011719 562.582031 547.011719 C 557.902344 547.011719 554.105469 550.808594 554.105469 555.492188 " fill-opacity="1" fill-rule="nonzero"/><path fill="#bab195" d="M 555.871094 583.53125 C 555.871094 587.105469 558.773438 590.003906 562.34375 590.003906 C 565.925781 590.003906 568.816406 587.105469 568.816406 583.53125 C 568.816406 579.953125 565.925781 577.058594 562.34375 577.058594 C 558.773438 577.058594 555.871094 579.953125 555.871094 583.53125 " fill-opacity="1" fill-rule="nonzero"/><path fill="#bab195" d="M 380.035156 372.449219 L 366.226562 343.753906 L 370.65625 341.625 L 384.472656 370.3125 L 380.035156 372.449219 " fill-opacity="1" fill-rule="nonzero"/><path fill="#bab195" d="M 360.957031 388.941406 L 336.066406 369.089844 L 339.132812 365.246094 L 364.023438 385.097656 L 360.957031 388.941406 " fill-opacity="1" fill-rule="nonzero"/><path fill="#bab195" d="M 350.925781 412.085938 L 319.886719 404.992188 L 320.980469 400.199219 L 352.019531 407.292969 L 350.925781 412.085938 " fill-opacity="1" fill-rule="nonzero"/><path fill="#bab195" d="M 320.878906 444.367188 L 319.785156 439.574219 L 350.832031 432.5 L 351.921875 437.292969 L 320.878906 444.367188 " fill-opacity="1" fill-rule="nonzero"/><path fill="#bab195" d="M 338.855469 479.40625 L 335.792969 475.566406 L 360.695312 455.722656 L 363.761719 459.566406 L 338.855469 479.40625 " fill-opacity="1" fill-rule="nonzero"/><path fill="#bab195" d="M 370.261719 503.183594 L 365.832031 501.050781 L 379.660156 472.367188 L 384.089844 474.503906 L 370.261719 503.183594 " fill-opacity="1" fill-rule="nonzero"/><path fill="#bab195" d="M 442.597656 503.394531 L 428.800781 474.703125 L 433.230469 472.566406 L 447.027344 501.265625 L 442.597656 503.394531 " fill-opacity="1" fill-rule="nonzero"/><path fill="#bab195" d="M 474.132812 479.789062 L 449.25 459.921875 L 452.320312 456.078125 L 477.199219 475.949219 L 474.132812 479.789062 " fill-opacity="1" fill-rule="nonzero"/><path fill="#bab195" d="M 492.308594 444.839844 L 461.265625 437.734375 L 462.367188 432.941406 L 493.402344 440.046875 L 492.308594 444.839844 " fill-opacity="1" fill-rule="nonzero"/><path fill="#bab195" d="M 462.472656 412.535156 L 461.378906 407.734375 L 492.433594 400.675781 L 493.519531 405.472656 L 462.472656 412.535156 " fill-opacity="1" fill-rule="nonzero"/><path fill="#bab195" d="M 452.617188 389.304688 L 449.558594 385.457031 L 474.46875 365.628906 L 477.535156 369.46875 L 452.617188 389.304688 " fill-opacity="1" fill-rule="nonzero"/><path fill="#bab195" d="M 433.667969 372.648438 L 429.238281 370.511719 L 443.078125 341.832031 L 447.507812 343.972656 L 433.667969 372.648438 " fill-opacity="1" fill-rule="nonzero"/><path fill="#bab195" d="M 683.210938 278.21875 L 688.671875 276.722656 L 683.363281 274.738281 L 686.585938 270.085938 L 681.246094 271.984375 L 680.726562 266.339844 L 677.851562 271.234375 L 673.820312 267.25 L 674.769531 272.835938 L 669.113281 272.378906 L 673.429688 276.042969 L 668.816406 279.328125 L 674.476562 279.367188 L 673.046875 284.851562 L 677.410156 281.234375 L 679.835938 286.355469 L 680.859375 280.785156 L 686.007812 283.144531 Z M 705.464844 277.46875 L 690.96875 281.445312 L 698.394531 294.507812 L 684.742188 288.246094 L 682.027344 303.023438 L 675.585938 289.4375 L 664.003906 299.015625 L 667.800781 284.476562 L 652.769531 284.371094 L 665.039062 275.667969 L 653.589844 265.925781 L 668.566406 267.160156 L 666.066406 252.335938 L 676.757812 262.894531 L 684.367188 249.929688 L 685.769531 264.898438 L 699.933594 259.855469 L 691.386719 272.222656 L 705.464844 277.46875 " fill-opacity="1" fill-rule="nonzero"/><path fill="#bab195" d="M 587.738281 265.273438 L 595.792969 259.414062 L 585.832031 259.414062 L 582.753906 249.949219 L 579.675781 259.414062 L 569.714844 259.414062 L 577.777344 265.273438 L 574.703125 274.738281 L 582.753906 268.894531 L 590.816406 274.738281 Z M 611.679688 254.253906 L 593.808594 267.246094 L 600.628906 288.253906 L 582.753906 275.265625 L 564.882812 288.253906 L 571.707031 267.246094 L 553.828125 254.253906 L 575.929688 254.253906 L 582.753906 233.25 L 589.589844 254.253906 L 611.679688 254.253906 " fill-opacity="1" fill-rule="nonzero"/><path fill="#bab195" d="M 526.875 135.613281 L 535.160156 133.339844 L 527.097656 130.339844 L 531.988281 123.265625 L 523.886719 126.148438 L 523.097656 117.589844 L 518.738281 125 L 512.628906 118.960938 L 514.054688 127.4375 L 505.484375 126.746094 L 512.03125 132.316406 L 505.023438 137.292969 L 513.617188 137.347656 L 511.441406 145.664062 L 518.066406 140.195312 L 521.753906 147.960938 L 523.300781 139.503906 L 531.113281 143.09375 Z M 551.957031 134.082031 L 534.632812 138.828125 L 543.5 154.445312 L 527.183594 146.964844 L 523.933594 164.625 L 516.242188 148.386719 L 502.398438 159.84375 L 506.941406 142.46875 L 488.984375 142.332031 L 503.636719 131.949219 L 489.960938 120.308594 L 507.863281 121.757812 L 504.871094 104.046875 L 517.644531 116.667969 L 526.742188 101.175781 L 528.410156 119.066406 L 545.339844 113.035156 L 535.121094 127.816406 L 551.957031 134.082031 " fill-opacity="1" fill-rule="nonzero"/><g clip-path="url(#4c05ed2f4c)"><path fill="#bab195" d="M 692.488281 480.046875 L 700.773438 477.78125 L 692.710938 474.773438 L 697.609375 467.707031 L 689.507812 470.582031 L 688.710938 462.027344 L 684.351562 469.441406 L 678.242188 463.402344 L 679.664062 471.875 L 671.101562 471.179688 L 677.640625 476.757812 L 670.636719 481.734375 L 679.238281 481.789062 L 677.054688 490.105469 L 683.679688 484.636719 L 687.363281 492.394531 L 688.914062 483.941406 L 696.726562 487.535156 Z M 717.570312 478.523438 L 700.246094 483.269531 L 709.109375 498.886719 L 692.796875 491.40625 L 689.546875 509.066406 L 681.855469 492.828125 L 668.011719 504.285156 L 672.554688 486.902344 L 654.597656 486.769531 L 669.25 476.390625 L 655.574219 464.742188 L 673.476562 466.199219 L 670.484375 448.484375 L 683.257812 461.109375 L 692.355469 445.617188 L 694.023438 463.503906 L 710.949219 457.476562 L 700.734375 472.257812 L 717.570312 478.523438 " fill-opacity="1" fill-rule="nonzero"/></g><path fill="#bab195" d="M 614.855469 185.195312 L 597.894531 182.199219 L 614.855469 179.191406 L 617.859375 162.230469 L 620.859375 179.191406 L 637.820312 182.199219 L 620.859375 185.195312 L 617.859375 202.15625 L 614.855469 185.195312 " fill-opacity="1" fill-rule="nonzero"/><path fill="#bab195" d="M 597.960938 638.144531 L 580.992188 635.144531 L 597.960938 632.140625 L 600.960938 615.179688 L 603.957031 632.140625 L 620.917969 635.144531 L 603.957031 638.144531 L 600.960938 655.105469 L 597.960938 638.144531 " fill-opacity="1" fill-rule="nonzero"/><path fill="#bab195" d="M 675.757812 345.140625 C 672.027344 345.140625 668.980469 348.179688 668.980469 351.917969 C 668.980469 355.652344 672.027344 358.691406 675.757812 358.691406 C 679.496094 358.691406 682.53125 355.652344 682.53125 351.917969 C 682.53125 348.179688 679.496094 345.140625 675.757812 345.140625 Z M 675.757812 362.820312 C 669.746094 362.820312 664.855469 357.929688 664.855469 351.917969 C 664.855469 345.90625 669.746094 341.007812 675.757812 341.007812 C 681.773438 341.007812 686.667969 345.90625 686.667969 351.917969 C 686.667969 357.929688 681.773438 362.820312 675.757812 362.820312 " fill-opacity="1" fill-rule="nonzero"/><path fill="#bab195" d="M 662.066406 560.988281 C 658.328125 560.988281 655.289062 564.027344 655.289062 567.765625 C 655.289062 571.503906 658.328125 574.539062 662.066406 574.539062 C 665.796875 574.539062 668.84375 571.503906 668.84375 567.765625 C 668.84375 564.027344 665.796875 560.988281 662.066406 560.988281 Z M 662.066406 578.667969 C 656.046875 578.667969 651.15625 573.777344 651.15625 567.765625 C 651.15625 561.753906 656.046875 556.863281 662.066406 556.863281 C 668.078125 556.863281 672.96875 561.753906 672.96875 567.765625 C 672.96875 573.777344 668.078125 578.667969 662.066406 578.667969 " fill-opacity="1" fill-rule="nonzero"/><path fill="#bab195" d="M 521.304688 680.703125 C 517.566406 680.703125 514.527344 683.742188 514.527344 687.476562 C 514.527344 691.210938 517.566406 694.253906 521.304688 694.253906 C 525.042969 694.253906 528.082031 691.210938 528.082031 687.476562 C 528.082031 683.742188 525.042969 680.703125 521.304688 680.703125 Z M 521.304688 698.382812 C 515.292969 698.382812 510.402344 693.488281 510.402344 687.476562 C 510.402344 681.460938 515.292969 676.570312 521.304688 676.570312 C 527.316406 676.570312 532.214844 681.460938 532.214844 687.476562 C 532.214844 693.488281 527.316406 698.382812 521.304688 698.382812 " fill-opacity="1" fill-rule="nonzero"/><path fill="#bab195" d="M 490.621094 218.816406 C 486.882812 218.816406 483.84375 221.859375 483.84375 225.589844 C 483.84375 229.328125 486.882812 232.367188 490.621094 232.367188 C 494.355469 232.367188 497.394531 229.328125 497.394531 225.589844 C 497.394531 221.859375 494.355469 218.816406 490.621094 218.816406 Z M 490.621094 236.5 C 484.609375 236.5 479.714844 231.601562 479.714844 225.589844 C 479.714844 219.578125 484.609375 214.6875 490.621094 214.6875 C 496.636719 214.6875 501.527344 219.578125 501.527344 225.589844 C 501.527344 231.601562 496.636719 236.5 490.621094 236.5 " fill-opacity="1" fill-rule="nonzero"/><path fill="#bab195" d="M 122.769531 283.144531 L 127.917969 280.785156 L 128.941406 286.355469 L 131.367188 281.234375 L 135.730469 284.851562 L 134.300781 279.367188 L 139.960938 279.328125 L 135.347656 276.042969 L 139.664062 272.378906 L 134.011719 272.835938 L 134.960938 267.25 L 130.925781 271.234375 L 128.050781 266.339844 L 127.523438 271.984375 L 122.191406 270.085938 L 125.414062 274.738281 L 120.109375 276.722656 L 125.566406 278.21875 Z M 117.390625 272.222656 L 108.84375 259.855469 L 123.007812 264.898438 L 124.40625 249.929688 L 132.019531 262.894531 L 142.710938 252.335938 L 140.210938 267.160156 L 155.1875 265.925781 L 143.738281 275.667969 L 156.007812 284.371094 L 140.976562 284.476562 L 144.773438 299.015625 L 133.191406 289.4375 L 126.753906 303.023438 L 124.035156 288.246094 L 110.386719 294.507812 L 117.800781 281.445312 L 103.3125 277.46875 L 117.390625 272.222656 " fill-opacity="1" fill-rule="nonzero"/><path fill="#bab195" d="M 217.964844 274.738281 L 226.023438 268.894531 L 234.074219 274.738281 L 231 265.273438 L 239.0625 259.414062 L 229.101562 259.414062 L 226.023438 249.949219 L 222.945312 259.414062 L 212.984375 259.414062 L 221.042969 265.273438 Z M 219.1875 254.253906 L 226.023438 233.25 L 232.847656 254.253906 L 254.949219 254.253906 L 237.066406 267.246094 L 243.886719 288.253906 L 226.023438 275.265625 L 208.148438 288.253906 L 214.96875 267.246094 L 197.105469 254.253906 L 219.1875 254.253906 " fill-opacity="1" fill-rule="nonzero"/><path fill="#bab195" d="M 277.660156 143.09375 L 285.476562 139.503906 L 287.023438 147.960938 L 290.710938 140.195312 L 297.335938 145.664062 L 295.160156 137.347656 L 303.753906 137.292969 L 296.75 132.316406 L 303.292969 126.746094 L 294.722656 127.4375 L 296.148438 118.960938 L 290.039062 125 L 285.679688 117.589844 L 284.890625 126.148438 L 276.78125 123.265625 L 281.679688 130.339844 L 273.617188 133.339844 L 281.902344 135.613281 Z M 273.65625 127.816406 L 263.441406 113.035156 L 280.367188 119.066406 L 282.042969 101.175781 L 291.132812 116.667969 L 303.914062 104.046875 L 300.914062 121.757812 L 318.816406 120.308594 L 305.140625 131.949219 L 319.792969 142.332031 L 301.835938 142.46875 L 306.378906 159.84375 L 292.535156 148.386719 L 284.84375 164.625 L 281.59375 146.964844 L 265.273438 154.445312 L 274.144531 138.828125 L 256.820312 134.082031 L 273.65625 127.816406 " fill-opacity="1" fill-rule="nonzero"/><g clip-path="url(#5ba12bdd4a)"><path fill="#bab195" d="M 112.046875 487.535156 L 119.863281 483.941406 L 121.414062 492.394531 L 125.097656 484.636719 L 131.722656 490.105469 L 129.546875 481.789062 L 138.144531 481.734375 L 131.136719 476.757812 L 137.675781 471.179688 L 129.113281 471.875 L 130.535156 463.402344 L 124.425781 469.441406 L 120.066406 462.027344 L 119.277344 470.582031 L 111.167969 467.707031 L 116.058594 474.773438 L 108.003906 477.78125 L 116.292969 480.046875 Z M 108.042969 472.257812 L 97.828125 457.476562 L 114.753906 463.503906 L 116.421875 445.617188 L 125.519531 461.109375 L 138.292969 448.484375 L 135.300781 466.199219 L 153.199219 464.742188 L 139.527344 476.390625 L 154.179688 486.769531 L 136.226562 486.902344 L 140.765625 504.285156 L 126.921875 492.828125 L 119.230469 509.066406 L 115.980469 491.40625 L 99.660156 498.886719 L 108.53125 483.269531 L 91.210938 478.523438 L 108.042969 472.257812 " fill-opacity="1" fill-rule="nonzero"/></g><path fill="#bab195" d="M 193.921875 185.195312 L 210.882812 182.199219 L 193.921875 179.191406 L 190.917969 162.230469 L 187.917969 179.191406 L 170.957031 182.199219 L 187.917969 185.195312 L 190.917969 202.15625 L 193.921875 185.195312 " fill-opacity="1" fill-rule="nonzero"/><path fill="#bab195" d="M 210.816406 638.144531 L 227.777344 635.144531 L 210.816406 632.140625 L 207.816406 615.179688 L 204.820312 632.140625 L 187.859375 635.144531 L 204.820312 638.144531 L 207.816406 655.105469 L 210.816406 638.144531 " fill-opacity="1" fill-rule="nonzero"/><path fill="#bab195" d="M 126.238281 351.917969 C 126.238281 355.652344 129.285156 358.691406 133.019531 358.691406 C 136.753906 358.691406 139.789062 355.652344 139.789062 351.917969 C 139.789062 348.179688 136.753906 345.140625 133.019531 345.140625 C 129.285156 345.140625 126.238281 348.179688 126.238281 351.917969 Z M 122.113281 351.917969 C 122.113281 345.90625 127.003906 341.007812 133.019531 341.007812 C 139.03125 341.007812 143.925781 345.90625 143.925781 351.917969 C 143.925781 357.929688 139.03125 362.820312 133.019531 362.820312 C 127.003906 362.820312 122.113281 357.929688 122.113281 351.917969 " fill-opacity="1" fill-rule="nonzero"/><path fill="#bab195" d="M 139.9375 567.765625 C 139.9375 571.503906 142.976562 574.539062 146.710938 574.539062 C 150.449219 574.539062 153.488281 571.503906 153.488281 567.765625 C 153.488281 564.027344 150.449219 560.988281 146.710938 560.988281 C 142.976562 560.988281 139.9375 564.027344 139.9375 567.765625 Z M 135.808594 567.765625 C 135.808594 561.753906 140.699219 556.863281 146.710938 556.863281 C 152.730469 556.863281 157.621094 561.753906 157.621094 567.765625 C 157.621094 573.777344 152.730469 578.667969 146.710938 578.667969 C 140.699219 578.667969 135.808594 573.777344 135.808594 567.765625 " fill-opacity="1" fill-rule="nonzero"/><path fill="#bab195" d="M 280.695312 687.476562 C 280.695312 691.210938 283.734375 694.253906 287.472656 694.253906 C 291.210938 694.253906 294.25 691.210938 294.25 687.476562 C 294.25 683.742188 291.210938 680.703125 287.472656 680.703125 C 283.734375 680.703125 280.695312 683.742188 280.695312 687.476562 Z M 276.5625 687.476562 C 276.5625 681.460938 281.457031 676.570312 287.472656 676.570312 C 293.484375 676.570312 298.375 681.460938 298.375 687.476562 C 298.375 693.488281 293.484375 698.382812 287.472656 698.382812 C 281.457031 698.382812 276.5625 693.488281 276.5625 687.476562 " fill-opacity="1" fill-rule="nonzero"/><path fill="#bab195" d="M 311.382812 225.589844 C 311.382812 229.328125 314.421875 232.367188 318.160156 232.367188 C 321.894531 232.367188 324.933594 229.328125 324.933594 225.589844 C 324.933594 221.859375 321.894531 218.816406 318.160156 218.816406 C 314.421875 218.816406 311.382812 221.859375 311.382812 225.589844 Z M 307.25 225.589844 C 307.25 219.578125 312.148438 214.6875 318.160156 214.6875 C 324.171875 214.6875 329.0625 219.578125 329.0625 225.589844 C 329.0625 231.601562 324.171875 236.5 318.160156 236.5 C 312.148438 236.5 307.25 231.601562 307.25 225.589844 " fill-opacity="1" fill-rule="nonzero"/></svg>