<?xml version="1.0" encoding="utf-8"?>
<!-- Generator: Adobe Illustrator 27.3.1, SVG Export Plug-In . SVG Version: 6.00 Build 0)  -->
<svg version="1.1" id="Camada_1" xmlns="http://www.w3.org/2000/svg" xmlns:xlink="http://www.w3.org/1999/xlink" x="0px" y="0px"
	 viewBox="0 0 329 100" style="enable-background:new 0 0 329 100;" xml:space="preserve">
<style type="text/css">
	.st0{fill:#31304E;}
	.st1{fill:none;stroke:#BAB196;stroke-width:2;stroke-linecap:round;}
	.st2{clip-path:url(#SVGID_00000017479258281937730260000006882371805100547494_);}
	.st3{fill:#E9D18D;}
	.st4{clip-path:url(#SVGID_00000066487573505115945360000014860556686839237283_);}
	.st5{fill:#BAB196;}
</style>
<g>
	<rect x="-40.9" class="st0" width="390.4" height="100"/>
	<g>
		<path class="st1" d="M42.5,75.3h80.6"/>
		<path class="st1" d="M42.5,29h80.6"/>
		<path class="st1" d="M181.4,75.3h112.4"/>
		<path class="st1" d="M181.4,29h112.4"/>
		<g>
			<g>
				<defs>
					<rect id="SVGID_1_" x="153.2" y="28.2" width="20.9" height="48.2"/>
				</defs>
				<clipPath id="SVGID_00000030478076488901674200000017107083840660279731_">
					<use xlink:href="#SVGID_1_"  style="overflow:visible;"/>
				</clipPath>
				<g style="clip-path:url(#SVGID_00000030478076488901674200000017107083840660279731_);">
					<path class="st3" d="M164.5,56.6c0.9-0.3,1.8-0.7,2.6-1.3c1.7-1.2,3-2.9,3.9-5.1s1.4-4.7,1.4-7.6c0-2.9-0.5-5.4-1.4-7.6
						s-2.2-3.9-3.9-5.1s-3.6-1.8-5.8-1.8h-7.5c0.2,0.1,0.4,0.3,0.6,0.4c1.9,1.3,3.4,3.3,4.4,5.7c0.3,0.8,0.6,1.7,0.9,2.6h1
						c0.8,0,1.5,0.2,2.1,0.7s1,1.1,1.4,2c0.3,0.9,0.5,1.9,0.5,3s-0.2,2.1-0.5,3s-0.8,1.5-1.4,2c-0.6,0.5-1.3,0.7-2,0.7h-1
						c-0.2,0.9-0.5,1.8-0.9,2.6c-0.6,1.5-1.5,2.9-2.5,4l8.9,21.5h8.8L164.5,56.6"/>
				</g>
			</g>
		</g>
		<g>
			<g>
				<defs>
					<rect id="SVGID_00000104682678478704958400000002760824670456728492_" x="133.2" y="28.2" width="27.8" height="48.2"/>
				</defs>
				<clipPath id="SVGID_00000153705742113012218960000008352495364115940509_">
					<use xlink:href="#SVGID_00000104682678478704958400000002760824670456728492_"  style="overflow:visible;"/>
				</clipPath>
				<g style="clip-path:url(#SVGID_00000153705742113012218960000008352495364115940509_);">
					<path class="st3" d="M136.5,37h11c0.8,0,1.5,0.2,2.1,0.7s1,1.1,1.4,2c0.3,0.9,0.5,1.9,0.5,3s-0.2,2.1-0.5,3s-0.8,1.5-1.4,2
						c-0.6,0.5-1.3,0.7-2,0.7h-7.1l11.6,28.1h8.8l-9.6-19.9c0.9-0.3,1.8-0.7,2.6-1.3c1.7-1.2,3-2.9,3.9-5.1s1.4-4.7,1.4-7.6
						s-0.5-5.4-1.4-7.6s-2.2-3.9-3.9-5.1s-3.6-1.8-5.8-1.8h-14.9L136.5,37"/>
				</g>
			</g>
		</g>
		<g>
			<g transform="translate(218.336254, 192.749987)">
				<g>
					<path class="st5" d="M-32.4-135.2v-0.6h-1.5v-5.8h1.9l3.1,6.4h2.9c0-0.3-0.1-0.5-0.2-0.6c-0.1,0-0.2,0-0.2,0h-0.7l-3.1-6
						c1.2-0.4,2.1-1.1,2.5-2.3c0.2-0.5,0.3-0.9,0.3-1.4c0-1.2-0.4-2.1-1.3-2.8c-0.7-0.6-1.5-0.8-2.5-0.8H-37v0.6h1.6v12.8H-37v0.6
						L-32.4-135.2L-32.4-135.2z M-32-148.5c1.1,0,1.9,0.5,2.3,1.6c0.2,0.5,0.3,0.9,0.3,1.4c0,1.1-0.3,2-1,2.6
						c-0.4,0.4-1,0.6-1.5,0.6h-2v-6.3L-32-148.5L-32-148.5z"/>
				</g>
			</g>
		</g>
		<g>
			<g transform="translate(234.193677, 192.749987)">
				<g>
					<path class="st5" d="M-30.3-144.9l-0.1-4.2h-9v0.6h1.6v12.8h-1.6v0.6h9l0.1-4.2h-0.4l-0.3,1.1c-0.3,1.3-0.8,2.1-1.4,2.4
						c-0.2,0.1-0.4,0.1-0.6,0.1h-3.1v-6.3h4v-0.7h-4v-5.8h3.1c0.9,0,1.6,0.8,2,2.3c0,0.1,0,0.2,0.1,0.2l0.3,1.1L-30.3-144.9
						L-30.3-144.9z"/>
				</g>
			</g>
		</g>
		<g>
			<g transform="translate(248.793715, 192.749987)">
				<g>
					<path class="st5" d="M-30.1-135.2c0-0.3-0.1-0.5-0.3-0.6c-0.1,0-0.1,0-0.2,0h-0.7l-4.5-13.4h-0.7l-4.4,13.4h-1.2v0.6h3.5
						c0-0.3-0.1-0.5-0.3-0.6c-0.1,0-0.1,0-0.2,0h-1l1.5-4.5h4.1l1.5,4.5h-1.3v0.6H-30.1z M-34.7-141h-3.6l1.8-5.6L-34.7-141z"/>
				</g>
			</g>
		</g>
		<g>
			<g transform="translate(264.67359, 192.749987)">
				<g>
					<path class="st5" d="M-34.9-135.2l0.1-4.7h-0.4l-0.3,1.6c-0.3,1.4-0.8,2.2-1.6,2.4c-0.2,0-0.3,0-0.4,0h-2.7v-12.8h1.6v-0.6
						h-4.9v0.6h1.6v12.8h-1.6v0.6L-34.9-135.2L-34.9-135.2z"/>
				</g>
			</g>
		</g>
		<g>
			<g transform="translate(277.859071, 192.749987)">
				<g>
					<path class="st5" d="M-40.4-135.2c0-0.3-0.1-0.5-0.3-0.6c-0.1,0-0.1,0-0.2,0h-1v-12.8h1.5v-0.6h-4.8v0.6h1.6v12.8h-1.6v0.6
						H-40.4z"/>
				</g>
			</g>
		</g>
		<g>
			<g transform="translate(287.272397, 192.749987)">
				<g>
					<path class="st5" d="M-46.4-149.1v0.6h1.6v12.8h-1.6v0.6h5.4c1.7,0,3.2-0.7,4.3-2s1.7-3,1.7-5c0-2.7-0.8-4.6-2.5-5.9
						c-1-0.7-2.2-1.1-3.5-1.1L-46.4-149.1L-46.4-149.1z M-41.1-148.5c2,0,3.3,1.1,3.8,3.4c0.2,0.8,0.3,1.8,0.3,2.9
						c0,3.9-1.1,6-3.3,6.4c-0.3,0.1-0.5,0.1-0.8,0.1h-2.2v-12.8L-41.1-148.5L-41.1-148.5z"/>
				</g>
			</g>
		</g>
		<g>
			<g transform="translate(304.634193, 192.749987)">
				<g>
					<path class="st5" d="M-37.6-135.2c0-0.3-0.1-0.5-0.3-0.6c-0.1,0-0.1,0-0.2,0h-0.7l-4.5-13.4H-44l-4.4,13.4h-1.2v0.6h3.5
						c0-0.3-0.1-0.5-0.3-0.6c-0.1,0-0.1,0-0.2,0h-1l1.5-4.5h4.1l1.5,4.5h-1.3v0.6H-37.6z M-42.2-141h-3.6l1.8-5.6L-42.2-141z"/>
				</g>
			</g>
		</g>
		<g>
			<g transform="translate(320.514065, 192.749987)">
				<g>
					<path class="st5" d="M-50.9-149.1v0.6h1.6v12.8h-1.6v0.6h5.4c1.7,0,3.2-0.7,4.3-2s1.7-3,1.7-5c0-2.7-0.8-4.6-2.5-5.9
						c-1-0.7-2.2-1.1-3.5-1.1L-50.9-149.1L-50.9-149.1z M-45.5-148.5c2,0,3.3,1.1,3.8,3.4c0.2,0.8,0.3,1.8,0.3,2.9
						c0,3.9-1.1,6-3.3,6.4c-0.3,0.1-0.5,0.1-0.8,0.1h-2.1v-12.8L-45.5-148.5L-45.5-148.5z"/>
				</g>
			</g>
		</g>
		<g>
			<g transform="translate(337.875861, 192.749987)">
				<g>
					<path class="st5" d="M-44.1-144.9l-0.1-4.2h-9v0.6h1.6v12.8h-1.6v0.6h9l0.1-4.2h-0.4l-0.3,1.1c-0.3,1.3-0.8,2.1-1.4,2.4
						c-0.2,0.1-0.4,0.1-0.6,0.1h-3.1v-6.3h4v-0.7h-4v-5.8h3.1c0.9,0,1.6,0.8,2,2.3c0,0.1,0,0.2,0.1,0.2l0.3,1.1L-44.1-144.9
						L-44.1-144.9z"/>
				</g>
			</g>
		</g>
		<g>
			<g transform="translate(62.2015, 192.749987)">
				<g>
					<path class="st5" d="M-11.6-135.2v-0.6h-1.5v-5.8h1.9l3.1,6.4h2.9c0-0.3-0.1-0.5-0.2-0.6c-0.1,0-0.2,0-0.2,0h-0.7l-3.1-6
						c1.2-0.4,2.1-1.1,2.5-2.3c0.2-0.5,0.3-0.9,0.3-1.4c0-1.2-0.4-2.1-1.3-2.8c-0.7-0.6-1.5-0.8-2.5-0.8h-5.8v0.6h1.6v12.8h-1.6v0.6
						L-11.6-135.2L-11.6-135.2z M-11.2-148.5c1.1,0,1.9,0.5,2.3,1.6c0.2,0.5,0.3,0.9,0.3,1.4c0,1.1-0.3,2-1,2.6
						c-0.4,0.4-1,0.6-1.5,0.6h-2v-6.3L-11.2-148.5L-11.2-148.5z"/>
				</g>
			</g>
		</g>
		<g>
			<g transform="translate(77.345923, 192.749987)">
				<g>
					<path class="st5" d="M-19-148.5h1.6v8.1c0,3.6,1.5,5.5,4.5,5.5c2.3,0,3.7-1.1,4.2-3.4c0.1-0.7,0.2-1.5,0.2-2.3v-7.9h1.6v-0.6
						h-3.8v0.6h1.6v8.1c0,3-0.9,4.6-2.8,4.9c-0.2,0-0.3,0-0.5,0c-1.6,0-2.6-0.8-3-2.4c-0.2-0.7-0.3-1.6-0.3-2.6v-8h1.5v-0.6H-19
						C-19-149.1-19-148.5-19-148.5z"/>
				</g>
			</g>
		</g>
		<g>
			<g transform="translate(92.939413, 192.749987)">
				<g>
					<path class="st5" d="M-6-149.1h-3.1l-4.2,11.4l-4.5-11.4h-2.8v0.6h1.6v12.8h-1.6v0.6h3.9c0-0.3-0.1-0.5-0.3-0.6
						c-0.1,0-0.1,0-0.2,0h-1v-10l4.3,10.7h0.4l4.5-12v11.3h-1.6v0.6h4.7c0-0.3-0.1-0.5-0.3-0.6c-0.1,0-0.1,0-0.2,0h-1v-12.8h1.6
						v-0.6H-6z"/>
				</g>
			</g>
		</g>
		<g>
			<g transform="translate(112.552044, 192.749987)">
				<g>
					<path class="st5" d="M-17-149.4c-1.6,0-2.9,0.6-4,1.8c-1.2,1.4-1.8,3.1-1.8,5.3c0,2.5,0.7,4.5,2.2,5.8c1,1,2.3,1.5,3.6,1.5
						c1.5,0,2.8-0.6,4-1.9c1.2-1.4,1.8-3.2,1.8-5.3c0-2.6-0.7-4.5-2.2-5.9C-14.5-148.9-15.6-149.4-17-149.4z M-17-135.6
						c-1.9,0-3.1-1.2-3.6-3.6c-0.2-0.9-0.3-1.8-0.3-2.9c0-3.7,0.9-5.8,2.8-6.4c0.3-0.1,0.7-0.1,1-0.1c2.6,0,3.8,2.2,3.9,6.5
						c0,3.4-0.8,5.5-2.4,6.3C-16-135.7-16.4-135.6-17-135.6z"/>
				</g>
			</g>
		</g>
		<g>
			<g transform="translate(135.56602, 192.749987)">
				<g>
					<path class="st5" d="M-15-135.2c0-0.3-0.1-0.5-0.3-0.6c-0.1,0-0.1,0-0.2,0h-0.7l-4.5-13.4h-0.7l-4.4,13.4H-27v0.6h3.5
						c0-0.3-0.1-0.5-0.3-0.6c-0.1,0-0.1,0-0.2,0h-1l1.5-4.5h4.1l1.5,4.5h-1.3v0.6H-15z M-19.6-141h-3.6l1.8-5.6L-19.6-141z
						 M-19.3-149.8c-0.3-0.4-0.8-1.3-1.5-2.5c-0.2-0.4-0.4-0.7-0.5-0.8c-0.2-0.2-0.4-0.3-0.6-0.3c-0.3,0-0.6,0.2-0.8,0.6
						c-0.1,0.1-0.1,0.3-0.1,0.5s0.1,0.4,0.3,0.6c0.1,0.2,0.6,0.6,1.6,1.2c0.5,0.4,1,0.8,1.3,1.1L-19.3-149.8z"/>
				</g>
			</g>
		</g>
	</g>
</g>
</svg>
