<svg xmlns="http://www.w3.org/2000/svg" xmlns:xlink="http://www.w3.org/1999/xlink" width="1080" zoomAndPan="magnify" viewBox="0 0 810 809.999993" height="1080" preserveAspectRatio="xMidYMid meet" version="1.0"><defs><clipPath id="de0083cb73"><path d="M 369 661 L 440 661 L 440 728.539062 L 369 728.539062 Z M 369 661 " clip-rule="nonzero"/></clipPath><clipPath id="20911ccd98"><path d="M 657 357.503906 L 727.5 357.503906 L 727.5 425 L 657 425 Z M 657 357.503906 " clip-rule="nonzero"/></clipPath></defs><rect x="-81" width="972" fill="#ffffff" y="-80.999999" height="971.999992" fill-opacity="1"/><rect x="-81" width="972" fill="#ffffff" y="-80.999999" height="971.999992" fill-opacity="1"/><rect x="-81" width="972" fill="#11091a" y="-80.999999" height="971.999992" fill-opacity="1"/><path fill="#bab195" d="M 551.160156 159.273438 L 559.183594 153.429688 L 549.257812 153.429688 L 546.195312 143.992188 L 543.132812 153.429688 L 533.207031 153.429688 L 541.242188 159.273438 L 538.179688 168.703125 L 546.195312 162.875 L 554.222656 168.703125 Z M 575.007812 148.277344 L 557.207031 161.238281 L 564 182.179688 L 546.195312 169.234375 L 528.394531 182.179688 L 535.195312 161.238281 L 517.390625 148.277344 L 539.402344 148.277344 L 546.195312 127.335938 L 553.003906 148.277344 L 575.007812 148.277344 " fill-opacity="1" fill-rule="nonzero"/><path fill="#bab195" d="M 469.320312 125.613281 C 464.894531 125.613281 461.296875 129.214844 461.296875 133.644531 C 461.296875 138.070312 464.894531 141.671875 469.320312 141.671875 C 473.738281 141.671875 477.339844 138.070312 477.339844 133.644531 C 477.339844 129.214844 473.738281 125.613281 469.320312 125.613281 Z M 469.320312 146.816406 C 462.058594 146.816406 456.152344 140.910156 456.152344 133.644531 C 456.152344 126.382812 462.058594 120.472656 469.320312 120.472656 C 476.574219 120.472656 482.480469 126.382812 482.480469 133.644531 C 482.480469 140.910156 476.574219 146.816406 469.320312 146.816406 " fill-opacity="1" fill-rule="nonzero"/><g clip-path="url(#de0083cb73)"><path fill="#bab195" d="M 412.164062 701 L 424.125 692.296875 L 409.339844 692.296875 L 404.777344 678.230469 L 400.210938 692.296875 L 385.421875 692.296875 L 397.382812 701 L 392.816406 715.066406 L 404.777344 706.378906 L 416.730469 715.066406 Z M 439.945312 687.152344 L 418.210938 702.972656 L 426.507812 728.539062 L 404.777344 712.738281 L 383.039062 728.539062 L 391.335938 702.972656 L 369.597656 687.152344 L 396.46875 687.152344 L 404.777344 661.578125 L 413.078125 687.152344 L 439.945312 687.152344 " fill-opacity="1" fill-rule="nonzero"/></g><path fill="#bab195" d="M 412.164062 119.902344 L 424.125 111.199219 L 409.339844 111.199219 L 404.777344 97.132812 L 400.210938 111.199219 L 385.421875 111.199219 L 397.382812 119.902344 L 392.816406 133.972656 L 404.777344 125.273438 L 416.730469 133.972656 Z M 439.945312 106.050781 L 418.210938 121.867188 L 426.507812 147.445312 L 404.777344 131.632812 L 383.039062 147.445312 L 391.335938 121.867188 L 369.597656 106.050781 L 396.46875 106.050781 L 404.777344 80.480469 L 413.078125 106.050781 L 439.945312 106.050781 " fill-opacity="1" fill-rule="nonzero"/><g clip-path="url(#20911ccd98)"><path fill="#bab195" d="M 699.746094 396.960938 L 711.707031 388.257812 L 696.925781 388.257812 L 692.359375 374.191406 L 687.792969 388.257812 L 673.003906 388.257812 L 684.964844 396.960938 L 680.398438 411.03125 L 692.359375 402.339844 L 704.3125 411.03125 Z M 727.53125 383.117188 L 705.792969 398.933594 L 714.097656 424.503906 L 692.359375 408.699219 L 670.621094 424.503906 L 678.917969 398.933594 L 657.179688 383.117188 L 684.050781 383.117188 L 692.359375 357.539062 L 700.667969 383.117188 L 727.53125 383.117188 " fill-opacity="1" fill-rule="nonzero"/></g><path fill="#bab195" d="M 612.304688 219.730469 L 589.515625 215.695312 L 612.304688 211.660156 L 616.34375 188.84375 L 620.375 211.660156 L 643.167969 215.695312 L 620.375 219.730469 L 616.34375 242.542969 L 612.304688 219.730469 " fill-opacity="1" fill-rule="nonzero"/><path fill="#bab195" d="M 586.945312 622.816406 C 582.816406 622.816406 579.457031 626.175781 579.457031 630.308594 C 579.457031 634.4375 582.816406 637.796875 586.945312 637.796875 C 591.070312 637.796875 594.425781 634.4375 594.425781 630.308594 C 594.425781 626.175781 591.070312 622.816406 586.945312 622.816406 Z M 586.945312 642.949219 C 579.984375 642.949219 574.320312 637.277344 574.320312 630.308594 C 574.320312 623.34375 579.984375 617.671875 586.945312 617.671875 C 593.90625 617.671875 599.574219 623.34375 599.574219 630.308594 C 599.574219 637.277344 593.90625 642.949219 586.945312 642.949219 " fill-opacity="1" fill-rule="nonzero"/><path fill="#bab195" d="M 675.761719 505.613281 L 684.015625 503.347656 L 675.980469 500.355469 L 680.859375 493.308594 L 672.792969 496.183594 L 671.996094 487.644531 L 667.660156 495.039062 L 661.574219 489.015625 L 662.988281 497.464844 L 654.457031 496.777344 L 660.972656 502.335938 L 653.992188 507.289062 L 662.5625 507.34375 L 660.386719 515.640625 L 666.984375 510.183594 L 670.664062 517.925781 L 672.203125 509.496094 L 679.984375 513.074219 Z M 700.742188 504.089844 L 683.488281 508.828125 L 692.324219 524.398438 L 676.070312 516.9375 L 672.832031 534.542969 L 665.171875 518.359375 L 651.382812 529.78125 L 655.90625 512.445312 L 638.015625 512.3125 L 652.617188 501.960938 L 638.996094 490.355469 L 656.820312 491.808594 L 653.835938 474.144531 L 666.566406 486.730469 L 675.628906 471.285156 L 677.289062 489.121094 L 694.15625 483.109375 L 683.976562 497.84375 L 700.742188 504.089844 " fill-opacity="1" fill-rule="nonzero"/><path fill="#bab195" d="M 675.382812 297.054688 L 683.644531 294.789062 L 675.609375 291.796875 L 680.488281 284.742188 L 672.410156 287.617188 L 671.625 279.085938 L 667.277344 286.472656 L 661.191406 280.457031 L 662.613281 288.90625 L 654.078125 288.21875 L 660.597656 293.773438 L 653.617188 298.730469 L 662.179688 298.785156 L 660.011719 307.082031 L 666.613281 301.625 L 670.28125 309.367188 L 671.824219 300.9375 L 679.613281 304.515625 Z M 700.367188 295.53125 L 683.117188 300.269531 L 691.945312 315.835938 L 675.695312 308.375 L 672.453125 325.984375 L 664.796875 309.792969 L 651.007812 321.214844 L 655.53125 303.886719 L 637.640625 303.753906 L 652.242188 293.402344 L 638.613281 281.792969 L 656.449219 283.242188 L 653.464844 265.585938 L 666.191406 278.171875 L 675.246094 262.726562 L 676.917969 280.5625 L 693.773438 274.550781 L 683.597656 289.285156 L 700.367188 295.53125 " fill-opacity="1" fill-rule="nonzero"/><path fill="#bab195" d="M 505.351562 674.667969 L 484.136719 670.910156 L 505.351562 667.15625 L 509.109375 645.914062 L 512.867188 667.15625 L 534.082031 670.910156 L 512.867188 674.667969 L 509.109375 695.910156 L 505.351562 674.667969 " fill-opacity="1" fill-rule="nonzero"/><path fill="#bab195" d="M 185.8125 185.8125 L 172.984375 183.539062 L 185.8125 181.269531 L 188.082031 168.429688 L 190.351562 181.269531 L 203.183594 183.539062 L 190.351562 185.8125 L 188.082031 198.648438 L 185.8125 185.8125 " fill-opacity="1" fill-rule="nonzero"/><path fill="#bab195" d="M 254.308594 168.703125 L 262.335938 162.875 L 270.359375 168.703125 L 267.289062 159.273438 L 275.324219 153.429688 L 265.398438 153.429688 L 262.335938 143.992188 L 259.273438 153.429688 L 249.347656 153.429688 L 257.371094 159.273438 Z M 255.527344 148.277344 L 262.335938 127.335938 L 269.128906 148.277344 L 291.148438 148.277344 L 273.335938 161.238281 L 280.136719 182.179688 L 262.335938 169.234375 L 244.53125 182.179688 L 251.324219 161.238281 L 233.523438 148.277344 L 255.527344 148.277344 " fill-opacity="1" fill-rule="nonzero"/><path fill="#bab195" d="M 331.195312 133.644531 C 331.195312 138.070312 334.792969 141.671875 339.21875 141.671875 C 343.636719 141.671875 347.234375 138.070312 347.234375 133.644531 C 347.234375 129.214844 343.636719 125.613281 339.21875 125.613281 C 334.792969 125.613281 331.195312 129.214844 331.195312 133.644531 Z M 326.050781 133.644531 C 326.050781 126.382812 331.957031 120.472656 339.21875 120.472656 C 346.472656 120.472656 352.378906 126.382812 352.378906 133.644531 C 352.378906 140.910156 346.472656 146.816406 339.21875 146.816406 C 331.957031 146.816406 326.050781 140.910156 326.050781 133.644531 " fill-opacity="1" fill-rule="nonzero"/><path fill="#bab195" d="M 104.21875 411.03125 L 116.171875 402.339844 L 128.128906 411.03125 L 123.566406 396.960938 L 135.527344 388.257812 L 120.734375 388.257812 L 116.171875 374.191406 L 111.605469 388.257812 L 96.824219 388.257812 L 108.785156 396.960938 Z M 107.863281 383.117188 L 116.171875 357.539062 L 124.480469 383.117188 L 151.347656 383.117188 L 129.613281 398.933594 L 137.90625 424.503906 L 116.171875 408.699219 L 94.433594 424.503906 L 102.738281 398.933594 L 81 383.117188 L 107.863281 383.117188 " fill-opacity="1" fill-rule="nonzero"/><path fill="#bab195" d="M 182.5625 588.496094 L 205.355469 584.453125 L 182.5625 580.417969 L 178.53125 557.609375 L 174.5 580.417969 L 151.703125 584.453125 L 174.5 588.496094 L 178.53125 611.304688 L 182.5625 588.496094 " fill-opacity="1" fill-rule="nonzero"/><path fill="#bab195" d="M 214.722656 642.949219 C 214.722656 647.074219 218.082031 650.433594 222.210938 650.433594 C 226.335938 650.433594 229.695312 647.074219 229.695312 642.949219 C 229.695312 638.8125 226.335938 635.453125 222.210938 635.453125 C 218.082031 635.453125 214.722656 638.8125 214.722656 642.949219 Z M 209.585938 642.949219 C 209.585938 635.972656 215.246094 630.308594 222.210938 630.308594 C 229.171875 630.308594 234.832031 635.972656 234.832031 642.949219 C 234.832031 649.914062 229.171875 655.578125 222.210938 655.578125 C 215.246094 655.578125 209.585938 649.914062 209.585938 642.949219 " fill-opacity="1" fill-rule="nonzero"/><path fill="#bab195" d="M 128.542969 513.074219 L 136.332031 509.496094 L 137.875 517.925781 L 141.546875 510.183594 L 148.144531 515.640625 L 145.976562 507.34375 L 154.539062 507.289062 L 147.558594 502.335938 L 154.078125 496.777344 L 145.542969 497.464844 L 146.957031 489.015625 L 140.871094 495.039062 L 136.535156 487.644531 L 135.746094 496.183594 L 127.671875 493.308594 L 132.550781 500.355469 L 124.511719 503.347656 L 132.769531 505.613281 Z M 124.554688 497.84375 L 114.375 483.109375 L 131.242188 489.121094 L 132.910156 471.285156 L 141.964844 486.730469 L 154.691406 474.144531 L 151.710938 491.808594 L 169.542969 490.355469 L 155.914062 501.960938 L 170.515625 512.3125 L 152.625 512.445312 L 157.148438 529.78125 L 143.359375 518.359375 L 135.707031 534.542969 L 132.460938 516.9375 L 116.210938 524.398438 L 125.039062 508.828125 L 107.789062 504.089844 L 124.554688 497.84375 " fill-opacity="1" fill-rule="nonzero"/><path fill="#bab195" d="M 128.917969 304.515625 L 136.707031 300.9375 L 138.25 309.367188 L 141.917969 301.625 L 148.519531 307.082031 L 146.351562 298.785156 L 154.914062 298.730469 L 147.933594 293.773438 L 154.453125 288.21875 L 145.917969 288.90625 L 147.339844 280.457031 L 141.25 286.472656 L 136.914062 279.085938 L 136.121094 287.617188 L 128.050781 284.742188 L 132.921875 291.796875 L 124.894531 294.789062 L 133.148438 297.054688 Z M 124.933594 289.285156 L 114.757812 274.550781 L 131.613281 280.5625 L 133.28125 262.726562 L 142.339844 278.171875 L 155.066406 265.585938 L 152.082031 283.242188 L 169.914062 281.792969 L 156.292969 293.402344 L 170.890625 303.753906 L 153.003906 303.886719 L 157.523438 321.214844 L 143.734375 309.792969 L 136.078125 325.984375 L 132.84375 308.375 L 116.585938 315.835938 L 125.414062 300.269531 L 108.164062 295.53125 L 124.933594 289.285156 " fill-opacity="1" fill-rule="nonzero"/><path fill="#bab195" d="M 303.179688 674.667969 L 324.394531 670.910156 L 303.179688 667.15625 L 299.421875 645.914062 L 295.671875 667.15625 L 274.449219 670.910156 L 295.671875 674.667969 L 299.421875 695.910156 L 303.179688 674.667969 " fill-opacity="1" fill-rule="nonzero"/><path fill="#bab195" d="M 462.625 460.660156 C 463.652344 436.894531 464.621094 414.269531 454.621094 397.558594 C 455.015625 409.652344 453.753906 422.726562 452.449219 436.21875 C 449.945312 461.960938 447.386719 488.515625 455.53125 512.652344 C 458.199219 509.867188 460.910156 507.109375 463.644531 504.382812 C 461.335938 490.726562 461.984375 475.453125 462.625 460.660156 Z M 484.996094 483.953125 C 483.332031 474.320312 482.078125 462.5625 481.613281 455.675781 C 479.917969 430.753906 477.835938 414.164062 463.105469 394.171875 L 463.210938 394.097656 C 462.570312 393.597656 461.976562 393.148438 461.402344 392.726562 C 459.160156 391.089844 457.226562 389.679688 454.917969 385.414062 C 454.601562 384.84375 454.296875 384.230469 453.957031 383.578125 C 453.628906 382.921875 453.269531 382.214844 452.875 381.5 C 453.300781 383.554688 453.636719 385.667969 453.894531 387.8125 C 470.101562 406.449219 468.917969 434.109375 467.765625 460.878906 C 467.191406 474.085938 466.601562 487.679688 468.164062 499.902344 C 473.777344 494.398438 479.441406 489.0625 484.996094 483.953125 Z M 507.660156 463.804688 C 506.160156 458.363281 503.390625 453.050781 499.199219 447.601562 C 498.476562 446.660156 497.921875 446.011719 497.46875 445.46875 C 496.460938 444.28125 495.742188 443.433594 494.726562 441.441406 C 493.605469 439.285156 492.824219 437.140625 492.070312 435.0625 C 491.128906 432.472656 490.242188 430.019531 488.738281 427.59375 C 487.804688 426.078125 486.644531 424.402344 485.507812 422.777344 C 483.949219 420.523438 482.332031 418.191406 481.25 416.191406 C 480.671875 415.117188 480.125 414.257812 479.570312 413.496094 C 484.339844 426.304688 485.65625 439.398438 486.738281 455.335938 C 487.144531 461.328125 488.164062 471.09375 489.535156 479.832031 C 495.847656 474.117188 501.960938 468.734375 507.660156 463.804688 Z M 505.4375 599.128906 C 508.808594 576.550781 504.882812 558.488281 494.003906 546.859375 C 483.355469 535.472656 466.167969 530.527344 444.324219 532.585938 C 441.714844 535.625 439.179688 538.65625 436.757812 541.703125 C 410.441406 574.667969 402.632812 599.695312 413.53125 616.09375 C 417.53125 622.113281 424.605469 625.160156 434.554688 625.160156 C 459.65625 625.160156 494.917969 606.34375 504.925781 599.476562 C 505.097656 599.363281 505.265625 599.242188 505.4375 599.128906 Z M 537.519531 274.496094 C 537.832031 273.328125 538.285156 272.171875 538.875 271.0625 C 529.496094 262.292969 497.503906 252.09375 462.945312 261.546875 C 454.714844 267.71875 443.070312 273.46875 428.007812 278.753906 C 445.398438 284.296875 470.398438 279.953125 492.730469 276.058594 C 513.097656 272.511719 529.371094 269.695312 537.519531 274.496094 Z M 541.9375 266.882812 C 542.84375 265.960938 543.851562 265.132812 544.925781 264.425781 C 528.703125 240.945312 497.054688 232.429688 475.9375 229.355469 C 476.980469 232.082031 477.5625 234.878906 477.574219 237.734375 C 477.59375 243.597656 475.277344 249.203125 470.632812 254.511719 C 501.460938 248.867188 530.8125 256.957031 541.9375 266.882812 Z M 549.640625 262.234375 C 550.988281 261.820312 552.382812 261.566406 553.808594 261.480469 C 543.359375 242.414062 521.96875 222.1875 496.835938 207.8125 C 471.632812 193.417969 446.519531 186.832031 426.398438 189.117188 C 439.652344 195.070312 463.386719 207.921875 473.164062 223.785156 C 495.238281 226.5625 531.550781 235.253906 549.640625 262.234375 Z M 601.714844 476.976562 C 614.214844 439.765625 619.019531 398.457031 614.894531 363.671875 C 609.851562 321.109375 591.832031 288.429688 562.800781 269.179688 C 560.21875 267.464844 557.527344 266.59375 554.777344 266.59375 C 552.820312 266.59375 550.914062 267.078125 549.179688 267.929688 C 561.511719 279.425781 570.546875 291.210938 579.84375 307.84375 L 575.367188 310.355469 C 566.183594 293.949219 557.285156 282.414062 545.035156 271.109375 C 544.621094 271.585938 544.238281 272.078125 543.898438 272.613281 C 541.835938 275.886719 541.578125 279.714844 543.183594 283.113281 C 587.105469 375.5 553.976562 431.023438 518.453125 461.3125 C 501.101562 476.117188 478.046875 496.390625 457.527344 518.019531 C 457.53125 518.023438 457.53125 518.023438 457.53125 518.039062 L 457.507812 518.050781 C 454.65625 521.042969 451.867188 524.070312 449.144531 527.101562 C 470.140625 526.160156 486.878906 531.703125 497.757812 543.339844 C 508.941406 555.308594 513.507812 573.125 511.136719 595.09375 C 528.117188 582.816406 543.210938 569.222656 556.207031 554.515625 L 556.226562 554.449219 C 556.238281 554.449219 556.257812 554.457031 556.273438 554.457031 C 576.929688 531.082031 592.316406 504.960938 601.714844 476.976562 Z M 625.886719 564.960938 C 625.125 564.40625 624.265625 563.847656 623.191406 563.265625 C 621.203125 562.183594 618.867188 560.566406 616.609375 559.003906 C 614.988281 557.882812 613.300781 556.707031 611.800781 555.785156 C 609.375 554.28125 606.925781 553.386719 604.324219 552.453125 C 602.261719 551.691406 600.113281 550.914062 597.964844 549.792969 C 595.980469 548.777344 595.128906 548.042969 593.941406 547.046875 C 593.398438 546.59375 592.753906 546.039062 591.8125 545.316406 C 586.691406 541.363281 581.6875 538.679688 576.585938 537.136719 C 572.144531 543.378906 567.378906 549.472656 562.273438 555.402344 C 570.273438 556.566406 578.703125 557.421875 584.082031 557.789062 C 600.007812 558.855469 613.074219 560.179688 625.886719 564.960938 Z M 603.535156 592.53125 C 616.953125 591.078125 629.953125 589.691406 642 590.011719 C 625.355469 579.910156 602.96875 580.894531 579.464844 581.921875 C 565.121094 582.550781 550.320312 583.199219 536.910156 581.066406 C 533.621094 583.980469 530.222656 586.839844 526.753906 589.636719 C 551.101562 598.167969 577.730469 595.308594 603.535156 592.53125 Z M 657.894531 591.675781 C 657.160156 591.285156 656.449219 590.914062 655.78125 590.578125 C 655.125 590.246094 654.511719 589.925781 653.945312 589.628906 C 649.679688 587.3125 648.273438 585.382812 646.636719 583.136719 C 646.222656 582.558594 645.78125 581.960938 645.269531 581.328125 L 645.195312 581.429688 C 625.21875 566.691406 608.65625 564.601562 583.742188 562.925781 C 577.507812 562.503906 567.265625 561.421875 558.214844 559.992188 C 553.074219 565.683594 547.628906 571.203125 541.882812 576.550781 C 553.703125 577.902344 566.644531 577.332031 579.238281 576.785156 C 605.6875 575.625 632.996094 574.425781 651.601562 590.679688 C 653.738281 590.941406 655.839844 591.265625 657.894531 591.675781 Z M 668.660156 596.195312 L 669.382812 600.539062 L 665.242188 599.042969 C 648.277344 592.890625 626.816406 595.195312 604.089844 597.644531 C 576.648438 600.597656 548.304688 603.644531 522.035156 593.378906 C 517.445312 596.925781 512.71875 600.382812 507.832031 603.722656 C 497.484375 610.824219 460.875 630.308594 434.554688 630.308594 C 422.773438 630.308594 414.257812 626.488281 409.242188 618.949219 C 396.96875 600.472656 404.871094 573.398438 432.734375 538.496094 C 438.527344 531.242188 444.898438 523.976562 451.558594 516.855469 C 441.976562 490.984375 444.691406 462.910156 447.320312 435.722656 C 449.558594 412.773438 451.652344 391.089844 445.507812 374.109375 L 444.003906 369.964844 L 448.34375 370.699219 C 453.613281 371.578125 456.464844 377.171875 458.539062 381.246094 C 458.847656 381.851562 459.148438 382.433594 459.441406 382.960938 C 461.195312 386.214844 462.410156 387.097656 464.425781 388.574219 C 465.535156 389.375 466.796875 390.300781 468.34375 391.738281 C 470.574219 393.816406 471.714844 396.101562 472.730469 398.125 C 473.695312 400.046875 474.53125 401.703125 476.167969 403.132812 C 476.867188 403.734375 477.496094 404.277344 478.089844 404.777344 C 481.117188 407.347656 483.320312 409.210938 485.769531 413.742188 C 486.71875 415.492188 488.257812 417.703125 489.734375 419.839844 C 490.894531 421.523438 492.109375 423.261719 493.109375 424.882812 C 494.886719 427.769531 495.914062 430.585938 496.902344 433.3125 C 497.636719 435.324219 498.324219 437.214844 499.292969 439.089844 C 500.039062 440.546875 500.492188 441.089844 501.386719 442.144531 C 501.894531 442.730469 502.488281 443.4375 503.269531 444.460938 C 507.300781 449.683594 510.136719 454.855469 511.917969 460.144531 C 512.992188 459.214844 514.074219 458.289062 515.121094 457.394531 C 577 404.625 562.003906 334.6875 538.546875 285.324219 C 538.214844 284.644531 537.945312 283.949219 537.734375 283.246094 L 537.621094 283.253906 C 537.453125 281.523438 536.804688 280.28125 535.582031 279.359375 C 529.683594 274.851562 512.160156 277.902344 493.613281 281.128906 C 478.695312 283.730469 462.632812 286.519531 448.097656 286.519531 C 437.382812 286.519531 427.492188 285.003906 419.503906 280.757812 L 414.125 277.902344 L 419.925781 276.039062 C 454.328125 264.972656 472.480469 251.726562 472.433594 237.753906 C 472.421875 234.648438 471.566406 231.574219 470.085938 228.59375 C 470.039062 228.582031 469.980469 228.582031 469.925781 228.574219 L 469.953125 228.335938 C 459.921875 208.648438 422.527344 192.542969 416.5 190.65625 L 408 187.988281 L 416.617188 185.710938 C 439.179688 179.753906 469.351562 186.1875 499.382812 203.351562 C 526.679688 218.960938 549.757812 241.414062 559.984375 262.214844 C 561.910156 262.789062 563.808594 263.675781 565.636719 264.886719 C 595.96875 285.003906 614.777344 318.945312 619.996094 363.0625 C 624.210938 398.585938 619.328125 440.699219 606.585938 478.621094 C 600.226562 497.589844 591.15625 515.714844 579.636719 532.71875 C 584.804688 534.503906 589.84375 537.300781 594.949219 541.242188 C 595.96875 542.023438 596.667969 542.625 597.261719 543.125 C 598.324219 544.023438 598.84375 544.460938 600.320312 545.222656 C 602.175781 546.191406 604.078125 546.878906 606.085938 547.617188 C 608.808594 548.605469 611.625 549.621094 614.507812 551.402344 C 616.128906 552.410156 617.859375 553.613281 619.546875 554.777344 C 621.683594 556.265625 623.890625 557.800781 625.640625 558.75 C 630.164062 561.195312 632.027344 563.398438 634.597656 566.433594 C 635.097656 567.03125 635.636719 567.667969 636.238281 568.355469 C 637.667969 569.992188 639.320312 570.828125 641.25 571.796875 C 643.265625 572.8125 645.554688 573.953125 647.632812 576.191406 C 649.074219 577.734375 649.988281 578.996094 650.800781 580.113281 C 652.261719 582.128906 653.15625 583.339844 656.394531 585.101562 C 656.929688 585.390625 657.5 585.691406 658.109375 585.996094 C 662.195312 588.074219 667.773438 590.914062 668.660156 596.195312 " fill-opacity="1" fill-rule="nonzero"/><path fill="#bab195" d="M 529.035156 553.886719 L 523.945312 554.589844 C 521.046875 533.433594 509.027344 519.820312 489.179688 515.21875 L 490.335938 510.210938 C 512.453125 515.332031 525.828125 530.433594 529.035156 553.886719 " fill-opacity="1" fill-rule="nonzero"/><path fill="#bab195" d="M 488.039062 595.148438 L 487.230469 600.230469 C 486.628906 600.125 484.300781 599.796875 481.457031 599.898438 C 481.492188 599.957031 481.546875 600.011719 481.566406 600.085938 C 482.460938 602.34375 480.746094 605.132812 477.714844 606.328125 C 474.703125 607.523438 471.527344 606.671875 470.648438 604.417969 C 470.59375 604.304688 470.558594 604.191406 470.535156 604.078125 C 469.78125 604.972656 469.183594 606.042969 468.8125 607.332031 L 463.878906 605.910156 C 466.847656 595.589844 478.75 593.652344 488.039062 595.148438 " fill-opacity="1" fill-rule="nonzero"/><path fill="#bab195" d="M 436.71875 559.324219 C 438.894531 560.375 439.519531 563.605469 438.113281 566.527344 C 436.703125 569.457031 433.792969 570.972656 431.617188 569.925781 C 429.4375 568.871094 428.796875 565.652344 430.210938 562.71875 C 431.617188 559.800781 434.527344 558.277344 436.71875 559.324219 " fill-opacity="1" fill-rule="nonzero"/><path fill="#bab195" d="M 434.382812 615.746094 C 435.824219 615.746094 436.992188 616.910156 436.992188 618.347656 C 436.992188 619.789062 435.824219 620.964844 434.382812 620.964844 C 432.941406 620.964844 431.777344 619.789062 431.777344 618.347656 C 431.777344 616.910156 432.941406 615.746094 434.382812 615.746094 " fill-opacity="1" fill-rule="nonzero"/><path fill="#bab195" d="M 417.269531 602.242188 C 418.710938 602.242188 419.871094 603.417969 419.871094 604.859375 C 419.871094 606.296875 418.710938 607.464844 417.269531 607.464844 C 415.835938 607.464844 414.671875 606.296875 414.671875 604.859375 C 414.671875 603.417969 415.835938 602.242188 417.269531 602.242188 " fill-opacity="1" fill-rule="nonzero"/><path fill="#bab195" d="M 242.152344 258.425781 C 234.164062 257.265625 225.722656 256.410156 220.335938 256.035156 C 204.417969 254.964844 191.34375 253.648438 178.53125 248.867188 C 179.300781 249.429688 180.152344 249.976562 181.234375 250.5625 C 183.230469 251.644531 185.566406 253.257812 187.816406 254.824219 C 189.4375 255.953125 191.117188 257.117188 192.628906 258.046875 C 195.054688 259.546875 197.5 260.445312 200.101562 261.386719 C 202.171875 262.140625 204.304688 262.914062 206.46875 264.035156 C 208.449219 265.050781 209.304688 265.78125 210.488281 266.78125 C 211.035156 267.238281 211.679688 267.792969 212.617188 268.511719 C 217.734375 272.460938 222.734375 275.144531 227.84375 276.703125 C 232.28125 270.441406 237.054688 264.351562 242.152344 258.425781 Z M 246.203125 253.835938 C 251.34375 248.152344 256.796875 242.628906 262.542969 237.277344 C 250.730469 235.929688 237.777344 236.496094 225.1875 237.050781 C 198.746094 238.207031 171.4375 239.394531 152.824219 223.152344 C 150.6875 222.890625 148.59375 222.5625 146.53125 222.148438 C 147.25 222.542969 147.972656 222.910156 148.640625 223.25 C 149.285156 223.585938 149.914062 223.898438 150.476562 224.199219 C 154.746094 226.511719 156.15625 228.449219 157.78125 230.691406 C 158.203125 231.265625 158.644531 231.867188 159.152344 232.503906 L 159.230469 232.402344 C 179.210938 247.136719 195.769531 249.226562 220.683594 250.90625 C 226.925781 251.324219 237.167969 252.40625 246.203125 253.835938 Z M 267.519531 232.761719 C 270.8125 229.851562 274.1875 226.984375 277.664062 224.1875 C 253.332031 215.667969 226.691406 218.523438 200.882812 221.300781 C 187.476562 222.75 174.480469 224.140625 162.429688 223.820312 C 179.066406 233.910156 201.449219 232.941406 224.960938 231.90625 C 239.316406 231.28125 254.113281 230.632812 267.519531 232.761719 Z M 323.175781 397.636719 C 323.75 398.707031 324.300781 399.574219 324.863281 400.335938 C 320.078125 387.523438 318.761719 374.433594 317.683594 358.496094 C 317.28125 352.507812 316.265625 342.742188 314.898438 334 C 308.585938 339.722656 302.464844 345.09375 296.773438 350.023438 C 298.273438 355.46875 301.023438 360.777344 305.230469 366.230469 C 305.949219 367.164062 306.511719 367.824219 306.964844 368.375 C 307.957031 369.542969 308.679688 370.398438 309.707031 372.382812 C 310.828125 374.546875 311.59375 376.683594 312.355469 378.753906 C 313.296875 381.359375 314.183594 383.808594 315.6875 386.234375 C 316.621094 387.75 317.789062 389.421875 318.902344 391.050781 C 320.472656 393.300781 322.09375 395.640625 323.175781 397.636719 Z M 326.851562 576.097656 C 326.824219 570.234375 329.148438 564.621094 333.792969 559.304688 C 326.765625 560.585938 319.804688 561.1875 313.117188 561.1875 C 290.519531 561.1875 271.078125 554.609375 262.480469 546.953125 C 261.574219 547.871094 260.582031 548.691406 259.5 549.40625 C 275.722656 572.882812 307.371094 581.394531 328.488281 584.480469 C 327.453125 581.75 326.863281 578.949219 326.851562 576.097656 Z M 350.464844 430.246094 C 350.796875 430.910156 351.164062 431.617188 351.550781 432.324219 C 351.132812 430.261719 350.789062 428.15625 350.523438 426.019531 C 334.328125 407.382812 335.515625 379.722656 336.664062 352.945312 C 337.238281 339.746094 337.824219 326.144531 336.261719 313.933594 C 330.636719 319.425781 324.984375 324.769531 319.429688 329.871094 C 321.097656 339.523438 322.355469 351.28125 322.8125 358.152344 C 324.503906 383.089844 326.585938 399.660156 341.320312 419.660156 L 341.21875 419.734375 C 341.855469 420.246094 342.449219 420.675781 343.027344 421.101562 C 345.273438 422.738281 347.199219 424.148438 349.515625 428.417969 C 349.824219 428.984375 350.128906 429.597656 350.464844 430.246094 Z M 351.984375 377.613281 C 354.46875 351.859375 357.042969 325.316406 348.902344 301.175781 C 346.226562 303.960938 343.511719 306.71875 340.785156 309.457031 C 343.089844 323.105469 342.441406 338.375 341.800781 353.171875 C 340.773438 376.929688 339.8125 399.5625 349.789062 416.28125 C 349.402344 404.183594 350.671875 391.109375 351.984375 377.613281 Z M 355.277344 286.734375 C 353.734375 286.808594 352.21875 286.847656 350.730469 286.847656 C 331.863281 286.847656 316.761719 281.269531 306.671875 270.484375 C 295.472656 258.519531 290.917969 240.703125 293.296875 218.734375 C 276.296875 231.011719 261.214844 244.605469 248.207031 259.308594 L 248.199219 259.382812 C 248.1875 259.382812 248.167969 259.382812 248.160156 259.375 C 227.503906 282.738281 212.109375 308.871094 202.710938 336.851562 C 190.210938 374.066406 185.398438 415.371094 189.53125 450.171875 C 194.582031 492.722656 212.59375 525.390625 241.632812 544.65625 C 244.210938 546.367188 246.90625 547.234375 249.640625 547.234375 C 251.605469 547.234375 253.511719 546.746094 255.253906 545.890625 C 242.90625 534.394531 233.878906 522.621094 224.574219 505.988281 L 229.066406 503.476562 C 238.234375 519.882812 247.140625 531.417969 259.390625 542.710938 C 259.800781 542.238281 260.1875 541.742188 260.511719 541.210938 C 262.597656 537.9375 262.847656 534.109375 261.234375 530.714844 C 217.320312 438.328125 250.449219 382.808594 285.96875 352.507812 C 303.320312 337.714844 326.378906 317.441406 346.894531 295.8125 C 346.894531 295.800781 346.894531 295.800781 346.894531 295.792969 L 346.925781 295.777344 C 349.761719 292.785156 352.546875 289.773438 355.277344 286.734375 Z M 341.488281 552.285156 C 349.703125 546.113281 361.347656 540.359375 376.410156 535.078125 C 359.011719 529.535156 334.03125 533.882812 311.703125 537.761719 C 291.332031 541.316406 275.054688 544.136719 266.902344 539.324219 C 266.59375 540.5 266.140625 541.65625 265.546875 542.78125 C 274.9375 551.535156 306.929688 561.730469 341.488281 552.285156 Z M 307.597656 606.007812 C 332.785156 620.410156 357.890625 626.996094 378.015625 624.710938 C 364.773438 618.761719 341.039062 605.910156 331.257812 590.050781 C 309.191406 587.257812 272.875 578.574219 254.789062 551.601562 C 253.445312 552.003906 252.042969 552.265625 250.617188 552.34375 C 261.074219 571.414062 282.457031 591.632812 307.597656 606.007812 Z M 367.667969 272.121094 C 393.984375 239.160156 401.800781 214.132812 390.902344 197.726562 C 386.902344 191.710938 379.828125 188.664062 369.871094 188.664062 C 344.777344 188.664062 309.5 207.488281 299.496094 214.355469 C 299.328125 214.46875 299.15625 214.585938 298.996094 214.699219 C 295.617188 237.277344 299.550781 255.339844 310.421875 266.96875 C 321.078125 278.371094 338.257812 283.300781 360.09375 281.238281 C 362.71875 278.21875 365.246094 275.164062 367.667969 272.121094 Z M 396.433594 625.839844 L 387.804688 628.117188 C 382.292969 629.574219 376.320312 630.289062 370.003906 630.289062 C 350.503906 630.289062 327.738281 623.457031 305.046875 610.476562 C 277.738281 594.867188 254.667969 572.410156 244.449219 551.617188 C 242.515625 551.042969 240.617188 550.152344 238.789062 548.9375 C 208.449219 528.832031 189.65625 494.886719 184.425781 450.78125 C 180.207031 415.246094 185.097656 373.121094 197.839844 335.203125 C 204.207031 316.246094 213.269531 298.125 224.789062 281.105469 C 219.628906 279.328125 214.589844 276.527344 209.480469 272.585938 C 208.457031 271.804688 207.75 271.203125 207.164062 270.703125 C 206.109375 269.808594 205.574219 269.359375 204.113281 268.605469 C 202.242188 267.636719 200.347656 266.941406 198.347656 266.214844 C 195.617188 265.226562 192.800781 264.210938 189.925781 262.425781 C 188.296875 261.417969 186.558594 260.214844 184.886719 259.054688 C 182.742188 257.570312 180.535156 256.027344 178.785156 255.078125 C 174.253906 252.636719 172.40625 250.429688 169.824219 247.390625 C 169.328125 246.796875 168.792969 246.164062 168.1875 245.46875 C 166.757812 243.832031 165.089844 242.996094 163.183594 242.035156 C 161.167969 241.027344 158.871094 239.871094 156.796875 237.640625 C 155.355469 236.097656 154.4375 234.828125 153.632812 233.71875 C 152.15625 231.699219 151.277344 230.484375 148.027344 228.726562 C 147.5 228.441406 146.925781 228.148438 146.308594 227.832031 C 142.238281 225.761719 136.652344 222.910156 135.765625 217.632812 L 135.039062 213.292969 L 139.183594 214.78125 C 156.148438 220.941406 177.617188 218.628906 200.335938 216.183594 C 227.777344 213.230469 256.128906 210.191406 282.382812 220.453125 C 286.980469 216.90625 291.714844 213.445312 296.59375 210.097656 C 306.949219 203.011719 343.550781 183.519531 369.871094 183.519531 C 381.65625 183.519531 390.171875 187.335938 395.183594 194.890625 C 407.453125 213.351562 399.558594 240.425781 371.695312 275.332031 C 365.90625 282.585938 359.527344 289.855469 352.867188 296.972656 C 362.449219 322.84375 359.734375 350.917969 357.089844 378.105469 C 354.875 401.0625 352.773438 422.738281 358.925781 439.710938 L 360.429688 443.859375 L 356.082031 443.132812 C 350.8125 442.257812 347.960938 436.671875 345.886719 432.585938 C 345.578125 431.976562 345.277344 431.390625 344.992188 430.867188 C 343.234375 427.617188 342.023438 426.726562 340.007812 425.257812 C 338.890625 424.457031 337.628906 423.539062 336.089844 422.097656 C 333.851562 420.007812 332.703125 417.722656 331.695312 415.707031 C 330.730469 413.78125 329.894531 412.125 328.253906 410.695312 C 327.566406 410.085938 326.925781 409.554688 326.339844 409.050781 C 323.292969 406.472656 321.105469 404.617188 318.648438 400.089844 C 317.703125 398.339844 316.171875 396.128906 314.691406 393.984375 C 313.515625 392.304688 312.316406 390.570312 311.320312 388.941406 C 309.53125 386.0625 308.511719 383.242188 307.523438 380.511719 C 306.796875 378.507812 306.109375 376.617188 305.140625 374.738281 C 304.382812 373.277344 303.933594 372.742188 303.046875 371.6875 C 302.539062 371.097656 301.945312 370.382812 301.15625 369.367188 C 297.121094 364.136719 294.289062 358.976562 292.515625 353.683594 C 291.421875 354.613281 290.351562 355.535156 289.304688 356.429688 C 227.429688 409.207031 242.414062 479.140625 265.886719 528.503906 C 266.199219 529.191406 266.472656 529.882812 266.695312 530.582031 L 266.808594 530.570312 C 266.855469 531.003906 266.921875 531.402344 267.027344 531.777344 C 267.027344 531.777344 267.027344 531.777344 267.027344 531.785156 C 267.335938 532.90625 267.929688 533.769531 268.84375 534.46875 C 274.75 538.980469 292.269531 535.933594 310.816406 532.699219 C 336.734375 528.183594 366.101562 523.066406 384.914062 533.074219 L 390.300781 535.925781 L 384.507812 537.78125 C 350.089844 548.859375 331.929688 562.105469 331.996094 576.078125 C 332.003906 579.183594 332.859375 582.25 334.339844 585.234375 C 334.394531 585.25 334.441406 585.25 334.492188 585.253906 L 334.472656 585.488281 C 344.511719 605.175781 381.90625 621.285156 387.917969 623.175781 L 396.433594 625.839844 " fill-opacity="1" fill-rule="nonzero"/><path fill="#bab195" d="M 335.613281 206.5 L 340.546875 207.921875 C 338.144531 216.277344 329.886719 219.125 321.914062 219.125 C 320.023438 219.125 318.15625 218.96875 316.386719 218.683594 L 317.203125 213.613281 C 318.796875 213.851562 332.917969 215.828125 335.613281 206.5 " fill-opacity="1" fill-rule="nonzero"/><path fill="#bab195" d="M 315.246094 298.609375 L 314.085938 303.621094 C 291.980469 298.496094 278.59375 283.386719 275.394531 259.9375 L 280.480469 259.242188 C 283.371094 280.394531 295.390625 294.007812 315.246094 298.609375 " fill-opacity="1" fill-rule="nonzero"/><path fill="#bab195" d="M 333.785156 209.417969 C 334.679688 211.667969 332.953125 214.46875 329.933594 215.664062 C 326.917969 216.859375 323.75 215.996094 322.859375 213.746094 C 321.964844 211.488281 323.6875 208.695312 326.703125 207.5 C 329.722656 206.296875 332.890625 207.160156 333.785156 209.417969 " fill-opacity="1" fill-rule="nonzero"/><path fill="#bab195" d="M 362.324219 260.609375 C 361.515625 251.230469 364.292969 239.484375 374.785156 237.257812 L 375.851562 242.289062 C 366.355469 244.304688 367.308594 258.554688 367.449219 260.164062 L 362.324219 260.609375 " fill-opacity="1" fill-rule="nonzero"/><path fill="#bab195" d="M 372.816406 243.90625 C 370.632812 242.847656 367.714844 244.371094 366.308594 247.296875 C 364.90625 250.222656 365.535156 253.449219 367.714844 254.503906 C 369.898438 255.554688 372.808594 254.039062 374.214844 251.105469 C 375.625 248.179688 374.996094 244.960938 372.816406 243.90625 " fill-opacity="1" fill-rule="nonzero"/><path fill="#bab195" d="M 280.828125 299.238281 C 279.914062 299.238281 279.167969 298.492188 279.167969 297.570312 C 279.167969 296.648438 279.914062 295.90625 280.828125 295.90625 C 281.75 295.90625 282.496094 296.648438 282.496094 297.570312 C 282.496094 298.492188 281.75 299.238281 280.828125 299.238281 " fill-opacity="1" fill-rule="nonzero"/><path fill="#bab195" d="M 270.269531 310.308594 C 268.648438 310.308594 267.328125 308.992188 267.328125 307.367188 C 267.328125 305.738281 268.648438 304.421875 270.269531 304.421875 C 271.898438 304.421875 273.214844 305.738281 273.214844 307.367188 C 273.214844 308.992188 271.898438 310.308594 270.269531 310.308594 " fill-opacity="1" fill-rule="nonzero"/><path fill="#bab195" d="M 260.273438 321.683594 C 258.089844 321.683594 256.324219 319.914062 256.324219 317.726562 C 256.324219 315.550781 258.089844 313.78125 260.273438 313.78125 C 262.457031 313.78125 264.222656 315.550781 264.222656 317.726562 C 264.222656 319.914062 262.457031 321.683594 260.273438 321.683594 " fill-opacity="1" fill-rule="nonzero"/><path fill="#bab195" d="M 250.921875 333.445312 C 248.292969 333.445312 246.164062 331.316406 246.164062 328.683594 C 246.164062 326.058594 248.292969 323.925781 250.921875 323.925781 C 253.546875 323.925781 255.675781 326.058594 255.675781 328.683594 C 255.675781 331.316406 253.546875 333.445312 250.921875 333.445312 " fill-opacity="1" fill-rule="nonzero"/><path fill="#bab195" d="M 242.3125 345.574219 C 239.359375 345.574219 236.96875 343.183594 236.96875 340.230469 C 236.96875 337.28125 239.359375 334.882812 242.3125 334.882812 C 245.265625 334.882812 247.652344 337.28125 247.652344 340.230469 C 247.652344 343.183594 245.265625 345.574219 242.3125 345.574219 " fill-opacity="1" fill-rule="nonzero"/><path fill="#bab195" d="M 234.546875 358.132812 C 231.363281 358.132812 228.78125 355.546875 228.78125 352.355469 C 228.78125 349.167969 231.363281 346.585938 234.546875 346.585938 C 237.734375 346.585938 240.320312 349.167969 240.320312 352.355469 C 240.320312 355.546875 237.734375 358.132812 234.546875 358.132812 " fill-opacity="1" fill-rule="nonzero"/><path fill="#bab195" d="M 227.730469 371.085938 C 224.402344 371.085938 221.699219 368.378906 221.699219 365.046875 C 221.699219 361.714844 224.402344 359.007812 227.730469 359.007812 C 231.070312 359.007812 233.765625 361.714844 233.765625 365.046875 C 233.765625 368.378906 231.070312 371.085938 227.730469 371.085938 " fill-opacity="1" fill-rule="nonzero"/><path fill="#bab195" d="M 221.972656 384.398438 C 218.574219 384.398438 215.824219 381.644531 215.824219 378.246094 C 215.824219 374.847656 218.574219 372.09375 221.972656 372.09375 C 225.367188 372.09375 228.117188 374.847656 228.117188 378.246094 C 228.117188 381.644531 225.367188 384.398438 221.972656 384.398438 " fill-opacity="1" fill-rule="nonzero"/><path fill="#bab195" d="M 217.359375 398.011719 C 213.984375 398.011719 211.242188 395.273438 211.242188 391.890625 C 211.242188 388.511719 213.984375 385.765625 217.359375 385.765625 C 220.738281 385.765625 223.480469 388.511719 223.480469 391.890625 C 223.480469 395.273438 220.738281 398.011719 217.359375 398.011719 " fill-opacity="1" fill-rule="nonzero"/><path fill="#bab195" d="M 213.976562 411.839844 C 210.691406 411.839844 208.035156 409.171875 208.035156 405.894531 C 208.035156 402.605469 210.691406 399.941406 213.976562 399.941406 C 217.261719 399.941406 219.917969 402.605469 219.917969 405.894531 C 219.917969 409.171875 217.261719 411.839844 213.976562 411.839844 " fill-opacity="1" fill-rule="nonzero"/><path fill="#bab195" d="M 211.875 425.75 C 208.769531 425.75 206.261719 423.238281 206.261719 420.140625 C 206.261719 417.035156 208.769531 414.523438 211.875 414.523438 C 214.972656 414.523438 217.480469 417.035156 217.480469 420.140625 C 217.480469 423.238281 214.972656 425.75 211.875 425.75 " fill-opacity="1" fill-rule="nonzero"/><path fill="#bab195" d="M 211.074219 439.617188 C 208.257812 439.617188 205.980469 437.339844 205.980469 434.523438 C 205.980469 431.710938 208.257812 429.425781 211.074219 429.425781 C 213.882812 429.425781 216.164062 431.710938 216.164062 434.523438 C 216.164062 437.339844 213.882812 439.617188 211.074219 439.617188 " fill-opacity="1" fill-rule="nonzero"/><path fill="#bab195" d="M 211.574219 453.324219 C 209.144531 453.324219 207.175781 451.355469 207.175781 448.917969 C 207.175781 446.484375 209.144531 444.515625 211.574219 444.515625 C 214.003906 444.515625 215.972656 446.484375 215.972656 448.917969 C 215.972656 451.355469 214.003906 453.324219 211.574219 453.324219 " fill-opacity="1" fill-rule="nonzero"/><path fill="#bab195" d="M 213.347656 466.71875 C 211.414062 466.71875 209.839844 465.148438 209.839844 463.210938 C 209.839844 461.273438 211.414062 459.703125 213.347656 459.703125 C 215.285156 459.703125 216.851562 461.273438 216.851562 463.210938 C 216.851562 465.148438 215.285156 466.71875 213.347656 466.71875 " fill-opacity="1" fill-rule="nonzero"/><path fill="#bab195" d="M 216.339844 479.667969 C 215.03125 479.667969 213.96875 478.609375 213.96875 477.304688 C 213.96875 475.988281 215.03125 474.933594 216.339844 474.933594 C 217.648438 474.933594 218.707031 475.988281 218.707031 477.304688 C 218.707031 478.609375 217.648438 479.667969 216.339844 479.667969 " fill-opacity="1" fill-rule="nonzero"/><path fill="#bab195" d="M 220.496094 492.019531 C 219.984375 492.019531 219.570312 491.605469 219.570312 491.09375 C 219.570312 490.585938 219.984375 490.171875 220.496094 490.171875 C 221.003906 490.171875 221.417969 490.585938 221.417969 491.09375 C 221.417969 491.605469 221.003906 492.019531 220.496094 492.019531 " fill-opacity="1" fill-rule="nonzero"/><path fill="#bab195" d="M 372.648438 195.476562 C 372.648438 196.917969 371.480469 198.082031 370.046875 198.082031 C 368.605469 198.082031 367.4375 196.917969 367.4375 195.476562 C 367.4375 194.035156 368.605469 192.871094 370.046875 192.871094 C 371.480469 192.871094 372.648438 194.035156 372.648438 195.476562 " fill-opacity="1" fill-rule="nonzero"/><path fill="#bab195" d="M 389.757812 208.96875 C 389.757812 210.414062 388.589844 211.582031 387.148438 211.582031 C 385.714844 211.582031 384.546875 210.414062 384.546875 208.96875 C 384.546875 207.535156 385.714844 206.363281 387.148438 206.363281 C 388.589844 206.363281 389.757812 207.535156 389.757812 208.96875 " fill-opacity="1" fill-rule="nonzero"/><path fill="#bab195" d="M 429.644531 576.570312 L 428.574219 571.535156 C 438.070312 569.523438 437.117188 555.277344 436.976562 553.667969 L 442.101562 553.21875 C 442.910156 562.597656 440.132812 574.347656 429.644531 576.570312 " fill-opacity="1" fill-rule="nonzero"/><path fill="#bab195" d="M 523.597656 517.925781 C 522.675781 517.925781 521.929688 517.175781 521.929688 516.261719 C 521.929688 515.339844 522.675781 514.589844 523.597656 514.589844 C 524.519531 514.589844 525.257812 515.339844 525.257812 516.261719 C 525.257812 517.175781 524.519531 517.925781 523.597656 517.925781 " fill-opacity="1" fill-rule="nonzero"/><path fill="#bab195" d="M 534.15625 509.40625 C 532.527344 509.40625 531.210938 508.09375 531.210938 506.460938 C 531.210938 504.839844 532.527344 503.523438 534.15625 503.523438 C 535.777344 503.523438 537.097656 504.839844 537.097656 506.460938 C 537.097656 508.09375 535.777344 509.40625 534.15625 509.40625 " fill-opacity="1" fill-rule="nonzero"/><path fill="#bab195" d="M 544.152344 500.050781 C 541.96875 500.050781 540.203125 498.28125 540.203125 496.09375 C 540.203125 493.910156 541.96875 492.140625 544.152344 492.140625 C 546.335938 492.140625 548.105469 493.910156 548.105469 496.09375 C 548.105469 498.28125 546.335938 500.050781 544.152344 500.050781 " fill-opacity="1" fill-rule="nonzero"/><path fill="#bab195" d="M 553.503906 489.902344 C 550.878906 489.902344 548.75 487.773438 548.75 485.148438 C 548.75 482.515625 550.878906 480.382812 553.503906 480.382812 C 556.132812 480.382812 558.261719 482.515625 558.261719 485.148438 C 558.261719 487.773438 556.132812 489.902344 553.503906 489.902344 " fill-opacity="1" fill-rule="nonzero"/><path fill="#bab195" d="M 562.113281 478.949219 C 559.164062 478.949219 556.773438 476.550781 556.773438 473.597656 C 556.773438 470.644531 559.164062 468.246094 562.113281 468.246094 C 565.070312 468.246094 567.457031 470.644531 567.457031 473.597656 C 567.457031 476.550781 565.070312 478.949219 562.113281 478.949219 " fill-opacity="1" fill-rule="nonzero"/><path fill="#bab195" d="M 569.878906 467.246094 C 566.691406 467.246094 564.109375 464.660156 564.109375 461.46875 C 564.109375 458.28125 566.691406 455.695312 569.878906 455.695312 C 573.0625 455.695312 575.648438 458.28125 575.648438 461.46875 C 575.648438 464.660156 573.0625 467.246094 569.878906 467.246094 " fill-opacity="1" fill-rule="nonzero"/><path fill="#bab195" d="M 576.695312 454.820312 C 573.363281 454.820312 570.660156 452.117188 570.660156 448.78125 C 570.660156 445.449219 573.363281 442.746094 576.695312 442.746094 C 580.03125 442.746094 582.726562 445.449219 582.726562 448.78125 C 582.726562 452.117188 580.03125 454.820312 576.695312 454.820312 " fill-opacity="1" fill-rule="nonzero"/><path fill="#bab195" d="M 582.453125 441.734375 C 579.058594 441.734375 576.308594 438.984375 576.308594 435.585938 C 576.308594 432.183594 579.058594 429.425781 582.453125 429.425781 C 585.851562 429.425781 588.601562 432.183594 588.601562 435.585938 C 588.601562 438.984375 585.851562 441.734375 582.453125 441.734375 " fill-opacity="1" fill-rule="nonzero"/><path fill="#bab195" d="M 587.066406 428.0625 C 583.6875 428.0625 580.945312 425.316406 580.945312 421.9375 C 580.945312 418.558594 583.6875 415.8125 587.066406 415.8125 C 590.441406 415.8125 593.1875 418.558594 593.1875 421.9375 C 593.1875 425.316406 590.441406 428.0625 587.066406 428.0625 " fill-opacity="1" fill-rule="nonzero"/><path fill="#bab195" d="M 590.449219 413.882812 C 587.164062 413.882812 584.507812 411.222656 584.507812 407.9375 C 584.507812 404.65625 587.164062 401.992188 590.449219 401.992188 C 593.734375 401.992188 596.390625 404.65625 596.390625 407.9375 C 596.390625 411.222656 593.734375 413.882812 590.449219 413.882812 " fill-opacity="1" fill-rule="nonzero"/><path fill="#bab195" d="M 592.550781 399.308594 C 589.453125 399.308594 586.945312 396.789062 586.945312 393.6875 C 586.945312 390.589844 589.453125 388.078125 592.550781 388.078125 C 595.65625 388.078125 598.164062 390.589844 598.164062 393.6875 C 598.164062 396.789062 595.65625 399.308594 592.550781 399.308594 " fill-opacity="1" fill-rule="nonzero"/><path fill="#bab195" d="M 593.351562 384.40625 C 590.542969 384.40625 588.261719 382.121094 588.261719 379.308594 C 588.261719 376.488281 590.542969 374.203125 593.351562 374.203125 C 596.167969 374.203125 598.445312 376.488281 598.445312 379.308594 C 598.445312 382.121094 596.167969 384.40625 593.351562 384.40625 " fill-opacity="1" fill-rule="nonzero"/><path fill="#bab195" d="M 592.851562 369.316406 C 590.421875 369.316406 588.453125 367.34375 588.453125 364.90625 C 588.453125 362.476562 590.421875 360.503906 592.851562 360.503906 C 595.28125 360.503906 597.25 362.476562 597.25 364.90625 C 597.25 367.34375 595.28125 369.316406 592.851562 369.316406 " fill-opacity="1" fill-rule="nonzero"/><path fill="#bab195" d="M 591.082031 354.125 C 589.148438 354.125 587.574219 352.554688 587.574219 350.617188 C 587.574219 348.683594 589.148438 347.113281 591.082031 347.113281 C 593.019531 347.113281 594.585938 348.683594 594.585938 350.617188 C 594.585938 352.554688 593.019531 354.125 591.082031 354.125 " fill-opacity="1" fill-rule="nonzero"/><path fill="#bab195" d="M 588.085938 338.894531 C 586.777344 338.894531 585.71875 337.835938 585.71875 336.523438 C 585.71875 335.214844 586.777344 334.160156 588.085938 334.160156 C 589.394531 334.160156 590.457031 335.214844 590.457031 336.523438 C 590.457031 337.835938 589.394531 338.894531 588.085938 338.894531 " fill-opacity="1" fill-rule="nonzero"/><path fill="#bab195" d="M 583.929688 323.660156 C 583.421875 323.660156 583.007812 323.246094 583.007812 322.730469 C 583.007812 322.222656 583.421875 321.808594 583.929688 321.808594 C 584.441406 321.808594 584.855469 322.222656 584.855469 322.730469 C 584.855469 323.246094 584.441406 323.660156 583.929688 323.660156 " fill-opacity="1" fill-rule="nonzero"/><path fill="#bab195" d="M 402.6875 403.78125 C 385.863281 403.78125 371.652344 387.90625 371.652344 369.113281 L 376.792969 369.113281 C 376.792969 385.121094 388.652344 398.640625 402.6875 398.640625 C 416.730469 398.640625 428.582031 385.121094 428.582031 369.113281 L 433.726562 369.113281 C 433.726562 387.90625 419.511719 403.78125 402.6875 403.78125 " fill-opacity="1" fill-rule="nonzero"/><path fill="#bab195" d="M 405.257812 448.269531 L 400.117188 448.269531 L 400.117188 369.113281 L 405.257812 369.113281 L 405.257812 448.269531 " fill-opacity="1" fill-rule="nonzero"/><path fill="#bab195" d="M 416.113281 424.84375 L 389.257812 424.84375 L 389.257812 419.691406 L 416.113281 419.691406 L 416.113281 424.84375 " fill-opacity="1" fill-rule="nonzero"/></svg>