<svg xmlns="http://www.w3.org/2000/svg" xmlns:xlink="http://www.w3.org/1999/xlink" width="1080" zoomAndPan="magnify" viewBox="0 0 810 809.999993" height="1080" preserveAspectRatio="xMidYMid meet" version="1.0"><defs><clipPath id="bcaa40f3f0"><path d="M 371 661 L 442 661 L 442 728.96875 L 371 728.96875 Z M 371 661 " clip-rule="nonzero"/></clipPath><clipPath id="913478389d"><path d="M 706 370 L 728.734375 370 L 728.734375 393 L 706 393 Z M 706 370 " clip-rule="nonzero"/></clipPath></defs><rect x="-81" width="972" fill="#ffffff" y="-80.999999" height="971.999992" fill-opacity="1"/><rect x="-81" width="972" fill="#ffffff" y="-80.999999" height="971.999992" fill-opacity="1"/><rect x="-81" width="972" fill="#11091a" y="-80.999999" height="971.999992" fill-opacity="1"/><path fill="#bab195" d="M 591.601562 524.734375 L 599.648438 518.875 L 589.691406 518.875 L 586.617188 509.410156 L 583.539062 518.875 L 573.585938 518.875 L 581.644531 524.734375 L 578.570312 534.191406 L 586.617188 528.34375 L 594.675781 534.191406 Z M 615.523438 513.71875 L 597.667969 526.703125 L 604.484375 547.699219 L 586.617188 534.714844 L 568.761719 547.699219 L 575.578125 526.703125 L 557.710938 513.71875 L 579.796875 513.71875 L 586.617188 492.722656 L 593.441406 513.71875 L 615.523438 513.71875 " fill-opacity="1" fill-rule="nonzero"/><path fill="#bab195" d="M 608.75 188.425781 L 617.039062 186.160156 L 608.976562 183.15625 L 613.871094 176.09375 L 605.769531 178.972656 L 604.976562 170.421875 L 600.625 177.824219 L 594.511719 171.789062 L 595.941406 180.257812 L 587.378906 179.566406 L 593.914062 185.136719 L 586.910156 190.113281 L 595.503906 190.164062 L 593.324219 198.480469 L 599.949219 193.011719 L 603.632812 200.769531 L 605.179688 192.316406 L 612.992188 195.910156 Z M 633.820312 186.90625 L 616.507812 191.648438 L 625.371094 207.253906 L 609.0625 199.777344 L 605.8125 217.425781 L 598.125 201.203125 L 584.289062 212.652344 L 588.832031 195.28125 L 570.878906 195.140625 L 585.527344 184.769531 L 571.863281 173.128906 L 589.75 174.585938 L 586.753906 156.878906 L 599.527344 169.503906 L 608.617188 154.011719 L 610.289062 171.890625 L 627.207031 165.867188 L 616.992188 180.636719 L 633.820312 186.90625 " fill-opacity="1" fill-rule="nonzero"/><path fill="#bab195" d="M 686.996094 472.65625 L 695.277344 470.386719 L 687.21875 467.382812 L 692.109375 460.3125 L 684.011719 463.191406 L 683.21875 454.640625 L 678.863281 462.050781 L 672.757812 456.011719 L 674.179688 464.484375 L 665.617188 463.796875 L 672.15625 469.363281 L 665.152344 474.332031 L 673.746094 474.386719 L 671.570312 482.703125 L 678.195312 477.234375 L 681.871094 484.988281 L 683.421875 476.542969 L 691.230469 480.136719 Z M 712.0625 471.128906 L 694.753906 475.875 L 703.613281 491.480469 L 687.300781 484 L 684.050781 501.652344 L 676.363281 485.421875 L 662.535156 496.878906 L 667.070312 479.507812 L 649.125 479.371094 L 663.765625 468.988281 L 650.101562 457.355469 L 667.992188 458.8125 L 665 441.105469 L 677.769531 453.722656 L 686.855469 438.242188 L 688.527344 456.117188 L 705.449219 450.089844 L 695.238281 464.863281 L 712.0625 471.128906 " fill-opacity="1" fill-rule="nonzero"/><path fill="#bab195" d="M 650.035156 578.757812 L 628.75 574.992188 L 650.035156 571.222656 L 653.804688 549.9375 L 657.570312 571.222656 L 678.863281 574.992188 L 657.570312 578.757812 L 653.804688 600.050781 L 650.035156 578.757812 " fill-opacity="1" fill-rule="nonzero"/><g clip-path="url(#bcaa40f3f0)"><path fill="#bab195" d="M 414.046875 701.359375 L 426.046875 692.632812 L 411.207031 692.632812 L 406.628906 678.53125 L 402.046875 692.632812 L 387.210938 692.632812 L 399.210938 701.359375 L 394.628906 715.464844 L 406.628906 706.742188 L 418.628906 715.464844 Z M 441.921875 687.476562 L 420.113281 703.328125 L 428.441406 728.96875 L 406.628906 713.117188 L 384.816406 728.96875 L 393.144531 703.328125 L 371.335938 687.476562 L 398.292969 687.476562 L 406.628906 661.835938 L 414.964844 687.476562 L 441.921875 687.476562 " fill-opacity="1" fill-rule="nonzero"/></g><path fill="#bab195" d="M 414.464844 120.515625 L 426.464844 111.792969 L 411.632812 111.792969 L 407.046875 97.6875 L 402.472656 111.792969 L 387.632812 111.792969 L 399.632812 120.515625 L 395.054688 134.621094 L 407.046875 125.90625 L 419.050781 134.621094 Z M 442.34375 106.632812 L 420.53125 122.488281 L 428.859375 148.125 L 407.046875 132.28125 L 385.238281 148.125 L 393.566406 122.488281 L 371.753906 106.632812 L 398.714844 106.632812 L 407.046875 81 L 415.382812 106.632812 L 442.34375 106.632812 " fill-opacity="1" fill-rule="nonzero"/><path fill="#bab195" d="M 426.335938 241.5 L 406.804688 188.53125 L 387.277344 241.5 L 406.804688 223.800781 Z M 406.804688 173.828125 L 438.28125 259.191406 L 406.804688 230.671875 L 375.335938 259.191406 L 406.804688 173.828125 " fill-opacity="1" fill-rule="nonzero"/><path fill="#bab195" d="M 459.246094 418.625 C 459.246094 389.78125 435.785156 366.304688 406.929688 366.304688 C 378.078125 366.304688 354.605469 389.78125 354.605469 418.625 C 354.605469 447.480469 378.078125 470.949219 406.929688 470.949219 C 435.785156 470.949219 459.246094 447.480469 459.246094 418.625 Z M 681.136719 387.273438 C 681.136719 383.71875 678.828125 381.445312 676.851562 380.566406 C 674.960938 379.738281 673.09375 379.941406 671.820312 381.105469 C 647.511719 403.484375 625.390625 383.492188 594.789062 355.816406 C 555.574219 320.378906 501.957031 271.914062 406.636719 267.414062 C 311.308594 271.914062 257.683594 320.378906 218.476562 355.816406 C 187.867188 383.492188 165.753906 403.484375 141.4375 381.105469 C 140.171875 379.941406 138.289062 379.738281 136.40625 380.566406 C 134.433594 381.445312 132.113281 383.71875 132.113281 387.273438 C 132.113281 392.808594 134.492188 397.492188 139.175781 401.195312 C 149.40625 409.277344 168.828125 411.15625 180.960938 408.265625 C 196.421875 404.582031 211.769531 390.671875 231.207031 373.070312 C 267.796875 339.910156 317.78125 294.636719 405.238281 289.605469 L 408.019531 289.605469 C 495.484375 294.636719 545.46875 339.910156 582.058594 373.070312 C 601.488281 390.671875 616.828125 404.582031 632.296875 408.265625 C 644.429688 411.15625 663.867188 409.261719 674.089844 401.195312 C 678.769531 397.492188 681.136719 392.808594 681.136719 387.273438 Z M 408.027344 262.398438 C 450.335938 264.566406 488.304688 275.394531 523.976562 295.507812 C 555.054688 313.042969 578.976562 334.675781 598.199219 352.046875 C 628.925781 379.824219 647.472656 396.59375 668.378906 377.359375 C 671.132812 374.828125 675.15625 374.277344 678.894531 375.917969 C 683.347656 377.871094 686.226562 382.332031 686.226562 387.273438 C 686.226562 394.34375 683.125 400.535156 677.242188 405.183594 C 669.011719 411.683594 656.027344 414.632812 644.335938 414.632812 C 639.582031 414.632812 635.042969 414.148438 631.117188 413.210938 C 628.605469 412.613281 626.121094 411.773438 623.628906 410.738281 L 429.921875 601.925781 C 430.539062 620.609375 429.992188 647.4375 429.96875 648.898438 L 429.816406 656.378906 L 406.804688 625.210938 L 383.800781 656.378906 L 383.644531 648.898438 C 383.617188 647.4375 383.085938 620.609375 383.683594 601.925781 L 189.878906 410.640625 C 187.308594 411.726562 184.730469 412.585938 182.140625 413.210938 C 178.21875 414.148438 173.667969 414.632812 168.925781 414.632812 C 157.230469 414.632812 144.257812 411.683594 136.019531 405.183594 C 130.140625 400.535156 127.023438 394.34375 127.023438 387.273438 C 127.023438 382.332031 129.902344 377.871094 134.363281 375.917969 C 138.101562 374.277344 142.125 374.828125 144.886719 377.359375 C 165.785156 396.59375 184.339844 379.824219 215.054688 352.046875 C 234.28125 334.675781 258.203125 313.042969 289.285156 295.507812 C 324.964844 275.394531 362.929688 264.566406 405.226562 262.398438 L 405.238281 262.246094 C 405.703125 262.265625 406.164062 262.304688 406.636719 262.324219 C 407.101562 262.304688 407.558594 262.265625 408.027344 262.246094 Z M 406.804688 566.992188 L 407.824219 564.664062 C 408.597656 565 426.886719 573.113281 428.976562 587.828125 C 429.238281 589.695312 429.457031 592.179688 429.625 595.078125 L 618.734375 408.429688 C 606.277344 401.886719 593.640625 390.433594 578.640625 376.835938 C 542.84375 344.394531 494.027344 300.167969 409.351562 294.785156 L 409.351562 361.273438 C 439.890625 362.558594 464.335938 387.78125 464.335938 418.625 C 464.335938 450.28125 438.585938 476.03125 406.929688 476.03125 C 375.269531 476.03125 349.519531 450.28125 349.519531 418.625 C 349.519531 387.863281 373.835938 362.675781 404.261719 361.285156 L 404.261719 294.753906 C 319.367188 300.046875 270.472656 344.355469 234.621094 376.835938 C 219.703125 390.34375 207.140625 401.742188 194.757812 408.304688 L 383.980469 595.078125 C 384.15625 592.179688 384.367188 589.695312 384.632812 587.828125 C 386.738281 573.113281 405.015625 565 405.789062 564.664062 Z M 406.804688 569.828125 C 403.207031 571.625 391.125 578.390625 389.671875 588.546875 C 388.253906 598.449219 388.4375 627.433594 388.613281 641.285156 L 404.761719 619.421875 L 406.804688 620.921875 L 408.851562 619.421875 L 425.003906 641.285156 C 425.175781 627.433594 425.359375 598.449219 423.941406 588.546875 C 422.5 578.390625 410.40625 571.625 406.804688 569.828125 " fill-opacity="1" fill-rule="nonzero"/><path fill="#bab195" d="M 417.808594 453.984375 L 412.722656 453.984375 L 412.722656 391.570312 L 417.808594 391.570312 L 417.808594 453.984375 " fill-opacity="1" fill-rule="nonzero"/><path fill="#bab195" d="M 415.265625 425.320312 L 385.722656 425.320312 L 389.738281 421.039062 C 396.496094 413.820312 399.585938 406.769531 398.902344 400.09375 C 397.972656 390.992188 390.207031 385.40625 390.128906 385.351562 L 393.046875 381.183594 C 393.441406 381.457031 402.761719 388.082031 403.960938 399.519531 C 404.675781 406.335938 402.359375 413.289062 397.082031 420.234375 L 415.265625 420.234375 L 415.265625 425.320312 " fill-opacity="1" fill-rule="nonzero"/><path fill="#bab195" d="M 409.351562 624.628906 L 404.261719 624.628906 L 404.261719 473.496094 L 409.351562 473.496094 L 409.351562 624.628906 " fill-opacity="1" fill-rule="nonzero"/><path fill="#bab195" d="M 409.351562 264.792969 L 404.261719 264.792969 L 404.261719 228.167969 L 409.351562 228.167969 L 409.351562 264.792969 " fill-opacity="1" fill-rule="nonzero"/><path fill="#bab195" d="M 184.035156 394.292969 C 183.609375 394.292969 183.261719 393.945312 183.261719 393.515625 C 183.261719 393.085938 183.609375 392.738281 184.035156 392.738281 C 184.46875 392.738281 184.816406 393.085938 184.816406 393.515625 C 184.816406 393.945312 184.46875 394.292969 184.035156 394.292969 " fill-opacity="1" fill-rule="nonzero"/><path fill="#bab195" d="M 196.789062 388.683594 C 195.992188 388.683594 195.347656 388.035156 195.347656 387.242188 C 195.347656 386.441406 195.992188 385.800781 196.789062 385.800781 C 197.589844 385.800781 198.234375 386.441406 198.234375 387.242188 C 198.234375 388.035156 197.589844 388.683594 196.789062 388.683594 " fill-opacity="1" fill-rule="nonzero"/><path fill="#bab195" d="M 208.363281 381.011719 C 207.230469 381.011719 206.3125 380.085938 206.3125 378.953125 C 206.3125 377.820312 207.230469 376.894531 208.363281 376.894531 C 209.507812 376.894531 210.425781 377.820312 210.425781 378.953125 C 210.425781 380.085938 209.507812 381.011719 208.363281 381.011719 " fill-opacity="1" fill-rule="nonzero"/><path fill="#bab195" d="M 219.269531 372.371094 C 217.839844 372.371094 216.679688 371.214844 216.679688 369.785156 C 216.679688 368.355469 217.839844 367.203125 219.269531 367.203125 C 220.699219 367.203125 221.855469 368.355469 221.855469 369.785156 C 221.855469 371.214844 220.699219 372.371094 219.269531 372.371094 " fill-opacity="1" fill-rule="nonzero"/><path fill="#bab195" d="M 229.875 363.386719 C 228.164062 363.386719 226.773438 361.996094 226.773438 360.285156 C 226.773438 358.570312 228.164062 357.183594 229.875 357.183594 C 231.59375 357.183594 232.984375 358.570312 232.984375 360.285156 C 232.984375 361.996094 231.59375 363.386719 229.875 363.386719 " fill-opacity="1" fill-rule="nonzero"/><path fill="#bab195" d="M 240.453125 354.257812 C 238.511719 354.257812 236.929688 352.683594 236.929688 350.734375 C 236.929688 348.792969 238.511719 347.21875 240.453125 347.21875 C 242.394531 347.21875 243.964844 348.792969 243.964844 350.734375 C 243.964844 352.683594 242.394531 354.257812 240.453125 354.257812 " fill-opacity="1" fill-rule="nonzero"/><path fill="#bab195" d="M 251.160156 345.28125 C 248.988281 345.28125 247.226562 343.523438 247.226562 341.351562 C 247.226562 339.175781 248.988281 337.417969 251.160156 337.417969 C 253.332031 337.417969 255.09375 339.175781 255.09375 341.351562 C 255.09375 343.523438 253.332031 345.28125 251.160156 345.28125 " fill-opacity="1" fill-rule="nonzero"/><path fill="#bab195" d="M 262.125 336.570312 C 259.746094 336.570312 257.808594 334.636719 257.808594 332.257812 C 257.808594 329.875 259.746094 327.949219 262.125 327.949219 C 264.503906 327.949219 266.433594 329.875 266.433594 332.257812 C 266.433594 334.636719 264.503906 336.570312 262.125 336.570312 " fill-opacity="1" fill-rule="nonzero"/><path fill="#bab195" d="M 273.421875 328.222656 C 270.859375 328.222656 268.78125 326.144531 268.78125 323.582031 C 268.78125 321.015625 270.859375 318.9375 273.421875 318.9375 C 275.980469 318.9375 278.066406 321.015625 278.066406 323.582031 C 278.066406 326.144531 275.980469 328.222656 273.421875 328.222656 " fill-opacity="1" fill-rule="nonzero"/><path fill="#bab195" d="M 285.101562 320.355469 C 282.382812 320.355469 280.179688 318.152344 280.179688 315.429688 C 280.179688 312.714844 282.382812 310.511719 285.101562 310.511719 C 287.824219 310.511719 290.027344 312.714844 290.027344 315.429688 C 290.027344 318.152344 287.824219 320.355469 285.101562 320.355469 " fill-opacity="1" fill-rule="nonzero"/><path fill="#bab195" d="M 297.1875 313.082031 C 294.324219 313.082031 292 310.761719 292 307.894531 C 292 305.035156 294.324219 302.714844 297.1875 302.714844 C 300.054688 302.714844 302.367188 305.035156 302.367188 307.894531 C 302.367188 310.761719 300.054688 313.082031 297.1875 313.082031 " fill-opacity="1" fill-rule="nonzero"/><path fill="#bab195" d="M 309.679688 306.453125 C 306.703125 306.453125 304.285156 304.039062 304.285156 301.0625 C 304.285156 298.078125 306.703125 295.664062 309.679688 295.664062 C 312.664062 295.664062 315.078125 298.078125 315.078125 301.0625 C 315.078125 304.039062 312.664062 306.453125 309.679688 306.453125 " fill-opacity="1" fill-rule="nonzero"/><path fill="#bab195" d="M 322.566406 300.574219 C 319.476562 300.574219 316.972656 298.070312 316.972656 294.984375 C 316.972656 291.898438 319.476562 289.394531 322.566406 289.394531 C 325.65625 289.394531 328.152344 291.898438 328.152344 294.984375 C 328.152344 298.070312 325.65625 300.574219 322.566406 300.574219 " fill-opacity="1" fill-rule="nonzero"/><path fill="#bab195" d="M 335.800781 295.460938 C 332.632812 295.460938 330.0625 292.890625 330.0625 289.722656 C 330.0625 286.550781 332.632812 283.980469 335.800781 283.980469 C 338.972656 283.980469 341.542969 286.550781 341.542969 289.722656 C 341.542969 292.890625 338.972656 295.460938 335.800781 295.460938 " fill-opacity="1" fill-rule="nonzero"/><path fill="#bab195" d="M 349.339844 291.171875 C 346.101562 291.171875 343.472656 288.550781 343.472656 285.304688 C 343.472656 282.058594 346.101562 279.425781 349.339844 279.425781 C 352.585938 279.425781 355.21875 282.058594 355.21875 285.304688 C 355.21875 288.550781 352.585938 291.171875 349.339844 291.171875 " fill-opacity="1" fill-rule="nonzero"/><path fill="#bab195" d="M 363.132812 287.703125 C 359.839844 287.703125 357.171875 285.027344 357.171875 281.734375 C 357.171875 278.445312 359.839844 275.769531 363.132812 275.769531 C 366.425781 275.769531 369.097656 278.445312 369.097656 281.734375 C 369.097656 285.027344 366.425781 287.703125 363.132812 287.703125 " fill-opacity="1" fill-rule="nonzero"/><path fill="#bab195" d="M 377.113281 285.0625 C 373.78125 285.0625 371.074219 282.351562 371.074219 279.015625 C 371.074219 275.675781 373.78125 272.96875 377.113281 272.96875 C 380.449219 272.96875 383.160156 275.675781 383.160156 279.015625 C 383.160156 282.351562 380.449219 285.0625 377.113281 285.0625 " fill-opacity="1" fill-rule="nonzero"/><path fill="#bab195" d="M 391.230469 283.183594 C 387.878906 283.183594 385.160156 280.46875 385.160156 277.113281 C 385.160156 273.761719 387.878906 271.039062 391.230469 271.039062 C 394.589844 271.039062 397.308594 273.761719 397.308594 277.113281 C 397.308594 280.46875 394.589844 283.183594 391.230469 283.183594 " fill-opacity="1" fill-rule="nonzero"/><path fill="#bab195" d="M 405.433594 282.101562 C 402.066406 282.101562 399.332031 279.367188 399.332031 276 C 399.332031 272.628906 402.066406 269.898438 405.433594 269.898438 C 408.804688 269.898438 411.539062 272.628906 411.539062 276 C 411.539062 279.367188 408.804688 282.101562 405.433594 282.101562 " fill-opacity="1" fill-rule="nonzero"/><path fill="#bab195" d="M 419.652344 282.949219 C 416.292969 282.949219 413.574219 280.226562 413.574219 276.875 C 413.574219 273.519531 416.292969 270.796875 419.652344 270.796875 C 423.003906 270.796875 425.726562 273.519531 425.726562 276.875 C 425.726562 280.226562 423.003906 282.949219 419.652344 282.949219 " fill-opacity="1" fill-rule="nonzero"/><path fill="#bab195" d="M 433.789062 284.6875 C 430.453125 284.6875 427.746094 281.980469 427.746094 278.640625 C 427.746094 275.304688 430.453125 272.59375 433.789062 272.59375 C 437.128906 272.59375 439.835938 275.304688 439.835938 278.640625 C 439.835938 281.980469 437.128906 284.6875 433.789062 284.6875 " fill-opacity="1" fill-rule="nonzero"/><path fill="#bab195" d="M 447.804688 287.191406 C 444.503906 287.191406 441.832031 284.523438 441.832031 281.222656 C 441.832031 277.925781 444.503906 275.25 447.804688 275.25 C 451.097656 275.25 453.773438 277.925781 453.773438 281.222656 C 453.773438 284.523438 451.097656 287.191406 447.804688 287.191406 " fill-opacity="1" fill-rule="nonzero"/><path fill="#bab195" d="M 461.632812 290.53125 C 458.382812 290.53125 455.753906 287.894531 455.753906 284.648438 C 455.753906 281.402344 458.382812 278.773438 461.632812 278.773438 C 464.878906 278.773438 467.511719 281.402344 467.511719 284.648438 C 467.511719 287.894531 464.878906 290.53125 461.632812 290.53125 " fill-opacity="1" fill-rule="nonzero"/><path fill="#bab195" d="M 475.222656 294.675781 C 472.046875 294.675781 469.472656 292.105469 469.472656 288.921875 C 469.472656 285.75 472.046875 283.179688 475.222656 283.179688 C 478.394531 283.179688 480.972656 285.75 480.972656 288.921875 C 480.972656 292.105469 478.394531 294.675781 475.222656 294.675781 " fill-opacity="1" fill-rule="nonzero"/><path fill="#bab195" d="M 488.515625 299.644531 C 485.425781 299.644531 482.921875 297.140625 482.921875 294.050781 C 482.921875 290.960938 485.425781 288.449219 488.515625 288.449219 C 491.609375 288.449219 494.113281 290.960938 494.113281 294.050781 C 494.113281 297.140625 491.609375 299.644531 488.515625 299.644531 " fill-opacity="1" fill-rule="nonzero"/><path fill="#bab195" d="M 501.464844 305.402344 C 498.480469 305.402344 496.0625 302.984375 496.0625 299.992188 C 496.0625 297.007812 498.480469 294.589844 501.464844 294.589844 C 504.449219 294.589844 506.867188 297.007812 506.867188 299.992188 C 506.867188 302.984375 504.449219 305.402344 501.464844 305.402344 " fill-opacity="1" fill-rule="nonzero"/><path fill="#bab195" d="M 514.03125 311.90625 C 511.164062 311.90625 508.835938 309.578125 508.835938 306.714844 C 508.835938 303.84375 511.164062 301.519531 514.03125 301.519531 C 516.894531 301.519531 519.222656 303.84375 519.222656 306.714844 C 519.222656 309.578125 516.894531 311.90625 514.03125 311.90625 " fill-opacity="1" fill-rule="nonzero"/><path fill="#bab195" d="M 526.1875 319.070312 C 523.460938 319.070312 521.257812 316.859375 521.257812 314.136719 C 521.257812 311.414062 523.460938 309.207031 526.1875 309.207031 C 528.910156 309.207031 531.121094 311.414062 531.121094 314.136719 C 531.121094 316.859375 528.910156 319.070312 526.1875 319.070312 " fill-opacity="1" fill-rule="nonzero"/><path fill="#bab195" d="M 537.9375 326.847656 C 535.367188 326.847656 533.285156 324.765625 533.285156 322.195312 C 533.285156 319.625 535.367188 317.546875 537.9375 317.546875 C 540.503906 317.546875 542.589844 319.625 542.589844 322.195312 C 542.589844 324.765625 540.503906 326.847656 537.9375 326.847656 " fill-opacity="1" fill-rule="nonzero"/><path fill="#bab195" d="M 549.296875 335.113281 C 546.910156 335.113281 544.976562 333.179688 544.976562 330.792969 C 544.976562 328.40625 546.910156 326.472656 549.296875 326.472656 C 551.683594 326.472656 553.617188 328.40625 553.617188 330.792969 C 553.617188 333.179688 551.683594 335.113281 549.296875 335.113281 " fill-opacity="1" fill-rule="nonzero"/><path fill="#bab195" d="M 560.3125 343.765625 C 558.136719 343.765625 556.378906 342 556.378906 339.832031 C 556.378906 337.652344 558.136719 335.890625 560.3125 335.890625 C 562.492188 335.890625 564.253906 337.652344 564.253906 339.832031 C 564.253906 342 562.492188 343.765625 560.3125 343.765625 " fill-opacity="1" fill-rule="nonzero"/><path fill="#bab195" d="M 571.0625 352.703125 C 569.121094 352.703125 567.539062 351.121094 567.539062 349.179688 C 567.539062 347.234375 569.121094 345.660156 571.0625 345.660156 C 573.007812 345.660156 574.582031 347.234375 574.582031 349.179688 C 574.582031 351.121094 573.007812 352.703125 571.0625 352.703125 " fill-opacity="1" fill-rule="nonzero"/><path fill="#bab195" d="M 581.652344 361.816406 C 579.941406 361.816406 578.550781 360.425781 578.550781 358.714844 C 578.550781 357 579.941406 355.609375 581.652344 355.609375 C 583.363281 355.609375 584.753906 357 584.753906 358.714844 C 584.753906 360.425781 583.363281 361.816406 581.652344 361.816406 " fill-opacity="1" fill-rule="nonzero"/><path fill="#bab195" d="M 592.242188 370.828125 C 590.820312 370.828125 589.660156 369.675781 589.660156 368.246094 C 589.660156 366.820312 590.820312 365.660156 592.242188 365.660156 C 593.671875 365.660156 594.828125 366.820312 594.828125 368.246094 C 594.828125 369.675781 593.671875 370.828125 592.242188 370.828125 " fill-opacity="1" fill-rule="nonzero"/><path fill="#bab195" d="M 603.082031 379.550781 C 601.949219 379.550781 601.03125 378.632812 601.03125 377.496094 C 601.03125 376.371094 601.949219 375.453125 603.082031 375.453125 C 604.21875 375.453125 605.136719 376.371094 605.136719 377.496094 C 605.136719 378.632812 604.21875 379.550781 603.082031 379.550781 " fill-opacity="1" fill-rule="nonzero"/><path fill="#bab195" d="M 614.519531 387.417969 C 613.730469 387.417969 613.089844 386.78125 613.089844 385.988281 C 613.089844 385.195312 613.730469 384.558594 614.519531 384.558594 C 615.3125 384.558594 615.957031 385.195312 615.957031 385.988281 C 615.957031 386.78125 615.3125 387.417969 614.519531 387.417969 " fill-opacity="1" fill-rule="nonzero"/><path fill="#bab195" d="M 627.0625 393.472656 C 626.644531 393.472656 626.304688 393.128906 626.304688 392.710938 C 626.304688 392.292969 626.644531 391.957031 627.0625 391.957031 C 627.484375 391.957031 627.816406 392.292969 627.816406 392.710938 C 627.816406 393.128906 627.484375 393.472656 627.0625 393.472656 " fill-opacity="1" fill-rule="nonzero"/><path fill="#bab195" d="M 380.71875 370.347656 L 369.730469 347.527344 L 374.3125 345.320312 L 385.304688 368.144531 L 380.71875 370.347656 " fill-opacity="1" fill-rule="nonzero"/><path fill="#bab195" d="M 362.371094 386.507812 L 342.566406 370.710938 L 345.742188 366.730469 L 365.546875 382.527344 L 362.371094 386.507812 " fill-opacity="1" fill-rule="nonzero"/><path fill="#bab195" d="M 352.84375 409.019531 L 328.148438 403.378906 L 329.28125 398.421875 L 353.976562 404.0625 L 352.84375 409.019531 " fill-opacity="1" fill-rule="nonzero"/><path fill="#bab195" d="M 329.332031 439.074219 L 328.207031 434.117188 L 352.902344 428.476562 L 354.035156 433.441406 L 329.332031 439.074219 " fill-opacity="1" fill-rule="nonzero"/><path fill="#bab195" d="M 345.890625 470.714844 L 342.726562 466.738281 L 362.527344 450.941406 L 365.695312 454.921875 L 345.890625 470.714844 " fill-opacity="1" fill-rule="nonzero"/><path fill="#bab195" d="M 374.535156 492.039062 L 369.953125 489.835938 L 380.941406 467.007812 L 385.53125 469.21875 L 374.535156 492.039062 " fill-opacity="1" fill-rule="nonzero"/><path fill="#bab195" d="M 439.546875 491.933594 L 428.558594 469.113281 L 433.140625 466.902344 L 444.132812 489.726562 L 439.546875 491.933594 " fill-opacity="1" fill-rule="nonzero"/><path fill="#bab195" d="M 468.125 470.523438 L 448.316406 454.726562 L 451.488281 450.753906 L 471.300781 466.542969 L 468.125 470.523438 " fill-opacity="1" fill-rule="nonzero"/><path fill="#bab195" d="M 484.578125 438.832031 L 459.882812 433.199219 L 461.019531 428.234375 L 485.714844 433.875 L 484.578125 438.832031 " fill-opacity="1" fill-rule="nonzero"/><path fill="#bab195" d="M 460.957031 408.777344 L 459.832031 403.820312 L 484.527344 398.179688 L 485.65625 403.144531 L 460.957031 408.777344 " fill-opacity="1" fill-rule="nonzero"/><path fill="#bab195" d="M 451.339844 386.3125 L 448.164062 382.332031 L 467.96875 366.539062 L 471.144531 370.519531 L 451.339844 386.3125 " fill-opacity="1" fill-rule="nonzero"/><path fill="#bab195" d="M 432.917969 370.246094 L 428.335938 368.035156 L 439.324219 345.214844 L 443.910156 347.417969 L 432.917969 370.246094 " fill-opacity="1" fill-rule="nonzero"/><path fill="#bab195" d="M 590.007812 642.253906 L 595.46875 640.761719 L 590.164062 638.78125 L 593.382812 634.125 L 588.046875 636.027344 L 587.519531 630.386719 L 584.65625 635.273438 L 580.621094 631.292969 L 581.566406 636.871094 L 575.914062 636.417969 L 580.230469 640.078125 L 575.621094 643.355469 L 581.277344 643.402344 L 579.847656 648.878906 L 584.210938 645.265625 L 586.636719 650.386719 L 587.660156 644.8125 L 592.808594 647.179688 Z M 612.25 641.5 L 597.765625 645.476562 L 605.179688 658.539062 L 591.535156 652.277344 L 588.820312 667.050781 L 582.386719 653.46875 L 570.804688 663.042969 L 574.609375 648.511719 L 559.585938 648.40625 L 571.84375 639.710938 L 560.398438 629.972656 L 575.371094 631.199219 L 572.871094 616.386719 L 583.5625 626.9375 L 591.160156 613.980469 L 592.5625 628.9375 L 606.722656 623.902344 L 598.175781 636.261719 L 612.25 641.5 " fill-opacity="1" fill-rule="nonzero"/><path fill="#bab195" d="M 515.871094 238.914062 L 496.949219 235.570312 L 515.871094 232.21875 L 519.222656 213.292969 L 522.566406 232.21875 L 541.492188 235.570312 L 522.566406 238.914062 L 519.222656 257.847656 L 515.871094 238.914062 " fill-opacity="1" fill-rule="nonzero"/><path fill="#bab195" d="M 503.648438 688.164062 L 489.253906 685.613281 L 503.648438 683.070312 L 506.199219 668.675781 L 508.746094 683.070312 L 523.136719 685.613281 L 508.746094 688.164062 L 506.199219 702.554688 L 503.648438 688.164062 " fill-opacity="1" fill-rule="nonzero"/><path fill="#bab195" d="M 505.808594 116.609375 C 502.074219 116.609375 499.03125 119.644531 499.03125 123.375 C 499.03125 127.113281 502.074219 130.148438 505.808594 130.148438 C 509.542969 130.148438 512.582031 127.113281 512.582031 123.375 C 512.582031 119.644531 509.542969 116.609375 505.808594 116.609375 Z M 505.808594 134.28125 C 499.800781 134.28125 494.90625 129.390625 494.90625 123.375 C 494.90625 117.367188 499.800781 112.484375 505.808594 112.484375 C 511.820312 112.484375 516.707031 117.367188 516.707031 123.375 C 516.707031 129.390625 511.820312 134.28125 505.808594 134.28125 " fill-opacity="1" fill-rule="nonzero"/><path fill="#bab195" d="M 668.207031 239.695312 C 664.46875 239.695312 661.433594 242.730469 661.433594 246.46875 C 661.433594 250.199219 664.46875 253.242188 668.207031 253.242188 C 671.9375 253.242188 674.980469 250.199219 674.980469 246.46875 C 674.980469 242.730469 671.9375 239.695312 668.207031 239.695312 Z M 668.207031 257.367188 C 662.191406 257.367188 657.308594 252.476562 657.308594 246.46875 C 657.308594 240.457031 662.191406 235.570312 668.207031 235.570312 C 674.214844 235.570312 679.105469 240.457031 679.105469 246.46875 C 679.105469 252.476562 674.214844 257.367188 668.207031 257.367188 " fill-opacity="1" fill-rule="nonzero"/><g clip-path="url(#913478389d)"><path fill="#bab195" d="M 717.835938 374.816406 C 714.097656 374.816406 711.0625 377.851562 711.0625 381.589844 C 711.0625 385.320312 714.097656 388.363281 717.835938 388.363281 C 721.566406 388.363281 724.609375 385.320312 724.609375 381.589844 C 724.609375 377.851562 721.566406 374.816406 717.835938 374.816406 Z M 717.835938 392.488281 C 711.820312 392.488281 706.9375 387.597656 706.9375 381.589844 C 706.9375 375.574219 711.820312 370.683594 717.835938 370.683594 C 723.839844 370.683594 728.734375 375.574219 728.734375 381.589844 C 728.734375 387.597656 723.839844 392.488281 717.835938 392.488281 " fill-opacity="1" fill-rule="nonzero"/></g><path fill="#bab195" d="M 500.789062 587.277344 C 497.058594 587.277344 494.015625 590.320312 494.015625 594.050781 C 494.015625 597.789062 497.058594 600.824219 500.789062 600.824219 C 504.527344 600.824219 507.5625 597.789062 507.5625 594.050781 C 507.5625 590.320312 504.527344 587.277344 500.789062 587.277344 Z M 500.789062 604.949219 C 494.785156 604.949219 489.890625 600.0625 489.890625 594.050781 C 489.890625 588.042969 494.785156 583.152344 500.789062 583.152344 C 506.796875 583.152344 511.6875 588.042969 511.6875 594.050781 C 511.6875 600.0625 506.796875 604.949219 500.789062 604.949219 " fill-opacity="1" fill-rule="nonzero"/><path fill="#bab195" d="M 215.308594 534.191406 L 223.367188 528.34375 L 231.414062 534.191406 L 228.339844 524.734375 L 236.398438 518.875 L 226.445312 518.875 L 223.367188 509.410156 L 220.292969 518.875 L 210.339844 518.875 L 218.386719 524.734375 Z M 216.542969 513.71875 L 223.367188 492.722656 L 230.1875 513.71875 L 252.273438 513.71875 L 234.40625 526.703125 L 241.226562 547.699219 L 223.367188 534.714844 L 205.5 547.699219 L 212.320312 526.703125 L 194.464844 513.71875 L 216.542969 513.71875 " fill-opacity="1" fill-rule="nonzero"/><path fill="#bab195" d="M 180.132812 321.882812 L 188.195312 316.03125 L 196.238281 321.882812 L 193.164062 312.417969 L 201.222656 306.558594 L 191.269531 306.558594 L 188.195312 297.101562 L 185.117188 306.558594 L 175.164062 306.558594 L 183.210938 312.417969 Z M 181.367188 301.402344 L 188.195312 280.40625 L 195.015625 301.402344 L 217.101562 301.402344 L 199.230469 314.394531 L 206.050781 335.382812 L 188.195312 322.40625 L 170.324219 335.382812 L 177.144531 314.394531 L 159.289062 301.402344 L 181.367188 301.402344 " fill-opacity="1" fill-rule="nonzero"/><path fill="#bab195" d="M 617.488281 312.417969 L 625.535156 306.558594 L 615.582031 306.558594 L 612.507812 297.101562 L 609.4375 306.558594 L 599.476562 306.558594 L 607.535156 312.417969 L 604.460938 321.882812 L 612.507812 316.03125 L 620.566406 321.882812 Z M 641.414062 301.402344 L 623.554688 314.394531 L 630.375 335.382812 L 612.507812 322.40625 L 594.648438 335.382812 L 601.46875 314.394531 L 583.601562 301.402344 L 605.6875 301.402344 L 612.507812 280.40625 L 619.339844 301.402344 L 641.414062 301.402344 " fill-opacity="1" fill-rule="nonzero"/><path fill="#bab195" d="M 196.996094 195.910156 L 204.804688 192.316406 L 206.351562 200.769531 L 210.039062 193.011719 L 216.652344 198.480469 L 214.476562 190.164062 L 223.074219 190.113281 L 216.070312 185.136719 L 222.609375 179.566406 L 214.042969 180.257812 L 215.472656 171.789062 L 209.363281 177.824219 L 205.007812 170.421875 L 204.214844 178.972656 L 196.117188 176.09375 L 201.007812 183.15625 L 192.949219 186.160156 L 201.238281 188.425781 Z M 192.992188 180.636719 L 182.777344 165.867188 L 199.695312 171.890625 L 201.367188 154.011719 L 210.457031 169.503906 L 223.230469 156.878906 L 220.234375 174.585938 L 238.125 173.128906 L 224.457031 184.769531 L 239.105469 195.140625 L 221.152344 195.28125 L 225.695312 212.652344 L 211.859375 201.203125 L 204.175781 217.425781 L 200.921875 199.777344 L 184.613281 207.253906 L 193.472656 191.648438 L 176.167969 186.90625 L 192.992188 180.636719 " fill-opacity="1" fill-rule="nonzero"/><path fill="#bab195" d="M 118.753906 480.136719 L 126.566406 476.542969 L 128.113281 484.988281 L 131.792969 477.234375 L 138.414062 482.703125 L 136.238281 474.386719 L 144.835938 474.332031 L 137.832031 469.363281 L 144.367188 463.796875 L 135.804688 464.484375 L 137.226562 456.011719 L 131.121094 462.050781 L 126.769531 454.640625 L 125.976562 463.191406 L 117.875 460.3125 L 122.769531 467.382812 L 114.707031 470.386719 L 122.992188 472.65625 Z M 114.75 464.863281 L 104.539062 450.089844 L 121.457031 456.117188 L 123.128906 438.242188 L 132.21875 453.722656 L 144.984375 441.105469 L 141.996094 458.8125 L 159.882812 457.355469 L 146.21875 468.988281 L 160.863281 479.371094 L 142.914062 479.507812 L 147.453125 496.878906 L 133.621094 485.421875 L 125.9375 501.652344 L 122.683594 484 L 106.375 491.480469 L 115.234375 475.875 L 97.921875 471.128906 L 114.75 464.863281 " fill-opacity="1" fill-rule="nonzero"/><path fill="#bab195" d="M 159.949219 578.757812 L 181.234375 574.992188 L 159.949219 571.222656 L 156.179688 549.9375 L 152.414062 571.222656 L 131.121094 574.992188 L 152.414062 578.757812 L 156.179688 600.050781 L 159.949219 578.757812 " fill-opacity="1" fill-rule="nonzero"/><path fill="#bab195" d="M 217.179688 647.179688 L 222.328125 644.8125 L 223.347656 650.386719 L 225.777344 645.265625 L 230.136719 648.878906 L 228.707031 643.402344 L 234.367188 643.355469 L 229.757812 640.078125 L 234.070312 636.417969 L 228.417969 636.871094 L 229.363281 631.292969 L 225.328125 635.273438 L 222.464844 630.386719 L 221.941406 636.027344 L 216.601562 634.125 L 219.820312 638.78125 L 214.523438 640.761719 L 219.980469 642.253906 Z M 211.808594 636.261719 L 203.261719 623.902344 L 217.421875 628.9375 L 218.824219 613.980469 L 226.425781 626.9375 L 237.113281 616.386719 L 234.617188 631.199219 L 249.585938 629.972656 L 238.144531 639.710938 L 250.398438 648.40625 L 235.375 648.511719 L 239.171875 663.042969 L 227.597656 653.46875 L 221.164062 667.050781 L 218.449219 652.277344 L 204.804688 658.539062 L 212.222656 645.476562 L 197.734375 641.5 L 211.808594 636.261719 " fill-opacity="1" fill-rule="nonzero"/><path fill="#bab195" d="M 294.113281 238.914062 L 313.039062 235.570312 L 294.113281 232.21875 L 290.761719 213.292969 L 287.417969 232.21875 L 268.484375 235.570312 L 287.417969 238.914062 L 290.761719 257.847656 L 294.113281 238.914062 " fill-opacity="1" fill-rule="nonzero"/><path fill="#bab195" d="M 306.335938 688.164062 L 320.730469 685.613281 L 306.335938 683.070312 L 303.792969 668.675781 L 301.242188 683.070312 L 286.847656 685.613281 L 301.242188 688.164062 L 303.792969 702.554688 L 306.335938 688.164062 " fill-opacity="1" fill-rule="nonzero"/><path fill="#bab195" d="M 297.40625 123.375 C 297.40625 127.113281 300.441406 130.148438 304.179688 130.148438 C 307.910156 130.148438 310.953125 127.113281 310.953125 123.375 C 310.953125 119.644531 307.910156 116.609375 304.179688 116.609375 C 300.441406 116.609375 297.40625 119.644531 297.40625 123.375 Z M 293.28125 123.375 C 293.28125 117.367188 298.164062 112.484375 304.179688 112.484375 C 310.1875 112.484375 315.078125 117.367188 315.078125 123.375 C 315.078125 129.390625 310.1875 134.28125 304.179688 134.28125 C 298.164062 134.28125 293.28125 129.390625 293.28125 123.375 " fill-opacity="1" fill-rule="nonzero"/><path fill="#bab195" d="M 135.003906 246.46875 C 135.003906 250.199219 138.046875 253.242188 141.777344 253.242188 C 145.515625 253.242188 148.554688 250.199219 148.554688 246.46875 C 148.554688 242.730469 145.515625 239.695312 141.777344 239.695312 C 138.046875 239.695312 135.003906 242.730469 135.003906 246.46875 Z M 130.878906 246.46875 C 130.878906 240.457031 135.773438 235.570312 141.777344 235.570312 C 147.792969 235.570312 152.675781 240.457031 152.675781 246.46875 C 152.675781 252.476562 147.792969 257.367188 141.777344 257.367188 C 135.773438 257.367188 130.878906 252.476562 130.878906 246.46875 " fill-opacity="1" fill-rule="nonzero"/><path fill="#bab195" d="M 85.375 381.589844 C 85.375 385.320312 88.417969 388.363281 92.152344 388.363281 C 95.886719 388.363281 98.925781 385.320312 98.925781 381.589844 C 98.925781 377.851562 95.886719 374.816406 92.152344 374.816406 C 88.417969 374.816406 85.375 377.851562 85.375 381.589844 Z M 81.25 381.589844 C 81.25 375.574219 86.144531 370.683594 92.152344 370.683594 C 98.164062 370.683594 103.050781 375.574219 103.050781 381.589844 C 103.050781 387.597656 98.164062 392.488281 92.152344 392.488281 C 86.144531 392.488281 81.25 387.597656 81.25 381.589844 " fill-opacity="1" fill-rule="nonzero"/><path fill="#bab195" d="M 302.421875 594.050781 C 302.421875 597.789062 305.457031 600.824219 309.195312 600.824219 C 312.925781 600.824219 315.96875 597.789062 315.96875 594.050781 C 315.96875 590.320312 312.925781 587.277344 309.195312 587.277344 C 305.457031 587.277344 302.421875 590.320312 302.421875 594.050781 Z M 298.296875 594.050781 C 298.296875 588.042969 303.183594 583.152344 309.195312 583.152344 C 315.203125 583.152344 320.09375 588.042969 320.09375 594.050781 C 320.09375 600.0625 315.203125 604.949219 309.195312 604.949219 C 303.183594 604.949219 298.296875 600.0625 298.296875 594.050781 " fill-opacity="1" fill-rule="nonzero"/></svg>