<svg xmlns="http://www.w3.org/2000/svg" xmlns:xlink="http://www.w3.org/1999/xlink" width="1080" zoomAndPan="magnify" viewBox="0 0 810 809.999993" height="1080" preserveAspectRatio="xMidYMid meet" version="1.0"><defs><clipPath id="a547c95bfd"><path d="M 364 81 L 436 81 L 436 148 L 364 148 Z M 364 81 " clip-rule="nonzero"/></clipPath><clipPath id="8c8e57385a"><path d="M 367.0625 657.292969 L 438 657.292969 L 438 724.464844 L 367.0625 724.464844 Z M 367.0625 657.292969 " clip-rule="nonzero"/></clipPath><clipPath id="84607bd587"><path d="M 689 363.464844 L 728.84375 363.464844 L 728.84375 404 L 689 404 Z M 689 363.464844 " clip-rule="nonzero"/></clipPath><clipPath id="cfea16b9fd"><path d="M 76.066406 363 L 117 363 L 117 404 L 76.066406 404 Z M 76.066406 363 " clip-rule="nonzero"/></clipPath></defs><rect x="-81" width="972" fill="#ffffff" y="-80.999999" height="971.999992" fill-opacity="1"/><rect x="-81" width="972" fill="#ffffff" y="-80.999999" height="971.999992" fill-opacity="1"/><rect x="-81" width="972" fill="#11091a" y="-80.999999" height="971.999992" fill-opacity="1"/><g clip-path="url(#a547c95bfd)"><path fill="#bab195" d="M 407.382812 120.359375 L 419.335938 111.671875 L 404.554688 111.671875 L 399.988281 97.625 L 395.421875 111.671875 L 380.648438 111.671875 L 392.601562 120.359375 L 388.035156 134.417969 L 399.988281 125.738281 L 411.941406 134.417969 Z M 435.148438 106.535156 L 413.425781 122.320312 L 421.71875 147.875 L 399.988281 132.085938 L 378.265625 147.875 L 386.558594 122.320312 L 364.828125 106.535156 L 391.6875 106.535156 L 399.988281 80.992188 L 408.292969 106.535156 L 435.148438 106.535156 " fill-opacity="1" fill-rule="nonzero"/></g><path fill="#bab195" d="M 562.71875 148.636719 L 568.152344 147.144531 L 562.871094 145.171875 L 566.078125 140.539062 L 560.765625 142.433594 L 560.238281 136.808594 L 557.386719 141.679688 L 553.363281 137.710938 L 554.308594 143.269531 L 548.679688 142.820312 L 552.972656 146.46875 L 548.382812 149.738281 L 554.023438 149.777344 L 552.589844 155.238281 L 556.941406 151.640625 L 559.355469 156.738281 L 560.371094 151.183594 L 565.5 153.542969 Z M 584.878906 147.886719 L 570.445312 151.84375 L 577.832031 164.855469 L 564.238281 158.617188 L 561.539062 173.339844 L 555.121094 159.808594 L 543.59375 169.351562 L 547.371094 154.871094 L 532.410156 154.769531 L 544.621094 146.097656 L 533.21875 136.398438 L 548.132812 137.621094 L 545.648438 122.859375 L 556.292969 133.378906 L 563.863281 120.46875 L 565.265625 135.371094 L 579.367188 130.355469 L 570.859375 142.667969 L 584.878906 147.886719 " fill-opacity="1" fill-rule="nonzero"/><path fill="#bab195" d="M 617.660156 618.6875 L 623.101562 617.191406 L 617.820312 615.21875 L 621.019531 610.582031 L 615.707031 612.472656 L 615.1875 606.855469 L 612.328125 611.726562 L 608.308594 607.753906 L 609.253906 613.316406 L 603.621094 612.867188 L 607.921875 616.519531 L 603.324219 619.785156 L 608.964844 619.824219 L 607.539062 625.28125 L 611.882812 621.6875 L 614.300781 626.785156 L 615.320312 621.230469 L 620.449219 623.589844 Z M 639.820312 617.933594 L 625.390625 621.890625 L 632.78125 634.902344 L 619.183594 628.664062 L 616.480469 643.378906 L 610.0625 629.855469 L 598.535156 639.398438 L 602.316406 624.914062 L 587.351562 624.804688 L 599.5625 616.144531 L 588.164062 606.441406 L 603.074219 607.667969 L 600.589844 592.902344 L 611.238281 603.417969 L 618.8125 590.511719 L 620.207031 605.414062 L 634.3125 600.398438 L 625.800781 612.714844 L 639.820312 617.933594 " fill-opacity="1" fill-rule="nonzero"/><path fill="#bab195" d="M 490.910156 221.972656 L 472.058594 218.636719 L 490.910156 215.296875 L 494.25 196.441406 L 497.585938 215.296875 L 516.4375 218.636719 L 497.585938 221.972656 L 494.25 240.824219 L 490.910156 221.972656 " fill-opacity="1" fill-rule="nonzero"/><path fill="#bab195" d="M 491.160156 101.734375 C 487.441406 101.734375 484.414062 104.761719 484.414062 108.484375 C 484.414062 112.207031 487.441406 115.230469 491.160156 115.230469 C 494.882812 115.230469 497.910156 112.207031 497.910156 108.484375 C 497.910156 104.761719 494.882812 101.734375 491.160156 101.734375 Z M 491.160156 119.34375 C 485.175781 119.34375 480.308594 114.46875 480.308594 108.484375 C 480.308594 102.496094 485.175781 97.625 491.160156 97.625 C 497.152344 97.625 502.023438 102.496094 502.023438 108.484375 C 502.023438 114.46875 497.152344 119.34375 491.160156 119.34375 " fill-opacity="1" fill-rule="nonzero"/><path fill="#bab195" d="M 302.070312 108.484375 C 302.070312 112.207031 305.09375 115.230469 308.816406 115.230469 C 312.535156 115.230469 315.5625 112.207031 315.5625 108.484375 C 315.5625 104.761719 312.535156 101.734375 308.816406 101.734375 C 305.09375 101.734375 302.070312 104.761719 302.070312 108.484375 Z M 297.960938 108.484375 C 297.960938 102.496094 302.828125 97.625 308.816406 97.625 C 314.800781 97.625 319.675781 102.496094 319.675781 108.484375 C 319.675781 114.46875 314.800781 119.34375 308.816406 119.34375 C 302.828125 119.34375 297.960938 114.46875 297.960938 108.484375 " fill-opacity="1" fill-rule="nonzero"/><g clip-path="url(#8c8e57385a)"><path fill="#bab195" d="M 410.0625 696.964844 L 422.015625 688.269531 L 407.242188 688.269531 L 402.675781 674.21875 L 398.113281 688.269531 L 383.332031 688.269531 L 395.289062 696.964844 L 390.726562 711.015625 L 402.675781 702.328125 L 414.628906 711.015625 Z M 437.835938 683.128906 L 416.113281 698.921875 L 424.402344 724.464844 L 402.675781 708.683594 L 380.949219 724.464844 L 389.242188 698.921875 L 367.519531 683.128906 L 394.371094 683.128906 L 402.675781 657.585938 L 410.984375 683.128906 L 437.835938 683.128906 " fill-opacity="1" fill-rule="nonzero"/></g><path fill="#bab195" d="M 567.75 530.316406 L 575.765625 524.480469 L 565.851562 524.480469 L 562.785156 515.050781 L 559.722656 524.480469 L 549.808594 524.480469 L 557.835938 530.316406 L 554.773438 539.746094 L 562.785156 533.917969 L 570.816406 539.746094 Z M 591.585938 519.339844 L 573.792969 532.28125 L 580.585938 553.203125 L 562.785156 540.265625 L 544.996094 553.203125 L 551.792969 532.28125 L 533.988281 519.339844 L 555.988281 519.339844 L 562.785156 498.425781 L 569.589844 519.339844 L 591.585938 519.339844 " fill-opacity="1" fill-rule="nonzero"/><path fill="#bab195" d="M 685.910156 308.125 L 693.925781 302.285156 L 684.007812 302.285156 L 680.945312 292.859375 L 677.882812 302.285156 L 667.960938 302.285156 L 675.988281 308.125 L 672.933594 317.546875 L 680.945312 311.71875 L 688.972656 317.546875 Z M 709.738281 297.148438 L 691.953125 310.085938 L 698.746094 331.003906 L 680.945312 318.074219 L 663.15625 331.003906 L 669.945312 310.085938 L 652.148438 297.148438 L 674.148438 297.148438 L 680.945312 276.226562 L 687.75 297.148438 L 709.738281 297.148438 " fill-opacity="1" fill-rule="nonzero"/><path fill="#bab195" d="M 688.105469 458.609375 L 696.359375 456.34375 L 688.332031 453.351562 L 693.203125 446.3125 L 685.136719 449.179688 L 684.34375 440.664062 L 680.007812 448.039062 L 673.925781 442.027344 L 675.339844 450.464844 L 666.8125 449.777344 L 673.332031 455.332031 L 666.351562 460.28125 L 674.910156 460.332031 L 672.742188 468.617188 L 679.34375 463.167969 L 683.007812 470.898438 L 684.554688 462.484375 L 692.335938 466.058594 Z M 713.082031 457.085938 L 695.835938 461.8125 L 704.667969 477.367188 L 688.417969 469.914062 L 685.175781 487.5 L 677.523438 471.328125 L 663.738281 482.738281 L 668.265625 465.433594 L 650.378906 465.296875 L 664.972656 454.957031 L 651.355469 443.363281 L 669.179688 444.808594 L 666.199219 427.175781 L 678.917969 439.742188 L 687.972656 424.316406 L 689.640625 442.128906 L 706.492188 436.128906 L 696.324219 450.847656 L 713.082031 457.085938 " fill-opacity="1" fill-rule="nonzero"/><path fill="#bab195" d="M 412.5 218.292969 L 420.753906 216.035156 L 412.726562 213.042969 L 417.597656 206.003906 L 409.53125 208.871094 L 408.738281 200.347656 L 404.402344 207.730469 L 398.316406 201.71875 L 399.734375 210.160156 L 391.207031 209.46875 L 397.71875 215.015625 L 390.742188 219.976562 L 399.304688 220.027344 L 397.136719 228.308594 L 403.734375 222.859375 L 407.402344 230.589844 L 408.941406 222.175781 L 416.722656 225.746094 Z M 437.476562 216.777344 L 420.226562 221.503906 L 429.054688 237.058594 L 412.808594 229.601562 L 409.570312 247.191406 L 401.917969 231.019531 L 388.132812 242.429688 L 392.652344 225.125 L 374.769531 224.992188 L 389.367188 214.648438 L 375.746094 203.054688 L 393.566406 204.503906 L 390.585938 186.867188 L 403.3125 199.4375 L 412.367188 184.007812 L 414.035156 201.820312 L 430.886719 195.820312 L 420.710938 210.539062 L 437.476562 216.777344 " fill-opacity="1" fill-rule="nonzero"/><g clip-path="url(#84607bd587)"><path fill="#bab195" d="M 705.988281 386.421875 L 689.09375 383.433594 L 705.988281 380.441406 L 708.972656 363.554688 L 711.960938 380.441406 L 728.851562 383.433594 L 711.960938 386.421875 L 708.972656 403.3125 L 705.988281 386.421875 " fill-opacity="1" fill-rule="nonzero"/></g><path fill="#bab195" d="M 669.089844 543.296875 L 652.199219 540.308594 L 669.089844 537.324219 L 672.074219 520.429688 L 675.0625 537.324219 L 691.953125 540.308594 L 675.0625 543.296875 L 672.074219 560.1875 L 669.089844 543.296875 " fill-opacity="1" fill-rule="nonzero"/><path fill="#bab195" d="M 528.65625 677.351562 L 507.445312 673.597656 L 528.65625 669.847656 L 532.410156 648.628906 L 536.164062 669.847656 L 557.371094 673.597656 L 536.164062 677.351562 L 532.410156 698.566406 L 528.65625 677.351562 " fill-opacity="1" fill-rule="nonzero"/><path fill="#bab195" d="M 667.746094 228.5625 C 664.023438 228.5625 660.992188 231.59375 660.992188 235.3125 C 660.992188 239.03125 664.023438 242.0625 667.746094 242.0625 C 671.460938 242.0625 674.492188 239.03125 674.492188 235.3125 C 674.492188 231.59375 671.460938 228.5625 667.746094 228.5625 Z M 667.746094 246.171875 C 661.753906 246.171875 656.882812 241.300781 656.882812 235.3125 C 656.882812 229.320312 661.753906 224.453125 667.746094 224.453125 C 673.730469 224.453125 678.601562 229.320312 678.601562 235.3125 C 678.601562 241.300781 673.730469 246.171875 667.746094 246.171875 " fill-opacity="1" fill-rule="nonzero"/><path fill="#bab195" d="M 498.816406 603.457031 C 495.09375 603.457031 492.070312 606.480469 492.070312 610.203125 C 492.070312 613.925781 495.09375 616.949219 498.816406 616.949219 C 502.539062 616.949219 505.5625 613.925781 505.5625 610.203125 C 505.5625 606.480469 502.539062 603.457031 498.816406 603.457031 Z M 498.816406 621.058594 C 492.828125 621.058594 487.960938 616.1875 487.960938 610.203125 C 487.960938 604.214844 492.828125 599.339844 498.816406 599.339844 C 504.800781 599.339844 509.675781 604.214844 509.675781 610.203125 C 509.675781 616.1875 504.800781 621.058594 498.816406 621.058594 " fill-opacity="1" fill-rule="nonzero"/><path fill="#bab195" d="M 584.878906 438.976562 C 581.15625 438.976562 578.125 442 578.125 445.722656 C 578.125 449.445312 581.15625 452.46875 584.878906 452.46875 C 588.59375 452.46875 591.625 449.445312 591.625 445.722656 C 591.625 442 588.59375 438.976562 584.878906 438.976562 Z M 584.878906 456.585938 C 578.886719 456.585938 574.015625 451.710938 574.015625 445.722656 C 574.015625 439.738281 578.886719 434.867188 584.878906 434.867188 C 590.863281 434.867188 595.734375 439.738281 595.734375 445.722656 C 595.734375 451.710938 590.863281 456.585938 584.878906 456.585938 " fill-opacity="1" fill-rule="nonzero"/><path fill="#bab195" d="M 239.851562 153.542969 L 244.976562 151.183594 L 245.996094 156.738281 L 248.414062 151.640625 L 252.761719 155.238281 L 251.328125 149.777344 L 256.972656 149.738281 L 252.382812 146.46875 L 256.675781 142.820312 L 251.042969 143.269531 L 251.988281 137.710938 L 247.96875 141.679688 L 245.117188 136.808594 L 244.589844 142.433594 L 239.277344 140.539062 L 242.484375 145.171875 L 237.203125 147.144531 L 242.636719 148.636719 Z M 234.496094 142.667969 L 225.984375 130.355469 L 240.085938 135.371094 L 241.488281 120.46875 L 249.058594 133.378906 L 259.707031 122.859375 L 257.21875 137.621094 L 272.132812 136.398438 L 260.734375 146.097656 L 272.945312 154.769531 L 257.980469 154.871094 L 261.765625 169.351562 L 250.234375 159.808594 L 243.816406 173.339844 L 241.113281 158.617188 L 227.519531 164.855469 L 234.90625 151.84375 L 220.476562 147.886719 L 234.496094 142.667969 " fill-opacity="1" fill-rule="nonzero"/><path fill="#bab195" d="M 184.902344 623.589844 L 190.035156 621.230469 L 191.054688 626.785156 L 193.46875 621.6875 L 197.8125 625.28125 L 196.386719 619.824219 L 202.03125 619.785156 L 197.433594 616.519531 L 201.734375 612.867188 L 196.09375 613.316406 L 197.046875 607.753906 L 193.027344 611.726562 L 190.167969 606.855469 L 189.648438 612.472656 L 184.332031 610.582031 L 187.535156 615.21875 L 182.253906 617.191406 L 187.695312 618.6875 Z M 179.550781 612.714844 L 171.042969 600.398438 L 185.144531 605.414062 L 186.539062 590.511719 L 194.117188 603.417969 L 204.761719 592.902344 L 202.277344 607.667969 L 217.191406 606.441406 L 205.789062 616.144531 L 218.003906 624.804688 L 203.039062 624.914062 L 206.816406 639.398438 L 195.285156 629.855469 L 188.875 643.378906 L 186.171875 628.664062 L 172.570312 634.902344 L 179.964844 621.890625 L 165.535156 617.933594 L 179.550781 612.714844 " fill-opacity="1" fill-rule="nonzero"/><path fill="#bab195" d="M 314.445312 221.972656 L 333.296875 218.636719 L 314.445312 215.296875 L 311.105469 196.441406 L 307.769531 215.296875 L 288.917969 218.636719 L 307.769531 221.972656 L 311.105469 240.824219 L 314.445312 221.972656 " fill-opacity="1" fill-rule="nonzero"/><path fill="#bab195" d="M 234.539062 539.746094 L 242.566406 533.917969 L 250.582031 539.746094 L 247.519531 530.316406 L 255.546875 524.480469 L 245.628906 524.480469 L 242.566406 515.050781 L 239.503906 524.480469 L 229.585938 524.480469 L 237.601562 530.316406 Z M 235.761719 519.339844 L 242.566406 498.425781 L 249.359375 519.339844 L 271.367188 519.339844 L 253.5625 532.28125 L 260.359375 553.203125 L 242.566406 540.265625 L 224.769531 553.203125 L 231.558594 532.28125 L 213.765625 519.339844 L 235.761719 519.339844 " fill-opacity="1" fill-rule="nonzero"/><path fill="#bab195" d="M 116.378906 317.546875 L 124.40625 311.71875 L 132.429688 317.546875 L 129.359375 308.125 L 137.386719 302.285156 L 127.46875 302.285156 L 124.40625 292.859375 L 121.34375 302.285156 L 111.425781 302.285156 L 119.441406 308.125 Z M 117.605469 297.148438 L 124.40625 276.226562 L 131.203125 297.148438 L 153.207031 297.148438 L 135.402344 310.085938 L 142.199219 331.003906 L 124.40625 318.074219 L 106.609375 331.003906 L 113.398438 310.085938 L 95.613281 297.148438 L 117.605469 297.148438 " fill-opacity="1" fill-rule="nonzero"/><path fill="#bab195" d="M 113.019531 466.058594 L 120.800781 462.484375 L 122.339844 470.898438 L 126.011719 463.167969 L 132.613281 468.617188 L 130.445312 460.332031 L 139.003906 460.28125 L 132.023438 455.332031 L 138.539062 449.777344 L 130.011719 450.464844 L 131.425781 442.027344 L 125.34375 448.039062 L 121.007812 440.664062 L 120.214844 449.179688 L 112.152344 446.3125 L 117.019531 453.351562 L 108.992188 456.34375 L 117.242188 458.609375 Z M 109.03125 450.847656 L 98.859375 436.128906 L 115.714844 442.128906 L 117.382812 424.316406 L 126.4375 439.742188 L 139.15625 427.175781 L 136.175781 444.808594 L 154 443.363281 L 140.378906 454.957031 L 154.976562 465.296875 L 137.09375 465.433594 L 141.617188 482.738281 L 127.832031 471.328125 L 120.179688 487.5 L 116.9375 469.914062 L 100.6875 477.367188 L 109.519531 461.8125 L 92.273438 457.085938 L 109.03125 450.847656 " fill-opacity="1" fill-rule="nonzero"/><g clip-path="url(#cfea16b9fd)"><path fill="#bab195" d="M 99.367188 386.421875 L 116.257812 383.433594 L 99.367188 380.441406 L 96.382812 363.554688 L 93.394531 380.441406 L 76.503906 383.433594 L 93.394531 386.421875 L 96.382812 403.3125 L 99.367188 386.421875 " fill-opacity="1" fill-rule="nonzero"/></g><path fill="#bab195" d="M 136.265625 543.296875 L 153.15625 540.308594 L 136.265625 537.324219 L 133.277344 520.429688 L 130.292969 537.324219 L 113.398438 540.308594 L 130.292969 543.296875 L 133.277344 560.1875 L 136.265625 543.296875 " fill-opacity="1" fill-rule="nonzero"/><path fill="#bab195" d="M 276.699219 677.351562 L 297.910156 673.597656 L 276.699219 669.847656 L 272.945312 648.628906 L 269.191406 669.847656 L 247.980469 673.597656 L 269.191406 677.351562 L 272.945312 698.566406 L 276.699219 677.351562 " fill-opacity="1" fill-rule="nonzero"/><path fill="#bab195" d="M 130.863281 235.3125 C 130.863281 239.03125 133.894531 242.0625 137.609375 242.0625 C 141.332031 242.0625 144.363281 239.03125 144.363281 235.3125 C 144.363281 231.59375 141.332031 228.5625 137.609375 228.5625 C 133.894531 228.5625 130.863281 231.59375 130.863281 235.3125 Z M 126.753906 235.3125 C 126.753906 229.320312 131.621094 224.453125 137.609375 224.453125 C 143.601562 224.453125 148.46875 229.320312 148.46875 235.3125 C 148.46875 241.300781 143.601562 246.171875 137.609375 246.171875 C 131.621094 246.171875 126.753906 241.300781 126.753906 235.3125 " fill-opacity="1" fill-rule="nonzero"/><path fill="#bab195" d="M 299.792969 610.203125 C 299.792969 613.925781 302.816406 616.949219 306.539062 616.949219 C 310.261719 616.949219 313.285156 613.925781 313.285156 610.203125 C 313.285156 606.480469 310.261719 603.457031 306.539062 603.457031 C 302.816406 603.457031 299.792969 606.480469 299.792969 610.203125 Z M 295.675781 610.203125 C 295.675781 604.214844 300.546875 599.339844 306.539062 599.339844 C 312.523438 599.339844 317.394531 604.214844 317.394531 610.203125 C 317.394531 616.1875 312.523438 621.058594 306.539062 621.058594 C 300.546875 621.058594 295.675781 616.1875 295.675781 610.203125 " fill-opacity="1" fill-rule="nonzero"/><path fill="#bab195" d="M 213.730469 445.722656 C 213.730469 449.445312 216.761719 452.46875 220.476562 452.46875 C 224.199219 452.46875 227.230469 449.445312 227.230469 445.722656 C 227.230469 442 224.199219 438.976562 220.476562 438.976562 C 216.761719 438.976562 213.730469 442 213.730469 445.722656 Z M 209.621094 445.722656 C 209.621094 439.738281 214.488281 434.867188 220.476562 434.867188 C 226.46875 434.867188 231.335938 439.738281 231.335938 445.722656 C 231.335938 451.710938 226.46875 456.585938 220.476562 456.585938 C 214.488281 456.585938 209.621094 451.710938 209.621094 445.722656 " fill-opacity="1" fill-rule="nonzero"/><path fill="#bab195" d="M 281.144531 364.320312 C 281.117188 364.421875 281.09375 364.53125 281.074219 364.632812 C 280.425781 366.210938 279.46875 367.144531 277.980469 367.644531 C 277.128906 367.933594 276.117188 368.082031 274.972656 368.082031 C 264.542969 368.082031 244.386719 356.234375 226.539062 345.746094 C 211.8125 337.085938 197.851562 328.875 187.433594 325.707031 C 190.21875 325.253906 193.21875 324.96875 195.734375 324.71875 C 197.75 324.53125 199.714844 324.332031 201.617188 324.09375 C 203.71875 323.824219 205.753906 323.691406 207.675781 323.691406 C 220.671875 323.691406 229.738281 329.355469 240.234375 335.917969 L 240.507812 335.480469 L 240.339844 335.980469 C 245.101562 338.96875 250.03125 342.050781 255.589844 344.71875 C 259.710938 346.699219 267.113281 348.695312 274.351562 348.695312 C 278.085938 348.695312 281.335938 348.144531 284.035156 347.058594 C 283.503906 352.886719 282.296875 358.703125 281.144531 364.320312 Z M 280.105469 412.058594 C 272.964844 403.820312 263.441406 402.773438 253.390625 401.664062 C 246.917969 400.960938 240.226562 400.230469 233.5 397.503906 C 231.386719 396.640625 229.214844 395.785156 227 394.921875 C 211.871094 388.988281 196.222656 382.851562 188.144531 369.332031 C 180.679688 356.84375 173.167969 339.316406 176.566406 330.984375 C 176.609375 330.851562 176.6875 330.738281 176.75 330.617188 L 176.761719 330.597656 C 177.464844 330.210938 178.398438 330.019531 179.535156 330.019531 C 188.390625 330.019531 207.925781 341.5 223.621094 350.71875 C 243.808594 362.601562 262.882812 373.820312 275.0625 373.820312 C 276.640625 373.820312 278.085938 373.628906 279.386719 373.25 C 278.574219 377.828125 277.71875 383.710938 277.726562 389.957031 C 277.734375 398.226562 278.875 405.691406 280.105469 412.058594 Z M 630.480469 191.4375 C 630.910156 200.507812 612.585938 202.15625 601.597656 203.144531 L 600.871094 203.214844 C 600.738281 203.222656 600.601562 203.234375 600.46875 203.246094 C 605.683594 197.070312 610.730469 190.5625 615.492188 183.894531 C 626.199219 168.894531 629.796875 168.136719 630.410156 168.136719 L 630.4375 168.117188 C 630.460938 168.136719 633.054688 170 631.324219 186.164062 C 631.152344 187.753906 630.949219 189.351562 630.710938 190.917969 L 630.457031 190.933594 Z M 203.246094 208.890625 C 206.460938 209.175781 209.054688 209.421875 210.527344 209.734375 C 219.90625 220.171875 229.960938 229.792969 240.449219 238.34375 C 238.324219 238.125 236.113281 238.007812 233.726562 238.007812 C 228.191406 238.007812 222.636719 238.628906 217.738281 239.183594 C 213.082031 239.703125 208.6875 240.195312 204.6875 240.195312 L 204.679688 240.195312 C 199.496094 240.195312 195.675781 239.339844 192.691406 237.507812 C 185.644531 226.519531 180.472656 215.074219 177.308594 203.480469 C 184.714844 207.234375 195.796875 208.222656 203.246094 208.890625 Z M 571.621094 238.007812 C 569.234375 238.007812 567.023438 238.125 564.90625 238.34375 C 575.390625 229.792969 585.449219 220.171875 594.828125 209.734375 C 596.296875 209.421875 598.890625 209.175781 602.105469 208.890625 C 609.554688 208.222656 620.640625 207.234375 628.046875 203.480469 C 624.875 215.078125 619.707031 226.519531 612.664062 237.507812 C 609.671875 239.339844 605.859375 240.195312 600.667969 240.195312 C 596.664062 240.195312 592.273438 239.703125 587.617188 239.183594 C 582.714844 238.628906 577.160156 238.007812 571.621094 238.007812 Z M 531.863281 277.402344 C 523.894531 275.582031 516.265625 274.667969 509.195312 274.667969 C 508.117188 274.667969 507.03125 274.6875 505.960938 274.730469 C 517.152344 269.40625 534.4375 260.894531 553.09375 247.414062 C 558.378906 244.914062 564.234375 243.753906 571.5 243.753906 C 576.628906 243.753906 581.855469 244.339844 586.984375 244.910156 C 591.546875 245.414062 596.273438 245.949219 600.640625 245.949219 C 603.0625 245.949219 605.21875 245.789062 607.191406 245.460938 C 597.964844 258.023438 586.046875 270.394531 570.800781 283.246094 C 567.871094 284.585938 564.828125 285.234375 561.5 285.234375 C 555.484375 285.234375 549.464844 283.121094 543.074219 280.875 C 539.410156 279.59375 535.617188 278.269531 531.863281 277.402344 Z M 516.285156 324.5625 C 516 320.335938 515.726562 316.34375 514.597656 312.929688 C 510.050781 299.171875 501.839844 289.121094 490.171875 283.046875 C 496.195312 281.289062 502.429688 280.425781 509.1875 280.425781 C 515.828125 280.425781 523.023438 281.300781 530.582031 283.027344 C 534.070312 283.824219 537.691406 285.097656 541.273438 286.363281 C 547.726562 288.625 554.40625 290.964844 561.277344 291.015625 C 555.539062 295.5625 549.882812 299.832031 544.855469 303.621094 L 544.46875 303.914062 C 531.738281 313.503906 521.535156 321.179688 516.539062 328 C 516.441406 326.855469 516.359375 325.695312 516.285156 324.5625 Z M 264.164062 286.328125 C 267.664062 285.097656 271.285156 283.824219 274.773438 283.027344 C 282.335938 281.300781 289.539062 280.425781 296.183594 280.425781 C 302.722656 280.425781 309.003906 281.277344 314.871094 282.949219 C 303.113281 289.019531 294.847656 299.101562 290.269531 312.929688 C 289.144531 316.34375 288.875 320.335938 288.582031 324.65625 C 288.519531 325.574219 288.453125 326.5 288.386719 327.421875 C 283.242188 320.757812 273.300781 313.265625 260.886719 303.914062 L 260.5 303.621094 C 255.46875 299.832031 249.8125 295.5625 244.074219 291.015625 C 250.949219 290.964844 257.640625 288.617188 264.164062 286.328125 Z M 204.707031 245.949219 C 209.082031 245.949219 213.804688 245.414062 218.371094 244.910156 C 223.441406 244.339844 228.6875 243.753906 233.847656 243.753906 C 241.113281 243.753906 246.96875 244.914062 252.179688 247.363281 C 270.910156 260.894531 288.195312 269.40625 299.386719 274.730469 C 298.316406 274.6875 297.238281 274.667969 296.160156 274.667969 C 289.089844 274.667969 281.460938 275.582031 273.492188 277.402344 C 269.742188 278.261719 265.953125 279.589844 262.253906 280.882812 C 255.882812 283.121094 249.871094 285.234375 243.855469 285.234375 C 240.519531 285.234375 237.476562 284.585938 234.550781 283.246094 C 219.289062 270.382812 207.371094 258.007812 198.148438 245.460938 C 200.128906 245.789062 202.285156 245.949219 204.707031 245.949219 Z M 394.230469 612.667969 C 396.664062 612.667969 398.839844 612.65625 400.640625 612.652344 L 402.4375 612.636719 L 404.230469 612.652344 C 406.03125 612.65625 408.199219 612.667969 410.640625 612.667969 C 428.996094 612.667969 441.96875 612.097656 450.257812 610.9375 C 449.707031 614.101562 448.324219 616.773438 446.027344 619.082031 C 436.316406 628.859375 413.445312 628.859375 403.679688 628.859375 L 401.820312 628.859375 C 393.070312 628.859375 369.8125 628.859375 360.097656 619.082031 C 357.847656 616.808594 356.472656 614.199219 355.902344 611.109375 C 364.238281 612.15625 376.789062 612.667969 394.230469 612.667969 Z M 400.617188 606.878906 C 398.828125 606.894531 396.660156 606.898438 394.230469 606.898438 C 384.066406 606.898438 375.355469 606.714844 368.316406 606.347656 C 371.183594 597.414062 366.15625 587.589844 361.285156 578.066406 C 357.6875 571.019531 353.972656 563.726562 354.316406 557.933594 C 354.570312 553.621094 356.503906 549.980469 359.355469 548.433594 C 361.695312 547.164062 364.523438 547.394531 367.480469 549.085938 C 368.734375 549.808594 370.300781 550.867188 372.121094 552.089844 L 372.414062 551.660156 L 372.234375 552.167969 C 379.484375 557.042969 390.433594 564.425781 402.441406 564.425781 L 403.863281 564.425781 C 415.871094 564.425781 426.816406 557.042969 434.109375 552.136719 C 435.851562 550.957031 437.5 549.839844 438.824219 549.085938 C 441.78125 547.394531 444.59375 547.164062 446.949219 548.425781 C 449.800781 549.980469 451.730469 553.621094 451.988281 557.933594 C 452.324219 563.714844 448.621094 570.980469 445 578.085938 C 440.15625 587.566406 435.148438 597.363281 437.964844 606.265625 C 430.679688 606.691406 421.488281 606.898438 410.640625 606.898438 C 408.246094 606.898438 406.105469 606.894531 404.324219 606.878906 L 404.324219 606.875 Z M 463.898438 586.867188 C 464.195312 596.828125 464.359375 602.3125 452.964844 604.648438 C 450.707031 605.109375 447.683594 605.511719 443.96875 605.839844 C 440.835938 598.894531 445.355469 590.054688 450.136719 580.691406 C 454.085938 572.960938 458.175781 564.964844 457.738281 557.582031 C 457.359375 551.199219 454.347656 545.878906 449.679688 543.351562 C 448.425781 542.675781 447.074219 542.21875 445.667969 542.003906 C 450.328125 527.359375 445.65625 513.449219 440.714844 498.734375 C 435.667969 483.714844 430.457031 468.183594 435.484375 451.050781 C 446.53125 413.464844 466.242188 393.535156 503.539062 382.253906 L 504.035156 382.101562 L 502.371094 376.589844 L 501.878906 376.738281 C 462.457031 388.652344 441.617188 409.710938 429.949219 449.421875 C 424.414062 468.285156 429.917969 484.675781 435.25 500.574219 C 440.136719 515.148438 444.753906 528.914062 439.34375 542.566406 C 438.203125 542.933594 437.070312 543.441406 435.953125 544.082031 C 434.570312 544.875 432.992188 545.929688 431.171875 547.15625 L 430.878906 547.355469 C 424.214844 551.855469 414.148438 558.65625 403.863281 558.65625 L 402.441406 558.65625 C 392.171875 558.65625 382.089844 551.855469 375.335938 547.296875 C 373.433594 546.015625 371.785156 544.90625 370.339844 544.082031 C 369.234375 543.449219 368.101562 542.933594 366.953125 542.566406 C 361.542969 528.914062 366.167969 515.148438 371.054688 500.570312 C 376.375 484.703125 381.886719 468.296875 376.335938 449.421875 C 364.675781 409.710938 343.839844 388.652344 304.421875 376.738281 L 303.933594 376.589844 L 302.257812 382.101562 L 302.753906 382.253906 C 340.054688 393.527344 359.777344 413.464844 370.816406 451.050781 C 375.835938 468.164062 370.632812 483.6875 365.589844 498.734375 C 360.652344 513.449219 355.976562 527.355469 360.636719 542.003906 C 359.230469 542.21875 357.878906 542.675781 356.613281 543.351562 C 351.949219 545.878906 348.9375 551.199219 348.558594 557.582031 C 348.128906 564.945312 352.191406 572.921875 356.160156 580.703125 C 360.96875 590.105469 365.515625 598.996094 362.28125 605.953125 C 357.949219 605.613281 354.460938 605.167969 351.90625 604.648438 C 340.511719 602.3125 340.675781 596.828125 340.976562 586.835938 C 341.152344 580.683594 341.363281 573.707031 338.117188 566.816406 C 333.03125 556.011719 326.691406 546.871094 320.550781 538.03125 C 309.621094 522.269531 299.296875 507.378906 297.609375 485.34375 C 296.5 470.753906 294.96875 453.820312 290.871094 437.683594 C 290.085938 431.601562 288.898438 425.886719 287.542969 419.546875 C 285.460938 409.851562 283.503906 400.695312 283.488281 389.953125 C 283.484375 381.4375 285.164062 373.332031 286.789062 365.492188 C 288.308594 358.105469 289.875 350.464844 290.066406 342.539062 C 290.339844 342.164062 290.605469 341.757812 290.859375 341.328125 L 290.941406 341.378906 L 291.1875 340.871094 C 291.332031 340.558594 291.460938 340.253906 291.5625 339.984375 C 293.609375 335.660156 293.984375 330.222656 294.34375 324.96875 C 294.605469 321.105469 294.851562 317.457031 295.746094 314.738281 C 300.273438 301.046875 308.320312 291.859375 320.335938 286.660156 L 320.417969 286.824219 L 321.066406 286.347656 C 328.457031 283.292969 337.480469 281.738281 347.886719 281.738281 C 362.214844 281.738281 376.421875 284.535156 387.839844 286.773438 L 387.984375 286.804688 C 393.402344 287.863281 398.074219 288.785156 401.675781 289.152344 L 402.960938 289.164062 L 403.242188 289.152344 C 406.785156 288.785156 411.425781 287.878906 416.796875 286.816406 L 417.027344 286.773438 C 428.445312 284.535156 442.65625 281.738281 456.980469 281.738281 C 484.726562 281.738281 501.777344 292.539062 509.117188 314.746094 C 510.011719 317.421875 510.261719 321.042969 510.527344 324.953125 C 510.984375 331.625 511.453125 338.523438 515.308594 343.152344 C 515.566406 350.890625 517.089844 358.316406 518.566406 365.519531 C 520.191406 373.390625 521.871094 381.523438 521.859375 389.953125 C 521.851562 400.699219 519.890625 409.855469 517.804688 419.585938 C 516.878906 423.898438 515.832031 428.78125 515.035156 433.777344 C 510.160156 451.132812 508.464844 469.496094 507.253906 485.34375 C 505.582031 507.367188 495.257812 522.257812 484.28125 538.089844 C 478.15625 546.921875 471.828125 556.054688 466.761719 566.816406 C 463.511719 573.707031 463.71875 580.683594 463.898438 586.867188 Z M 174.644531 190.917969 C 174.402344 189.351562 174.199219 187.753906 174.03125 186.164062 C 172.304688 170.042969 174.878906 168.140625 174.859375 168.140625 C 174.859375 168.140625 174.886719 168.136719 174.941406 168.136719 C 175.558594 168.136719 179.152344 168.894531 189.863281 183.894531 C 194.667969 190.628906 199.714844 197.132812 204.882812 203.246094 C 204.75 203.234375 204.609375 203.222656 204.476562 203.207031 L 203.710938 203.144531 C 192.765625 202.15625 174.441406 200.507812 174.875 191.4375 L 174.898438 190.933594 Z M 527.628906 389.957031 C 527.640625 383.710938 526.777344 377.828125 525.964844 373.25 C 527.261719 373.628906 528.710938 373.820312 530.289062 373.820312 C 542.433594 373.820312 561.523438 362.601562 581.738281 350.71875 C 597.425781 341.492188 616.957031 330.015625 625.8125 330.015625 C 626.644531 330.015625 627.367188 330.121094 627.964844 330.324219 C 628.109375 330.554688 628.230469 330.78125 628.320312 331.003906 C 631.703125 339.3125 624.191406 356.839844 616.726562 369.332031 C 608.648438 382.851562 593 388.988281 577.847656 394.929688 C 575.660156 395.785156 573.484375 396.640625 571.367188 397.503906 C 564.636719 400.230469 557.949219 400.960938 551.480469 401.664062 C 541.703125 402.75 532.441406 403.769531 525.375 411.386719 C 526.535156 405.242188 527.613281 398.019531 527.628906 389.957031 Z M 564.246094 335.550781 L 564.632812 335.917969 C 576.679688 328.390625 586.882812 322.011719 603.261719 324.09375 C 605.09375 324.328125 607.007812 324.515625 609.136719 324.71875 C 611.890625 324.984375 614.933594 325.285156 617.761719 325.757812 C 607.386719 328.957031 593.484375 337.128906 578.816406 345.746094 C 561.011719 356.214844 540.835938 368.082031 530.378906 368.082031 C 529.238281 368.082031 528.222656 367.933594 527.375 367.644531 C 525.890625 367.144531 524.90625 366.191406 524.28125 364.632812 C 524.261719 364.53125 524.234375 364.429688 524.214844 364.320312 C 523.0625 358.742188 521.875 352.976562 521.332031 347.257812 C 523.925781 348.214844 527.011719 348.695312 530.511719 348.695312 C 537.773438 348.695312 545.167969 346.699219 549.273438 344.71875 C 554.835938 342.054688 559.757812 338.96875 564.519531 335.988281 Z M 632.542969 162.757812 C 627.480469 160.828125 621.304688 165.839844 610.792969 180.539062 C 596.40625 200.699219 569.628906 238.226562 500.160156 271.097656 C 494.445312 273.800781 489.507812 276.132812 485.996094 278.3125 C 485.683594 278.410156 485.378906 278.511719 485.070312 278.617188 L 484.59375 278.789062 L 484.714844 279.144531 C 484.21875 279.476562 483.789062 279.785156 483.40625 280.089844 C 475.796875 277.355469 466.910156 275.972656 456.980469 275.972656 C 442.070312 275.972656 426.957031 278.949219 415.910156 281.125 L 415.597656 281.179688 C 410.464844 282.1875 406.023438 283.058594 402.816406 283.394531 L 402.105469 283.398438 C 398.847656 283.058594 394.410156 282.1875 389.265625 281.179688 L 388.957031 281.125 C 377.917969 278.949219 362.792969 275.972656 347.886719 275.972656 C 338.121094 275.972656 329.347656 277.320312 321.800781 279.96875 C 321.453125 279.703125 321.070312 279.429688 320.640625 279.144531 L 320.761719 278.789062 L 320.277344 278.617188 C 319.976562 278.511719 319.671875 278.410156 319.359375 278.3125 C 315.839844 276.132812 310.90625 273.800781 305.195312 271.097656 C 280.914062 259.609375 235.726562 238.226562 194.554688 180.539062 C 184.046875 165.839844 177.867188 160.835938 172.8125 162.75 C 168.101562 164.539062 166.710938 171.945312 168.292969 186.785156 C 168.53125 188.945312 168.84375 191.210938 169.21875 193.5 C 169.25 193.734375 169.285156 193.957031 169.332031 194.152344 C 172.101562 210.246094 178.378906 225.988281 188 240.9375 L 187.847656 241.171875 L 188.21875 241.464844 C 188.285156 241.515625 188.355469 241.554688 188.421875 241.597656 L 188.441406 241.609375 C 207.546875 270.933594 236.359375 292.644531 257.429688 308.523438 C 273.207031 320.414062 288.105469 331.644531 286.242188 337.726562 C 285.703125 338.808594 285.082031 339.652344 284.332031 340.292969 C 282.375 342.019531 278.917969 342.925781 274.351562 342.925781 C 268.058594 342.925781 261.511719 341.167969 258.09375 339.527344 C 252.871094 337.015625 248.121094 334.046875 243.523438 331.179688 L 243.335938 331.0625 C 232.542969 324.308594 222.339844 317.921875 207.675781 317.921875 C 205.484375 317.921875 203.199219 318.074219 200.882812 318.371094 C 199.09375 318.59375 197.238281 318.785156 195.167969 318.988281 C 186.101562 319.867188 176.730469 320.773438 172.519531 326.539062 C 172.222656 326.8125 171.949219 327.324219 171.886719 327.464844 C 171.613281 327.941406 171.390625 328.386719 171.207031 328.824219 C 165.9375 341.765625 179.050781 365.355469 183.199219 372.277344 C 192.296875 387.515625 209.632812 394.300781 224.921875 400.292969 C 227.089844 401.152344 229.230469 401.988281 231.332031 402.84375 C 238.789062 405.882812 246.210938 406.6875 252.78125 407.398438 C 265.394531 408.792969 275.359375 409.890625 281.050781 425.292969 C 282.628906 429.566406 283.992188 433.992188 285.207031 438.773438 L 285.4375 439.921875 L 285.492188 439.914062 C 289.335938 455.449219 290.792969 471.730469 291.867188 485.789062 C 293.660156 509.371094 304.414062 524.882812 315.859375 541.382812 C 321.84375 550.019531 328.035156 558.953125 332.898438 569.277344 C 335.546875 574.90625 335.375 580.894531 335.207031 586.703125 C 334.917969 596.492188 334.621094 606.621094 349.929688 610.109375 C 350.417969 615.175781 352.457031 619.5625 356.007812 623.152344 C 367.417969 634.628906 391.054688 634.628906 402.410156 634.628906 L 403.71875 634.628906 C 415.078125 634.628906 438.71875 634.628906 450.125 623.152344 C 453.734375 619.519531 455.78125 615.023438 456.21875 609.796875 C 470.242188 606.03125 469.953125 596.195312 469.667969 586.664062 C 469.496094 580.886719 469.316406 574.90625 471.976562 569.277344 C 476.855469 558.902344 483.058594 549.96875 489.09375 541.273438 C 500.46875 524.863281 511.210938 509.359375 513.011719 485.789062 C 514.089844 471.578125 515.574219 455.101562 519.492188 439.433594 C 519.523438 439.324219 522.648438 428.46875 523.824219 425.292969 C 529.511719 409.890625 539.480469 408.792969 552.117188 407.398438 C 558.660156 406.6875 566.085938 405.875 573.546875 402.84375 C 575.640625 401.988281 577.78125 401.152344 579.945312 400.292969 C 595.238281 394.300781 612.566406 387.515625 621.671875 372.277344 C 625.8125 365.355469 638.933594 341.757812 633.65625 328.816406 C 633.53125 328.519531 633.378906 328.234375 633.226562 327.949219 L 633.164062 327.828125 C 633.042969 327.558594 632.445312 326.234375 631.722656 325.742188 C 627.242188 320.691406 618.324219 319.824219 609.703125 318.988281 C 607.558594 318.777344 605.777344 318.59375 603.996094 318.371094 C 601.675781 318.074219 599.386719 317.921875 597.199219 317.921875 C 582.542969 317.921875 572.355469 324.292969 561.519531 331.0625 C 556.898438 333.964844 552.117188 336.964844 546.777344 339.527344 C 543.359375 341.167969 536.816406 342.925781 530.511719 342.925781 C 526.328125 342.925781 523.054688 342.144531 521.019531 340.660156 L 521.019531 340.332031 L 520.578125 340.332031 C 520.5625 340.320312 520.550781 340.304688 520.53125 340.292969 C 520.132812 339.953125 519.601562 338.917969 519.347656 338.320312 C 516.390625 332.296875 531.671875 320.773438 547.855469 308.574219 L 547.542969 308.167969 L 547.949219 308.503906 C 568.996094 292.644531 597.808594 270.933594 616.910156 241.617188 C 616.988281 241.566406 617.0625 241.523438 617.132812 241.464844 L 617.507812 241.171875 L 617.355469 240.9375 C 626.96875 225.992188 633.25 210.246094 636.027344 194.160156 C 636.066406 193.945312 636.105469 193.726562 636.136719 193.527344 C 636.523438 191.160156 636.820312 188.960938 637.0625 186.785156 C 638.640625 171.945312 637.246094 164.539062 632.542969 162.757812 " fill-opacity="1" fill-rule="nonzero"/><path fill="#bab195" d="M 487.667969 426.78125 C 491.765625 422.394531 493.140625 415.835938 491.769531 407.25 C 490.617188 407.453125 489.476562 407.644531 488.351562 407.828125 C 474.734375 410.078125 464.777344 411.726562 466.078125 432.78125 C 473.414062 433.5625 482.4375 432.375 487.667969 426.78125 Z M 511.894531 391.621094 L 515.816406 394.28125 C 510.804688 401.65625 503.660156 404.621094 496.417969 406.3125 C 498.085938 416.507812 496.3125 424.46875 491.128906 430.015625 C 485.175781 436.382812 476.484375 437.726562 470.191406 437.726562 C 467.265625 437.726562 464.847656 437.433594 463.492188 437.226562 L 461.664062 436.933594 L 461.5 435.09375 C 459.097656 407.871094 473.574219 405.476562 487.585938 403.15625 C 496.710938 401.640625 506.152344 400.074219 511.894531 391.621094 " fill-opacity="1" fill-rule="nonzero"/><path fill="#bab195" d="M 340.222656 432.78125 C 341.519531 411.726562 331.570312 410.078125 317.9375 407.828125 C 316.824219 407.644531 315.675781 407.453125 314.527344 407.25 C 313.152344 415.835938 314.527344 422.394531 318.628906 426.78125 C 323.863281 432.363281 332.882812 433.5625 340.222656 432.78125 Z M 318.71875 403.15625 C 332.714844 405.476562 347.195312 407.871094 344.796875 435.09375 L 344.640625 436.933594 L 342.808594 437.226562 C 341.445312 437.433594 339.035156 437.726562 336.097656 437.726562 C 329.816406 437.726562 321.121094 436.382812 315.175781 430.015625 C 309.988281 424.46875 308.21875 416.507812 309.875 406.3125 C 302.644531 404.621094 295.488281 401.65625 290.484375 394.28125 L 294.410156 391.621094 C 300.152344 400.074219 309.589844 401.640625 318.71875 403.15625 " fill-opacity="1" fill-rule="nonzero"/><path fill="#bab195" d="M 411.75 476.496094 C 411.75 481.007812 408.09375 484.664062 403.582031 484.664062 C 399.074219 484.664062 395.417969 481.007812 395.417969 476.496094 C 395.417969 471.988281 399.074219 468.328125 403.582031 468.328125 C 408.09375 468.328125 411.75 471.988281 411.75 476.496094 " fill-opacity="1" fill-rule="nonzero"/><path fill="#bab195" d="M 410.046875 503.523438 C 410.046875 506.972656 407.253906 509.761719 403.804688 509.761719 C 400.363281 509.761719 397.566406 506.972656 397.566406 503.523438 C 397.566406 500.074219 400.363281 497.285156 403.804688 497.285156 C 407.253906 497.285156 410.046875 500.074219 410.046875 503.523438 " fill-opacity="1" fill-rule="nonzero"/><path fill="#bab195" d="M 407.566406 525.234375 C 407.566406 527.304688 405.886719 528.984375 403.816406 528.984375 C 401.746094 528.984375 400.066406 527.304688 400.066406 525.234375 C 400.066406 523.164062 401.746094 521.488281 403.816406 521.488281 C 405.886719 521.488281 407.566406 523.164062 407.566406 525.234375 " fill-opacity="1" fill-rule="nonzero"/><path fill="#bab195" d="M 390.25 447.371094 C 389.335938 447.371094 388.601562 446.636719 388.601562 445.722656 C 388.601562 444.816406 389.335938 444.074219 390.25 444.074219 C 391.15625 444.074219 391.898438 444.816406 391.898438 445.722656 C 391.898438 446.636719 391.15625 447.371094 390.25 447.371094 " fill-opacity="1" fill-rule="nonzero"/><path fill="#bab195" d="M 387.300781 435.71875 C 385.703125 435.71875 384.410156 434.421875 384.410156 432.824219 C 384.410156 431.226562 385.703125 429.933594 387.300781 429.933594 C 388.898438 429.933594 390.191406 431.226562 390.191406 432.824219 C 390.191406 434.421875 388.898438 435.71875 387.300781 435.71875 " fill-opacity="1" fill-rule="nonzero"/><path fill="#bab195" d="M 381.613281 424.707031 C 379.484375 424.707031 377.757812 422.984375 377.757812 420.851562 C 377.757812 418.722656 379.484375 416.996094 381.613281 416.996094 C 383.738281 416.996094 385.46875 418.722656 385.46875 420.851562 C 385.46875 422.984375 383.738281 424.707031 381.613281 424.707031 " fill-opacity="1" fill-rule="nonzero"/><path fill="#bab195" d="M 374.410156 414.296875 C 371.886719 414.296875 369.832031 412.246094 369.832031 409.710938 C 369.832031 407.1875 371.886719 405.132812 374.410156 405.132812 C 376.945312 405.132812 378.996094 407.1875 378.996094 409.710938 C 378.996094 412.246094 376.945312 414.296875 374.410156 414.296875 " fill-opacity="1" fill-rule="nonzero"/><path fill="#bab195" d="M 366.515625 404.175781 C 363.6875 404.175781 361.390625 401.878906 361.390625 399.050781 C 361.390625 396.222656 363.6875 393.933594 366.515625 393.933594 C 369.34375 393.933594 371.632812 396.222656 371.632812 399.050781 C 371.632812 401.878906 369.34375 404.175781 366.515625 404.175781 " fill-opacity="1" fill-rule="nonzero"/><path fill="#bab195" d="M 358.445312 393.992188 C 355.425781 393.992188 352.976562 391.542969 352.976562 388.519531 C 352.976562 385.5 355.425781 383.054688 358.445312 383.054688 C 361.46875 383.054688 363.917969 385.5 363.917969 388.519531 C 363.917969 391.542969 361.46875 393.992188 358.445312 393.992188 " fill-opacity="1" fill-rule="nonzero"/><path fill="#bab195" d="M 350.644531 383.433594 C 347.53125 383.433594 345 380.902344 345 377.789062 C 345 374.667969 347.53125 372.144531 350.644531 372.144531 C 353.765625 372.144531 356.289062 374.667969 356.289062 377.789062 C 356.289062 380.902344 353.765625 383.433594 350.644531 383.433594 " fill-opacity="1" fill-rule="nonzero"/><path fill="#bab195" d="M 343.585938 372.222656 C 340.460938 372.222656 337.925781 369.683594 337.925781 366.558594 C 337.925781 363.433594 340.460938 360.902344 343.585938 360.902344 C 346.714844 360.902344 349.242188 363.433594 349.242188 366.558594 C 349.242188 369.683594 346.714844 372.222656 343.585938 372.222656 " fill-opacity="1" fill-rule="nonzero"/><path fill="#bab195" d="M 337.875 360.117188 C 334.824219 360.117188 332.351562 357.644531 332.351562 354.59375 C 332.351562 351.542969 334.824219 349.078125 337.875 349.078125 C 340.917969 349.078125 343.390625 351.542969 343.390625 354.59375 C 343.390625 357.644531 340.917969 360.117188 337.875 360.117188 " fill-opacity="1" fill-rule="nonzero"/><path fill="#bab195" d="M 334.285156 347.058594 C 331.402344 347.058594 329.066406 344.726562 329.066406 341.847656 C 329.066406 338.960938 331.402344 336.628906 334.285156 336.628906 C 337.164062 336.628906 339.503906 338.960938 339.503906 341.847656 C 339.503906 344.726562 337.164062 347.058594 334.285156 347.058594 " fill-opacity="1" fill-rule="nonzero"/><path fill="#bab195" d="M 333.542969 333.355469 C 330.9375 333.355469 328.820312 331.238281 328.820312 328.625 C 328.820312 326.011719 330.9375 323.902344 333.542969 323.902344 C 336.15625 323.902344 338.273438 326.011719 338.273438 328.625 C 338.273438 331.238281 336.15625 333.355469 333.542969 333.355469 " fill-opacity="1" fill-rule="nonzero"/><path fill="#bab195" d="M 335.851562 319.621094 C 333.625 319.621094 331.820312 317.8125 331.820312 315.589844 C 331.820312 313.363281 333.625 311.554688 335.851562 311.554688 C 338.078125 311.554688 339.882812 313.363281 339.882812 315.589844 C 339.882812 317.8125 338.078125 319.621094 335.851562 319.621094 " fill-opacity="1" fill-rule="nonzero"/><path fill="#bab195" d="M 340.734375 306.386719 C 339.015625 306.386719 337.621094 304.992188 337.621094 303.265625 C 337.621094 301.546875 339.015625 300.148438 340.734375 300.148438 C 342.460938 300.148438 343.855469 301.546875 343.855469 303.265625 C 343.855469 304.992188 342.460938 306.386719 340.734375 306.386719 " fill-opacity="1" fill-rule="nonzero"/><path fill="#bab195" d="M 347.492188 293.800781 C 346.421875 293.800781 345.558594 292.929688 345.558594 291.859375 C 345.558594 290.789062 346.421875 289.917969 347.492188 289.917969 C 348.566406 289.917969 349.433594 290.789062 349.433594 291.859375 C 349.433594 292.929688 348.566406 293.800781 347.492188 293.800781 " fill-opacity="1" fill-rule="nonzero"/><path fill="#bab195" d="M 416.917969 447.371094 C 416.003906 447.371094 415.269531 446.636719 415.269531 445.722656 C 415.269531 444.816406 416.003906 444.074219 416.917969 444.074219 C 417.824219 444.074219 418.5625 444.816406 418.5625 445.722656 C 418.5625 446.636719 417.824219 447.371094 416.917969 447.371094 " fill-opacity="1" fill-rule="nonzero"/><path fill="#bab195" d="M 419.859375 435.71875 C 418.269531 435.71875 416.96875 434.421875 416.96875 432.824219 C 416.96875 431.226562 418.269531 429.933594 419.859375 429.933594 C 421.457031 429.933594 422.75 431.226562 422.75 432.824219 C 422.75 434.421875 421.457031 435.71875 419.859375 435.71875 " fill-opacity="1" fill-rule="nonzero"/><path fill="#bab195" d="M 425.554688 424.707031 C 423.425781 424.707031 421.699219 422.984375 421.699219 420.851562 C 421.699219 418.722656 423.425781 416.996094 425.554688 416.996094 C 427.683594 416.996094 429.410156 418.722656 429.410156 420.851562 C 429.410156 422.984375 427.683594 424.707031 425.554688 424.707031 " fill-opacity="1" fill-rule="nonzero"/><path fill="#bab195" d="M 432.75 414.296875 C 430.222656 414.296875 428.167969 412.246094 428.167969 409.710938 C 428.167969 407.1875 430.222656 405.132812 432.75 405.132812 C 435.28125 405.132812 437.328125 407.1875 437.328125 409.710938 C 437.328125 412.246094 435.28125 414.296875 432.75 414.296875 " fill-opacity="1" fill-rule="nonzero"/><path fill="#bab195" d="M 440.652344 404.175781 C 437.824219 404.175781 435.527344 401.878906 435.527344 399.050781 C 435.527344 396.222656 437.824219 393.933594 440.652344 393.933594 C 443.480469 393.933594 445.769531 396.222656 445.769531 399.050781 C 445.769531 401.878906 443.480469 404.175781 440.652344 404.175781 " fill-opacity="1" fill-rule="nonzero"/><path fill="#bab195" d="M 448.71875 393.992188 C 445.699219 393.992188 443.25 391.542969 443.25 388.519531 C 443.25 385.5 445.699219 383.054688 448.71875 383.054688 C 451.734375 383.054688 454.183594 385.5 454.183594 388.519531 C 454.183594 391.542969 451.734375 393.992188 448.71875 393.992188 " fill-opacity="1" fill-rule="nonzero"/><path fill="#bab195" d="M 456.515625 383.433594 C 453.402344 383.433594 450.871094 380.902344 450.871094 377.789062 C 450.871094 374.667969 453.402344 372.144531 456.515625 372.144531 C 459.636719 372.144531 462.160156 374.667969 462.160156 377.789062 C 462.160156 380.902344 459.636719 383.433594 456.515625 383.433594 " fill-opacity="1" fill-rule="nonzero"/><path fill="#bab195" d="M 463.578125 372.222656 C 460.453125 372.222656 457.917969 369.683594 457.917969 366.558594 C 457.917969 363.433594 460.453125 360.902344 463.578125 360.902344 C 466.707031 360.902344 469.234375 363.433594 469.234375 366.558594 C 469.234375 369.683594 466.707031 372.222656 463.578125 372.222656 " fill-opacity="1" fill-rule="nonzero"/><path fill="#bab195" d="M 469.292969 360.117188 C 466.242188 360.117188 463.769531 357.644531 463.769531 354.59375 C 463.769531 351.542969 466.242188 349.078125 469.292969 349.078125 C 472.34375 349.078125 474.816406 351.542969 474.816406 354.59375 C 474.816406 357.644531 472.34375 360.117188 469.292969 360.117188 " fill-opacity="1" fill-rule="nonzero"/><path fill="#bab195" d="M 472.882812 347.058594 C 469.996094 347.058594 467.664062 344.726562 467.664062 341.847656 C 467.664062 338.960938 469.996094 336.628906 472.882812 336.628906 C 475.761719 336.628906 478.09375 338.960938 478.09375 341.847656 C 478.09375 344.726562 475.761719 347.058594 472.882812 347.058594 " fill-opacity="1" fill-rule="nonzero"/><path fill="#bab195" d="M 473.617188 333.355469 C 471.003906 333.355469 468.894531 331.238281 468.894531 328.625 C 468.894531 326.011719 471.003906 323.902344 473.617188 323.902344 C 476.230469 323.902344 478.347656 326.011719 478.347656 328.625 C 478.347656 331.238281 476.230469 333.355469 473.617188 333.355469 " fill-opacity="1" fill-rule="nonzero"/><path fill="#bab195" d="M 471.308594 319.621094 C 469.082031 319.621094 467.277344 317.8125 467.277344 315.589844 C 467.277344 313.363281 469.082031 311.554688 471.308594 311.554688 C 473.542969 311.554688 475.347656 313.363281 475.347656 315.589844 C 475.347656 317.8125 473.542969 319.621094 471.308594 319.621094 " fill-opacity="1" fill-rule="nonzero"/><path fill="#bab195" d="M 466.425781 306.386719 C 464.707031 306.386719 463.3125 304.992188 463.3125 303.265625 C 463.3125 301.546875 464.707031 300.148438 466.425781 300.148438 C 468.152344 300.148438 469.546875 301.546875 469.546875 303.265625 C 469.546875 304.992188 468.152344 306.386719 466.425781 306.386719 " fill-opacity="1" fill-rule="nonzero"/><path fill="#bab195" d="M 459.667969 293.800781 C 458.601562 293.800781 457.734375 292.929688 457.734375 291.859375 C 457.734375 290.789062 458.601562 289.917969 459.667969 289.917969 C 460.738281 289.917969 461.609375 290.789062 461.609375 291.859375 C 461.609375 292.929688 460.738281 293.800781 459.667969 293.800781 " fill-opacity="1" fill-rule="nonzero"/><path fill="#bab195" d="M 342.800781 420.664062 C 341.988281 418.792969 341.179688 416.929688 340.246094 415.113281 C 337.644531 411.09375 333.945312 408.488281 329.636719 406.6875 C 328.667969 406.554688 327.632812 406.488281 326.523438 406.496094 C 325.089844 406.503906 324.097656 405.847656 323.507812 404.929688 C 322.523438 405.640625 321.636719 406.507812 320.886719 407.535156 C 316.796875 413.136719 318.300781 421.1875 324.234375 425.527344 C 330.175781 429.863281 338.304688 428.84375 342.394531 423.242188 C 342.6875 422.835938 342.941406 422.414062 343.175781 421.980469 C 343.0625 421.53125 342.933594 421.085938 342.800781 420.664062 " fill-opacity="1" fill-rule="nonzero"/><path fill="#bab195" d="M 463.496094 420.664062 C 464.300781 418.792969 465.121094 416.929688 466.054688 415.113281 C 468.652344 411.09375 472.355469 408.488281 476.660156 406.6875 C 477.632812 406.554688 478.664062 406.488281 479.773438 406.496094 C 481.199219 406.503906 482.203125 405.847656 482.792969 404.929688 C 483.769531 405.640625 484.65625 406.507812 485.40625 407.535156 C 489.496094 413.136719 487.996094 421.1875 482.058594 425.527344 C 476.121094 429.863281 467.992188 428.84375 463.902344 423.242188 C 463.605469 422.835938 463.359375 422.414062 463.125 421.980469 C 463.238281 421.53125 463.363281 421.085938 463.496094 420.664062 " fill-opacity="1" fill-rule="nonzero"/><path fill="#bab195" d="M 376.121094 563.84375 C 375.089844 559.382812 372.253906 556.117188 369.132812 554.53125 C 366.007812 552.941406 362.578125 553 360.195312 554.9375 C 357.816406 556.878906 356.949219 560.082031 357.480469 563.335938 C 358.011719 566.59375 359.929688 569.878906 363.289062 572.179688 C 366.757812 574.566406 369.300781 576.132812 371.605469 577.976562 C 372.730469 578.902344 373.808594 579.898438 374.738281 581.167969 C 375.214844 581.804688 375.601562 582.503906 375.898438 583.320312 C 376.171875 584.089844 376.261719 585.21875 375.679688 586.042969 C 375.894531 585.851562 376.148438 585.6875 376.335938 585.476562 C 376.488281 585.25 376.691406 585.039062 376.8125 584.800781 C 376.921875 584.558594 377.046875 584.324219 377.144531 584.078125 C 377.21875 583.808594 377.296875 583.558594 377.363281 583.304688 C 377.574219 582.28125 377.667969 581.28125 377.6875 580.359375 C 377.746094 578.503906 377.675781 576.828125 377.605469 575.148438 C 377.421875 571.8125 377.175781 568.425781 376.121094 563.84375 " fill-opacity="1" fill-rule="evenodd"/><path fill="#bab195" d="M 428.210938 575.148438 C 428.140625 576.828125 428.070312 578.503906 428.128906 580.359375 C 428.148438 581.28125 428.242188 582.28125 428.453125 583.304688 C 428.523438 583.558594 428.597656 583.808594 428.675781 584.078125 C 428.769531 584.324219 428.894531 584.558594 429.003906 584.800781 C 429.125 585.039062 429.328125 585.25 429.480469 585.476562 C 429.667969 585.6875 429.921875 585.851562 430.140625 586.042969 C 429.554688 585.21875 429.644531 584.089844 429.917969 583.320312 C 430.214844 582.503906 430.601562 581.804688 431.078125 581.167969 C 432.007812 579.898438 433.082031 578.902344 434.210938 577.976562 C 436.515625 576.132812 439.058594 574.566406 442.527344 572.179688 C 445.890625 569.878906 447.804688 566.59375 448.335938 563.335938 C 448.871094 560.082031 448 556.878906 445.621094 554.9375 C 443.238281 553 439.808594 552.941406 436.683594 554.53125 C 433.5625 556.117188 430.726562 559.382812 429.695312 563.84375 C 428.640625 568.425781 428.394531 571.8125 428.210938 575.148438 " fill-opacity="1" fill-rule="evenodd"/><path fill="#bab195" d="M 403.582031 351.695312 C 390.574219 351.695312 379.996094 341.113281 379.996094 328.105469 C 379.996094 315.09375 390.574219 304.515625 403.582031 304.515625 C 416.589844 304.515625 427.171875 315.09375 427.171875 328.105469 C 427.171875 341.113281 416.589844 351.695312 403.582031 351.695312 Z M 403.582031 299.773438 C 387.960938 299.773438 375.253906 312.480469 375.253906 328.105469 C 375.253906 342.925781 386.699219 355.121094 401.210938 356.324219 L 401.210938 370.902344 L 386.449219 370.902344 L 386.449219 375.640625 L 401.210938 375.640625 L 401.210938 412.585938 L 405.957031 412.585938 L 405.957031 375.640625 L 420.710938 375.640625 L 420.710938 370.902344 L 405.957031 370.902344 L 405.957031 356.324219 C 420.460938 355.121094 431.90625 342.925781 431.90625 328.105469 C 431.90625 312.480469 419.199219 299.773438 403.582031 299.773438 " fill-opacity="1" fill-rule="nonzero"/></svg>