<svg xmlns="http://www.w3.org/2000/svg" xmlns:xlink="http://www.w3.org/1999/xlink" width="1080" zoomAndPan="magnify" viewBox="0 0 810 809.999993" height="1080" preserveAspectRatio="xMidYMid meet" version="1.0"><defs><clipPath id="a0741c2a67"><path d="M 379 674 L 433 674 L 433 727.226562 L 379 727.226562 Z M 379 674 " clip-rule="nonzero"/></clipPath><clipPath id="4c17b42ebd"><path d="M 368 83.023438 L 432 83.023438 L 432 147 L 368 147 Z M 368 83.023438 " clip-rule="nonzero"/></clipPath><clipPath id="b513c0be9e"><path d="M 688 367 L 728.382812 367 L 728.382812 407.84375 L 688 407.84375 Z M 688 367 " clip-rule="nonzero"/></clipPath></defs><rect x="-81" width="972" fill="#ffffff" y="-80.999999" height="971.999992" fill-opacity="1"/><rect x="-81" width="972" fill="#ffffff" y="-80.999999" height="971.999992" fill-opacity="1"/><rect x="-81" width="972" fill="#11091a" y="-80.999999" height="971.999992" fill-opacity="1"/><path fill="#bab195" d="M 525.324219 140.21875 L 537.328125 131.484375 L 522.488281 131.484375 L 517.90625 117.371094 L 513.320312 131.484375 L 498.488281 131.484375 L 510.484375 140.21875 L 505.902344 154.328125 L 517.90625 145.605469 L 529.910156 154.328125 Z M 553.207031 126.320312 L 531.394531 142.191406 L 539.722656 167.839844 L 517.90625 151.980469 L 496.09375 167.839844 L 504.414062 142.191406 L 482.605469 126.320312 L 509.570312 126.320312 L 517.90625 100.667969 L 526.246094 126.320312 L 553.207031 126.320312 " fill-opacity="1" fill-rule="nonzero"/><path fill="#bab195" d="M 317.371094 588.597656 C 341.277344 508.75 317.410156 464.171875 303.109375 437.464844 C 301.1875 433.902344 297.867188 427.417969 294.015625 418.800781 C 293.574219 446.632812 297.511719 474.695312 301.195312 500.875 C 307.265625 543.984375 312.644531 582.28125 298.835938 610.257812 C 305.246094 604.027344 311.496094 596.78125 317.371094 588.597656 Z M 355.742188 466.433594 L 354.746094 465.609375 C 334.230469 448.75 324.03125 425.644531 318.558594 413.238281 L 317.601562 411.113281 C 312.703125 400.113281 307.679688 383.769531 302.652344 362.464844 C 297.949219 376.863281 295.480469 391.761719 294.503906 406.8125 C 299.988281 420.238281 305.101562 430.265625 307.644531 435.03125 C 321.386719 460.664062 343.691406 502.332031 326.480469 574.574219 C 343.371094 545.941406 355.382812 508.792969 355.742188 466.433594 Z M 400.0625 256.230469 C 397.171875 233.21875 383.441406 222.988281 372.339844 218.457031 C 353.152344 210.640625 327.035156 214.277344 311.585938 226.929688 C 303.589844 233.484375 296.863281 240.90625 291.402344 249.191406 C 291.394531 249.199219 291.394531 249.21875 291.382812 249.234375 C 276.007812 272.539062 270.71875 302.605469 275.648438 339.027344 C 278.476562 359.890625 284.273438 379.644531 290.269531 395.941406 C 292.191406 379.105469 296.164062 362.519531 303.222656 346.585938 C 325.09375 297.300781 388.152344 262.464844 400.0625 256.230469 Z M 516.277344 624.566406 C 494.351562 608.171875 476.195312 584.011719 463.628906 554.441406 C 452.703125 528.761719 446.375 499.707031 445.589844 471.980469 C 433.421875 481.753906 419.941406 491.304688 405.40625 491.304688 C 405.167969 491.304688 404.933594 491.304688 404.695312 491.304688 L 403.386719 491.304688 C 403.148438 491.304688 402.910156 491.304688 402.671875 491.304688 C 387.507812 491.304688 373.449219 480.910156 360.824219 470.617188 C 359.640625 509.761719 347.257812 556.023438 321.828125 591.691406 C 321.828125 591.691406 321.828125 591.691406 321.828125 591.707031 C 312.902344 604.21875 302.375 615.425781 290.15625 624.566406 C 303.726562 632.832031 357.609375 663.917969 401.859375 663.917969 C 401.867188 663.917969 401.878906 663.917969 401.878906 663.917969 L 404.574219 663.917969 C 448.84375 663.917969 502.714844 632.84375 516.277344 624.566406 Z M 501.832031 356.804688 C 500.792969 354.105469 499.6875 351.382812 498.496094 348.683594 C 486.558594 321.78125 461 299.105469 441.65625 284.820312 C 423.589844 271.46875 407.441406 262.769531 403.074219 260.496094 C 398.734375 262.769531 382.632812 271.46875 364.628906 284.820312 C 345.359375 299.097656 319.886719 321.78125 307.9375 348.683594 C 307.226562 350.289062 306.554688 351.914062 305.902344 353.535156 C 311.445312 378.355469 316.976562 397.019531 322.320312 409.003906 L 323.269531 411.148438 C 328.574219 423.167969 338.449219 445.539062 358.015625 461.621094 L 360.152344 463.378906 C 373.265625 474.195312 388.152344 486.421875 403.332031 486.144531 L 404.75 486.144531 C 419.792969 486.453125 434.507812 474.410156 447.480469 463.777344 L 449.765625 461.914062 C 469.570312 445.757812 479.554688 423.175781 484.917969 411.042969 L 485.828125 409.003906 C 491.5625 396.136719 496.949219 378.578125 501.832031 356.804688 Z M 513.042969 406.925781 C 511.847656 393.269531 509.351562 379.535156 505.007812 365.910156 C 500.550781 384.371094 495.6875 399.558594 490.527344 411.113281 L 489.632812 413.132812 C 484.105469 425.667969 473.789062 448.972656 453.03125 465.917969 L 450.75 467.773438 C 450.730469 467.796875 450.710938 467.808594 450.691406 467.828125 C 450.914062 496.101562 457.167969 526.085938 468.375 552.433594 C 473.265625 563.933594 479.023438 574.585938 485.535156 584.242188 C 475.695312 560.433594 472.101562 534.675781 474.847656 507.367188 C 478.609375 469.777344 493.449219 442.417969 497.898438 434.929688 C 503.644531 425.273438 508.667969 415.9375 513.042969 406.925781 Z M 507.414062 501.070312 C 511.0625 474.558594 514.976562 446.078125 513.714844 417.117188 C 510.269531 423.765625 506.492188 430.578125 502.332031 437.566406 C 498.015625 444.828125 483.636719 471.359375 479.972656 507.882812 C 476.433594 543.179688 483.8125 575.773438 501.898438 604.789062 C 505.414062 608.5 509.0625 611.964844 512.847656 615.1875 C 496.136719 583.273438 501.621094 543.207031 507.414062 501.070312 Z M 516.441406 392 C 523.003906 356.324219 518.949219 321.710938 504.542969 291.363281 C 490.765625 262.34375 467.507812 237.441406 439.066406 221.265625 C 396.820312 197.253906 350.542969 195.863281 318.53125 216.359375 C 335.222656 207.960938 356.964844 206.617188 374.285156 213.679688 C 391.773438 220.808594 402.714844 235.75 405.191406 255.765625 C 414.394531 260.496094 480.707031 295.886719 503.207031 346.585938 C 509.894531 361.65625 514.058594 376.855469 516.441406 392 Z M 522.871094 384.597656 C 549.902344 315.53125 537.140625 267.621094 519.167969 237.847656 C 502.789062 210.722656 480.015625 194.734375 463.792969 186.105469 C 443.867188 175.5 422.621094 169.921875 405.5 170.84375 C 378.101562 172.296875 355.125 180.390625 335.242188 195.578125 C 329.898438 199.667969 324.777344 204.296875 319.832031 209.484375 C 333.648438 201.589844 349.769531 197.273438 367.433594 196.859375 C 391.695312 196.28125 418.019531 203.367188 441.617188 216.785156 C 470.972656 233.476562 494.976562 259.171875 509.203125 289.15625 C 522.949219 318.121094 527.582031 350.785156 522.871094 384.597656 Z M 525.488281 624.804688 L 522.300781 626.886719 C 522.136719 626.988281 505.847656 637.550781 483.371094 647.953125 C 445.664062 665.40625 419.710938 669.082031 404.574219 669.082031 C 404.558594 669.082031 404.558594 669.082031 404.550781 669.082031 L 401.894531 669.082031 C 401.878906 669.082031 401.867188 669.082031 401.859375 669.082031 C 386.722656 669.082031 360.769531 665.414062 323.0625 647.953125 C 300.597656 637.550781 284.296875 626.988281 284.140625 626.886719 L 280.945312 624.804688 L 283.738281 622.84375 C 309.386719 596.328125 303.230469 552.390625 296.089844 501.597656 C 291.878906 471.71875 287.347656 439.441406 289.265625 407.632812 C 281.921875 389.480469 274.019531 365.433594 270.527344 339.71875 C 265.402344 301.84375 271.015625 270.511719 287.203125 246.152344 C 300.605469 222.222656 315.296875 204.324219 332.113281 191.476562 C 352.847656 175.640625 376.753906 167.203125 405.230469 165.695312 C 423.261719 164.71875 445.488281 170.511719 466.21875 181.550781 C 483.003906 190.488281 506.601562 207.050781 523.582031 235.179688 C 544.015625 269 558.011719 325.34375 518.320312 407.890625 C 520.957031 440.355469 516.582031 472.265625 512.527344 501.769531 C 505.855469 550.316406 500.082031 592.226562 524.632812 624.089844 L 524.558594 624.152344 L 525.488281 624.804688 " fill-opacity="1" fill-rule="nonzero"/><path fill="#bab195" d="M 411.9375 278.226562 C 411.9375 282.804688 408.222656 286.523438 403.644531 286.523438 C 399.050781 286.523438 395.34375 282.804688 395.34375 278.226562 C 395.34375 273.632812 399.050781 269.921875 403.644531 269.921875 C 408.222656 269.921875 411.9375 273.632812 411.9375 278.226562 " fill-opacity="1" fill-rule="nonzero"/><path fill="#bab195" d="M 410.214844 305.707031 C 410.214844 309.207031 407.375 312.050781 403.867188 312.050781 C 400.367188 312.050781 397.527344 309.207031 397.527344 305.707031 C 397.527344 302.199219 400.367188 299.363281 403.867188 299.363281 C 407.375 299.363281 410.214844 302.199219 410.214844 305.707031 " fill-opacity="1" fill-rule="nonzero"/><path fill="#bab195" d="M 407.6875 327.785156 C 407.6875 329.886719 405.984375 331.597656 403.875 331.597656 C 401.773438 331.597656 400.0625 329.886719 400.0625 327.785156 C 400.0625 325.675781 401.773438 323.972656 403.875 323.972656 C 405.984375 323.972656 407.6875 325.675781 407.6875 327.785156 " fill-opacity="1" fill-rule="nonzero"/><path fill="#bab195" d="M 421.824219 436.910156 C 422.394531 435.785156 422.980469 434.648438 423.664062 433.488281 C 419.871094 432.695312 416.488281 431.246094 413.21875 429.019531 C 412.46875 428.515625 411.929688 428.457031 411.550781 428.457031 C 411.035156 428.457031 410.433594 428.585938 409.542969 428.898438 C 408.960938 429.09375 408.453125 429.332031 407.917969 429.59375 C 406.75 430.160156 405.441406 430.796875 403.636719 430.796875 L 402.898438 430.789062 C 400.992188 430.789062 399.683594 430.160156 398.515625 429.59375 C 397.988281 429.332031 397.484375 429.09375 396.929688 428.910156 C 396 428.585938 395.398438 428.457031 394.882812 428.457031 C 394.515625 428.457031 393.964844 428.515625 393.199219 429.03125 C 389.9375 431.246094 386.558594 432.695312 382.777344 433.488281 C 383.453125 434.648438 384.035156 435.785156 384.613281 436.910156 C 385.65625 438.953125 386.742188 441.054688 388.382812 443.226562 C 391.292969 447.101562 397.546875 450.140625 402.925781 450.308594 L 403.546875 450.308594 C 408.917969 450.132812 415.152344 447.085938 418.0625 443.226562 C 419.691406 441.054688 420.773438 438.9375 421.824219 436.910156 Z M 433.261719 429.34375 L 430.132812 433.15625 C 428.554688 435.089844 427.507812 437.125 426.410156 439.265625 C 425.265625 441.503906 424.078125 443.816406 422.179688 446.335938 C 417.84375 452.082031 409.589844 455.285156 403.675781 455.472656 L 402.84375 455.472656 C 396.839844 455.285156 388.585938 452.082031 384.253906 446.335938 C 382.355469 443.816406 381.167969 441.503906 380.023438 439.265625 C 378.921875 437.125 377.886719 435.097656 376.300781 433.15625 L 373.171875 429.34375 L 378.097656 428.949219 C 382.824219 428.578125 386.585938 427.289062 390.324219 424.742188 C 391.789062 423.765625 393.289062 423.292969 394.882812 423.292969 C 396.304688 423.292969 397.613281 423.6875 398.589844 424.023438 C 399.425781 424.304688 400.136719 424.640625 400.769531 424.941406 C 401.695312 425.394531 402.210938 425.632812 402.808594 425.632812 L 403.527344 425.625 C 404.234375 425.625 404.75 425.394531 405.664062 424.941406 C 406.296875 424.640625 407.007812 424.304688 407.882812 424.003906 C 408.824219 423.6875 410.128906 423.292969 411.550781 423.292969 C 413.160156 423.292969 414.644531 423.765625 416.109375 424.742188 C 419.84375 427.289062 423.625 428.578125 428.335938 428.949219 L 433.261719 429.34375 " fill-opacity="1" fill-rule="nonzero"/><path fill="#bab195" d="M 402.667969 443.21875 C 397.179688 443.21875 391.816406 440.789062 386.945312 435.925781 L 390.589844 432.277344 C 398.429688 440.097656 406.824219 440.066406 415.539062 432.1875 L 418.996094 436.015625 C 413.6875 440.816406 408.121094 443.21875 402.667969 443.21875 " fill-opacity="1" fill-rule="nonzero"/><path fill="#bab195" d="M 379.859375 343.125 C 371.871094 335.066406 363.570312 331.136719 355.160156 331.507812 C 342.058594 332.046875 332.847656 342.855469 332.757812 342.964844 L 328.792969 339.660156 C 329.226562 339.144531 339.492188 327.019531 354.894531 326.351562 C 364.835938 325.917969 374.453125 330.34375 383.523438 339.496094 L 379.859375 343.125 " fill-opacity="1" fill-rule="nonzero"/><path fill="#bab195" d="M 357.511719 369.132812 C 343.578125 369.132812 333.398438 358.996094 332.96875 358.5625 L 336.632812 354.933594 C 336.726562 355.019531 345.914062 364.105469 357.859375 363.96875 C 365.015625 363.859375 371.808594 360.433594 378.0625 353.777344 L 381.820312 357.3125 C 374.5625 365.042969 366.503906 369.019531 357.886719 369.125 C 357.757812 369.132812 357.640625 369.132812 357.511719 369.132812 " fill-opacity="1" fill-rule="nonzero"/><path fill="#bab195" d="M 406.859375 409.492188 C 405.664062 407.679688 401.277344 407.355469 398.375 407.144531 C 397.839844 407.101562 397.324219 407.0625 396.835938 407.019531 L 392.691406 406.648438 L 394.859375 403.097656 C 400.300781 394.222656 400.917969 369.636719 396.007812 357.734375 L 400.773438 355.757812 C 405.792969 367.925781 405.671875 390.28125 401.019531 402.175781 C 404.777344 402.550781 409.027344 403.398438 411.171875 406.65625 L 406.859375 409.492188 " fill-opacity="1" fill-rule="nonzero"/><path fill="#bab195" d="M 498.46875 619.714844 C 497.503906 619.714844 496.726562 618.933594 496.726562 617.976562 C 496.726562 617.015625 497.503906 616.242188 498.46875 616.242188 C 499.425781 616.242188 500.203125 617.015625 500.203125 617.976562 C 500.203125 618.933594 499.425781 619.714844 498.46875 619.714844 " fill-opacity="1" fill-rule="nonzero"/><path fill="#bab195" d="M 485.5 627.421875 C 483.8125 627.421875 482.441406 626.050781 482.441406 624.355469 C 482.441406 622.667969 483.8125 621.296875 485.5 621.296875 C 487.195312 621.296875 488.566406 622.667969 488.566406 624.355469 C 488.566406 626.050781 487.195312 627.421875 485.5 627.421875 " fill-opacity="1" fill-rule="nonzero"/><path fill="#bab195" d="M 472.285156 634.273438 C 470.023438 634.273438 468.195312 632.445312 468.195312 630.183594 C 468.195312 627.917969 470.023438 626.085938 472.285156 626.085938 C 474.546875 626.085938 476.378906 627.917969 476.378906 630.183594 C 476.378906 632.445312 474.546875 634.273438 472.285156 634.273438 " fill-opacity="1" fill-rule="nonzero"/><path fill="#bab195" d="M 458.792969 640.253906 C 456.09375 640.253906 453.90625 638.0625 453.90625 635.359375 C 453.90625 632.660156 456.09375 630.46875 458.792969 630.46875 C 461.492188 630.46875 463.683594 632.660156 463.683594 635.359375 C 463.683594 638.0625 461.492188 640.253906 458.792969 640.253906 " fill-opacity="1" fill-rule="nonzero"/><path fill="#bab195" d="M 445.035156 645.234375 C 442.007812 645.234375 439.554688 642.777344 439.554688 639.75 C 439.554688 636.726562 442.007812 634.269531 445.035156 634.269531 C 448.058594 634.269531 450.511719 636.726562 450.511719 639.75 C 450.511719 642.777344 448.058594 645.234375 445.035156 645.234375 " fill-opacity="1" fill-rule="nonzero"/><path fill="#bab195" d="M 430.996094 649.046875 C 427.738281 649.046875 425.101562 646.40625 425.101562 643.148438 C 425.101562 639.898438 427.738281 637.261719 430.996094 637.261719 C 434.25 637.261719 436.882812 639.898438 436.882812 643.148438 C 436.882812 646.40625 434.25 649.046875 430.996094 649.046875 " fill-opacity="1" fill-rule="nonzero"/><path fill="#bab195" d="M 416.707031 651.386719 C 413.320312 651.386719 410.582031 648.644531 410.582031 645.261719 C 410.582031 641.875 413.320312 639.132812 416.707031 639.132812 C 420.082031 639.132812 422.828125 641.875 422.828125 645.261719 C 422.828125 648.644531 420.082031 651.386719 416.707031 651.386719 " fill-opacity="1" fill-rule="nonzero"/><path fill="#bab195" d="M 402.273438 651.910156 C 398.855469 651.910156 396.089844 649.140625 396.089844 645.722656 C 396.089844 642.300781 398.855469 639.535156 402.273438 639.535156 C 405.683594 639.535156 408.453125 642.300781 408.453125 645.722656 C 408.453125 649.140625 405.683594 651.910156 402.273438 651.910156 " fill-opacity="1" fill-rule="nonzero"/><path fill="#bab195" d="M 387.875 650.628906 C 384.519531 650.628906 381.792969 647.90625 381.792969 644.542969 C 381.792969 641.175781 384.519531 638.453125 387.875 638.453125 C 391.238281 638.453125 393.964844 641.175781 393.964844 644.542969 C 393.964844 647.90625 391.238281 650.628906 387.875 650.628906 " fill-opacity="1" fill-rule="nonzero"/><path fill="#bab195" d="M 373.6875 647.65625 C 370.472656 647.65625 367.867188 645.050781 367.867188 641.835938 C 367.867188 638.617188 370.472656 636.011719 373.6875 636.011719 C 376.902344 636.011719 379.507812 638.617188 379.507812 641.835938 C 379.507812 645.050781 376.902344 647.65625 373.6875 647.65625 " fill-opacity="1" fill-rule="nonzero"/><path fill="#bab195" d="M 359.765625 643.355469 C 356.792969 643.355469 354.394531 640.945312 354.394531 637.972656 C 354.394531 635.007812 356.792969 632.597656 359.765625 632.597656 C 362.734375 632.597656 365.136719 635.007812 365.136719 637.972656 C 365.136719 640.945312 362.734375 643.355469 359.765625 643.355469 " fill-opacity="1" fill-rule="nonzero"/><path fill="#bab195" d="M 346.121094 637.980469 C 343.496094 637.980469 341.371094 635.847656 341.371094 633.230469 C 341.371094 630.605469 343.496094 628.472656 346.121094 628.472656 C 348.742188 628.472656 350.867188 630.605469 350.867188 633.230469 C 350.867188 635.847656 348.742188 637.980469 346.121094 637.980469 " fill-opacity="1" fill-rule="nonzero"/><path fill="#bab195" d="M 332.746094 631.644531 C 330.59375 631.644531 328.859375 629.90625 328.859375 627.753906 C 328.859375 625.609375 330.59375 623.867188 332.746094 623.867188 C 334.886719 623.867188 336.632812 625.609375 336.632812 627.753906 C 336.632812 629.90625 334.886719 631.644531 332.746094 631.644531 " fill-opacity="1" fill-rule="nonzero"/><path fill="#bab195" d="M 319.636719 624.472656 C 318.097656 624.472656 316.847656 623.222656 316.847656 621.683594 C 316.847656 620.148438 318.097656 618.898438 319.636719 618.898438 C 321.175781 618.898438 322.421875 620.148438 322.421875 621.683594 C 322.421875 623.222656 321.175781 624.472656 319.636719 624.472656 " fill-opacity="1" fill-rule="nonzero"/><path fill="#bab195" d="M 306.785156 616.464844 C 306.019531 616.464844 305.402344 615.847656 305.402344 615.082031 C 305.402344 614.3125 306.019531 613.695312 306.785156 613.695312 C 307.550781 613.695312 308.167969 614.3125 308.167969 615.082031 C 308.167969 615.847656 307.550781 616.464844 306.785156 616.464844 " fill-opacity="1" fill-rule="nonzero"/><path fill="#bab195" d="M 385.109375 554.789062 C 385.109375 544.910156 393.136719 536.875 403.011719 536.875 C 412.886719 536.875 420.925781 544.910156 420.925781 554.789062 C 420.925781 564.667969 412.886719 572.699219 403.011719 572.699219 C 393.136719 572.699219 385.109375 564.667969 385.109375 554.789062 Z M 426.078125 554.789062 C 426.078125 545.730469 420.828125 537.871094 413.21875 534.101562 C 418.773438 531.160156 422.851562 525.929688 423.804688 519.6875 L 418.707031 518.902344 C 417.628906 525.949219 410.738281 531.472656 403.011719 531.472656 C 395.289062 531.472656 388.390625 525.945312 387.320312 518.886719 L 382.21875 519.667969 C 383.167969 525.917969 387.246094 531.160156 392.8125 534.101562 C 385.195312 537.871094 379.949219 545.730469 379.949219 554.789062 C 379.949219 566.640625 388.925781 576.433594 400.4375 577.714844 L 400.4375 590.910156 L 389.578125 590.910156 L 389.578125 596.074219 L 400.4375 596.074219 L 400.4375 609.882812 L 405.597656 609.882812 L 405.597656 596.074219 L 416.449219 596.074219 L 416.449219 590.910156 L 405.597656 590.910156 L 405.597656 577.714844 C 417.105469 576.433594 426.078125 566.640625 426.078125 554.789062 " fill-opacity="1" fill-rule="nonzero"/><path fill="#bab195" d="M 325.042969 369.4375 C 323.265625 369.4375 321.398438 369.207031 319.472656 368.699219 L 320.796875 363.707031 C 328.460938 365.742188 334.269531 361.925781 335.945312 358.574219 L 340.566406 360.882812 C 338.253906 365.496094 332.386719 369.4375 325.042969 369.4375 " fill-opacity="1" fill-rule="nonzero"/><path fill="#bab195" d="M 427.894531 343.125 L 424.234375 339.496094 C 433.300781 330.34375 442.945312 325.917969 452.859375 326.351562 C 468.261719 327.019531 478.53125 339.144531 478.964844 339.660156 L 474.996094 342.964844 L 476.976562 341.308594 L 474.996094 342.964844 C 474.90625 342.855469 465.691406 332.046875 452.589844 331.503906 C 444.191406 331.164062 435.886719 335.066406 427.894531 343.125 " fill-opacity="1" fill-rule="nonzero"/><path fill="#bab195" d="M 450.234375 369.132812 C 450.113281 369.132812 449.992188 369.132812 449.867188 369.125 C 441.242188 369.019531 433.191406 365.042969 425.9375 357.3125 L 429.691406 353.777344 C 435.945312 360.433594 442.742188 363.859375 449.894531 363.96875 C 450.003906 363.96875 450.121094 363.96875 450.234375 363.96875 C 461.980469 363.96875 471.027344 355.019531 471.117188 354.933594 L 474.785156 358.5625 C 474.351562 358.996094 464.179688 369.132812 450.234375 369.132812 " fill-opacity="1" fill-rule="nonzero"/><path fill="#bab195" d="M 482.714844 369.4375 C 475.367188 369.4375 469.503906 365.496094 467.191406 360.882812 L 471.808594 358.574219 C 473.484375 361.925781 479.296875 365.742188 486.960938 363.707031 L 488.28125 368.699219 C 486.355469 369.207031 484.492188 369.4375 482.714844 369.4375 " fill-opacity="1" fill-rule="nonzero"/><g clip-path="url(#a0741c2a67)"><path fill="#bab195" d="M 410.242188 702.417969 L 415.703125 700.917969 L 410.398438 698.9375 L 413.621094 694.277344 L 408.28125 696.183594 L 407.761719 690.53125 L 404.890625 695.421875 L 400.855469 691.441406 L 401.804688 697.023438 L 396.148438 696.570312 L 400.460938 700.242188 L 395.851562 703.515625 L 401.515625 703.558594 L 400.082031 709.039062 L 404.445312 705.429688 L 406.871094 710.546875 L 407.890625 704.976562 L 413.042969 707.335938 Z M 432.492188 701.660156 L 418 705.632812 L 425.425781 718.710938 L 411.773438 712.441406 L 409.054688 727.226562 L 402.621094 713.632812 L 391.042969 723.214844 L 394.839844 708.667969 L 379.8125 708.566406 L 392.074219 699.867188 L 380.632812 690.117188 L 395.601562 691.34375 L 393.105469 676.519531 L 403.792969 687.082031 L 411.402344 674.117188 L 412.804688 689.085938 L 426.960938 684.050781 L 418.414062 696.421875 L 432.492188 701.660156 " fill-opacity="1" fill-rule="nonzero"/></g><path fill="#bab195" d="M 610.796875 618.804688 L 616.257812 617.3125 L 610.945312 615.324219 L 614.167969 610.671875 L 608.835938 612.570312 L 608.308594 606.925781 L 605.4375 611.816406 L 601.402344 607.832031 L 602.355469 613.417969 L 596.699219 612.964844 L 601.011719 616.628906 L 596.398438 619.910156 L 602.070312 619.953125 L 600.632812 625.433594 L 605 621.816406 L 607.417969 626.941406 L 608.445312 621.371094 L 613.589844 623.730469 Z M 633.042969 618.050781 L 618.554688 622.027344 L 625.976562 635.097656 L 612.324219 628.832031 L 609.609375 643.613281 L 603.167969 630.027344 L 591.589844 639.609375 L 595.386719 625.0625 L 580.367188 624.960938 L 592.621094 616.253906 L 581.179688 606.511719 L 596.15625 607.738281 L 593.652344 592.914062 L 604.347656 603.476562 L 611.949219 590.511719 L 613.355469 605.480469 L 627.515625 600.4375 L 618.96875 612.808594 L 633.042969 618.050781 " fill-opacity="1" fill-rule="nonzero"/><path fill="#bab195" d="M 687.167969 471.261719 L 692.621094 469.761719 L 687.316406 467.78125 L 690.539062 463.128906 L 685.207031 465.027344 L 684.679688 459.382812 L 681.808594 464.273438 L 677.773438 460.292969 L 678.726562 465.875 L 673.070312 465.421875 L 677.382812 469.085938 L 672.769531 472.367188 L 678.433594 472.410156 L 677.003906 477.890625 L 681.371094 474.277344 L 683.789062 479.398438 L 684.816406 473.820312 L 689.960938 476.1875 Z M 709.414062 470.507812 L 694.925781 474.484375 L 702.347656 487.554688 L 688.695312 481.285156 L 685.980469 496.070312 L 679.539062 482.484375 L 667.960938 492.066406 L 671.757812 477.519531 L 656.730469 477.417969 L 668.992188 468.710938 L 657.550781 458.96875 L 672.527344 460.195312 L 670.023438 445.371094 L 680.71875 455.933594 L 688.320312 442.96875 L 689.726562 457.9375 L 703.878906 452.894531 L 695.339844 465.265625 L 709.414062 470.507812 " fill-opacity="1" fill-rule="nonzero"/><path fill="#bab195" d="M 565.601562 530.050781 L 573.644531 524.1875 L 563.691406 524.1875 L 560.617188 514.722656 L 557.539062 524.1875 L 547.582031 524.1875 L 555.640625 530.050781 L 552.566406 539.515625 L 560.617188 533.664062 L 568.675781 539.515625 Z M 589.527344 519.023438 L 571.664062 532.023438 L 578.488281 553.03125 L 560.617188 540.042969 L 542.753906 553.03125 L 549.578125 532.023438 L 531.699219 519.023438 L 553.796875 519.023438 L 560.617188 498.015625 L 567.445312 519.023438 L 589.527344 519.023438 " fill-opacity="1" fill-rule="nonzero"/><path fill="#bab195" d="M 662.082031 248.019531 L 670.132812 242.15625 L 660.175781 242.15625 L 657.105469 232.691406 L 654.023438 242.15625 L 644.070312 242.15625 L 652.125 248.019531 L 649.054688 257.484375 L 657.105469 251.636719 L 665.160156 257.484375 Z M 686.015625 236.992188 L 668.152344 249.992188 L 674.972656 271 L 657.105469 258.011719 L 639.242188 271 L 646.0625 249.992188 L 628.1875 236.992188 L 650.28125 236.992188 L 657.105469 215.984375 L 663.933594 236.992188 L 686.015625 236.992188 " fill-opacity="1" fill-rule="nonzero"/><path fill="#bab195" d="M 613.515625 355.71875 L 621.804688 353.445312 L 613.742188 350.441406 L 618.636719 343.371094 L 610.53125 346.253906 L 609.738281 337.691406 L 605.386719 345.105469 L 599.273438 339.066406 L 600.699219 347.542969 L 592.132812 346.851562 L 598.679688 352.429688 L 591.671875 357.402344 L 600.265625 357.457031 L 598.085938 365.773438 L 604.714844 360.304688 L 608.394531 368.066406 L 609.941406 359.613281 L 617.753906 363.203125 Z M 638.589844 354.191406 L 621.273438 358.941406 L 630.140625 374.5625 L 613.820312 367.078125 L 610.574219 384.738281 L 602.890625 368.503906 L 589.046875 379.960938 L 593.589844 362.570312 L 575.632812 362.4375 L 590.289062 352.054688 L 576.617188 340.410156 L 594.507812 341.863281 L 591.515625 324.148438 L 604.292969 336.773438 L 613.382812 321.277344 L 615.054688 339.171875 L 631.976562 333.136719 L 621.761719 347.921875 L 638.589844 354.191406 " fill-opacity="1" fill-rule="nonzero"/><g clip-path="url(#4c17b42ebd)"><path fill="#bab195" d="M 406.464844 117.472656 L 414.753906 115.199219 L 406.695312 112.195312 L 411.585938 105.125 L 403.488281 108 L 402.6875 99.445312 L 398.332031 106.859375 L 392.230469 100.816406 L 393.652344 109.289062 L 385.089844 108.605469 L 391.625 114.175781 L 384.621094 119.15625 L 393.21875 119.203125 L 391.042969 127.523438 L 397.660156 122.054688 L 401.351562 129.816406 L 402.898438 121.359375 L 410.710938 124.957031 Z M 431.539062 115.941406 L 414.222656 120.6875 L 423.09375 136.308594 L 406.777344 128.824219 L 403.527344 146.492188 L 395.835938 130.25 L 382.003906 141.710938 L 386.539062 124.324219 L 368.585938 124.191406 L 383.238281 113.800781 L 369.566406 102.160156 L 387.460938 103.617188 L 384.464844 85.902344 L 397.242188 98.527344 L 406.335938 83.03125 L 408.003906 100.925781 L 424.925781 94.890625 L 414.710938 109.675781 L 431.539062 115.941406 " fill-opacity="1" fill-rule="nonzero"/></g><g clip-path="url(#b513c0be9e)"><path fill="#bab195" d="M 705.417969 390.675781 L 688.464844 387.675781 L 705.417969 384.671875 L 708.421875 367.707031 L 711.421875 384.671875 L 728.382812 387.675781 L 711.421875 390.675781 L 708.421875 407.644531 L 705.417969 390.675781 " fill-opacity="1" fill-rule="nonzero"/></g><path fill="#bab195" d="M 598.664062 184.835938 L 581.703125 181.828125 L 598.664062 178.832031 L 601.660156 161.863281 L 604.667969 178.832031 L 621.621094 181.828125 L 604.667969 184.835938 L 601.660156 201.796875 L 598.664062 184.835938 " fill-opacity="1" fill-rule="nonzero"/><path fill="#bab195" d="M 667.34375 554.441406 L 650.390625 551.441406 L 667.34375 548.4375 L 670.34375 531.472656 L 673.347656 548.4375 L 690.300781 551.441406 L 673.347656 554.441406 L 670.34375 571.410156 L 667.34375 554.441406 " fill-opacity="1" fill-rule="nonzero"/><path fill="#bab195" d="M 514.996094 677.734375 L 493.699219 673.96875 L 514.996094 670.195312 L 518.765625 648.890625 L 522.53125 670.195312 L 543.832031 673.96875 L 522.53125 677.734375 L 518.765625 699.039062 L 514.996094 677.734375 " fill-opacity="1" fill-rule="nonzero"/><path fill="#bab195" d="M 691.257812 309.308594 C 687.519531 309.308594 684.484375 312.347656 684.484375 316.085938 C 684.484375 319.824219 687.519531 322.867188 691.257812 322.867188 C 694.996094 322.867188 698.03125 319.824219 698.03125 316.085938 C 698.03125 312.347656 694.996094 309.308594 691.257812 309.308594 Z M 691.257812 326.996094 C 685.242188 326.996094 680.351562 322.105469 680.351562 316.085938 C 680.351562 310.074219 685.242188 305.183594 691.257812 305.183594 C 697.265625 305.183594 702.15625 310.074219 702.15625 316.085938 C 702.15625 322.105469 697.265625 326.996094 691.257812 326.996094 " fill-opacity="1" fill-rule="nonzero"/><path fill="#bab195" d="M 582.792969 438.308594 C 579.058594 438.308594 576.019531 441.347656 576.019531 445.085938 C 576.019531 448.816406 579.058594 451.863281 582.792969 451.863281 C 586.53125 451.863281 589.570312 448.816406 589.570312 445.085938 C 589.570312 441.347656 586.53125 438.308594 582.792969 438.308594 Z M 582.792969 455.988281 C 576.777344 455.988281 571.890625 451.097656 571.890625 445.085938 C 571.890625 439.066406 576.777344 434.175781 582.792969 434.175781 C 588.804688 434.175781 593.691406 439.066406 593.691406 445.085938 C 593.691406 451.097656 588.804688 455.988281 582.792969 455.988281 " fill-opacity="1" fill-rule="nonzero"/><path fill="#bab195" d="M 564.835938 248.574219 C 561.097656 248.574219 558.0625 251.613281 558.0625 255.351562 C 558.0625 259.09375 561.097656 262.132812 564.835938 262.132812 C 568.574219 262.132812 571.617188 259.09375 571.617188 255.351562 C 571.617188 251.613281 568.574219 248.574219 564.835938 248.574219 Z M 564.835938 266.265625 C 558.828125 266.265625 553.9375 261.363281 553.9375 255.351562 C 553.9375 249.34375 558.828125 244.441406 564.835938 244.441406 C 570.851562 244.441406 575.742188 249.34375 575.742188 255.351562 C 575.742188 261.363281 570.851562 266.265625 564.835938 266.265625 " fill-opacity="1" fill-rule="nonzero"/><path fill="#bab195" d="M 269.902344 154.328125 L 281.910156 145.605469 L 293.90625 154.328125 L 289.328125 140.21875 L 301.324219 131.484375 L 286.484375 131.484375 L 281.910156 117.371094 L 277.324219 131.484375 L 262.484375 131.484375 L 274.488281 140.21875 Z M 273.574219 126.320312 L 281.910156 100.667969 L 290.242188 126.320312 L 317.207031 126.320312 L 295.390625 142.191406 L 303.71875 167.839844 L 281.910156 151.980469 L 260.089844 167.839844 L 268.417969 142.191406 L 246.609375 126.320312 L 273.574219 126.320312 " fill-opacity="1" fill-rule="nonzero"/><path fill="#bab195" d="M 191.320312 623.730469 L 196.46875 621.371094 L 197.492188 626.941406 L 199.921875 621.816406 L 204.28125 625.433594 L 202.851562 619.953125 L 208.515625 619.910156 L 203.902344 616.628906 L 208.214844 612.964844 L 202.558594 613.417969 L 203.507812 607.832031 L 199.472656 611.816406 L 196.605469 606.925781 L 196.082031 612.570312 L 190.746094 610.671875 L 193.96875 615.324219 L 188.664062 617.3125 L 194.117188 618.804688 Z M 185.949219 612.808594 L 177.40625 600.4375 L 191.558594 605.480469 L 192.964844 590.511719 L 200.574219 603.476562 L 211.261719 592.914062 L 208.765625 607.738281 L 223.734375 606.511719 L 212.292969 616.253906 L 224.554688 624.960938 L 209.523438 625.0625 L 213.324219 639.609375 L 201.746094 630.027344 L 195.304688 643.613281 L 192.589844 628.832031 L 178.9375 635.097656 L 186.359375 622.027344 L 171.871094 618.050781 L 185.949219 612.808594 " fill-opacity="1" fill-rule="nonzero"/><path fill="#bab195" d="M 109.851562 476.1875 L 115 473.820312 L 116.023438 479.398438 L 118.449219 474.277344 L 122.8125 477.890625 L 121.378906 472.410156 L 127.042969 472.367188 L 122.429688 469.085938 L 126.746094 465.421875 L 121.089844 465.875 L 122.039062 460.292969 L 118.003906 464.273438 L 115.132812 459.382812 L 114.605469 465.027344 L 109.273438 463.128906 L 112.496094 467.78125 L 107.1875 469.761719 L 112.644531 471.261719 Z M 104.472656 465.265625 L 95.929688 452.894531 L 110.089844 457.9375 L 111.492188 442.96875 L 119.09375 455.933594 L 129.789062 445.371094 L 127.289062 460.195312 L 142.261719 458.96875 L 130.820312 468.710938 L 143.074219 477.417969 L 128.054688 477.519531 L 131.851562 492.066406 L 120.273438 482.484375 L 113.832031 496.070312 L 111.121094 481.285156 L 97.46875 487.554688 L 104.886719 474.484375 L 90.402344 470.507812 L 104.472656 465.265625 " fill-opacity="1" fill-rule="nonzero"/><path fill="#bab195" d="M 231.140625 539.515625 L 239.195312 533.664062 L 247.246094 539.515625 L 244.171875 530.050781 L 252.230469 524.1875 L 242.273438 524.1875 L 239.195312 514.722656 L 236.125 524.1875 L 226.167969 524.1875 L 234.210938 530.050781 Z M 232.367188 519.023438 L 239.195312 498.015625 L 246.019531 519.023438 L 268.113281 519.023438 L 250.238281 532.023438 L 257.058594 553.03125 L 239.195312 540.042969 L 221.324219 553.03125 L 228.148438 532.023438 L 210.285156 519.023438 L 232.367188 519.023438 " fill-opacity="1" fill-rule="nonzero"/><path fill="#bab195" d="M 144.859375 257.484375 L 152.917969 251.636719 L 160.964844 257.484375 L 157.886719 248.019531 L 165.949219 242.15625 L 155.988281 242.15625 L 152.917969 232.691406 L 149.84375 242.15625 L 139.882812 242.15625 L 147.929688 248.019531 Z M 146.085938 236.992188 L 152.917969 215.984375 L 159.738281 236.992188 L 181.828125 236.992188 L 163.957031 249.992188 L 170.78125 271 L 152.917969 258.011719 L 135.046875 271 L 141.863281 249.992188 L 124.003906 236.992188 L 146.085938 236.992188 " fill-opacity="1" fill-rule="nonzero"/><path fill="#bab195" d="M 182.058594 363.203125 L 189.871094 359.613281 L 191.417969 368.066406 L 195.101562 360.304688 L 201.726562 365.773438 L 199.546875 357.457031 L 208.140625 357.402344 L 201.136719 352.429688 L 207.679688 346.851562 L 199.113281 347.542969 L 200.539062 339.066406 L 194.429688 345.105469 L 190.074219 337.691406 L 189.28125 346.253906 L 181.175781 343.371094 L 186.074219 350.441406 L 178.007812 353.445312 L 186.296875 355.71875 Z M 178.050781 347.921875 L 167.835938 333.136719 L 184.757812 339.171875 L 186.433594 321.277344 L 195.519531 336.773438 L 208.296875 324.148438 L 205.304688 341.863281 L 223.195312 340.410156 L 209.523438 352.054688 L 224.179688 362.4375 L 206.222656 362.570312 L 210.765625 379.960938 L 196.925781 368.503906 L 189.238281 384.738281 L 185.984375 367.078125 L 169.675781 374.5625 L 178.539062 358.941406 L 161.222656 354.191406 L 178.050781 347.921875 " fill-opacity="1" fill-rule="nonzero"/><path fill="#bab195" d="M 104.59375 390.675781 L 121.558594 387.675781 L 104.59375 384.671875 L 101.597656 367.707031 L 98.59375 384.671875 L 81.636719 387.675781 L 98.59375 390.675781 L 101.597656 407.644531 L 104.59375 390.675781 " fill-opacity="1" fill-rule="nonzero"/><path fill="#bab195" d="M 201.148438 184.835938 L 218.109375 181.828125 L 201.148438 178.832031 L 198.152344 161.863281 L 195.148438 178.832031 L 178.191406 181.828125 L 195.148438 184.835938 L 198.152344 201.796875 L 201.148438 184.835938 " fill-opacity="1" fill-rule="nonzero"/><path fill="#bab195" d="M 142.675781 554.441406 L 159.628906 551.441406 L 142.675781 548.4375 L 139.671875 531.472656 L 136.671875 548.4375 L 119.710938 551.441406 L 136.671875 554.441406 L 139.671875 571.410156 L 142.675781 554.441406 " fill-opacity="1" fill-rule="nonzero"/><path fill="#bab195" d="M 284.816406 677.734375 L 306.113281 673.96875 L 284.816406 670.195312 L 281.046875 648.890625 L 277.28125 670.195312 L 255.980469 673.96875 L 277.28125 677.734375 L 281.046875 699.039062 L 284.816406 677.734375 " fill-opacity="1" fill-rule="nonzero"/><path fill="#bab195" d="M 101.78125 316.085938 C 101.78125 319.824219 104.820312 322.867188 108.554688 322.867188 C 112.292969 322.867188 115.332031 319.824219 115.332031 316.085938 C 115.332031 312.347656 112.292969 309.308594 108.554688 309.308594 C 104.820312 309.308594 101.78125 312.347656 101.78125 316.085938 Z M 97.65625 316.085938 C 97.65625 310.074219 102.546875 305.183594 108.554688 305.183594 C 114.570312 305.183594 119.460938 310.074219 119.460938 316.085938 C 119.460938 322.105469 114.570312 326.996094 108.554688 326.996094 C 102.546875 326.996094 97.65625 322.105469 97.65625 316.085938 " fill-opacity="1" fill-rule="nonzero"/><path fill="#bab195" d="M 210.242188 445.085938 C 210.242188 448.816406 213.28125 451.863281 217.019531 451.863281 C 220.753906 451.863281 223.792969 448.816406 223.792969 445.085938 C 223.792969 441.347656 220.753906 438.308594 217.019531 438.308594 C 213.28125 438.308594 210.242188 441.347656 210.242188 445.085938 Z M 206.121094 445.085938 C 206.121094 439.066406 211.011719 434.175781 217.019531 434.175781 C 223.035156 434.175781 227.925781 439.066406 227.925781 445.085938 C 227.925781 451.097656 223.035156 455.988281 217.019531 455.988281 C 211.011719 455.988281 206.121094 451.097656 206.121094 445.085938 " fill-opacity="1" fill-rule="nonzero"/><path fill="#bab195" d="M 228.195312 255.351562 C 228.195312 259.09375 231.242188 262.132812 234.976562 262.132812 C 238.707031 262.132812 241.746094 259.09375 241.746094 255.351562 C 241.746094 251.613281 238.707031 248.574219 234.976562 248.574219 C 231.242188 248.574219 228.195312 251.613281 228.195312 255.351562 Z M 224.070312 255.351562 C 224.070312 249.34375 228.960938 244.441406 234.976562 244.441406 C 240.984375 244.441406 245.875 249.34375 245.875 255.351562 C 245.875 261.363281 240.984375 266.265625 234.976562 266.265625 C 228.960938 266.265625 224.070312 261.363281 224.070312 255.351562 " fill-opacity="1" fill-rule="nonzero"/></svg>