<svg xmlns="http://www.w3.org/2000/svg" xmlns:xlink="http://www.w3.org/1999/xlink" width="1080" zoomAndPan="magnify" viewBox="0 0 810 809.999993" height="1080" preserveAspectRatio="xMidYMid meet" version="1.0"><defs><clipPath id="08ec69dfb7"><path d="M 81 202.21875 L 726 202.21875 L 726 622 L 81 622 Z M 81 202.21875 " clip-rule="nonzero"/></clipPath><clipPath id="a4fe7f3f4d"><path d="M 367 662 L 440 662 L 440 731.582031 L 367 731.582031 Z M 367 662 " clip-rule="nonzero"/></clipPath></defs><rect x="-81" width="972" fill="#ffffff" y="-80.999999" height="971.999992" fill-opacity="1"/><rect x="-81" width="972" fill="#ffffff" y="-80.999999" height="971.999992" fill-opacity="1"/><rect x="-81" width="972" fill="#11091a" y="-80.999999" height="971.999992" fill-opacity="1"/><path fill="#bab195" d="M 511.371094 411.488281 C 519.863281 405.695312 522.484375 395.214844 519.015625 381.136719 C 515.761719 382.113281 512.359375 382.808594 509.007812 383.5 C 502.078125 384.902344 494.925781 386.363281 489.28125 390.152344 C 481.515625 395.359375 475.960938 401.980469 472.496094 408.625 C 484.480469 416.992188 501.410156 418.277344 511.371094 411.488281 Z M 534.121094 371.558594 C 531.433594 375.203125 527.9375 377.609375 524.050781 379.324219 C 529.714844 401.496094 520.433594 411.742188 514.367188 415.878906 C 509.121094 419.457031 502.449219 421.203125 495.4375 421.203125 C 486.90625 421.203125 477.875 418.613281 470.285156 413.582031 C 468.417969 418.660156 467.769531 423.558594 468.34375 427.621094 L 463.082031 428.359375 C 460.820312 412.144531 473.058594 394.640625 486.316406 385.742188 C 492.828125 381.359375 500.515625 379.796875 507.941406 378.292969 C 516.792969 376.480469 525.164062 374.777344 529.828125 368.414062 L 534.121094 371.558594 " fill-opacity="1" fill-rule="nonzero"/><g clip-path="url(#08ec69dfb7)"><path fill="#bab195" d="M 662.554688 381.246094 C 646.328125 374.394531 628.929688 382.742188 610.53125 391.558594 C 596.253906 398.402344 581.601562 405.421875 566.84375 405.421875 C 563.011719 405.421875 559.171875 404.949219 555.339844 403.875 C 554.128906 413.410156 552.222656 422.9375 550.214844 431.917969 C 554.285156 430.46875 559.492188 430.257812 564.601562 430.058594 C 567.320312 429.949219 569.890625 429.855469 572.070312 429.566406 C 593.109375 426.773438 611.289062 421.285156 627.671875 412.796875 C 639.941406 406.4375 659.058594 392.808594 662.554688 381.246094 Z M 675.535156 478.265625 C 696.882812 465.253906 707.929688 437.320312 713.457031 416.191406 C 710.242188 420.304688 706.230469 424.09375 701.023438 428.535156 C 699.414062 429.917969 697.820312 431.25 696.242188 432.554688 C 688.011719 439.410156 680.859375 445.398438 673.835938 455.683594 C 671.796875 460.257812 669.40625 464.507812 666.613281 468.292969 C 660.554688 476.496094 653.128906 482.027344 644.425781 484.835938 C 655.839844 486.121094 666.265625 483.917969 675.535156 478.265625 Z M 719.90625 311.132812 C 726.949219 336.789062 727.886719 366.097656 722.679688 398.25 C 719.566406 417.441406 709.023438 464.0625 678.308594 482.804688 C 669.886719 487.9375 660.640625 490.523438 650.695312 490.523438 C 643.851562 490.523438 636.664062 489.296875 629.160156 486.851562 L 613.167969 481.636719 L 629.988281 481.664062 C 630.023438 481.664062 630.050781 481.664062 630.085938 481.664062 C 643.398438 481.664062 654.246094 476.105469 662.34375 465.136719 C 664.804688 461.792969 666.878906 458.144531 668.640625 454.324219 L 668.4375 454.1875 C 668.722656 453.734375 669.011719 453.324219 669.3125 452.902344 C 675.003906 439.875 677.140625 425.085938 677.863281 413.683594 C 679.011719 395.699219 677.105469 376.070312 672.890625 362.449219 C 662.828125 329.921875 637.796875 304.890625 609.132812 298.660156 C 595.332031 295.664062 583.355469 297.011719 571.453125 302.890625 C 566.550781 305.316406 560.488281 309.886719 554.074219 314.742188 C 545.445312 321.261719 536.605469 327.933594 528.375 331.273438 C 542.078125 337.371094 549.75 347.773438 553.554688 360.324219 C 556.992188 360.398438 560.523438 359.457031 564.519531 358.382812 C 568.222656 357.378906 572.050781 356.351562 576.394531 355.976562 L 579.285156 355.710938 C 589.496094 354.808594 600.046875 353.863281 610.757812 354.519531 C 611.339844 354.554688 669.605469 358.691406 668.410156 378.65625 C 667.25 398.039062 630.488281 417.320312 630.117188 417.511719 C 613.175781 426.292969 594.429688 431.960938 572.773438 434.832031 C 570.347656 435.160156 567.664062 435.269531 564.8125 435.371094 C 558.523438 435.617188 550.691406 435.925781 548.753906 439.191406 L 548.582031 439.082031 C 548.027344 441.417969 547.488281 443.710938 546.957031 445.921875 C 546.019531 449.882812 545.125 453.625 544.351562 457.113281 C 540.007812 476.488281 530.902344 491.15625 521.253906 506.699219 C 512.460938 520.867188 503.371094 535.515625 496.394531 555.597656 C 492.789062 565.957031 475.269531 593.988281 450.363281 599.6875 C 435.476562 616.339844 426.628906 621.59375 403.65625 621.59375 C 403.605469 621.59375 403.550781 621.59375 403.492188 621.59375 C 396.871094 621.59375 374.195312 619.949219 355.382812 599.703125 C 330.453125 594.035156 312.910156 565.972656 309.296875 555.597656 C 302.328125 535.515625 293.234375 520.867188 284.433594 506.699219 C 274.800781 491.15625 265.679688 476.488281 261.351562 457.113281 C 260.570312 453.625 259.675781 449.882812 258.734375 445.921875 C 258.195312 443.65625 257.640625 441.316406 257.085938 438.933594 L 256.648438 439.191406 C 254.710938 435.925781 246.875 435.617188 240.589844 435.371094 C 237.738281 435.269531 235.054688 435.160156 232.628906 434.832031 C 210.972656 431.960938 192.21875 426.292969 175.285156 417.511719 C 174.914062 417.320312 138.152344 398.039062 136.984375 378.65625 C 135.796875 358.691406 194.058594 354.554688 194.644531 354.519531 C 205.359375 353.863281 215.90625 354.808594 226.113281 355.710938 L 229.007812 355.976562 C 233.339844 356.351562 237.171875 357.378906 240.882812 358.382812 C 244.996094 359.484375 248.609375 360.453125 252.148438 360.316406 C 256.015625 347.570312 263.863281 337.058594 277.976562 330.996094 C 269.925781 327.585938 261.316406 321.089844 252.917969 314.742188 C 246.503906 309.886719 240.445312 305.316406 235.527344 302.890625 C 223.625 297.011719 211.65625 295.671875 197.863281 298.660156 C 169.183594 304.890625 144.152344 329.921875 134.097656 362.449219 C 129.886719 376.070312 127.976562 395.699219 129.121094 413.683594 C 130.097656 428.890625 133.570312 450.132812 144.644531 465.136719 C 152.738281 476.105469 163.59375 481.664062 176.910156 481.664062 C 176.945312 481.664062 176.964844 481.664062 177 481.664062 L 193.820312 481.636719 L 177.824219 486.851562 C 170.339844 489.296875 163.144531 490.523438 156.285156 490.523438 C 146.34375 490.523438 137.109375 487.945312 128.683594 482.804688 C 97.96875 464.0625 87.414062 417.441406 84.3125 398.25 C 79.109375 366.097656 80.035156 336.789062 87.085938 311.132812 C 88.535156 305.855469 90.242188 300.742188 92.210938 295.78125 C 92.210938 295.746094 92.210938 295.726562 92.210938 295.699219 L 92.246094 295.699219 C 98.644531 279.472656 107.765625 264.902344 119.476562 252.242188 C 135.933594 234.445312 157.617188 220.460938 182.191406 211.773438 C 202.1875 204.710938 223.40625 201.472656 240.398438 202.894531 C 280.464844 206.222656 346.773438 232.449219 363.929688 271.339844 C 375.898438 264.902344 388.632812 260.726562 402.289062 261.136719 L 403.414062 261.136719 C 404.488281 261.066406 405.582031 261.03125 406.667969 261.03125 C 419.15625 261.03125 431.125 265.441406 442.738281 272.125 C 459.339844 232.796875 526.257812 206.242188 566.589844 202.894531 C 583.585938 201.480469 604.808594 204.710938 624.804688 211.773438 C 649.371094 220.460938 671.066406 234.445312 687.511719 252.242188 C 699.222656 264.902344 708.335938 279.472656 714.75 295.699219 L 714.777344 295.699219 C 714.785156 295.726562 714.785156 295.746094 714.785156 295.78125 C 716.746094 300.742188 718.460938 305.855469 719.90625 311.132812 Z M 129.027344 360.875 C 132.839844 348.53125 138.726562 337.226562 146.113281 327.480469 C 137.445312 311.289062 135.304688 285.871094 141.332031 268.84375 C 144.507812 259.871094 149.5625 252.261719 154.460938 244.910156 C 158.976562 238.136719 163.28125 231.664062 166.15625 224.292969 C 149.71875 232.40625 135.148438 243.117188 123.371094 255.851562 C 112.324219 267.800781 103.652344 281.539062 97.5 296.8125 C 97.457031 298.789062 97.339844 300.632812 97.230469 302.425781 C 96.847656 308.441406 96.554688 313.203125 99.269531 318.761719 C 101.488281 323.332031 104.710938 327.03125 108.136719 330.953125 C 110.636719 333.804688 113.203125 336.757812 115.40625 340.105469 C 120.207031 347.453125 124.113281 356.398438 126.125 364.671875 C 126.5 366.203125 126.71875 367.710938 126.855469 369.1875 C 127.503906 366.222656 128.226562 363.441406 129.027344 360.875 Z M 330.515625 578.328125 C 336.804688 584.964844 346.351562 592.664062 357.976562 594.808594 L 358.046875 594.746094 C 358.082031 594.773438 358.109375 594.808594 358.140625 594.84375 C 360.117188 595.207031 362.144531 595.417969 364.25 595.417969 C 374.867188 595.417969 385.5625 590.441406 396.125 580.648438 C 390.296875 579.957031 385.339844 578.355469 381.984375 576.027344 C 380.480469 574.988281 377.945312 573.550781 375.253906 572.027344 C 365.628906 566.574219 358.121094 562.035156 356.351562 557.324219 C 355.3125 554.511719 355.058594 551.789062 355.578125 549.273438 C 341.820312 514.449219 351.40625 479.886719 355.503906 465.09375 C 355.886719 463.703125 356.242188 462.464844 356.515625 461.390625 C 364.195312 431.925781 358.761719 399.472656 342.667969 378.722656 C 329.960938 362.351562 311.324219 353.699219 288.757812 353.699219 C 288.621094 353.699219 288.484375 353.699219 288.347656 353.699219 L 288.320312 348.390625 C 312.757812 348.292969 333.035156 357.636719 346.855469 375.460938 C 363.941406 397.476562 369.742188 431.726562 361.660156 462.730469 C 361.371094 463.832031 361.019531 465.09375 360.628906 466.515625 C 356.515625 481.320312 348.195312 511.355469 358.914062 542.925781 C 363.621094 537.824219 371.933594 535.460938 378.191406 535.460938 C 378.753906 535.460938 379.292969 535.480469 379.804688 535.523438 C 388.144531 536.152344 400.722656 542.5 402.882812 543.613281 C 402.902344 543.613281 402.9375 543.613281 402.964844 543.613281 C 404.570312 543.613281 408.09375 541.96875 411.222656 540.511719 C 415.875 538.34375 421.15625 535.886719 425.890625 535.523438 C 426.402344 535.480469 426.949219 535.460938 427.496094 535.460938 C 433.769531 535.460938 442.074219 537.824219 446.78125 542.925781 C 457.496094 511.355469 449.175781 481.316406 445.074219 466.515625 C 444.679688 465.09375 444.332031 463.832031 444.042969 462.730469 C 435.953125 431.726562 441.753906 397.476562 458.835938 375.460938 C 472.578125 357.738281 492.664062 348.390625 516.9375 348.390625 C 517.082031 348.390625 517.222656 348.390625 517.375 348.390625 L 517.339844 353.699219 C 517.21875 353.699219 517.082031 353.699219 516.9375 353.699219 C 494.371094 353.699219 475.734375 362.347656 463.027344 378.722656 C 446.933594 399.472656 441.488281 431.925781 449.175781 461.390625 C 449.460938 462.464844 449.800781 463.703125 450.191406 465.09375 C 454.296875 479.886719 463.882812 514.449219 450.117188 549.261719 C 450.628906 551.789062 450.382812 554.511719 449.332031 557.324219 C 447.570312 562.035156 440.066406 566.574219 430.433594 572.027344 C 427.742188 573.550781 425.203125 574.988281 423.71875 576.027344 C 420.359375 578.355469 415.382812 579.957031 409.578125 580.648438 C 420.132812 590.453125 430.835938 595.417969 441.441406 595.417969 C 443.542969 595.417969 445.582031 595.207031 447.5625 594.84375 C 447.589844 594.808594 447.609375 594.773438 447.644531 594.746094 L 447.71875 594.808594 C 459.351562 592.664062 468.882812 584.964844 475.175781 578.328125 C 484.078125 568.945312 489.742188 558.550781 491.375 553.839844 C 498.546875 533.21875 507.789062 518.304688 516.746094 503.890625 C 526.140625 488.757812 535.019531 474.445312 539.167969 455.945312 C 539.953125 452.421875 540.847656 448.671875 541.792969 444.695312 C 546.410156 425.253906 552.167969 401.046875 551.289062 379.980469 C 550.289062 355.957031 540.847656 341.117188 522.429688 334.625 C 507.925781 329.511719 493.09375 317.285156 477.402344 304.34375 C 454.726562 285.660156 431.300781 266.34375 406.667969 266.34375 C 405.664062 266.34375 404.660156 266.378906 403.667969 266.4375 L 403.496094 266.453125 L 402.199219 266.453125 C 401.53125 266.433594 400.933594 266.417969 400.355469 266.417969 C 372.796875 266.417969 349.398438 286.074219 326.761719 305.082031 C 312.996094 316.65625 299.929688 327.617188 286.730469 333.265625 L 286.722656 333.367188 C 286.65625 333.367188 286.59375 333.347656 286.53125 333.347656 C 285.445312 333.804688 284.351562 334.242188 283.257812 334.625 C 264.839844 341.117188 255.40625 355.957031 254.402344 379.980469 C 253.515625 401.046875 259.273438 425.253906 263.910156 444.695312 C 264.855469 448.671875 265.75 452.421875 266.535156 455.945312 C 270.675781 474.445312 279.550781 488.757812 288.949219 503.890625 C 297.898438 518.304688 307.148438 533.21875 314.324219 553.839844 C 315.960938 558.550781 321.613281 568.945312 330.515625 578.328125 Z M 441.441406 600.726562 C 428.371094 600.726562 415.398438 594.277344 402.847656 581.542969 C 396.582031 587.898438 390.195312 592.703125 383.746094 595.902344 C 377.3125 599.101562 370.78125 600.722656 364.25 600.726562 C 364.175781 600.726562 364.097656 600.722656 364.023438 600.722656 C 380.25 615.019531 397.96875 616.285156 403.496094 616.285156 C 403.550781 616.285156 403.605469 616.285156 403.65625 616.285156 C 422.539062 616.285156 430.726562 612.605469 442.191406 600.699219 C 441.9375 600.707031 441.691406 600.726562 441.441406 600.726562 Z M 480.785156 300.246094 C 494.625 311.660156 507.789062 322.492188 520.246094 328.007812 C 529.023438 327.011719 540.609375 318.253906 550.863281 310.503906 C 551.648438 309.910156 552.429688 309.320312 553.199219 308.738281 C 552.296875 288.042969 535.566406 280.347656 517.875 272.226562 C 501.414062 264.675781 484.445312 256.875 482.164062 237.835938 C 464.714844 249.050781 452.578125 261.878906 447.328125 274.902344 C 458.757812 282.089844 469.855469 291.242188 480.785156 300.246094 Z M 520.085938 267.402344 C 536.757812 275.050781 555.476562 283.648438 558.207031 305.027344 C 562.109375 302.210938 565.769531 299.765625 569.113281 298.117188 C 580.945312 292.273438 593.300781 290.539062 606.753906 292.800781 C 608.613281 285.234375 605.46875 277.09375 602.257812 271.320312 C 597.921875 263.484375 590.992188 255.675781 584.183594 250.929688 L 583.164062 250.234375 C 570.640625 241.519531 550.332031 227.390625 547.316406 211.300781 C 531.019531 214.910156 513.378906 221.117188 497.964844 228.875 C 494.214844 230.761719 490.640625 232.703125 487.238281 234.710938 C 488.003906 252.667969 503.609375 259.828125 520.085938 267.402344 Z M 323.355469 301.011719 C 334.523438 291.625 346.4375 281.632812 359.277344 273.992188 C 353.835938 261.285156 341.863281 248.785156 324.816406 237.835938 C 322.535156 256.875 305.578125 264.675781 289.121094 272.226562 C 271.421875 280.347656 254.695312 288.042969 253.792969 308.738281 C 254.558594 309.320312 255.332031 309.910156 256.125 310.503906 C 266.003906 317.96875 277.117188 326.359375 285.757812 327.871094 C 297.878906 322.394531 310.300781 311.992188 323.355469 301.011719 Z M 385.023438 571.664062 C 388.625 574.175781 395.457031 575.734375 402.847656 575.734375 C 410.246094 575.734375 417.078125 574.175781 420.679688 571.664062 C 422.378906 570.476562 424.894531 569.054688 427.816406 567.40625 C 433.542969 564.160156 443.140625 558.742188 444.363281 555.46875 C 445.5 552.40625 445.292969 549.820312 443.722656 547.558594 C 440.675781 543.15625 433.085938 540.777344 427.496094 540.777344 C 427.085938 540.777344 426.683594 540.800781 426.289062 540.820312 C 422.515625 541.105469 417.714844 543.347656 413.464844 545.332031 C 411.394531 546.292969 409.460938 547.195312 407.707031 547.859375 C 405.941406 548.515625 404.359375 548.933594 402.964844 548.933594 C 402.289062 548.933594 401.652344 548.824219 401.078125 548.632812 L 400.703125 548.476562 C 400.566406 548.398438 387.25 541.414062 379.402344 540.820312 C 379.019531 540.800781 378.617188 540.777344 378.191406 540.777344 C 372.609375 540.777344 365.027344 543.15625 361.972656 547.558594 C 360.402344 549.820312 360.191406 552.40625 361.339844 555.46875 C 362.5625 558.742188 372.148438 564.160156 377.871094 567.40625 C 380.789062 569.054688 383.324219 570.476562 385.023438 571.664062 Z M 114.152344 428.472656 C 118.921875 432.445312 123.554688 436.3125 128.058594 441.003906 C 123.921875 425.351562 122.832031 407.765625 123.820312 391.886719 C 121.609375 386.78125 121.675781 381.683594 121.738281 376.734375 C 121.777344 373.007812 121.820312 369.488281 120.957031 365.929688 C 119.121094 358.335938 115.382812 349.769531 110.949219 343.015625 C 108.960938 339.984375 106.617188 337.289062 104.140625 334.453125 C 100.632812 330.441406 97.019531 326.300781 94.484375 321.089844 C 93.148438 318.351562 92.410156 315.746094 92.039062 313.210938 C 85.503906 337.40625 84.574219 365.011719 89.246094 395.3125 L 89.308594 395.285156 C 93.167969 408.796875 97.929688 414.6875 109.414062 424.488281 C 111.019531 425.855469 112.589844 427.175781 114.152344 428.472656 Z M 156.066406 398.148438 C 163.511719 404.539062 172.386719 410.035156 177.730469 412.796875 C 194.105469 421.285156 212.292969 426.773438 233.328125 429.566406 C 235.503906 429.855469 238.082031 429.949219 240.800781 430.058594 C 246.035156 430.273438 251.390625 430.46875 255.496094 432.023438 C 253.472656 422.984375 251.558594 413.390625 250.335938 403.785156 C 246.410156 404.914062 242.480469 405.421875 238.558594 405.421875 C 223.789062 405.421875 209.148438 398.402344 194.863281 391.558594 C 176.480469 382.742188 159.074219 374.394531 142.847656 381.246094 C 144.355469 386.1875 148.851562 391.960938 156.066406 398.148438 Z M 131.445312 478.265625 C 140.722656 483.917969 151.148438 486.105469 162.570312 484.835938 C 153.851562 482.027344 146.425781 476.496094 140.375 468.292969 C 137.582031 464.523438 135.195312 460.257812 133.160156 455.683594 C 126.125 445.398438 118.976562 439.410156 110.753906 432.554688 C 109.179688 431.25 107.582031 429.917969 105.957031 428.535156 C 100.75 424.09375 96.761719 420.304688 93.535156 416.191406 C 99.054688 437.320312 110.101562 465.253906 131.445312 478.265625 Z M 146.332031 270.621094 C 140.996094 285.707031 142.574219 307.921875 149.742188 322.9375 C 162.066406 308.433594 177.886719 298.023438 195.035156 293.882812 C 191.105469 276.957031 206.144531 256.058594 219.773438 246.578125 L 220.789062 245.859375 C 231.898438 238.140625 251.902344 224.234375 254.46875 210.230469 C 249.429688 209.273438 244.539062 208.574219 239.960938 208.191406 C 223.679688 206.839844 203.273438 209.960938 183.953125 216.789062 C 180.175781 218.128906 176.453125 219.605469 172.824219 221.199219 C 169.867188 231.355469 164.300781 239.742188 158.886719 247.863281 C 154.175781 254.941406 149.289062 262.261719 146.332031 270.621094 Z M 197.160156 386.761719 C 214.609375 395.125 232.664062 403.765625 249.734375 398.433594 C 248.609375 387.011719 248.628906 375.757812 250.773438 365.628906 C 247.003906 365.511719 243.339844 364.546875 239.503906 363.515625 C 236.019531 362.578125 232.417969 361.609375 228.539062 361.273438 L 225.648438 361.007812 C 215.625 360.113281 205.28125 359.195312 194.972656 359.824219 C 177.59375 360.890625 148.121094 366.871094 143.039062 375.484375 C 160.78125 369.339844 179.261719 378.183594 197.160156 386.761719 Z M 237.890625 298.117188 C 241.210938 299.765625 244.890625 302.210938 248.78125 305.027344 C 251.503906 283.648438 270.230469 275.050781 286.902344 267.402344 C 303.390625 259.828125 318.976562 252.667969 319.742188 234.710938 C 316.34375 232.703125 312.773438 230.761719 309.035156 228.875 C 293.601562 221.117188 275.96875 214.910156 259.667969 211.300781 C 256.664062 227.390625 236.359375 241.519531 223.816406 250.234375 L 222.8125 250.929688 C 216 255.675781 209.074219 263.484375 204.730469 271.320312 C 201.53125 277.09375 198.382812 285.234375 200.234375 292.800781 C 213.691406 290.53125 226.042969 292.273438 237.890625 298.117188 Z M 552.523438 210.230469 C 555.078125 224.234375 575.101562 238.140625 586.191406 245.859375 L 587.222656 246.578125 C 600.84375 256.058594 615.886719 276.957031 611.960938 293.882812 C 629.09375 298.023438 644.914062 308.433594 657.242188 322.9375 C 664.425781 307.921875 666 285.707031 660.648438 270.621094 C 657.699219 262.261719 652.820312 254.941406 648.105469 247.863281 C 642.695312 239.742188 637.121094 231.355469 634.164062 221.199219 C 630.527344 219.605469 626.824219 218.128906 623.027344 216.789062 C 603.722656 209.960938 583.3125 206.832031 567.035156 208.191406 C 562.445312 208.574219 557.566406 209.273438 552.523438 210.230469 Z M 652.519531 244.910156 C 657.425781 252.261719 662.488281 259.871094 665.664062 268.84375 C 671.6875 285.871094 669.558594 311.289062 660.875 327.480469 C 668.261719 337.226562 674.15625 348.53125 677.96875 360.875 C 678.765625 363.441406 679.492188 366.222656 680.125 369.1875 C 680.261719 367.710938 680.496094 366.203125 680.871094 364.671875 C 682.867188 356.398438 686.78125 347.441406 691.589844 340.105469 C 693.78125 336.757812 696.359375 333.804688 698.84375 330.953125 C 702.269531 327.03125 705.511719 323.332031 707.734375 318.761719 C 710.4375 313.203125 710.144531 308.441406 709.761719 302.425781 C 709.640625 300.628906 709.535156 298.789062 709.480469 296.8125 C 703.332031 281.539062 694.671875 267.800781 683.609375 255.851562 C 671.839844 243.117188 657.261719 232.40625 640.824219 224.292969 C 643.707031 231.664062 648.015625 238.136719 652.519531 244.910156 Z M 608.238281 386.761719 C 626.140625 378.183594 644.621094 369.339844 662.363281 375.484375 C 657.28125 366.871094 627.808594 360.890625 610.429688 359.824219 C 600.121094 359.195312 589.769531 360.113281 579.753906 361.007812 L 576.867188 361.273438 C 572.984375 361.609375 569.382812 362.578125 565.902344 363.515625 C 562.15625 364.511719 558.589844 365.46875 554.914062 365.628906 C 557.074219 375.785156 557.082031 387.066406 555.953125 398.515625 C 572.949219 403.675781 590.890625 395.085938 608.238281 386.761719 Z M 685.257812 376.734375 C 685.320312 381.683594 685.375 386.78125 683.167969 391.886719 C 684.148438 407.757812 683.070312 425.335938 678.9375 440.996094 C 683.441406 436.308594 688.066406 432.445312 692.847656 428.472656 C 694.398438 427.175781 695.984375 425.855469 697.582031 424.488281 C 709.058594 414.6875 713.820312 408.796875 717.6875 395.285156 L 717.75 395.3125 C 722.414062 365.011719 721.480469 337.40625 714.953125 313.210938 C 714.570312 315.746094 713.839844 318.351562 712.5 321.089844 C 709.972656 326.300781 706.347656 330.441406 702.855469 334.453125 C 700.367188 337.289062 698.03125 339.984375 696.03125 343.015625 C 691.609375 349.769531 687.875 358.335938 686.035156 365.929688 C 685.160156 369.488281 685.214844 373.007812 685.257812 376.734375 " fill-opacity="1" fill-rule="nonzero"/></g><path fill="#bab195" d="M 319.371094 385.742188 C 332.632812 394.640625 344.882812 412.144531 342.621094 428.359375 L 337.359375 427.621094 C 337.960938 423.285156 337.175781 418.011719 334.996094 412.570312 C 327.199219 417.929688 317.847656 420.710938 309.125 420.710938 C 302.359375 420.710938 295.972656 419.042969 290.972656 415.632812 C 285.027344 411.59375 275.976562 401.503906 281.652344 379.324219 C 277.753906 377.609375 274.253906 375.203125 271.578125 371.558594 L 275.859375 368.414062 C 280.535156 374.777344 288.894531 376.480469 297.757812 378.292969 C 305.1875 379.796875 312.867188 381.359375 319.371094 385.742188 Z M 293.957031 411.242188 C 303.890625 418.011719 320.5 416.480469 332.695312 407.703125 C 329.195312 401.367188 323.8125 395.113281 316.414062 390.152344 C 310.777344 386.363281 303.609375 384.902344 296.699219 383.5 C 293.335938 382.808594 289.941406 382.113281 286.675781 381.136719 C 283.203125 395.214844 285.699219 405.605469 293.957031 411.242188 " fill-opacity="1" fill-rule="nonzero"/><path fill="#bab195" d="M 413.9375 450.996094 C 413.9375 456.765625 409.261719 461.4375 403.496094 461.4375 C 397.730469 461.4375 393.058594 456.765625 393.058594 450.996094 C 393.058594 445.226562 397.730469 440.550781 403.496094 440.550781 C 409.261719 440.550781 413.9375 445.226562 413.9375 450.996094 " fill-opacity="1" fill-rule="nonzero"/><path fill="#bab195" d="M 411.761719 485.550781 C 411.761719 489.960938 408.191406 493.535156 403.785156 493.535156 C 399.378906 493.535156 395.8125 489.960938 395.8125 485.550781 C 395.8125 481.144531 399.378906 477.570312 403.785156 477.570312 C 408.191406 477.570312 411.761719 481.144531 411.761719 485.550781 " fill-opacity="1" fill-rule="nonzero"/><path fill="#bab195" d="M 408.585938 513.316406 C 408.585938 515.96875 406.441406 518.113281 403.792969 518.113281 C 401.148438 518.113281 399.003906 515.96875 399.003906 513.316406 C 399.003906 510.671875 401.148438 508.523438 403.792969 508.523438 C 406.441406 508.523438 408.585938 510.671875 408.585938 513.316406 " fill-opacity="1" fill-rule="nonzero"/><path fill="#bab195" d="M 339.875 568.242188 C 338.628906 568.242188 337.625 567.230469 337.625 565.984375 C 337.625 564.742188 338.628906 563.730469 339.875 563.730469 C 341.117188 563.730469 342.128906 564.742188 342.128906 565.984375 C 342.128906 567.230469 341.117188 568.242188 339.875 568.242188 " fill-opacity="1" fill-rule="nonzero"/><path fill="#bab195" d="M 333.535156 556.042969 C 331.410156 556.042969 329.679688 554.3125 329.679688 552.1875 C 329.679688 550.058594 331.410156 548.332031 333.535156 548.332031 C 335.660156 548.332031 337.386719 550.058594 337.386719 552.1875 C 337.386719 554.3125 335.660156 556.042969 333.535156 556.042969 " fill-opacity="1" fill-rule="nonzero"/><path fill="#bab195" d="M 329.214844 542.617188 C 326.457031 542.617188 324.214844 540.382812 324.214844 537.621094 C 324.214844 534.859375 326.457031 532.625 329.214844 532.625 C 331.976562 532.625 334.210938 534.859375 334.210938 537.621094 C 334.210938 540.382812 331.976562 542.617188 329.214844 542.617188 " fill-opacity="1" fill-rule="nonzero"/><path fill="#bab195" d="M 326.277344 528.488281 C 323.089844 528.488281 320.5 525.898438 320.5 522.707031 C 320.5 519.515625 323.089844 516.925781 326.277344 516.925781 C 329.46875 516.925781 332.058594 519.515625 332.058594 522.707031 C 332.058594 525.898438 329.46875 528.488281 326.277344 528.488281 " fill-opacity="1" fill-rule="nonzero"/><path fill="#bab195" d="M 324.042969 513.882812 C 320.613281 513.882812 317.828125 511.101562 317.828125 507.671875 C 317.828125 504.238281 320.613281 501.457031 324.042969 501.457031 C 327.472656 501.457031 330.253906 504.238281 330.253906 507.671875 C 330.253906 511.101562 327.472656 513.882812 324.042969 513.882812 " fill-opacity="1" fill-rule="nonzero"/><path fill="#bab195" d="M 321.851562 499.003906 C 318.332031 499.003906 315.476562 496.152344 315.476562 492.625 C 315.476562 489.105469 318.332031 486.25 321.851562 486.25 C 325.371094 486.25 328.226562 489.105469 328.226562 492.625 C 328.226562 496.152344 325.371094 499.003906 321.851562 499.003906 " fill-opacity="1" fill-rule="nonzero"/><path fill="#bab195" d="M 319.007812 483.917969 C 315.574219 483.917969 312.785156 481.136719 312.785156 477.699219 C 312.785156 474.261719 315.574219 471.472656 319.007812 471.472656 C 322.445312 471.472656 325.226562 474.261719 325.226562 477.699219 C 325.226562 481.136719 322.445312 483.917969 319.007812 483.917969 " fill-opacity="1" fill-rule="nonzero"/><path fill="#bab195" d="M 314.734375 468.917969 C 311.535156 468.917969 308.941406 466.324219 308.941406 463.121094 C 308.941406 459.921875 311.535156 457.324219 314.734375 457.324219 C 317.9375 457.324219 320.53125 459.921875 320.53125 463.121094 C 320.53125 466.324219 317.9375 468.917969 314.734375 468.917969 " fill-opacity="1" fill-rule="nonzero"/><path fill="#bab195" d="M 308.222656 454.425781 C 305.457031 454.425781 303.214844 452.175781 303.214844 449.410156 C 303.214844 446.640625 305.457031 444.394531 308.222656 444.394531 C 310.996094 444.394531 313.238281 446.640625 313.238281 449.410156 C 313.238281 452.175781 310.996094 454.425781 308.222656 454.425781 " fill-opacity="1" fill-rule="nonzero"/><path fill="#bab195" d="M 298.964844 441.269531 C 296.832031 441.269531 295.097656 439.53125 295.097656 437.402344 C 295.097656 435.261719 296.832031 433.523438 298.964844 433.523438 C 301.105469 433.523438 302.832031 435.261719 302.832031 437.402344 C 302.832031 439.53125 301.105469 441.269531 298.964844 441.269531 " fill-opacity="1" fill-rule="nonzero"/><path fill="#bab195" d="M 287.203125 430.09375 C 285.949219 430.09375 284.941406 429.082031 284.941406 427.832031 C 284.941406 426.582031 285.949219 425.5625 287.203125 425.5625 C 288.453125 425.5625 289.46875 426.582031 289.46875 427.832031 C 289.46875 429.082031 288.453125 430.09375 287.203125 430.09375 " fill-opacity="1" fill-rule="nonzero"/><path fill="#bab195" d="M 465.816406 568.242188 C 464.574219 568.242188 463.570312 567.230469 463.570312 565.984375 C 463.570312 564.742188 464.574219 563.730469 465.816406 563.730469 C 467.058594 563.730469 468.070312 564.742188 468.070312 565.984375 C 468.070312 567.230469 467.058594 568.242188 465.816406 568.242188 " fill-opacity="1" fill-rule="nonzero"/><path fill="#bab195" d="M 472.164062 556.042969 C 470.039062 556.042969 468.308594 554.3125 468.308594 552.1875 C 468.308594 550.058594 470.039062 548.332031 472.164062 548.332031 C 474.289062 548.332031 476.015625 550.058594 476.015625 552.1875 C 476.015625 554.3125 474.289062 556.042969 472.164062 556.042969 " fill-opacity="1" fill-rule="nonzero"/><path fill="#bab195" d="M 476.480469 542.617188 C 473.71875 542.617188 471.488281 540.382812 471.488281 537.621094 C 471.488281 534.859375 473.71875 532.625 476.480469 532.625 C 479.242188 532.625 481.472656 534.859375 481.472656 537.621094 C 481.472656 540.382812 479.242188 542.617188 476.480469 542.617188 " fill-opacity="1" fill-rule="nonzero"/><path fill="#bab195" d="M 479.417969 528.488281 C 476.226562 528.488281 473.636719 525.898438 473.636719 522.707031 C 473.636719 519.515625 476.226562 516.925781 479.417969 516.925781 C 482.609375 516.925781 485.199219 519.515625 485.199219 522.707031 C 485.199219 525.898438 482.609375 528.488281 479.417969 528.488281 " fill-opacity="1" fill-rule="nonzero"/><path fill="#bab195" d="M 481.652344 513.882812 C 478.222656 513.882812 475.441406 511.101562 475.441406 507.671875 C 475.441406 504.238281 478.222656 501.457031 481.652344 501.457031 C 485.082031 501.457031 487.863281 504.238281 487.863281 507.671875 C 487.863281 511.101562 485.082031 513.882812 481.652344 513.882812 " fill-opacity="1" fill-rule="nonzero"/><path fill="#bab195" d="M 483.84375 499.003906 C 480.328125 499.003906 477.472656 496.152344 477.472656 492.625 C 477.472656 489.105469 480.328125 486.25 483.84375 486.25 C 487.363281 486.25 490.21875 489.105469 490.21875 492.625 C 490.21875 496.152344 487.363281 499.003906 483.84375 499.003906 " fill-opacity="1" fill-rule="nonzero"/><path fill="#bab195" d="M 486.6875 483.917969 C 483.25 483.917969 480.46875 481.136719 480.46875 477.699219 C 480.46875 474.261719 483.25 471.472656 486.6875 471.472656 C 490.125 471.472656 492.910156 474.261719 492.910156 477.699219 C 492.910156 481.136719 490.125 483.917969 486.6875 483.917969 " fill-opacity="1" fill-rule="nonzero"/><path fill="#bab195" d="M 490.957031 468.917969 C 487.757812 468.917969 485.164062 466.324219 485.164062 463.121094 C 485.164062 459.921875 487.757812 457.324219 490.957031 457.324219 C 494.160156 457.324219 496.75 459.921875 496.75 463.121094 C 496.75 466.324219 494.160156 468.917969 490.957031 468.917969 " fill-opacity="1" fill-rule="nonzero"/><path fill="#bab195" d="M 497.46875 454.425781 C 494.699219 454.425781 492.460938 452.175781 492.460938 449.410156 C 492.460938 446.640625 494.699219 444.394531 497.46875 444.394531 C 500.242188 444.394531 502.480469 446.640625 502.480469 449.410156 C 502.480469 452.175781 500.242188 454.425781 497.46875 454.425781 " fill-opacity="1" fill-rule="nonzero"/><path fill="#bab195" d="M 506.730469 441.269531 C 504.59375 441.269531 502.863281 439.53125 502.863281 437.402344 C 502.863281 435.261719 504.59375 433.523438 506.730469 433.523438 C 508.863281 433.523438 510.597656 435.261719 510.597656 437.402344 C 510.597656 439.53125 508.863281 441.269531 506.730469 441.269531 " fill-opacity="1" fill-rule="nonzero"/><path fill="#bab195" d="M 518.488281 430.09375 C 517.238281 430.09375 516.226562 429.082031 516.226562 427.832031 C 516.226562 426.582031 517.238281 425.5625 518.488281 425.5625 C 519.738281 425.5625 520.757812 426.582031 520.757812 427.832031 C 520.757812 429.082031 519.738281 430.09375 518.488281 430.09375 " fill-opacity="1" fill-rule="nonzero"/><path fill="#bab195" d="M 303.527344 382.066406 C 303.042969 382.214844 302.503906 382.242188 301.902344 382.09375 C 300.09375 381.628906 298.296875 381.101562 296.492188 380.59375 C 295.746094 381.695312 295.144531 382.933594 294.738281 384.3125 C 292.316406 392.441406 297.148438 402.144531 305.523438 406.007812 C 313.90625 409.863281 322.65625 406.402344 325.074219 398.292969 C 325.316406 397.472656 325.464844 396.636719 325.566406 395.796875 C 318.785156 388.996094 312.601562 383.253906 303.527344 382.066406 " fill-opacity="1" fill-rule="nonzero"/><path fill="#bab195" d="M 390.238281 564.78125 C 390.238281 564.78125 389.773438 564.671875 388.988281 564.476562 C 388.589844 564.378906 388.113281 564.25 387.578125 564.097656 C 387.039062 563.941406 386.417969 563.792969 385.769531 563.585938 C 384.457031 563.191406 382.925781 562.746094 381.328125 562.226562 C 379.730469 561.707031 378.078125 561.097656 376.449219 560.476562 C 375.636719 560.167969 374.75 559.984375 373.867188 559.808594 C 372.992188 559.648438 372.152344 559.453125 371.492188 559.0625 C 370.820312 558.691406 370.300781 558.105469 369.863281 557.511719 C 369.433594 556.910156 369.050781 556.234375 368.765625 555.578125 C 368.464844 554.949219 368.21875 554.210938 368.039062 553.582031 C 367.855469 552.957031 367.710938 552.269531 367.609375 551.722656 C 367.386719 550.476562 367.253906 549.765625 367.253906 549.765625 L 367.683594 548.542969 C 367.683594 548.542969 367.847656 548.425781 368.15625 548.214844 C 368.472656 548.003906 368.929688 547.75 369.53125 547.503906 C 370.109375 547.265625 370.78125 547.011719 371.539062 546.863281 C 372.316406 546.691406 373.082031 546.582031 373.921875 546.566406 C 374.777344 546.539062 375.574219 546.621094 376.421875 546.785156 C 377.261719 546.949219 378.054688 547.230469 378.757812 547.722656 C 379.464844 548.203125 380.023438 548.933594 380.578125 549.707031 C 381.109375 550.484375 381.65625 551.261719 382.277344 551.925781 C 383.507812 553.265625 384.695312 554.632812 385.742188 555.992188 C 386.792969 557.351562 387.722656 558.671875 388.515625 559.800781 C 388.917969 560.359375 389.253906 560.914062 389.566406 561.386719 C 389.882812 561.851562 390.140625 562.273438 390.351562 562.628906 C 390.785156 563.328125 390.238281 564.78125 390.238281 564.78125 " fill-opacity="1" fill-rule="nonzero"/><path fill="#bab195" d="M 502.167969 382.066406 C 502.652344 382.214844 503.191406 382.242188 503.792969 382.09375 C 505.605469 381.628906 507.402344 381.101562 509.199219 380.59375 C 509.949219 381.695312 510.550781 382.933594 510.960938 384.3125 C 513.378906 392.441406 508.546875 402.144531 500.171875 406.007812 C 491.789062 409.863281 483.039062 406.402344 480.621094 398.292969 C 480.382812 397.472656 480.230469 396.636719 480.128906 395.796875 C 486.914062 388.996094 493.09375 383.253906 502.167969 382.066406 " fill-opacity="1" fill-rule="nonzero"/><path fill="#bab195" d="M 415.460938 564.78125 C 415.460938 564.78125 415.925781 564.671875 416.710938 564.476562 C 417.105469 564.378906 417.578125 564.25 418.117188 564.097656 C 418.65625 563.941406 419.277344 563.792969 419.925781 563.585938 C 421.230469 563.191406 422.761719 562.746094 424.359375 562.226562 C 425.960938 561.707031 427.621094 561.097656 429.246094 560.476562 C 430.058594 560.167969 430.945312 559.984375 431.828125 559.808594 C 432.703125 559.648438 433.535156 559.453125 434.207031 559.0625 C 434.875 558.691406 435.394531 558.105469 435.832031 557.511719 C 436.261719 556.910156 436.644531 556.234375 436.929688 555.578125 C 437.230469 554.949219 437.476562 554.210938 437.65625 553.582031 C 437.839844 552.957031 437.976562 552.269531 438.085938 551.722656 C 438.3125 550.476562 438.441406 549.765625 438.441406 549.765625 L 438.011719 548.542969 C 438.011719 548.542969 437.847656 548.425781 437.539062 548.214844 C 437.226562 548.003906 436.769531 547.75 436.167969 547.503906 C 435.585938 547.265625 434.917969 547.011719 434.15625 546.863281 C 433.378906 546.691406 432.613281 546.582031 431.773438 546.566406 C 430.917969 546.539062 430.121094 546.621094 429.273438 546.785156 C 428.433594 546.949219 427.640625 547.230469 426.9375 547.722656 C 426.234375 548.203125 425.671875 548.933594 425.121094 549.707031 C 424.578125 550.484375 424.035156 551.261719 423.417969 551.925781 C 422.1875 553.265625 421 554.632812 419.949219 555.992188 C 418.902344 557.351562 417.972656 558.671875 417.179688 559.800781 C 416.777344 560.359375 416.441406 560.914062 416.128906 561.386719 C 415.816406 561.851562 415.546875 562.273438 415.34375 562.628906 C 414.914062 563.328125 415.460938 564.78125 415.460938 564.78125 " fill-opacity="1" fill-rule="nonzero"/><path fill="#bab195" d="M 432.027344 361.3125 C 432.027344 345.144531 418.867188 331.984375 402.699219 331.984375 C 386.527344 331.984375 373.375 345.144531 373.375 361.3125 C 373.375 377.492188 386.527344 390.648438 402.699219 390.648438 C 418.867188 390.648438 432.027344 377.492188 432.027344 361.3125 Z M 458.9375 296.738281 L 454.359375 324.78125 L 449.113281 323.921875 L 451.351562 310.203125 L 428.46875 338.191406 C 433.980469 344.335938 437.335938 352.4375 437.335938 361.3125 C 437.335938 380.425781 421.792969 395.96875 402.699219 395.96875 C 383.609375 395.96875 368.0625 380.425781 368.0625 361.3125 C 368.0625 342.210938 383.609375 326.667969 402.699219 326.667969 C 411.011719 326.667969 418.636719 329.613281 424.621094 334.507812 L 447.242188 306.832031 L 434.253906 311.753906 L 432.375 306.785156 L 458.9375 296.738281 " fill-opacity="1" fill-rule="nonzero"/><path fill="#bab195" d="M 411.140625 214.992188 L 423.507812 206.003906 L 408.21875 206.003906 L 403.496094 191.460938 L 398.777344 206.003906 L 383.480469 206.003906 L 395.851562 214.992188 L 391.125 229.542969 L 403.496094 220.554688 L 415.863281 229.542969 Z M 439.871094 200.6875 L 417.394531 217.03125 L 425.972656 243.472656 L 403.496094 227.132812 L 381.015625 243.472656 L 389.59375 217.03125 L 367.117188 200.6875 L 394.902344 200.6875 L 403.496094 174.25 L 412.085938 200.6875 L 439.871094 200.6875 " fill-opacity="1" fill-rule="nonzero"/><g clip-path="url(#a4fe7f3f4d)"><path fill="#bab195" d="M 411.140625 703.113281 L 423.507812 694.113281 L 408.21875 694.113281 L 403.496094 679.574219 L 398.777344 694.113281 L 383.480469 694.113281 L 395.851562 703.113281 L 391.125 717.660156 L 403.496094 708.671875 L 415.863281 717.660156 Z M 439.871094 688.796875 L 417.394531 705.144531 L 425.972656 731.582031 L 403.496094 715.238281 L 381.015625 731.582031 L 389.59375 705.144531 L 367.117188 688.796875 L 394.902344 688.796875 L 403.496094 662.359375 L 412.085938 688.796875 L 439.871094 688.796875 " fill-opacity="1" fill-rule="nonzero"/></g><path fill="#bab195" d="M 553.324219 131.769531 L 558.945312 130.226562 L 553.480469 128.183594 L 556.800781 123.382812 L 551.300781 125.339844 L 550.761719 119.523438 L 547.804688 124.566406 L 543.644531 120.457031 L 544.625 126.214844 L 538.800781 125.75 L 543.238281 129.523438 L 538.492188 132.90625 L 544.324219 132.945312 L 542.851562 138.597656 L 547.34375 134.875 L 549.847656 140.148438 L 550.898438 134.410156 L 556.207031 136.84375 Z M 576.25 130.992188 L 561.324219 135.085938 L 568.96875 148.558594 L 554.894531 142.097656 L 552.101562 157.332031 L 545.46875 143.335938 L 533.53125 153.203125 L 537.445312 138.214844 L 521.964844 138.105469 L 534.597656 129.140625 L 522.804688 119.097656 L 538.230469 120.363281 L 535.664062 105.085938 L 546.675781 115.96875 L 554.511719 102.605469 L 555.960938 118.03125 L 570.546875 112.84375 L 561.746094 125.585938 L 576.25 130.992188 " fill-opacity="1" fill-rule="nonzero"/><path fill="#bab195" d="M 493.859375 182.046875 L 474.347656 178.589844 L 493.859375 175.136719 L 497.308594 155.625 L 500.761719 175.136719 L 520.273438 178.589844 L 500.761719 182.046875 L 497.308594 201.5625 L 493.859375 182.046875 " fill-opacity="1" fill-rule="nonzero"/><path fill="#bab195" d="M 339.53125 85.738281 C 335.679688 85.738281 332.550781 88.875 332.550781 92.722656 C 332.550781 96.570312 335.679688 99.707031 339.53125 99.707031 C 343.378906 99.707031 346.515625 96.570312 346.515625 92.722656 C 346.515625 88.875 343.378906 85.738281 339.53125 85.738281 Z M 339.53125 103.964844 C 333.335938 103.964844 328.292969 98.921875 328.292969 92.722656 C 328.292969 86.523438 333.335938 81.480469 339.53125 81.480469 C 345.726562 81.480469 350.761719 86.523438 350.761719 92.722656 C 350.761719 98.921875 345.726562 103.964844 339.53125 103.964844 " fill-opacity="1" fill-rule="nonzero"/><path fill="#bab195" d="M 183.195312 168.417969 C 179.347656 168.417969 176.214844 171.550781 176.214844 175.40625 C 176.214844 179.253906 179.347656 182.382812 183.195312 182.382812 C 187.046875 182.382812 190.175781 179.253906 190.175781 175.40625 C 190.175781 171.550781 187.046875 168.417969 183.195312 168.417969 Z M 183.195312 186.640625 C 177 186.640625 171.964844 181.597656 171.964844 175.40625 C 171.964844 169.207031 177 164.160156 183.195312 164.160156 C 189.390625 164.160156 194.433594 169.207031 194.433594 175.40625 C 194.433594 181.597656 189.390625 186.640625 183.195312 186.640625 " fill-opacity="1" fill-rule="nonzero"/><path fill="#bab195" d="M 262.675781 132.945312 L 268.507812 132.90625 L 263.746094 129.523438 L 268.195312 125.75 L 262.375 126.214844 L 263.34375 120.457031 L 259.183594 124.566406 L 256.238281 119.523438 L 255.6875 125.339844 L 250.1875 123.382812 L 253.507812 128.183594 L 248.042969 130.226562 L 253.664062 131.769531 L 250.789062 136.84375 L 256.089844 134.410156 L 257.148438 140.148438 L 259.640625 134.875 L 264.144531 138.597656 Z M 285.027344 138.105469 L 269.542969 138.214844 L 273.457031 153.203125 L 261.527344 143.335938 L 254.902344 157.332031 L 252.105469 142.097656 L 238.027344 148.558594 L 245.671875 135.085938 L 230.742188 130.992188 L 245.253906 125.585938 L 236.457031 112.84375 L 251.042969 118.03125 L 252.476562 102.605469 L 260.3125 115.96875 L 271.332031 105.085938 L 268.753906 120.363281 L 284.1875 119.097656 L 272.390625 129.140625 L 285.027344 138.105469 " fill-opacity="1" fill-rule="nonzero"/><path fill="#bab195" d="M 313.132812 182.046875 L 332.644531 178.589844 L 313.132812 175.136719 L 309.683594 155.625 L 306.226562 175.136719 L 286.722656 178.589844 L 306.226562 182.046875 L 309.683594 201.5625 L 313.132812 182.046875 " fill-opacity="1" fill-rule="nonzero"/><path fill="#bab195" d="M 558.960938 582.179688 L 567.253906 576.136719 L 556.992188 576.136719 L 553.820312 566.375 L 550.652344 576.136719 L 540.390625 576.136719 L 548.699219 582.179688 L 545.527344 591.929688 L 553.820312 585.894531 L 562.128906 591.929688 Z M 583.621094 570.8125 L 565.210938 584.207031 L 572.242188 605.855469 L 553.820312 592.472656 L 535.417969 605.855469 L 542.445312 584.207031 L 524.027344 570.8125 L 546.792969 570.8125 L 553.820312 549.164062 L 560.867188 570.8125 L 583.621094 570.8125 " fill-opacity="1" fill-rule="nonzero"/><path fill="#bab195" d="M 666.175781 551.207031 L 674.714844 548.863281 L 666.410156 545.769531 L 671.449219 538.480469 L 663.109375 541.449219 L 662.28125 532.632812 L 657.800781 540.265625 L 651.5 534.046875 L 652.96875 542.78125 L 644.144531 542.070312 L 650.886719 547.8125 L 643.664062 552.9375 L 652.527344 552.992188 L 650.277344 561.570312 L 657.105469 555.933594 L 660.902344 563.929688 L 662.5 555.214844 L 670.546875 558.917969 Z M 692.011719 549.628906 L 674.175781 554.523438 L 683.308594 570.621094 L 666.496094 562.910156 L 663.148438 581.113281 L 655.226562 564.378906 L 640.96875 576.183594 L 645.648438 558.269531 L 627.140625 558.132812 L 642.238281 547.429688 L 628.152344 535.425781 L 646.589844 536.929688 L 643.507812 518.675781 L 656.671875 531.6875 L 666.039062 515.714844 L 667.761719 534.148438 L 685.203125 527.941406 L 674.675781 543.171875 L 692.011719 549.628906 " fill-opacity="1" fill-rule="nonzero"/><path fill="#bab195" d="M 411.96875 117.484375 L 420.507812 115.140625 L 412.199219 112.050781 L 417.242188 104.757812 L 408.894531 107.730469 L 408.074219 98.910156 L 403.585938 106.550781 L 397.292969 100.324219 L 398.761719 109.058594 L 389.9375 108.347656 L 396.679688 114.09375 L 389.457031 119.222656 L 398.320312 119.269531 L 396.070312 127.847656 L 402.894531 122.207031 L 406.695312 130.210938 L 408.292969 121.496094 L 416.339844 125.195312 Z M 437.804688 115.914062 L 419.96875 120.808594 L 429.101562 136.902344 L 412.289062 129.1875 L 408.941406 147.386719 L 401.015625 130.65625 L 386.753906 142.46875 L 391.4375 124.546875 L 372.933594 124.410156 L 388.03125 113.707031 L 373.941406 101.710938 L 392.382812 103.207031 L 389.300781 84.953125 L 402.464844 97.964844 L 411.832031 81.992188 L 413.554688 100.433594 L 430.996094 94.21875 L 420.46875 109.453125 L 437.804688 115.914062 " fill-opacity="1" fill-rule="nonzero"/><path fill="#bab195" d="M 572.089844 495.386719 L 554.613281 492.292969 L 572.089844 489.203125 L 575.179688 471.71875 L 578.273438 489.203125 L 595.75 492.292969 L 578.273438 495.386719 L 575.179688 512.863281 L 572.089844 495.386719 " fill-opacity="1" fill-rule="nonzero"/><path fill="#bab195" d="M 517.0625 693.851562 L 495.109375 689.964844 L 517.0625 686.082031 L 520.941406 664.121094 L 524.828125 686.082031 L 546.773438 689.964844 L 524.828125 693.851562 L 520.941406 715.808594 L 517.0625 693.851562 " fill-opacity="1" fill-rule="nonzero"/><path fill="#bab195" d="M 199.679688 634.464844 C 195.835938 634.464844 192.699219 637.601562 192.699219 641.449219 C 192.699219 645.304688 195.835938 648.433594 199.679688 648.433594 C 203.535156 648.433594 206.664062 645.304688 206.664062 641.449219 C 206.664062 637.601562 203.535156 634.464844 199.679688 634.464844 Z M 199.679688 652.695312 C 193.492188 652.695312 188.449219 647.648438 188.449219 641.449219 C 188.449219 635.257812 193.492188 630.214844 199.679688 630.214844 C 205.875 630.214844 210.917969 635.257812 210.917969 641.449219 C 210.917969 647.648438 205.875 652.695312 199.679688 652.695312 " fill-opacity="1" fill-rule="nonzero"/><path fill="#bab195" d="M 349.5625 639.324219 C 345.714844 639.324219 342.578125 642.460938 342.578125 646.308594 C 342.578125 650.164062 345.714844 653.296875 349.5625 653.296875 C 353.414062 653.296875 356.542969 650.164062 356.542969 646.308594 C 356.542969 642.460938 353.414062 639.324219 349.5625 639.324219 Z M 349.5625 657.554688 C 343.363281 657.554688 338.328125 652.507812 338.328125 646.308594 C 338.328125 640.109375 343.363281 635.074219 349.5625 635.074219 C 355.757812 635.074219 360.800781 640.109375 360.800781 646.308594 C 360.800781 652.507812 355.757812 657.554688 349.5625 657.554688 " fill-opacity="1" fill-rule="nonzero"/><path fill="#bab195" d="M 467.460938 85.738281 C 463.609375 85.738281 460.480469 88.875 460.480469 92.722656 C 460.480469 96.570312 463.609375 99.707031 467.460938 99.707031 C 471.308594 99.707031 474.445312 96.570312 474.445312 92.722656 C 474.445312 88.875 471.308594 85.738281 467.460938 85.738281 Z M 467.460938 103.964844 C 461.265625 103.964844 456.222656 98.921875 456.222656 92.722656 C 456.222656 86.523438 461.265625 81.480469 467.460938 81.480469 C 473.652344 81.480469 478.695312 86.523438 478.695312 92.722656 C 478.695312 98.921875 473.652344 103.964844 467.460938 103.964844 " fill-opacity="1" fill-rule="nonzero"/><path fill="#bab195" d="M 623.792969 168.417969 C 619.945312 168.417969 616.808594 171.550781 616.808594 175.40625 C 616.808594 179.253906 619.945312 182.382812 623.792969 182.382812 C 627.644531 182.382812 630.773438 179.253906 630.773438 175.40625 C 630.773438 171.550781 627.644531 168.417969 623.792969 168.417969 Z M 623.792969 186.640625 C 617.597656 186.640625 612.5625 181.597656 612.5625 175.40625 C 612.5625 169.207031 617.597656 164.160156 623.792969 164.160156 C 629.988281 164.160156 635.03125 169.207031 635.03125 175.40625 C 635.03125 181.597656 629.988281 186.640625 623.792969 186.640625 " fill-opacity="1" fill-rule="nonzero"/><path fill="#bab195" d="M 607.308594 634.464844 C 603.460938 634.464844 600.324219 637.601562 600.324219 641.449219 C 600.324219 645.304688 603.460938 648.433594 607.308594 648.433594 C 611.160156 648.433594 614.289062 645.304688 614.289062 641.449219 C 614.289062 637.601562 611.160156 634.464844 607.308594 634.464844 Z M 607.308594 652.695312 C 601.109375 652.695312 596.074219 647.648438 596.074219 641.449219 C 596.074219 635.257812 601.109375 630.214844 607.308594 630.214844 C 613.503906 630.214844 618.546875 635.257812 618.546875 641.449219 C 618.546875 647.648438 613.503906 652.695312 607.308594 652.695312 " fill-opacity="1" fill-rule="nonzero"/><path fill="#bab195" d="M 457.425781 639.324219 C 453.582031 639.324219 450.445312 642.460938 450.445312 646.308594 C 450.445312 650.164062 453.582031 653.296875 457.425781 653.296875 C 461.28125 653.296875 464.410156 650.164062 464.410156 646.308594 C 464.410156 642.460938 461.28125 639.324219 457.425781 639.324219 Z M 457.425781 657.554688 C 451.230469 657.554688 446.195312 652.507812 446.195312 646.308594 C 446.195312 640.109375 451.230469 635.074219 457.425781 635.074219 C 463.621094 635.074219 468.664062 640.109375 468.664062 646.308594 C 468.664062 652.507812 463.621094 657.554688 457.425781 657.554688 " fill-opacity="1" fill-rule="nonzero"/><path fill="#bab195" d="M 260.421875 582.179688 L 268.726562 576.136719 L 258.46875 576.136719 L 255.296875 566.375 L 252.128906 576.136719 L 241.867188 576.136719 L 250.160156 582.179688 L 246.988281 591.929688 L 255.296875 585.894531 L 263.589844 591.929688 Z M 285.089844 570.8125 L 266.671875 584.207031 L 273.703125 605.855469 L 255.296875 592.472656 L 236.878906 605.855469 L 243.914062 584.207031 L 225.496094 570.8125 L 248.253906 570.8125 L 255.296875 549.164062 L 262.328125 570.8125 L 285.089844 570.8125 " fill-opacity="1" fill-rule="nonzero"/><path fill="#bab195" d="M 154.46875 552.992188 L 163.320312 552.9375 L 156.109375 547.8125 L 162.84375 542.070312 L 154.015625 542.78125 L 155.5 534.046875 L 149.195312 540.265625 L 144.707031 532.632812 L 143.886719 541.449219 L 135.539062 538.480469 L 140.578125 545.769531 L 132.273438 548.863281 L 140.8125 551.207031 L 136.445312 558.917969 L 144.492188 555.214844 L 146.097656 563.929688 L 149.882812 555.933594 L 156.707031 561.570312 Z M 179.847656 558.132812 L 161.347656 558.269531 L 166.027344 576.183594 L 151.761719 564.378906 L 143.84375 581.113281 L 140.496094 562.910156 L 123.683594 570.621094 L 132.820312 554.523438 L 114.972656 549.628906 L 132.320312 543.171875 L 121.792969 527.941406 L 139.226562 534.148438 L 140.949219 515.714844 L 150.320312 531.6875 L 163.484375 518.675781 L 160.398438 536.929688 L 178.835938 535.425781 L 164.75 547.429688 L 179.847656 558.132812 " fill-opacity="1" fill-rule="nonzero"/><path fill="#bab195" d="M 234.90625 495.386719 L 252.378906 492.292969 L 234.90625 489.203125 L 231.808594 471.71875 L 228.722656 489.203125 L 211.246094 492.292969 L 228.722656 495.386719 L 231.808594 512.863281 L 234.90625 495.386719 " fill-opacity="1" fill-rule="nonzero"/><path fill="#bab195" d="M 289.933594 693.851562 L 311.878906 689.964844 L 289.933594 686.082031 L 286.046875 664.121094 L 282.167969 686.082031 L 260.214844 689.964844 L 282.167969 693.851562 L 286.046875 715.808594 L 289.933594 693.851562 " fill-opacity="1" fill-rule="nonzero"/></svg>